<svg width="1280" height="534" viewBox="0 0 1280 534" fill="none" xmlns="http://www.w3.org/2000/svg">
<rect x="42" y="466" width="144" height="40" rx="20" fill="black" fill-opacity="0.25"/>
<path d="M61.4091 492V480.364H65.4773C66.2879 480.364 66.9564 480.504 67.483 480.784C68.0095 481.061 68.4015 481.434 68.6591 481.903C68.9167 482.369 69.0455 482.886 69.0455 483.455C69.0455 483.955 68.9564 484.367 68.7784 484.693C68.6042 485.019 68.3731 485.277 68.0852 485.466C67.8011 485.655 67.4924 485.795 67.1591 485.886V486C67.5152 486.023 67.8731 486.148 68.233 486.375C68.5928 486.602 68.8939 486.928 69.1364 487.352C69.3788 487.777 69.5 488.295 69.5 488.909C69.5 489.492 69.3674 490.017 69.1023 490.483C68.8371 490.949 68.4186 491.318 67.8466 491.591C67.2746 491.864 66.5303 492 65.6136 492H61.4091ZM62.8182 490.75H65.6136C66.5341 490.75 67.1875 490.572 67.5739 490.216C67.964 489.856 68.1591 489.42 68.1591 488.909C68.1591 488.515 68.0587 488.152 67.858 487.818C67.6572 487.481 67.3712 487.212 67 487.011C66.6288 486.807 66.1894 486.705 65.6818 486.705H62.8182V490.75ZM62.8182 485.477H65.4318C65.8561 485.477 66.2386 485.394 66.5795 485.227C66.9242 485.061 67.197 484.826 67.3977 484.523C67.6023 484.22 67.7045 483.864 67.7045 483.455C67.7045 482.943 67.5265 482.509 67.1705 482.153C66.8144 481.794 66.25 481.614 65.4773 481.614H62.8182V485.477ZM72.9744 490.023L77.179 483.273H78.7244V492H77.3835V485.25L73.2017 492H71.6335V483.273H72.9744V490.023ZM80.2486 494.5V490.75H80.9759C81.1539 490.564 81.3073 490.364 81.4361 490.148C81.5649 489.932 81.6766 489.676 81.7713 489.381C81.8698 489.081 81.9531 488.718 82.0213 488.29C82.0895 487.858 82.1501 487.337 82.2031 486.727L82.4986 483.273H88.044V490.75H89.3849V494.5H88.044V492H81.5895V494.5H80.2486ZM82.4986 490.75H86.7031V484.523H83.7486L83.5213 486.727C83.4266 487.64 83.3092 488.437 83.169 489.119C83.0289 489.801 82.8054 490.345 82.4986 490.75ZM94.8239 492.182C93.983 492.182 93.2576 491.996 92.6477 491.625C92.0417 491.25 91.5739 490.727 91.2443 490.057C90.9186 489.383 90.7557 488.598 90.7557 487.705C90.7557 486.811 90.9186 486.023 91.2443 485.341C91.5739 484.655 92.0322 484.121 92.6193 483.739C93.2102 483.352 93.8996 483.159 94.6875 483.159C95.142 483.159 95.5909 483.235 96.0341 483.386C96.4773 483.538 96.8807 483.784 97.2443 484.125C97.608 484.462 97.8977 484.909 98.1136 485.466C98.3295 486.023 98.4375 486.708 98.4375 487.523V488.091H91.7102V486.932H97.0739C97.0739 486.439 96.9754 486 96.7784 485.614C96.5852 485.227 96.3087 484.922 95.9489 484.699C95.5928 484.475 95.1723 484.364 94.6875 484.364C94.1534 484.364 93.6913 484.496 93.3011 484.761C92.9148 485.023 92.6174 485.364 92.4091 485.784C92.2008 486.205 92.0966 486.655 92.0966 487.136V487.909C92.0966 488.568 92.2102 489.127 92.4375 489.585C92.6686 490.04 92.9886 490.386 93.3977 490.625C93.8068 490.86 94.2822 490.977 94.8239 490.977C95.1761 490.977 95.4943 490.928 95.7784 490.83C96.0663 490.727 96.3144 490.576 96.5227 490.375C96.7311 490.17 96.892 489.917 97.0057 489.614L98.3011 489.977C98.1648 490.417 97.9356 490.803 97.6136 491.136C97.2917 491.466 96.8939 491.723 96.4205 491.909C95.947 492.091 95.4148 492.182 94.8239 492.182ZM104.023 492.182C103.235 492.182 102.544 491.994 101.949 491.619C101.358 491.244 100.896 490.72 100.562 490.045C100.233 489.371 100.068 488.583 100.068 487.682C100.068 486.773 100.233 485.979 100.562 485.301C100.896 484.623 101.358 484.097 101.949 483.722C102.544 483.347 103.235 483.159 104.023 483.159C104.811 483.159 105.5 483.347 106.091 483.722C106.686 484.097 107.148 484.623 107.477 485.301C107.811 485.979 107.977 486.773 107.977 487.682C107.977 488.583 107.811 489.371 107.477 490.045C107.148 490.72 106.686 491.244 106.091 491.619C105.5 491.994 104.811 492.182 104.023 492.182ZM104.023 490.977C104.621 490.977 105.114 490.824 105.5 490.517C105.886 490.21 106.172 489.807 106.358 489.307C106.544 488.807 106.636 488.265 106.636 487.682C106.636 487.098 106.544 486.555 106.358 486.051C106.172 485.547 105.886 485.14 105.5 484.83C105.114 484.519 104.621 484.364 104.023 484.364C103.424 484.364 102.932 484.519 102.545 484.83C102.159 485.14 101.873 485.547 101.688 486.051C101.502 486.555 101.409 487.098 101.409 487.682C101.409 488.265 101.502 488.807 101.688 489.307C101.873 489.807 102.159 490.21 102.545 490.517C102.932 490.824 103.424 490.977 104.023 490.977ZM117.553 483.511C118.03 483.511 118.464 483.58 118.854 483.716C119.248 483.852 119.6 484.027 119.911 484.239C120.221 484.447 120.494 484.661 120.729 484.881C120.816 484.964 120.892 485.04 120.956 485.108C121.024 485.176 121.092 485.25 121.161 485.33C121.225 485.25 121.289 485.176 121.354 485.108C121.422 485.036 121.498 484.96 121.581 484.881C121.941 484.544 122.388 484.231 122.922 483.943C123.46 483.655 124.075 483.511 124.768 483.511C125.435 483.511 126.041 483.672 126.587 483.994C127.136 484.312 127.573 484.741 127.899 485.278C128.225 485.812 128.388 486.402 128.388 487.045C128.388 487.534 128.293 487.992 128.104 488.42C127.918 488.845 127.659 489.22 127.325 489.545C126.996 489.867 126.611 490.121 126.172 490.307C125.736 490.489 125.268 490.58 124.768 490.58C124.299 490.58 123.869 490.513 123.479 490.381C123.089 490.248 122.738 490.081 122.428 489.881C122.117 489.676 121.844 489.468 121.609 489.256C121.507 489.161 121.422 489.08 121.354 489.011C121.289 488.939 121.225 488.864 121.161 488.784C121.085 488.871 121.013 488.949 120.945 489.017C120.88 489.085 120.804 489.165 120.717 489.256C120.49 489.46 120.221 489.665 119.911 489.869C119.6 490.07 119.248 490.239 118.854 490.375C118.464 490.511 118.03 490.58 117.553 490.58C116.886 490.58 116.28 490.42 115.734 490.102C115.189 489.784 114.753 489.358 114.428 488.824C114.102 488.29 113.939 487.697 113.939 487.045C113.939 486.561 114.032 486.106 114.217 485.682C114.407 485.254 114.666 484.877 114.996 484.551C115.329 484.225 115.714 483.972 116.149 483.79C116.589 483.604 117.056 483.511 117.553 483.511ZM116.064 487.045C116.064 487.311 116.13 487.551 116.263 487.767C116.399 487.979 116.579 488.15 116.803 488.278C117.03 488.403 117.28 488.466 117.553 488.466C117.878 488.466 118.178 488.398 118.45 488.261C118.727 488.125 118.992 487.943 119.246 487.716C119.39 487.583 119.509 487.46 119.604 487.347C119.698 487.233 119.776 487.133 119.837 487.045C119.768 486.958 119.672 486.848 119.547 486.716C119.426 486.58 119.325 486.473 119.246 486.398C119.018 486.182 118.761 486 118.473 485.852C118.185 485.701 117.878 485.625 117.553 485.625C117.28 485.625 117.03 485.691 116.803 485.824C116.579 485.953 116.399 486.125 116.263 486.341C116.13 486.553 116.064 486.788 116.064 487.045ZM126.246 487.045C126.246 486.788 126.179 486.553 126.047 486.341C125.918 486.125 125.742 485.953 125.518 485.824C125.295 485.691 125.045 485.625 124.768 485.625C124.549 485.625 124.337 485.661 124.132 485.733C123.928 485.801 123.736 485.896 123.558 486.017C123.384 486.134 123.225 486.261 123.081 486.398C122.979 486.496 122.869 486.612 122.751 486.744C122.634 486.877 122.547 486.977 122.49 487.045C122.562 487.152 122.645 487.259 122.74 487.369C122.835 487.475 122.948 487.591 123.081 487.716C123.32 487.936 123.577 488.116 123.854 488.256C124.134 488.396 124.439 488.466 124.768 488.466C125.045 488.466 125.295 488.403 125.518 488.278C125.742 488.15 125.918 487.979 126.047 487.767C126.179 487.551 126.246 487.311 126.246 487.045Z" fill="white" fill-opacity="0.8"/>
<path d="M159.5 480.167V491.833M164.5 480.167V491.833M149.5 482.005V489.995C149.5 490.833 149.5 491.252 149.666 491.446C149.81 491.614 150.025 491.704 150.246 491.686C150.5 491.666 150.797 491.37 151.389 490.778L155.384 486.783C155.658 486.509 155.795 486.372 155.846 486.214C155.891 486.075 155.891 485.925 155.846 485.786C155.795 485.628 155.658 485.491 155.384 485.218L151.389 481.223C150.797 480.63 150.5 480.334 150.246 480.314C150.025 480.296 149.81 480.386 149.666 480.554C149.5 480.748 149.5 481.167 149.5 482.005Z" stroke="white" stroke-opacity="0.8" stroke-width="2" stroke-linecap="round" stroke-linejoin="round"/>
</svg>
