<svg width="303" height="70" viewBox="0 0 303 70" fill="none" xmlns="http://www.w3.org/2000/svg">
<g clip-path="url(#clip0_13_31)">
<path d="M1.01136 15V3.36364H3.47159V8.16477H8.46591V3.36364H10.9205V15H8.46591V10.1932H3.47159V15H1.01136ZM15.392 15.1648C14.8352 15.1648 14.339 15.0682 13.9034 14.875C13.4678 14.678 13.1231 14.3883 12.8693 14.0057C12.6193 13.6193 12.4943 13.1383 12.4943 12.5625C12.4943 12.0777 12.5833 11.6705 12.7614 11.3409C12.9394 11.0114 13.1818 10.7462 13.4886 10.5455C13.7955 10.3447 14.1439 10.1932 14.5341 10.0909C14.928 9.98864 15.3409 9.91667 15.7727 9.875C16.2803 9.82197 16.6894 9.77273 17 9.72727C17.3106 9.67803 17.536 9.60606 17.6761 9.51136C17.8163 9.41667 17.8864 9.27652 17.8864 9.09091V9.05682C17.8864 8.69697 17.7727 8.41856 17.5455 8.22159C17.322 8.02462 17.0038 7.92614 16.5909 7.92614C16.1553 7.92614 15.8087 8.02273 15.5511 8.21591C15.2936 8.4053 15.1231 8.64394 15.0398 8.93182L12.8011 8.75C12.9148 8.2197 13.1383 7.76136 13.4716 7.375C13.8049 6.98485 14.2348 6.68561 14.7614 6.47727C15.2917 6.26515 15.9053 6.15909 16.6023 6.15909C17.0871 6.15909 17.5511 6.21591 17.9943 6.32955C18.4413 6.44318 18.8371 6.61932 19.1818 6.85795C19.5303 7.09659 19.8049 7.40341 20.0057 7.77841C20.2064 8.14962 20.3068 8.5947 20.3068 9.11364V15H18.0114V13.7898H17.9432C17.803 14.0625 17.6155 14.303 17.3807 14.5114C17.1458 14.7159 16.8636 14.8769 16.5341 14.9943C16.2045 15.108 15.8239 15.1648 15.392 15.1648ZM16.0852 13.4943C16.4413 13.4943 16.7557 13.4242 17.0284 13.2841C17.3011 13.1402 17.5152 12.947 17.6705 12.7045C17.8258 12.4621 17.9034 12.1875 17.9034 11.8807V10.9545C17.8277 11.0038 17.7235 11.0492 17.5909 11.0909C17.4621 11.1288 17.3163 11.1648 17.1534 11.1989C16.9905 11.2292 16.8277 11.2576 16.6648 11.2841C16.5019 11.3068 16.3542 11.3277 16.2216 11.3466C15.9375 11.3883 15.6894 11.4545 15.4773 11.5455C15.2652 11.6364 15.1004 11.7595 14.983 11.9148C14.8655 12.0663 14.8068 12.2557 14.8068 12.483C14.8068 12.8125 14.9261 13.0644 15.1648 13.2386C15.4072 13.4091 15.714 13.4943 16.0852 13.4943ZM26.1278 15.1705C25.2339 15.1705 24.465 14.9811 23.821 14.6023C23.1809 14.2197 22.6884 13.6894 22.3438 13.0114C22.0028 12.3333 21.8324 11.553 21.8324 10.6705C21.8324 9.77652 22.0047 8.99242 22.3494 8.31818C22.6979 7.64015 23.1922 7.11174 23.8324 6.73295C24.4725 6.35038 25.2339 6.15909 26.1165 6.15909C26.8778 6.15909 27.5445 6.29735 28.1165 6.57386C28.6884 6.85038 29.1411 7.23864 29.4744 7.73864C29.8078 8.23864 29.9915 8.82576 30.0256 9.5H27.7415C27.6771 9.06439 27.5066 8.71401 27.2301 8.44886C26.9574 8.17992 26.5994 8.04545 26.1562 8.04545C25.7812 8.04545 25.4536 8.14773 25.1733 8.35227C24.8968 8.55303 24.6809 8.84659 24.5256 9.23295C24.3703 9.61932 24.2926 10.0871 24.2926 10.6364C24.2926 11.1932 24.3684 11.6667 24.5199 12.0568C24.6752 12.447 24.893 12.7443 25.1733 12.9489C25.4536 13.1534 25.7812 13.2557 26.1562 13.2557C26.4328 13.2557 26.6809 13.1989 26.9006 13.0852C27.1241 12.9716 27.3078 12.8068 27.4517 12.5909C27.5994 12.3712 27.696 12.108 27.7415 11.8011H30.0256C29.9877 12.4678 29.8059 13.0549 29.4801 13.5625C29.1581 14.0663 28.7131 14.4602 28.1449 14.7443C27.5767 15.0284 26.9044 15.1705 26.1278 15.1705ZM30.9801 8.17614V6.27273H38.8892V8.17614H36.0767V15H33.7699V8.17614H30.9801ZM40.3565 18.2727V6.27273H42.7429V7.73864H42.8509C42.9569 7.50379 43.1103 7.26515 43.3111 7.02273C43.5156 6.77652 43.7808 6.57197 44.1065 6.40909C44.4361 6.24242 44.8452 6.15909 45.3338 6.15909C45.9702 6.15909 46.5573 6.32576 47.0952 6.65909C47.633 6.98864 48.063 7.48674 48.3849 8.15341C48.7069 8.81629 48.8679 9.64773 48.8679 10.6477C48.8679 11.6212 48.7107 12.4432 48.3963 13.1136C48.0857 13.7803 47.6615 14.286 47.1236 14.6307C46.5895 14.9716 45.991 15.142 45.3281 15.142C44.8584 15.142 44.4588 15.0644 44.1293 14.9091C43.8035 14.7538 43.5365 14.5587 43.3281 14.3239C43.1198 14.0852 42.9607 13.8447 42.8509 13.6023H42.777V18.2727H40.3565ZM42.7259 10.6364C42.7259 11.1553 42.7978 11.608 42.9418 11.9943C43.0857 12.3807 43.294 12.6818 43.5668 12.8977C43.8395 13.1098 44.1709 13.2159 44.5611 13.2159C44.955 13.2159 45.2884 13.108 45.5611 12.892C45.8338 12.6723 46.0402 12.3693 46.1804 11.983C46.3243 11.5928 46.3963 11.1439 46.3963 10.6364C46.3963 10.1326 46.3262 9.68939 46.1861 9.30682C46.0459 8.92424 45.8395 8.625 45.5668 8.40909C45.294 8.19318 44.9588 8.08523 44.5611 8.08523C44.1671 8.08523 43.8338 8.18939 43.5611 8.39773C43.2921 8.60606 43.0857 8.90151 42.9418 9.28409C42.7978 9.66667 42.7259 10.1174 42.7259 10.6364ZM54.4247 15.1705C53.5421 15.1705 52.7789 14.983 52.1349 14.608C51.4948 14.2292 51.0005 13.7027 50.652 13.0284C50.3035 12.3504 50.1293 11.5644 50.1293 10.6705C50.1293 9.76894 50.3035 8.98106 50.652 8.30682C51.0005 7.62879 51.4948 7.10227 52.1349 6.72727C52.7789 6.34848 53.5421 6.15909 54.4247 6.15909C55.3073 6.15909 56.0687 6.34848 56.7088 6.72727C57.3527 7.10227 57.849 7.62879 58.1974 8.30682C58.5459 8.98106 58.7202 9.76894 58.7202 10.6705C58.7202 11.5644 58.5459 12.3504 58.1974 13.0284C57.849 13.7027 57.3527 14.2292 56.7088 14.608C56.0687 14.983 55.3073 15.1705 54.4247 15.1705ZM54.4361 13.2955C54.8376 13.2955 55.1728 13.1818 55.4418 12.9545C55.7107 12.7235 55.9134 12.4091 56.0497 12.0114C56.1899 11.6136 56.2599 11.161 56.2599 10.6534C56.2599 10.1458 56.1899 9.69318 56.0497 9.29545C55.9134 8.89773 55.7107 8.58333 55.4418 8.35227C55.1728 8.12121 54.8376 8.00568 54.4361 8.00568C54.0308 8.00568 53.6899 8.12121 53.4134 8.35227C53.1406 8.58333 52.9342 8.89773 52.794 9.29545C52.6577 9.69318 52.5895 10.1458 52.5895 10.6534C52.5895 11.161 52.6577 11.6136 52.794 12.0114C52.9342 12.4091 53.1406 12.7235 53.4134 12.9545C53.6899 13.1818 54.0308 13.2955 54.4361 13.2955ZM62.6065 11.8068L65.7486 6.27273H68.1349V15H65.8281V9.44886L62.6974 15H60.294V6.27273H62.6065V11.8068ZM65.3338 3.22727H67.0213C67.0175 3.91667 66.7618 4.47159 66.2543 4.89205C65.7505 5.3125 65.0687 5.52273 64.2088 5.52273C63.3452 5.52273 62.6615 5.3125 62.1577 4.89205C61.6539 4.47159 61.402 3.91667 61.402 3.22727H63.0781C63.0743 3.48864 63.1577 3.72348 63.3281 3.93182C63.5024 4.14015 63.7959 4.24432 64.2088 4.24432C64.6103 4.24432 64.8982 4.14205 65.0724 3.9375C65.2467 3.73295 65.3338 3.49621 65.3338 3.22727ZM70.0753 15V6.27273H72.4957V9.65909H73.1776L75.5526 6.27273H78.3935L75.3082 10.6023L78.4276 15H75.5526L73.3991 11.9034H72.4957V15H70.0753ZM81.7628 11.8068L84.9048 6.27273H87.2912V15H84.9844V9.44886L81.8537 15H79.4503V6.27273H81.7628V11.8068Z" fill="white"/>
<path d="M1.41477 65H0.306818L3.51136 56.2727H4.60227L7.80682 65H6.69886L4.09091 57.6534H4.02273L1.41477 65ZM1.82386 61.5909H6.28977V62.5284H1.82386V61.5909ZM13.4105 61.267V62.2045H9.79688V61.267H13.4105ZM10.0355 58.4545V65H9.02983V58.4545H10.0355ZM14.1776 58.4545V65H13.1719V58.4545H14.1776ZM17.0199 63.517L20.1733 58.4545H21.3324V65H20.3267V59.9375L17.1903 65H16.0142V58.4545H17.0199V63.517ZM26.7539 63.6364L29.038 58.4545H29.9925L27.163 65H26.3448L23.5664 58.4545H24.5039L26.7539 63.6364ZM24.18 58.4545V65H23.1744V58.4545H24.18ZM29.3278 65V58.4545H30.3335V65H29.3278ZM34.1005 65.1534C33.6857 65.1534 33.3093 65.0753 32.9712 64.919C32.6332 64.7599 32.3647 64.5312 32.1658 64.233C31.967 63.9318 31.8675 63.5682 31.8675 63.142C31.8675 62.767 31.9414 62.4631 32.0891 62.2301C32.2369 61.9943 32.4343 61.8097 32.6815 61.6761C32.9286 61.5426 33.2013 61.4432 33.4996 61.3778C33.8008 61.3097 34.1033 61.2557 34.4073 61.2159C34.805 61.1648 35.1275 61.1264 35.3746 61.1009C35.6246 61.0724 35.8065 61.0256 35.9201 60.9602C36.0366 60.8949 36.0948 60.7812 36.0948 60.6193V60.5852C36.0948 60.1648 35.9798 59.8381 35.7496 59.6051C35.5224 59.3722 35.1772 59.2557 34.7141 59.2557C34.234 59.2557 33.8576 59.3608 33.5849 59.571C33.3121 59.7812 33.1204 60.0057 33.0096 60.2443L32.055 59.9034C32.2255 59.5057 32.4528 59.196 32.7369 58.9744C33.0238 58.75 33.3363 58.5937 33.6744 58.5057C34.0153 58.4148 34.3505 58.3693 34.68 58.3693C34.8903 58.3693 35.1317 58.3949 35.4045 58.446C35.68 58.4943 35.9457 58.5952 36.2013 58.7486C36.4599 58.902 36.6744 59.1335 36.8448 59.4432C37.0153 59.7528 37.1005 60.1676 37.1005 60.6875V65H36.0948V64.1136H36.0437C35.9755 64.2557 35.8619 64.4077 35.7028 64.5696C35.5437 64.7315 35.332 64.8693 35.0678 64.983C34.8036 65.0966 34.4812 65.1534 34.1005 65.1534ZM34.2539 64.25C34.6516 64.25 34.9869 64.1719 35.2596 64.0156C35.5352 63.8594 35.7425 63.6577 35.8817 63.4105C36.0238 63.1634 36.0948 62.9034 36.0948 62.6307V61.7102C36.0522 61.7614 35.9585 61.8082 35.8136 61.8509C35.6715 61.8906 35.5067 61.9261 35.3192 61.9574C35.1346 61.9858 34.9542 62.0114 34.7781 62.0341C34.6048 62.054 34.4641 62.071 34.3562 62.0852C34.0948 62.1193 33.8505 62.1747 33.6232 62.2514C33.3988 62.3253 33.217 62.4375 33.0778 62.5881C32.9414 62.7358 32.8732 62.9375 32.8732 63.1932C32.8732 63.5426 33.0025 63.8068 33.261 63.9858C33.5224 64.1619 33.8533 64.25 34.2539 64.25ZM44.0838 58.4545V64.0625H45.0043V67.1136H43.9986V65H38.9361V58.4545H39.9418V64.0625H43.0781V58.4545H44.0838ZM47.5589 63.517L50.7124 58.4545H51.8714V65H50.8658V59.9375L47.7294 65H46.5533V58.4545H47.5589V63.517ZM54.7191 63.517L57.8725 58.4545H59.0316V65H58.0259V59.9375L54.8896 65H53.7134V58.4545H54.7191V63.517Z" fill="white"/>
<path d="M7.58523 32.2727V41H6.52841V33.2102H2.13068V41H1.07386V32.2727H7.58523ZM12.2397 41.1364C11.6488 41.1364 11.1303 40.9957 10.6843 40.7145C10.2411 40.4332 9.89453 40.0398 9.64453 39.5341C9.39737 39.0284 9.27379 38.4375 9.27379 37.7614C9.27379 37.0795 9.39737 36.4844 9.64453 35.9759C9.89453 35.4673 10.2411 35.0724 10.6843 34.7912C11.1303 34.5099 11.6488 34.3693 12.2397 34.3693C12.8306 34.3693 13.3477 34.5099 13.7908 34.7912C14.2369 35.0724 14.5835 35.4673 14.8306 35.9759C15.0806 36.4844 15.2056 37.0795 15.2056 37.7614C15.2056 38.4375 15.0806 39.0284 14.8306 39.5341C14.5835 40.0398 14.2369 40.4332 13.7908 40.7145C13.3477 40.9957 12.8306 41.1364 12.2397 41.1364ZM12.2397 40.233C12.6886 40.233 13.0579 40.1179 13.3477 39.8878C13.6374 39.6577 13.8519 39.3551 13.9911 38.9801C14.1303 38.6051 14.1999 38.1989 14.1999 37.7614C14.1999 37.3239 14.1303 36.9162 13.9911 36.5384C13.8519 36.1605 13.6374 35.8551 13.3477 35.6222C13.0579 35.3892 12.6886 35.2727 12.2397 35.2727C11.7908 35.2727 11.4215 35.3892 11.1317 35.6222C10.842 35.8551 10.6275 36.1605 10.4883 36.5384C10.3491 36.9162 10.2795 37.3239 10.2795 37.7614C10.2795 38.1989 10.3491 38.6051 10.4883 38.9801C10.6275 39.3551 10.842 39.6577 11.1317 39.8878C11.4215 40.1179 11.7908 40.233 12.2397 40.233ZM16.7408 41V34.4545H17.7464V37.3011H18.4112L20.7635 34.4545H22.0589L19.4169 37.608L22.093 41H20.7976L18.6499 38.2386H17.7464V41H16.7408ZM25.1122 41.1534C24.6974 41.1534 24.321 41.0753 23.983 40.919C23.6449 40.7599 23.3764 40.5312 23.1776 40.233C22.9787 39.9318 22.8793 39.5682 22.8793 39.142C22.8793 38.767 22.9531 38.4631 23.1009 38.2301C23.2486 37.9943 23.446 37.8097 23.6932 37.6761C23.9403 37.5426 24.2131 37.4432 24.5114 37.3778C24.8125 37.3097 25.1151 37.2557 25.419 37.2159C25.8168 37.1648 26.1392 37.1264 26.3864 37.1009C26.6364 37.0724 26.8182 37.0256 26.9318 36.9602C27.0483 36.8949 27.1065 36.7812 27.1065 36.6193V36.5852C27.1065 36.1648 26.9915 35.8381 26.7614 35.6051C26.5341 35.3722 26.1889 35.2557 25.7259 35.2557C25.2457 35.2557 24.8693 35.3608 24.5966 35.571C24.3239 35.7812 24.1321 36.0057 24.0213 36.2443L23.0668 35.9034C23.2372 35.5057 23.4645 35.196 23.7486 34.9744C24.0355 34.75 24.348 34.5937 24.6861 34.5057C25.027 34.4148 25.3622 34.3693 25.6918 34.3693C25.902 34.3693 26.1435 34.3949 26.4162 34.446C26.6918 34.4943 26.9574 34.5952 27.2131 34.7486C27.4716 34.902 27.6861 35.1335 27.8565 35.4432C28.027 35.7528 28.1122 36.1676 28.1122 36.6875V41H27.1065V40.1136H27.0554C26.9872 40.2557 26.8736 40.4077 26.7145 40.5696C26.5554 40.7315 26.3438 40.8693 26.0795 40.983C25.8153 41.0966 25.4929 41.1534 25.1122 41.1534ZM25.2656 40.25C25.6634 40.25 25.9986 40.1719 26.2713 40.0156C26.5469 39.8594 26.7543 39.6577 26.8935 39.4105C27.0355 39.1634 27.1065 38.9034 27.1065 38.6307V37.7102C27.0639 37.7614 26.9702 37.8082 26.8253 37.8509C26.6832 37.8906 26.5185 37.9261 26.331 37.9574C26.1463 37.9858 25.9659 38.0114 25.7898 38.0341C25.6165 38.054 25.4759 38.071 25.3679 38.0852C25.1065 38.1193 24.8622 38.1747 24.6349 38.2514C24.4105 38.3253 24.2287 38.4375 24.0895 38.5881C23.9531 38.7358 23.8849 38.9375 23.8849 39.1932C23.8849 39.5426 24.0142 39.8068 24.2727 39.9858C24.5341 40.1619 24.8651 40.25 25.2656 40.25ZM29.5387 39.3295H30.6126C30.6353 39.625 30.7688 39.8494 31.0131 40.0028C31.2603 40.1562 31.5813 40.233 31.9762 40.233C32.3796 40.233 32.7248 40.1506 33.0117 39.9858C33.2987 39.8182 33.4421 39.5483 33.4421 39.1761C33.4421 38.9574 33.3881 38.767 33.2802 38.6051C33.1722 38.4403 33.0202 38.3125 32.8242 38.2216C32.6282 38.1307 32.3967 38.0852 32.1296 38.0852H31.0046V37.1818H32.1296C32.5302 37.1818 32.8256 37.0909 33.016 36.9091C33.2092 36.7273 33.3058 36.5 33.3058 36.2273C33.3058 35.9347 33.2021 35.7003 32.9947 35.5241C32.7873 35.3452 32.4933 35.2557 32.1126 35.2557C31.729 35.2557 31.4094 35.3423 31.1538 35.5156C30.8981 35.6861 30.7631 35.9062 30.7489 36.1761H29.6921C29.7035 35.8239 29.8114 35.5128 30.016 35.2429C30.2205 34.9702 30.4989 34.7571 30.8512 34.6037C31.2035 34.4474 31.6069 34.3693 32.0614 34.3693C32.5217 34.3693 32.9208 34.4503 33.2589 34.6122C33.5998 34.7713 33.8626 34.9886 34.0472 35.2642C34.2347 35.5369 34.3285 35.8466 34.3285 36.1932C34.3285 36.5625 34.2248 36.8608 34.0174 37.0881C33.81 37.3153 33.5501 37.4773 33.2376 37.5739V37.642C33.4847 37.6591 33.6992 37.7386 33.881 37.8807C34.0657 38.0199 34.2092 38.2031 34.3114 38.4304C34.4137 38.6548 34.4648 38.9034 34.4648 39.1761C34.4648 39.5739 34.3583 39.9205 34.1452 40.2159C33.9322 40.5085 33.6396 40.7358 33.2674 40.8977C32.8952 41.0568 32.4705 41.1364 31.9933 41.1364C31.5302 41.1364 31.1154 41.0611 30.7489 40.9105C30.3825 40.7571 30.0913 40.5455 29.8754 40.2756C29.6623 40.0028 29.5501 39.6875 29.5387 39.3295ZM36.7468 36.8239H38.6218C39.3888 36.8239 39.9755 37.0185 40.3817 37.4077C40.788 37.7969 40.9911 38.2898 40.9911 38.8864C40.9911 39.2784 40.9002 39.6349 40.7184 39.956C40.5366 40.2741 40.2695 40.5284 39.9173 40.7188C39.565 40.9062 39.1332 41 38.6218 41H35.8775V34.4545H36.8832V40.0625H38.6218C39.0195 40.0625 39.3462 39.9574 39.6019 39.7472C39.8576 39.5369 39.9854 39.267 39.9854 38.9375C39.9854 38.5909 39.8576 38.3082 39.6019 38.0895C39.3462 37.8707 39.0195 37.7614 38.6218 37.7614H36.7468V36.8239ZM42.0309 41V34.4545H43.0366V41H42.0309ZM44.8775 41V34.4545H47.5536C48.2582 34.4545 48.8178 34.6136 49.2326 34.9318C49.6474 35.25 49.8548 35.6705 49.8548 36.1932C49.8548 36.5909 49.7369 36.8991 49.5011 37.1179C49.2653 37.3338 48.9627 37.4801 48.5934 37.5568C48.8349 37.5909 49.0692 37.6761 49.2965 37.8125C49.5266 37.9489 49.717 38.1364 49.8675 38.375C50.0181 38.6108 50.0934 38.9006 50.0934 39.2443C50.0934 39.5795 50.0082 39.8793 49.8377 40.1435C49.6673 40.4077 49.4229 40.6165 49.1048 40.7699C48.7866 40.9233 48.4059 41 47.9627 41H44.8775ZM45.832 40.0795H47.9627C48.3093 40.0795 48.5806 39.9972 48.7766 39.8324C48.9727 39.6676 49.0707 39.4432 49.0707 39.1591C49.0707 38.821 48.9727 38.5554 48.7766 38.3622C48.5806 38.1662 48.3093 38.0682 47.9627 38.0682H45.832V40.0795ZM45.832 37.1989H47.5536C47.8235 37.1989 48.055 37.1619 48.2482 37.0881C48.4414 37.0114 48.5891 36.9034 48.6914 36.7642C48.7965 36.6222 48.8491 36.4545 48.8491 36.2614C48.8491 35.9858 48.734 35.7699 48.5039 35.6136C48.2738 35.4545 47.957 35.375 47.5536 35.375H45.832V37.1989ZM53.5419 41.1534C53.1271 41.1534 52.7507 41.0753 52.4126 40.919C52.0746 40.7599 51.8061 40.5312 51.6072 40.233C51.4084 39.9318 51.3089 39.5682 51.3089 39.142C51.3089 38.767 51.3828 38.4631 51.5305 38.2301C51.6783 37.9943 51.8757 37.8097 52.1229 37.6761C52.37 37.5426 52.6428 37.4432 52.9411 37.3778C53.2422 37.3097 53.5447 37.2557 53.8487 37.2159C54.2464 37.1648 54.5689 37.1264 54.8161 37.1009C55.0661 37.0724 55.2479 37.0256 55.3615 36.9602C55.478 36.8949 55.5362 36.7812 55.5362 36.6193V36.5852C55.5362 36.1648 55.4212 35.8381 55.1911 35.6051C54.9638 35.3722 54.6186 35.2557 54.1555 35.2557C53.6754 35.2557 53.299 35.3608 53.0263 35.571C52.7536 35.7812 52.5618 36.0057 52.451 36.2443L51.4964 35.9034C51.6669 35.5057 51.8942 35.196 52.1783 34.9744C52.4652 34.75 52.7777 34.5937 53.1158 34.5057C53.4567 34.4148 53.7919 34.3693 54.1214 34.3693C54.3317 34.3693 54.5732 34.3949 54.8459 34.446C55.1214 34.4943 55.3871 34.5952 55.6428 34.7486C55.9013 34.902 56.1158 35.1335 56.2862 35.4432C56.4567 35.7528 56.5419 36.1676 56.5419 36.6875V41H55.5362V40.1136H55.4851C55.4169 40.2557 55.3033 40.4077 55.1442 40.5696C54.9851 40.7315 54.7734 40.8693 54.5092 40.983C54.245 41.0966 53.9226 41.1534 53.5419 41.1534ZM53.6953 40.25C54.093 40.25 54.4283 40.1719 54.701 40.0156C54.9766 39.8594 55.1839 39.6577 55.3232 39.4105C55.4652 39.1634 55.5362 38.9034 55.5362 38.6307V37.7102C55.4936 37.7614 55.3999 37.8082 55.255 37.8509C55.1129 37.8906 54.9482 37.9261 54.7607 37.9574C54.576 37.9858 54.3956 38.0114 54.2195 38.0341C54.0462 38.054 53.9055 38.071 53.7976 38.0852C53.5362 38.1193 53.2919 38.1747 53.0646 38.2514C52.8402 38.3253 52.6584 38.4375 52.5192 38.5881C52.3828 38.7358 52.3146 38.9375 52.3146 39.1932C52.3146 39.5426 52.4439 39.8068 52.7024 39.9858C52.9638 40.1619 53.2947 40.25 53.6953 40.25ZM57.4869 35.392V34.4545H62.805V35.392H60.6573V41H59.6516V35.392H57.4869ZM65.1413 36.8239H67.0163C67.7834 36.8239 68.37 37.0185 68.7763 37.4077C69.1825 37.7969 69.3857 38.2898 69.3857 38.8864C69.3857 39.2784 69.2947 39.6349 69.1129 39.956C68.9311 40.2741 68.6641 40.5284 68.3118 40.7188C67.9595 40.9062 67.5277 41 67.0163 41H64.272V34.4545H65.2777V40.0625H67.0163C67.4141 40.0625 67.7408 39.9574 67.9964 39.7472C68.2521 39.5369 68.38 39.267 68.38 38.9375C68.38 38.5909 68.2521 38.3082 67.9964 38.0895C67.7408 37.8707 67.4141 37.7614 67.0163 37.7614H65.1413V36.8239ZM73.9165 35.392V34.4545H79.2347V35.392H77.087V41H76.0813V35.392H73.9165ZM83.1062 41.1364C82.4755 41.1364 81.9315 40.9972 81.4741 40.7188C81.0195 40.4375 80.6687 40.0455 80.4215 39.5426C80.1772 39.0369 80.055 38.4489 80.055 37.7784C80.055 37.108 80.1772 36.517 80.4215 36.0057C80.6687 35.4915 81.0124 35.0909 81.4528 34.804C81.896 34.5142 82.413 34.3693 83.0039 34.3693C83.3448 34.3693 83.6815 34.4261 84.0138 34.5398C84.3462 34.6534 84.6488 34.8381 84.9215 35.0938C85.1942 35.3466 85.4116 35.6818 85.5735 36.0994C85.7354 36.517 85.8164 37.0312 85.8164 37.642V38.0682H80.771V37.1989H84.7937C84.7937 36.8295 84.7198 36.5 84.5721 36.2102C84.4272 35.9205 84.2198 35.6918 83.9499 35.5241C83.6829 35.3565 83.3675 35.2727 83.0039 35.2727C82.6033 35.2727 82.2567 35.3722 81.9641 35.571C81.6744 35.767 81.4513 36.0227 81.2951 36.3381C81.1388 36.6534 81.0607 36.9915 81.0607 37.3523V37.9318C81.0607 38.4261 81.146 38.8452 81.3164 39.1889C81.4897 39.5298 81.7298 39.7898 82.0366 39.9688C82.3434 40.1449 82.6999 40.233 83.1062 40.233C83.3704 40.233 83.609 40.196 83.8221 40.1222C84.038 40.0455 84.2241 39.9318 84.3803 39.7812C84.5366 39.6278 84.6573 39.4375 84.7425 39.2102L85.7141 39.483C85.6119 39.8125 85.44 40.1023 85.1985 40.3523C84.957 40.5994 84.6587 40.7926 84.3036 40.9318C83.9485 41.0682 83.5494 41.1364 83.1062 41.1364ZM87.9205 34.4545L89.4886 37.1307L91.0568 34.4545H92.2159L90.1023 37.7273L92.2159 41H91.0568L89.4886 38.4602L87.9205 41H86.7614L88.8409 37.7273L86.7614 34.4545H87.9205ZM98.0316 37.267V38.2045H94.418V37.267H98.0316ZM94.6566 34.4545V41H93.6509V34.4545H94.6566ZM98.7987 34.4545V41H97.793V34.4545H98.7987ZM101.641 39.517L104.794 34.4545H105.953V41H104.948V35.9375L101.811 41H100.635V34.4545H101.641V39.517ZM112.841 34.4545V41H111.835V34.4545H112.841ZM112.449 37.5739V38.5114C112.222 38.5966 111.996 38.6719 111.771 38.7372C111.547 38.7997 111.311 38.8494 111.064 38.8864C110.817 38.9205 110.545 38.9375 110.25 38.9375C109.509 38.9375 108.913 38.7372 108.464 38.3366C108.018 37.9361 107.795 37.3352 107.795 36.5341V34.4375H108.801V36.5341C108.801 36.8693 108.865 37.1449 108.993 37.3608C109.121 37.5767 109.294 37.7372 109.513 37.8423C109.732 37.9474 109.977 38 110.25 38C110.676 38 111.061 37.9616 111.405 37.8849C111.751 37.8054 112.099 37.7017 112.449 37.5739ZM117.43 41.1364C116.8 41.1364 116.256 40.9972 115.798 40.7188C115.344 40.4375 114.993 40.0455 114.746 39.5426C114.501 39.0369 114.379 38.4489 114.379 37.7784C114.379 37.108 114.501 36.517 114.746 36.0057C114.993 35.4915 115.337 35.0909 115.777 34.804C116.22 34.5142 116.737 34.3693 117.328 34.3693C117.669 34.3693 118.006 34.4261 118.338 34.5398C118.67 34.6534 118.973 34.8381 119.246 35.0938C119.518 35.3466 119.736 35.6818 119.898 36.0994C120.06 36.517 120.141 37.0312 120.141 37.642V38.0682H115.095V37.1989H119.118C119.118 36.8295 119.044 36.5 118.896 36.2102C118.751 35.9205 118.544 35.6918 118.274 35.5241C118.007 35.3565 117.692 35.2727 117.328 35.2727C116.928 35.2727 116.581 35.3722 116.288 35.571C115.999 35.767 115.776 36.0227 115.619 36.3381C115.463 36.6534 115.385 36.9915 115.385 37.3523V37.9318C115.385 38.4261 115.47 38.8452 115.641 39.1889C115.814 39.5298 116.054 39.7898 116.361 39.9688C116.668 40.1449 117.024 40.233 117.43 40.233C117.695 40.233 117.933 40.196 118.146 40.1222C118.362 40.0455 118.548 39.9318 118.705 39.7812C118.861 39.6278 118.982 39.4375 119.067 39.2102L120.038 39.483C119.936 39.8125 119.764 40.1023 119.523 40.3523C119.281 40.5994 118.983 40.7926 118.628 40.9318C118.273 41.0682 117.874 41.1364 117.43 41.1364ZM124.33 41.1364C123.716 41.1364 123.188 40.9915 122.744 40.7017C122.301 40.4119 121.96 40.0128 121.722 39.5043C121.483 38.9957 121.364 38.4148 121.364 37.7614C121.364 37.0966 121.486 36.5099 121.73 36.0014C121.977 35.4901 122.321 35.0909 122.761 34.804C123.205 34.5142 123.722 34.3693 124.312 34.3693C124.773 34.3693 125.188 34.4545 125.557 34.625C125.926 34.7955 126.229 35.0341 126.464 35.3409C126.7 35.6477 126.847 36.0057 126.903 36.4148H125.898C125.821 36.1165 125.651 35.8523 125.386 35.6222C125.125 35.3892 124.773 35.2727 124.33 35.2727C123.938 35.2727 123.594 35.375 123.298 35.5795C123.006 35.7812 122.777 36.0668 122.612 36.4361C122.45 36.8026 122.369 37.233 122.369 37.7273C122.369 38.233 122.449 38.6733 122.608 39.0483C122.77 39.4233 122.997 39.7145 123.29 39.9219C123.585 40.1293 123.932 40.233 124.33 40.233C124.591 40.233 124.828 40.1875 125.041 40.0966C125.254 40.0057 125.435 39.875 125.582 39.7045C125.73 39.5341 125.835 39.3295 125.898 39.0909H126.903C126.847 39.4773 126.706 39.8253 126.482 40.1349C126.26 40.4418 125.966 40.6861 125.599 40.8679C125.236 41.0469 124.813 41.1364 124.33 41.1364ZM128.374 41V34.4545H129.379V37.3011H130.044L132.396 34.4545H133.692L131.05 37.608L133.726 41H132.43L130.283 38.2386H129.379V41H128.374ZM135.467 43.4545C135.296 43.4545 135.144 43.4403 135.011 43.4119C134.877 43.3864 134.785 43.3608 134.734 43.3352L134.989 42.4489C135.234 42.5114 135.45 42.5341 135.637 42.517C135.825 42.5 135.991 42.4162 136.136 42.2656C136.283 42.1179 136.418 41.8778 136.54 41.5455L136.728 41.0341L134.308 34.4545H135.398L137.205 39.6705H137.273L139.08 34.4545H140.171L137.393 41.9545C137.268 42.2926 137.113 42.5724 136.928 42.794C136.744 43.0185 136.529 43.1847 136.285 43.2926C136.043 43.4006 135.771 43.4545 135.467 43.4545ZM144.635 37.3182V38.2557H141.175V37.3182H144.635ZM142.027 34.4545V41H141.021V34.4545H142.027ZM146.646 41.1364C146.055 41.1364 145.537 40.9957 145.091 40.7145C144.648 40.4332 144.301 40.0398 144.051 39.5341C143.804 39.0284 143.68 38.4375 143.68 37.7614C143.68 37.0795 143.804 36.4844 144.051 35.9759C144.301 35.4673 144.648 35.0724 145.091 34.7912C145.537 34.5099 146.055 34.3693 146.646 34.3693C147.237 34.3693 147.754 34.5099 148.197 34.7912C148.643 35.0724 148.99 35.4673 149.237 35.9759C149.487 36.4844 149.612 37.0795 149.612 37.7614C149.612 38.4375 149.487 39.0284 149.237 39.5341C148.99 40.0398 148.643 40.4332 148.197 40.7145C147.754 40.9957 147.237 41.1364 146.646 41.1364ZM146.646 40.233C147.095 40.233 147.464 40.1179 147.754 39.8878C148.044 39.6577 148.259 39.3551 148.398 38.9801C148.537 38.6051 148.607 38.1989 148.607 37.7614C148.607 37.3239 148.537 36.9162 148.398 36.5384C148.259 36.1605 148.044 35.8551 147.754 35.6222C147.464 35.3892 147.095 35.2727 146.646 35.2727C146.197 35.2727 145.828 35.3892 145.538 35.6222C145.249 35.8551 145.034 36.1605 144.895 36.5384C144.756 36.9162 144.686 37.3239 144.686 37.7614C144.686 38.1989 144.756 38.6051 144.895 38.9801C145.034 39.3551 145.249 39.6577 145.538 39.8878C145.828 40.1179 146.197 40.233 146.646 40.233ZM155.629 39.517L158.783 34.4545H159.942V41H158.936V35.9375L155.8 41H154.624V34.4545H155.629V39.517ZM166.164 37.267V38.2045H162.551V37.267H166.164ZM162.789 34.4545V41H161.784V34.4545H162.789ZM166.931 34.4545V41H165.926V34.4545H166.931ZM171.427 43.233V32.2727H172.433V43.233H171.427ZM171.427 41.1364C170.984 41.1364 170.581 41.0568 170.217 40.8977C169.853 40.7358 169.541 40.5071 169.279 40.2116C169.018 39.9134 168.816 39.5568 168.674 39.142C168.532 38.7273 168.461 38.267 168.461 37.7614C168.461 37.25 168.532 36.7869 168.674 36.3722C168.816 35.9545 169.018 35.5966 169.279 35.2983C169.541 35 169.853 34.7713 170.217 34.6122C170.581 34.4503 170.984 34.3693 171.427 34.3693H171.734V41.1364H171.427ZM171.427 40.233H171.598V35.2727H171.427C171.092 35.2727 170.801 35.3409 170.554 35.4773C170.306 35.6108 170.102 35.794 169.94 36.027C169.781 36.2571 169.662 36.5213 169.582 36.8196C169.505 37.1179 169.467 37.4318 169.467 37.7614C169.467 38.1989 169.537 38.6051 169.676 38.9801C169.815 39.3551 170.029 39.6577 170.319 39.8878C170.609 40.1179 170.978 40.233 171.427 40.233ZM172.433 41.1364H172.126V34.3693H172.433C172.876 34.3693 173.279 34.4503 173.643 34.6122C174.007 34.7713 174.319 35 174.581 35.2983C174.842 35.5966 175.044 35.9545 175.186 36.3722C175.328 36.7869 175.399 37.25 175.399 37.7614C175.399 38.267 175.328 38.7273 175.186 39.142C175.044 39.5568 174.842 39.9134 174.581 40.2116C174.319 40.5071 174.007 40.7358 173.643 40.8977C173.279 41.0568 172.876 41.1364 172.433 41.1364ZM172.433 40.233C172.771 40.233 173.062 40.1676 173.306 40.0369C173.554 39.9034 173.757 39.7216 173.916 39.4915C174.078 39.2585 174.197 38.9943 174.274 38.6989C174.353 38.4006 174.393 38.0881 174.393 37.7614C174.393 37.3239 174.324 36.9162 174.184 36.5384C174.045 36.1605 173.831 35.8551 173.541 35.6222C173.251 35.3892 172.882 35.2727 172.433 35.2727H172.262V40.233H172.433ZM179.595 41.1364C179.004 41.1364 178.486 40.9957 178.04 40.7145C177.597 40.4332 177.25 40.0398 177 39.5341C176.753 39.0284 176.629 38.4375 176.629 37.7614C176.629 37.0795 176.753 36.4844 177 35.9759C177.25 35.4673 177.597 35.0724 178.04 34.7912C178.486 34.5099 179.004 34.3693 179.595 34.3693C180.186 34.3693 180.703 34.5099 181.146 34.7912C181.592 35.0724 181.939 35.4673 182.186 35.9759C182.436 36.4844 182.561 37.0795 182.561 37.7614C182.561 38.4375 182.436 39.0284 182.186 39.5341C181.939 40.0398 181.592 40.4332 181.146 40.7145C180.703 40.9957 180.186 41.1364 179.595 41.1364ZM179.595 40.233C180.044 40.233 180.413 40.1179 180.703 39.8878C180.993 39.6577 181.207 39.3551 181.347 38.9801C181.486 38.6051 181.555 38.1989 181.555 37.7614C181.555 37.3239 181.486 36.9162 181.347 36.5384C181.207 36.1605 180.993 35.8551 180.703 35.6222C180.413 35.3892 180.044 35.2727 179.595 35.2727C179.146 35.2727 178.777 35.3892 178.487 35.6222C178.197 35.8551 177.983 36.1605 177.844 36.5384C177.705 36.9162 177.635 37.3239 177.635 37.7614C177.635 38.1989 177.705 38.6051 177.844 38.9801C177.983 39.3551 178.197 39.6577 178.487 39.8878C178.777 40.1179 179.146 40.233 179.595 40.233ZM184.096 43.4545V34.4545H185.068V35.4943H185.187C185.261 35.3807 185.363 35.2358 185.494 35.0597C185.627 34.8807 185.818 34.7216 186.065 34.5824C186.315 34.4403 186.653 34.3693 187.079 34.3693C187.63 34.3693 188.116 34.5071 188.537 34.7827C188.957 35.0582 189.285 35.4489 189.521 35.9545C189.757 36.4602 189.875 37.0568 189.875 37.7443C189.875 38.4375 189.757 39.0384 189.521 39.5469C189.285 40.0526 188.958 40.4446 188.541 40.723C188.123 40.9986 187.642 41.1364 187.096 41.1364C186.676 41.1364 186.339 41.0668 186.086 40.9276C185.833 40.7855 185.639 40.625 185.502 40.446C185.366 40.2642 185.261 40.1136 185.187 39.9943H185.102V43.4545H184.096ZM185.085 37.7273C185.085 38.2216 185.157 38.6577 185.302 39.0355C185.447 39.4105 185.659 39.7045 185.937 39.9176C186.216 40.1278 186.556 40.233 186.96 40.233C187.38 40.233 187.731 40.1222 188.012 39.9006C188.297 39.6761 188.51 39.375 188.652 38.9972C188.797 38.6165 188.869 38.1932 188.869 37.7273C188.869 37.267 188.798 36.8523 188.656 36.483C188.517 36.1108 188.305 35.8168 188.021 35.6009C187.74 35.3821 187.386 35.2727 186.96 35.2727C186.551 35.2727 186.207 35.3764 185.929 35.5838C185.65 35.7884 185.44 36.0753 185.298 36.4446C185.156 36.8111 185.085 37.2386 185.085 37.7273ZM194.988 39.6364L197.272 34.4545H198.227L195.397 41H194.579L191.801 34.4545H192.738L194.988 39.6364ZM192.414 34.4545V41H191.409V34.4545H192.414ZM197.562 41V34.4545H198.568V41H197.562ZM202.335 41.1534C201.92 41.1534 201.544 41.0753 201.206 40.919C200.868 40.7599 200.599 40.5312 200.4 40.233C200.201 39.9318 200.102 39.5682 200.102 39.142C200.102 38.767 200.176 38.4631 200.324 38.2301C200.471 37.9943 200.669 37.8097 200.916 37.6761C201.163 37.5426 201.436 37.4432 201.734 37.3778C202.035 37.3097 202.338 37.2557 202.642 37.2159C203.039 37.1648 203.362 37.1264 203.609 37.1009C203.859 37.0724 204.041 37.0256 204.154 36.9602C204.271 36.8949 204.329 36.7812 204.329 36.6193V36.5852C204.329 36.1648 204.214 35.8381 203.984 35.6051C203.757 35.3722 203.412 35.2557 202.949 35.2557C202.468 35.2557 202.092 35.3608 201.819 35.571C201.547 35.7812 201.355 36.0057 201.244 36.2443L200.289 35.9034C200.46 35.5057 200.687 35.196 200.971 34.9744C201.258 34.75 201.571 34.5937 201.909 34.5057C202.25 34.4148 202.585 34.3693 202.914 34.3693C203.125 34.3693 203.366 34.3949 203.639 34.446C203.914 34.4943 204.18 34.5952 204.436 34.7486C204.694 34.902 204.909 35.1335 205.079 35.4432C205.25 35.7528 205.335 36.1676 205.335 36.6875V41H204.329V40.1136H204.278C204.21 40.2557 204.096 40.4077 203.937 40.5696C203.778 40.7315 203.566 40.8693 203.302 40.983C203.038 41.0966 202.716 41.1534 202.335 41.1534ZM202.488 40.25C202.886 40.25 203.221 40.1719 203.494 40.0156C203.77 39.8594 203.977 39.6577 204.116 39.4105C204.258 39.1634 204.329 38.9034 204.329 38.6307V37.7102C204.287 37.7614 204.193 37.8082 204.048 37.8509C203.906 37.8906 203.741 37.9261 203.554 37.9574C203.369 37.9858 203.189 38.0114 203.012 38.0341C202.839 38.054 202.699 38.071 202.591 38.0852C202.329 38.1193 202.085 38.1747 201.858 38.2514C201.633 38.3253 201.451 38.4375 201.312 38.5881C201.176 38.7358 201.108 38.9375 201.108 39.1932C201.108 39.5426 201.237 39.8068 201.495 39.9858C201.757 40.1619 202.088 40.25 202.488 40.25ZM212.318 34.4545V40.0625H213.239V43.1136H212.233V41H207.17V34.4545H208.176V40.0625H211.312V34.4545H212.318ZM215.793 39.517L218.947 34.4545H220.106V41H219.1V35.9375L215.964 41H214.788V34.4545H215.793V39.517ZM225.084 37.3182V38.2557H221.624V37.3182H225.084ZM222.476 34.4545V41H221.471V34.4545H222.476ZM227.096 41.1364C226.505 41.1364 225.986 40.9957 225.54 40.7145C225.097 40.4332 224.75 40.0398 224.5 39.5341C224.253 39.0284 224.13 38.4375 224.13 37.7614C224.13 37.0795 224.253 36.4844 224.5 35.9759C224.75 35.4673 225.097 35.0724 225.54 34.7912C225.986 34.5099 226.505 34.3693 227.096 34.3693C227.686 34.3693 228.203 34.5099 228.647 34.7912C229.093 35.0724 229.439 35.4673 229.686 35.9759C229.936 36.4844 230.061 37.0795 230.061 37.7614C230.061 38.4375 229.936 39.0284 229.686 39.5341C229.439 40.0398 229.093 40.4332 228.647 40.7145C228.203 40.9957 227.686 41.1364 227.096 41.1364ZM227.096 40.233C227.544 40.233 227.914 40.1179 228.203 39.8878C228.493 39.6577 228.708 39.3551 228.847 38.9801C228.986 38.6051 229.056 38.1989 229.056 37.7614C229.056 37.3239 228.986 36.9162 228.847 36.5384C228.708 36.1605 228.493 35.8551 228.203 35.6222C227.914 35.3892 227.544 35.2727 227.096 35.2727C226.647 35.2727 226.277 35.3892 225.988 35.6222C225.698 35.8551 225.483 36.1605 225.344 36.5384C225.205 36.9162 225.135 37.3239 225.135 37.7614C225.135 38.1989 225.205 38.6051 225.344 38.9801C225.483 39.3551 225.698 39.6577 225.988 39.8878C226.277 40.1179 226.647 40.233 227.096 40.233Z" fill="white"/>
<rect x="72" y="51" width="117" height="19" rx="6" fill="white" fill-opacity="0.5"/>
<g filter="url(#filter0_d_13_31)">
<rect x="74" y="53" width="30" height="15" rx="5" fill="#DADADA"/>
<path d="M81.1103 64V58.5455H83.3723C83.9879 58.5455 84.4756 58.6768 84.8354 58.9396C85.1953 59.2 85.3752 59.554 85.3752 60.0014C85.3752 60.321 85.2734 60.5743 85.0698 60.7614C84.8662 60.9484 84.5963 61.0739 84.2601 61.1378C84.504 61.1662 84.7277 61.2396 84.9313 61.358C85.1349 61.474 85.2982 61.6302 85.4213 61.8267C85.5468 62.0232 85.6096 62.2576 85.6096 62.5298C85.6096 62.8187 85.535 63.0743 85.3858 63.2969C85.2367 63.517 85.0201 63.6899 84.736 63.8153C84.4542 63.9384 84.1145 64 83.7168 64H81.1103ZM82.1081 63.1122H83.7168C83.9796 63.1122 84.1855 63.0495 84.3347 62.924C84.4838 62.7985 84.5584 62.6281 84.5584 62.4126C84.5584 62.1593 84.4838 61.9605 84.3347 61.8161C84.1855 61.6693 83.9796 61.5959 83.7168 61.5959H82.1081V63.1122ZM82.1081 60.8182H83.383C83.5819 60.8182 83.7523 60.7898 83.8944 60.733C84.0388 60.6761 84.1489 60.5956 84.2246 60.4915C84.3027 60.3849 84.3418 60.2595 84.3418 60.1151C84.3418 59.9044 84.2554 59.7398 84.0826 59.6214C83.9097 59.5031 83.673 59.4439 83.3723 59.4439H82.1081V60.8182ZM89.0719 64.1101C88.544 64.1101 88.0894 63.9905 87.7083 63.7514C87.3295 63.5099 87.0383 63.1773 86.8347 62.7536C86.6311 62.3298 86.5293 61.8445 86.5293 61.2976C86.5293 60.7436 86.6335 60.2547 86.8418 59.831C87.0501 59.4048 87.3437 59.0722 87.7225 58.8331C88.1013 58.594 88.5475 58.4744 89.0613 58.4744C89.4756 58.4744 89.8449 58.5514 90.1692 58.7053C90.4935 58.8568 90.7551 59.0698 90.954 59.3445C91.1552 59.6191 91.2748 59.9399 91.3127 60.3068H90.2793C90.2225 60.0511 90.0923 59.831 89.8887 59.6463C89.6874 59.4616 89.4176 59.3693 89.079 59.3693C88.7831 59.3693 88.5239 59.4474 88.3013 59.6037C88.0811 59.7576 87.9095 59.9777 87.7864 60.2642C87.6633 60.5483 87.6017 60.8845 87.6017 61.2727C87.6017 61.6705 87.6621 62.0137 87.7828 62.3026C87.9036 62.5914 88.074 62.8151 88.2942 62.9737C88.5167 63.1323 88.7783 63.2116 89.079 63.2116C89.2802 63.2116 89.4625 63.175 89.6259 63.1016C89.7916 63.0258 89.9301 62.9181 90.0414 62.7784C90.155 62.6387 90.2343 62.4706 90.2793 62.2741H91.3127C91.2748 62.6269 91.16 62.9418 90.9682 63.2188C90.7765 63.4957 90.5196 63.7135 90.1976 63.8722C89.878 64.0308 89.5028 64.1101 89.0719 64.1101ZM94.799 64.1101C94.2616 64.1101 93.7988 63.9953 93.4105 63.7656C93.0246 63.5336 92.7263 63.2081 92.5156 62.7891C92.3073 62.3677 92.2031 61.8741 92.2031 61.3082C92.2031 60.7495 92.3073 60.2571 92.5156 59.831C92.7263 59.4048 93.0199 59.0722 93.3963 58.8331C93.7751 58.594 94.2178 58.4744 94.7244 58.4744C95.0322 58.4744 95.3305 58.5253 95.6193 58.6271C95.9081 58.7289 96.1674 58.8887 96.397 59.1065C96.6267 59.3243 96.8078 59.6072 96.9403 59.9553C97.0729 60.3009 97.1392 60.7211 97.1392 61.2159V61.5923H92.8033V60.7969H96.0987C96.0987 60.5175 96.0419 60.2701 95.9283 60.0547C95.8146 59.8369 95.6548 59.6652 95.4489 59.5398C95.2453 59.4143 95.0062 59.3516 94.7315 59.3516C94.4332 59.3516 94.1728 59.425 93.9503 59.5717C93.7301 59.7161 93.5597 59.9055 93.4389 60.1399C93.3205 60.3719 93.2614 60.6241 93.2614 60.8963V61.5178C93.2614 61.8823 93.3253 62.1925 93.4531 62.4482C93.5833 62.7038 93.7644 62.8991 93.9964 63.0341C94.2285 63.1667 94.4995 63.233 94.8097 63.233C95.0109 63.233 95.1944 63.2045 95.3601 63.1477C95.5258 63.0885 95.669 63.0009 95.7898 62.8849C95.9105 62.7689 96.0028 62.6257 96.0668 62.4553L97.0717 62.6364C96.9912 62.9323 96.8468 63.1915 96.6385 63.4141C96.4325 63.6342 96.1733 63.8059 95.8608 63.929C95.5507 64.0497 95.1967 64.1101 94.799 64.1101Z" fill="black"/>
</g>
<path d="M115.4 64.1136C114.908 64.1136 114.475 63.9964 114.104 63.7621C113.734 63.5277 113.446 63.1998 113.237 62.7784C113.031 62.357 112.928 61.8646 112.928 61.3011C112.928 60.733 113.031 60.237 113.237 59.8132C113.446 59.3894 113.734 59.0604 114.104 58.826C114.475 58.5916 114.908 58.4744 115.4 58.4744C115.892 58.4744 116.323 58.5916 116.693 58.826C117.064 59.0604 117.353 59.3894 117.559 59.8132C117.767 60.237 117.872 60.733 117.872 61.3011C117.872 61.8646 117.767 62.357 117.559 62.7784C117.353 63.1998 117.064 63.5277 116.693 63.7621C116.323 63.9964 115.892 64.1136 115.4 64.1136ZM115.4 63.3608C115.774 63.3608 116.082 63.2649 116.323 63.0732C116.565 62.8814 116.743 62.6293 116.859 62.3168C116.975 62.0043 117.033 61.6657 117.033 61.3011C117.033 60.9366 116.975 60.5968 116.859 60.282C116.743 59.9671 116.565 59.7126 116.323 59.5185C116.082 59.3243 115.774 59.2273 115.4 59.2273C115.026 59.2273 114.718 59.3243 114.477 59.5185C114.235 59.7126 114.056 59.9671 113.94 60.282C113.824 60.5968 113.766 60.9366 113.766 61.3011C113.766 61.6657 113.824 62.0043 113.94 62.3168C114.056 62.6293 114.235 62.8814 114.477 63.0732C114.718 63.2649 115.026 63.3608 115.4 63.3608ZM119.151 64V58.5455H123.441V64H122.603V59.3267H119.989V64H119.151ZM124.229 59.3267V58.5455H128.661V59.3267H126.871V64H126.033V59.3267H124.229ZM130.721 62.7642L133.349 58.5455H134.315V64H133.477V59.7812L130.863 64H129.883V58.5455H130.721V62.7642ZM138.833 62.8636L140.736 58.5455H141.532L139.174 64H138.492L136.177 58.5455H136.958L138.833 62.8636ZM136.688 58.5455V64H135.85V58.5455H136.688ZM140.978 64V58.5455H141.816V64H140.978Z" fill="black"/>
<path d="M157.075 64V58.5455H159.305C159.892 58.5455 160.358 58.678 160.704 58.9432C161.05 59.2083 161.222 59.5587 161.222 59.9943C161.222 60.3258 161.124 60.5826 160.928 60.7649C160.731 60.9448 160.479 61.0668 160.171 61.1307C160.372 61.1591 160.568 61.2301 160.757 61.3438C160.949 61.4574 161.108 61.6136 161.233 61.8125C161.359 62.009 161.421 62.2505 161.421 62.5369C161.421 62.8163 161.35 63.0661 161.208 63.2862C161.066 63.5064 160.863 63.6804 160.597 63.8082C160.332 63.9361 160.015 64 159.646 64H157.075ZM157.87 63.233H159.646C159.935 63.233 160.161 63.1643 160.324 63.027C160.487 62.8897 160.569 62.7027 160.569 62.4659C160.569 62.1842 160.487 61.9628 160.324 61.8018C160.161 61.6385 159.935 61.5568 159.646 61.5568H157.87V63.233ZM157.87 60.8324H159.305C159.53 60.8324 159.723 60.8016 159.884 60.7401C160.045 60.6761 160.168 60.5862 160.253 60.4702C160.341 60.3518 160.384 60.2121 160.384 60.0511C160.384 59.8215 160.288 59.6416 160.097 59.5114C159.905 59.3788 159.641 59.3125 159.305 59.3125H157.87V60.8324ZM163.414 60.5199H164.977C165.616 60.5199 166.105 60.6821 166.443 61.0064C166.782 61.3307 166.951 61.7415 166.951 62.2386C166.951 62.5653 166.876 62.8625 166.724 63.13C166.572 63.3951 166.35 63.607 166.056 63.7656C165.763 63.9219 165.403 64 164.977 64H162.69V58.5455H163.528V63.2188H164.977C165.308 63.2188 165.581 63.1312 165.794 62.956C166.007 62.7808 166.113 62.5559 166.113 62.2812C166.113 61.9924 166.007 61.7569 165.794 61.5746C165.581 61.3923 165.308 61.3011 164.977 61.3011H163.414V60.5199ZM167.818 64V58.5455H168.656V64H167.818ZM170.19 64V58.5455H171.028V60.9176H171.582L173.542 58.5455H174.622L172.42 61.1733L174.65 64H173.571L171.781 61.6989H171.028V64H170.19ZM175.078 64V63.2188H175.277C175.44 63.2188 175.576 63.1868 175.685 63.1229C175.794 63.0566 175.882 62.9418 175.948 62.7784C176.017 62.6127 176.069 62.383 176.104 62.0895C176.142 61.7936 176.169 61.4171 176.186 60.9602L176.285 58.5455H179.922V64H179.084V59.3267H177.081L176.996 61.2727C176.977 61.7202 176.936 62.1143 176.875 62.4553C176.816 62.7938 176.725 63.0779 176.601 63.3075C176.481 63.5372 176.32 63.71 176.119 63.826C175.917 63.942 175.665 64 175.362 64H175.078Z" fill="black"/>
</g>
<defs>
<filter id="filter0_d_13_31" x="68" y="47" width="42" height="27" filterUnits="userSpaceOnUse" color-interpolation-filters="sRGB">
<feFlood flood-opacity="0" result="BackgroundImageFix"/>
<feColorMatrix in="SourceAlpha" type="matrix" values="0 0 0 0 0 0 0 0 0 0 0 0 0 0 0 0 0 0 127 0" result="hardAlpha"/>
<feOffset/>
<feGaussianBlur stdDeviation="3"/>
<feComposite in2="hardAlpha" operator="out"/>
<feColorMatrix type="matrix" values="0 0 0 0 0 0 0 0 0 0 0 0 0 0 0 0 0 0 0.25 0"/>
<feBlend mode="normal" in2="BackgroundImageFix" result="effect1_dropShadow_13_31"/>
<feBlend mode="normal" in="SourceGraphic" in2="effect1_dropShadow_13_31" result="shape"/>
</filter>
<clipPath id="clip0_13_31">
<rect width="303" height="70" fill="white"/>
</clipPath>
</defs>
</svg>
