<svg width="1583" height="94" viewBox="0 0 1583 94" fill="none" xmlns="http://www.w3.org/2000/svg">
<rect x="765" width="818" height="94" rx="25" fill="url(#paint0_linear_0_1)" fill-opacity="0.2"/>
<path d="M828.8 60.358C826.891 60.358 825.19 60.0298 823.699 59.3736C822.216 58.7088 821.044 57.7969 820.183 56.6378C819.331 55.4702 818.892 54.1236 818.866 52.598H824.44C824.474 53.2372 824.683 53.7997 825.067 54.2855C825.459 54.7628 825.979 55.1335 826.626 55.3977C827.274 55.6619 828.003 55.794 828.812 55.794C829.656 55.794 830.402 55.6449 831.05 55.3466C831.697 55.0483 832.205 54.6349 832.571 54.1065C832.938 53.5781 833.121 52.9687 833.121 52.2784C833.121 51.5795 832.925 50.9616 832.533 50.4247C832.149 49.8793 831.595 49.4531 830.871 49.1463C830.155 48.8395 829.303 48.6861 828.314 48.6861H825.872V44.6207H828.314C829.149 44.6207 829.886 44.4759 830.526 44.1861C831.173 43.8963 831.676 43.4957 832.034 42.9844C832.392 42.4645 832.571 41.8594 832.571 41.169C832.571 40.5128 832.413 39.9375 832.098 39.4432C831.791 38.9403 831.357 38.5483 830.794 38.267C830.24 37.9858 829.592 37.8452 828.851 37.8452C828.101 37.8452 827.415 37.9815 826.793 38.2543C826.17 38.5185 825.672 38.8977 825.297 39.392C824.922 39.8864 824.722 40.4659 824.696 41.1307H819.391C819.416 39.6222 819.847 38.2926 820.682 37.142C821.517 35.9915 822.642 35.0923 824.057 34.4446C825.48 33.7884 827.087 33.4602 828.876 33.4602C830.683 33.4602 832.264 33.7884 833.619 34.4446C834.974 35.1009 836.027 35.9872 836.777 37.1037C837.536 38.2116 837.911 39.456 837.902 40.8366C837.911 42.3026 837.455 43.5256 836.534 44.5057C835.622 45.4858 834.433 46.108 832.967 46.3722V46.5767C834.893 46.8239 836.359 47.4929 837.365 48.5838C838.379 49.6662 838.882 51.0213 838.874 52.6491C838.882 54.1406 838.452 55.4659 837.582 56.625C836.722 57.7841 835.533 58.696 834.016 59.3608C832.499 60.0256 830.76 60.358 828.8 60.358ZM845.349 60.3324C844.505 60.3324 843.781 60.0341 843.175 59.4375C842.579 58.8324 842.281 58.108 842.281 57.2642C842.281 56.429 842.579 55.7131 843.175 55.1165C843.781 54.5199 844.505 54.2216 845.349 54.2216C846.167 54.2216 846.883 54.5199 847.496 55.1165C848.11 55.7131 848.417 56.429 848.417 57.2642C848.417 57.8267 848.272 58.3423 847.982 58.8111C847.701 59.2713 847.33 59.642 846.87 59.9233C846.41 60.196 845.903 60.3324 845.349 60.3324ZM852.441 55.3977V51.0384L863.371 33.8182H867.13V39.8523H864.905L858.015 50.7571V50.9616H873.547V55.3977H852.441ZM865.007 60V54.0682L865.11 52.1378V33.8182H870.3V60H865.007ZM903.094 33.8182V38.3821H891.256V60H885.721V33.8182H903.094ZM922.862 33.1534L924.524 36.7074C923.97 37.1676 923.356 37.5085 922.683 37.7301C922.01 37.9432 921.204 38.0838 920.267 38.152C919.338 38.2202 918.204 38.267 916.866 38.2926C915.349 38.3097 914.113 38.5526 913.159 39.0213C912.204 39.4901 911.48 40.2273 910.985 41.233C910.491 42.2301 910.167 43.5341 910.014 45.1449H910.206C910.794 43.9432 911.62 43.0142 912.686 42.358C913.76 41.7017 915.085 41.3736 916.662 41.3736C918.332 41.3736 919.794 41.7401 921.047 42.473C922.308 43.206 923.288 44.2585 923.987 45.6307C924.686 47.0028 925.035 48.6477 925.035 50.5653C925.035 52.5597 924.643 54.294 923.859 55.7685C923.083 57.2344 921.98 58.3722 920.548 59.1818C919.116 59.983 917.412 60.3835 915.434 60.3835C913.449 60.3835 911.735 59.9659 910.295 59.1307C908.863 58.2955 907.755 57.0639 906.971 55.4361C906.196 53.8082 905.808 51.8054 905.808 49.4276V47.8168C905.808 43.0866 906.728 39.5795 908.569 37.2955C910.41 35.0114 913.116 33.8523 916.687 33.8182C917.659 33.8011 918.537 33.7969 919.321 33.8054C920.105 33.8139 920.791 33.7756 921.379 33.6903C921.975 33.6051 922.47 33.4261 922.862 33.1534ZM915.46 56.1648C916.295 56.1648 917.011 55.9474 917.608 55.5128C918.213 55.0781 918.677 54.456 919.001 53.6463C919.333 52.8366 919.5 51.8693 919.5 50.7443C919.5 49.6278 919.333 48.6818 919.001 47.9062C918.677 47.1222 918.213 46.5256 917.608 46.1165C917.002 45.7074 916.278 45.5028 915.434 45.5028C914.804 45.5028 914.237 45.6179 913.734 45.848C913.231 46.0781 912.801 46.419 912.443 46.8707C912.093 47.3139 911.821 47.8636 911.625 48.5199C911.437 49.1676 911.343 49.9091 911.343 50.7443C911.343 52.4233 911.706 53.7486 912.43 54.7202C913.163 55.6832 914.173 56.1648 915.46 56.1648Z" fill="white"/>
<path d="M948.619 32.5909L940.181 63.9375H937.42L945.857 32.5909H948.619ZM970.604 33.4602C971.678 33.4687 972.752 33.6733 973.826 34.0739C974.9 34.4744 975.88 35.1392 976.766 36.0682C977.652 36.9886 978.364 38.2457 978.901 39.8395C979.438 41.4332 979.706 43.4318 979.706 45.8352C979.706 48.1619 979.485 50.2287 979.042 52.0355C978.607 53.8338 977.976 55.3509 977.15 56.5866C976.331 57.8224 975.334 58.7599 974.158 59.3991C972.99 60.0384 971.669 60.358 970.195 60.358C968.729 60.358 967.421 60.0682 966.27 59.4886C965.128 58.9006 964.191 58.0866 963.458 57.0469C962.733 55.9986 962.269 54.7841 962.064 53.4034H965.184C965.465 54.6051 966.023 55.598 966.858 56.3821C967.702 57.1577 968.814 57.5455 970.195 57.5455C972.215 57.5455 973.809 56.6634 974.976 54.8991C976.152 53.1349 976.74 50.642 976.74 47.4205H976.536C976.059 48.1364 975.492 48.7543 974.836 49.2741C974.179 49.794 973.451 50.1946 972.65 50.4759C971.848 50.7571 970.996 50.8977 970.093 50.8977C968.593 50.8977 967.216 50.527 965.963 49.7855C964.719 49.0355 963.722 48.0085 962.972 46.7045C962.23 45.392 961.86 43.892 961.86 42.2045C961.86 40.6023 962.218 39.1364 962.934 37.8068C963.658 36.4687 964.672 35.4034 965.976 34.6108C967.289 33.8182 968.831 33.4347 970.604 33.4602ZM970.604 36.2727C969.53 36.2727 968.563 36.5412 967.702 37.0781C966.85 37.6065 966.172 38.3224 965.669 39.2259C965.175 40.1207 964.928 41.1136 964.928 42.2045C964.928 43.2955 965.167 44.2884 965.644 45.1832C966.13 46.0696 966.79 46.777 967.625 47.3054C968.469 47.8253 969.428 48.0852 970.502 48.0852C971.311 48.0852 972.066 47.9276 972.765 47.6122C973.463 47.2884 974.073 46.8494 974.593 46.2955C975.121 45.733 975.534 45.098 975.833 44.3906C976.131 43.6747 976.28 42.929 976.28 42.1534C976.28 41.1307 976.033 40.1719 975.539 39.277C975.053 38.3821 974.38 37.6577 973.519 37.1037C972.667 36.5497 971.695 36.2727 970.604 36.2727ZM993.58 60.358C991.893 60.358 990.388 60.0682 989.067 59.4886C987.755 58.9091 986.711 58.1037 985.935 57.0724C985.168 56.0327 984.751 54.8267 984.683 53.4545H987.904C987.972 54.2983 988.262 55.027 988.773 55.6406C989.285 56.2457 989.954 56.7145 990.781 57.0469C991.607 57.3793 992.523 57.5455 993.529 57.5455C994.654 57.5455 995.651 57.3494 996.521 56.9574C997.39 56.5653 998.072 56.0199 998.566 55.321C999.06 54.6222 999.308 53.8125 999.308 52.892C999.308 51.929 999.069 51.081 998.592 50.348C998.114 49.6065 997.415 49.027 996.495 48.6094C995.575 48.1918 994.45 47.983 993.12 47.983H991.023V45.1705H993.12C994.16 45.1705 995.072 44.983 995.856 44.608C996.648 44.233 997.266 43.7045 997.71 43.0227C998.161 42.3409 998.387 41.5398 998.387 40.6193C998.387 39.733 998.191 38.9616 997.799 38.3054C997.407 37.6491 996.853 37.1378 996.137 36.7713C995.43 36.4048 994.594 36.2216 993.631 36.2216C992.728 36.2216 991.876 36.3878 991.075 36.7202C990.282 37.044 989.634 37.517 989.131 38.1392C988.629 38.7528 988.356 39.4943 988.313 40.3636H985.245C985.296 38.9915 985.71 37.7898 986.485 36.7585C987.261 35.7187 988.275 34.9091 989.528 34.3295C990.789 33.75 992.174 33.4602 993.683 33.4602C995.302 33.4602 996.691 33.7884 997.85 34.4446C999.009 35.0923 999.9 35.9489 1000.52 37.0142C1001.14 38.0795 1001.46 39.2301 1001.46 40.4659C1001.46 41.9403 1001.07 43.1974 1000.29 44.2372C999.525 45.277 998.481 45.9972 997.16 46.3977V46.6023C998.813 46.875 1000.1 47.5781 1001.03 48.7116C1001.96 49.8366 1002.43 51.2301 1002.43 52.892C1002.43 54.3153 1002.04 55.5938 1001.26 56.7273C1000.5 57.8523 999.448 58.7386 998.119 59.3864C996.789 60.0341 995.276 60.358 993.58 60.358ZM1016.86 33.8182V60H1013.69V37.142H1013.54L1007.14 41.3864V38.1648L1013.69 33.8182H1016.86ZM1050.78 33.8182V36.6307H1038.15V60H1034.98V33.8182H1050.78ZM1069.85 33L1071.38 34.8409C1070.78 35.4205 1070.09 35.8253 1069.31 36.0554C1068.53 36.2855 1067.64 36.4261 1066.65 36.4773C1065.66 36.5284 1064.56 36.5795 1063.35 36.6307C1061.99 36.6818 1060.86 37.0142 1059.96 37.6278C1059.07 38.2415 1058.38 39.1278 1057.89 40.2869C1057.41 41.446 1057.1 42.8693 1056.96 44.5568H1057.22C1057.88 43.3295 1058.8 42.4261 1059.98 41.8466C1061.15 41.267 1062.42 40.9773 1063.76 40.9773C1065.3 40.9773 1066.68 41.3352 1067.9 42.0511C1069.13 42.767 1070.1 43.8281 1070.82 45.2344C1071.53 46.6406 1071.89 48.375 1071.89 50.4375C1071.89 52.4915 1071.53 54.2642 1070.79 55.7557C1070.07 57.2472 1069.05 58.3977 1067.74 59.2074C1066.43 60.0085 1064.9 60.4091 1063.15 60.4091C1061.39 60.4091 1059.85 59.9957 1058.53 59.169C1057.21 58.3338 1056.19 57.098 1055.45 55.4616C1054.72 53.8168 1054.35 51.7841 1054.35 49.3636V47.267C1054.35 42.8949 1055.09 39.5795 1056.58 37.321C1058.07 35.0625 1060.31 33.8949 1063.3 33.8182C1064.36 33.7841 1065.3 33.7756 1066.13 33.7926C1066.95 33.8097 1067.67 33.7713 1068.29 33.6776C1068.9 33.5838 1069.42 33.358 1069.85 33ZM1063.15 57.6989C1064.33 57.6989 1065.35 57.4006 1066.2 56.804C1067.06 56.2074 1067.72 55.3679 1068.19 54.2855C1068.65 53.1946 1068.88 51.9119 1068.88 50.4375C1068.88 49.0057 1068.64 47.7869 1068.17 46.7812C1067.71 45.7756 1067.05 45.0085 1066.19 44.4801C1065.33 43.9517 1064.3 43.6875 1063.1 43.6875C1062.22 43.6875 1061.43 43.8366 1060.73 44.1349C1060.03 44.4332 1059.44 44.8722 1058.94 45.4517C1058.45 46.0312 1058.06 46.7386 1057.79 47.5739C1057.53 48.4091 1057.39 49.3636 1057.37 50.4375C1057.37 52.6364 1057.89 54.3963 1058.92 55.7173C1059.95 57.0384 1061.36 57.6989 1063.15 57.6989Z" fill="white" fill-opacity="0.5"/>
<path d="M19.7557 33.8182V60H16.5852V36.6307H3.39205V60H0.221591V33.8182H19.7557ZM33.7191 60.4091C31.9464 60.4091 30.391 59.9872 29.0529 59.1435C27.7234 58.2997 26.6836 57.1193 25.9336 55.6023C25.1921 54.0852 24.8214 52.3125 24.8214 50.2841C24.8214 48.2386 25.1921 46.4531 25.9336 44.9276C26.6836 43.402 27.7234 42.2173 29.0529 41.3736C30.391 40.5298 31.9464 40.108 33.7191 40.108C35.4918 40.108 37.043 40.5298 38.3725 41.3736C39.7106 42.2173 40.7504 43.402 41.4918 44.9276C42.2418 46.4531 42.6168 48.2386 42.6168 50.2841C42.6168 52.3125 42.2418 54.0852 41.4918 55.6023C40.7504 57.1193 39.7106 58.2997 38.3725 59.1435C37.043 59.9872 35.4918 60.4091 33.7191 60.4091ZM33.7191 57.6989C35.0657 57.6989 36.1737 57.3537 37.043 56.6634C37.9123 55.973 38.5558 55.0653 38.9734 53.9403C39.391 52.8153 39.5998 51.5966 39.5998 50.2841C39.5998 48.9716 39.391 47.7486 38.9734 46.6151C38.5558 45.4815 37.9123 44.5653 37.043 43.8665C36.1737 43.1676 35.0657 42.8182 33.7191 42.8182C32.3725 42.8182 31.2646 43.1676 30.3952 43.8665C29.5259 44.5653 28.8825 45.4815 28.4648 46.6151C28.0472 47.7486 27.8384 48.9716 27.8384 50.2841C27.8384 51.5966 28.0472 52.8153 28.4648 53.9403C28.8825 55.0653 29.5259 55.973 30.3952 56.6634C31.2646 57.3537 32.3725 57.6989 33.7191 57.6989ZM55.1996 60.4091C53.3587 60.4091 51.7734 59.9744 50.4439 59.1051C49.1143 58.2358 48.0916 57.0384 47.3757 55.5128C46.6598 53.9872 46.3018 52.2443 46.3018 50.2841C46.3018 48.2898 46.6683 46.5298 47.4013 45.0043C48.1428 43.4702 49.174 42.2727 50.495 41.4119C51.8246 40.5426 53.3757 40.108 55.1484 40.108C56.5291 40.108 57.7734 40.3636 58.8814 40.875C59.9893 41.3864 60.897 42.1023 61.6044 43.0227C62.3118 43.9432 62.7507 45.017 62.9212 46.2443H59.9041C59.674 45.3494 59.1626 44.5568 58.37 43.8665C57.5859 43.1676 56.5291 42.8182 55.1996 42.8182C54.0234 42.8182 52.9922 43.125 52.1058 43.7386C51.228 44.3437 50.5419 45.2003 50.0476 46.3082C49.5618 47.4077 49.3189 48.6989 49.3189 50.1818C49.3189 51.6989 49.5575 53.0199 50.0348 54.1449C50.5206 55.2699 51.2024 56.1435 52.0803 56.7656C52.9666 57.3878 54.0064 57.6989 55.1996 57.6989C55.9837 57.6989 56.6953 57.5625 57.3345 57.2898C57.9737 57.017 58.5149 56.625 58.9581 56.1136C59.4013 55.6023 59.7166 54.9886 59.9041 54.2727H62.9212C62.7507 55.4318 62.3288 56.4759 61.6555 57.4048C60.9908 58.3253 60.1087 59.0582 59.0092 59.6037C57.9183 60.1406 56.6484 60.4091 55.1996 60.4091ZM65.593 60V57.1875H66.3089C66.897 57.1875 67.3871 57.0724 67.7791 56.8423C68.1712 56.6037 68.4865 56.1903 68.7251 55.6023C68.9723 55.0057 69.1598 54.179 69.2876 53.1222C69.424 52.0568 69.522 50.7017 69.5817 49.0568L69.9396 40.3636H83.0305V60H80.0135V43.1761H72.8033L72.4964 50.1818C72.4283 51.7926 72.2834 53.2116 72.0618 54.4389C71.8487 55.6577 71.5206 56.6804 71.0774 57.5071C70.6428 58.3338 70.0632 58.956 69.3388 59.3736C68.6143 59.7912 67.7067 60 66.6158 60H65.593ZM96.799 60.4091C94.907 60.4091 93.2749 59.9915 91.9027 59.1562C90.5391 58.3125 89.4865 57.1364 88.745 55.6278C88.0121 54.1108 87.6456 52.3466 87.6456 50.3352C87.6456 48.3239 88.0121 46.5511 88.745 45.017C89.4865 43.4744 90.5178 42.2727 91.8388 41.4119C93.1683 40.5426 94.7195 40.108 96.4922 40.108C97.5149 40.108 98.5249 40.2784 99.522 40.6193C100.519 40.9602 101.427 41.5142 102.245 42.2812C103.063 43.0398 103.715 44.0455 104.201 45.2983C104.687 46.5511 104.93 48.0937 104.93 49.9261V51.2045H89.7933V48.5966H101.862C101.862 47.4886 101.64 46.5 101.197 45.6307C100.762 44.7614 100.14 44.0753 99.3303 43.5724C98.5291 43.0696 97.5831 42.8182 96.4922 42.8182C95.2905 42.8182 94.2507 43.1165 93.3729 43.7131C92.5036 44.3011 91.8345 45.0682 91.3658 46.0142C90.897 46.9602 90.6626 47.9744 90.6626 49.0568V50.7955C90.6626 52.2784 90.9183 53.5355 91.4297 54.5668C91.9496 55.5895 92.6697 56.3693 93.5902 56.9062C94.5107 57.4347 95.5803 57.6989 96.799 57.6989C97.5916 57.6989 98.3075 57.5881 98.9467 57.3665C99.5945 57.1364 100.153 56.7955 100.621 56.3438C101.09 55.8835 101.452 55.3125 101.708 54.6307L104.623 55.4489C104.316 56.4375 103.8 57.3068 103.076 58.0568C102.352 58.7983 101.457 59.3778 100.391 59.7955C99.326 60.2045 98.1286 60.4091 96.799 60.4091ZM107.423 65.625V57.1875H109.059C109.46 56.7699 109.805 56.3182 110.094 55.8324C110.384 55.3466 110.636 54.7713 110.849 54.1065C111.07 53.4332 111.258 52.6151 111.411 51.652C111.565 50.6804 111.701 49.5085 111.82 48.1364L112.485 40.3636H124.962V57.1875H127.979V65.625H124.962V60H110.44V65.625H107.423ZM112.485 57.1875H121.945V43.1761H115.298L114.786 48.1364C114.573 50.1903 114.309 51.9844 113.994 53.5185C113.678 55.0526 113.175 56.2756 112.485 57.1875ZM145.126 48.8011V51.6136H134.285V48.8011H145.126ZM135.001 40.3636V60H131.984V40.3636H135.001ZM147.427 40.3636V60H144.41V40.3636H147.427ZM161.17 60.4091C159.278 60.4091 157.646 59.9915 156.274 59.1562C154.91 58.3125 153.858 57.1364 153.116 55.6278C152.383 54.1108 152.017 52.3466 152.017 50.3352C152.017 48.3239 152.383 46.5511 153.116 45.017C153.858 43.4744 154.889 42.2727 156.21 41.4119C157.539 40.5426 159.091 40.108 160.863 40.108C161.886 40.108 162.896 40.2784 163.893 40.6193C164.89 40.9602 165.798 41.5142 166.616 42.2812C167.434 43.0398 168.086 44.0455 168.572 45.2983C169.058 46.5511 169.301 48.0937 169.301 49.9261V51.2045H154.164V48.5966H166.233C166.233 47.4886 166.011 46.5 165.568 45.6307C165.133 44.7614 164.511 44.0753 163.701 43.5724C162.9 43.0696 161.954 42.8182 160.863 42.8182C159.662 42.8182 158.622 43.1165 157.744 43.7131C156.875 44.3011 156.206 45.0682 155.737 46.0142C155.268 46.9602 155.034 47.9744 155.034 49.0568V50.7955C155.034 52.2784 155.289 53.5355 155.801 54.5668C156.321 55.5895 157.041 56.3693 157.961 56.9062C158.882 57.4347 159.951 57.6989 161.17 57.6989C161.963 57.6989 162.679 57.5881 163.318 57.3665C163.966 57.1364 164.524 56.7955 164.993 56.3438C165.461 55.8835 165.824 55.3125 166.079 54.6307L168.994 55.4489C168.687 56.4375 168.172 57.3068 167.447 58.0568C166.723 58.7983 165.828 59.3778 164.762 59.7955C163.697 60.2045 162.5 60.4091 161.17 60.4091ZM187.032 55.5511L196.493 40.3636H199.97V60H196.953V44.8125L187.544 60H184.015V40.3636H187.032V55.5511ZM204.268 54.9886H207.49C207.558 55.875 207.959 56.5483 208.692 57.0085C209.433 57.4688 210.396 57.6989 211.581 57.6989C212.791 57.6989 213.827 57.4517 214.688 56.9574C215.548 56.4545 215.979 55.6449 215.979 54.5284C215.979 53.8722 215.817 53.3011 215.493 52.8153C215.169 52.321 214.713 51.9375 214.125 51.6648C213.537 51.392 212.842 51.2557 212.041 51.2557H208.666V48.5455H212.041C213.243 48.5455 214.129 48.2727 214.7 47.7273C215.28 47.1818 215.57 46.5 215.57 45.6818C215.57 44.804 215.259 44.1009 214.636 43.5724C214.014 43.0355 213.132 42.767 211.99 42.767C210.839 42.767 209.881 43.027 209.114 43.5469C208.347 44.0582 207.942 44.7187 207.899 45.5284H204.729C204.763 44.4716 205.087 43.5384 205.7 42.7287C206.314 41.9105 207.149 41.2713 208.206 40.8111C209.263 40.3423 210.473 40.108 211.837 40.108C213.217 40.108 214.415 40.3509 215.429 40.8366C216.452 41.3139 217.24 41.9659 217.794 42.7926C218.357 43.6108 218.638 44.5398 218.638 45.5795C218.638 46.6875 218.327 47.5824 217.705 48.2642C217.082 48.946 216.303 49.4318 215.365 49.7216V49.9261C216.107 49.9773 216.75 50.2159 217.295 50.642C217.849 51.0597 218.28 51.6094 218.587 52.2912C218.893 52.9645 219.047 53.7102 219.047 54.5284C219.047 55.7216 218.727 56.7614 218.088 57.6477C217.449 58.5256 216.571 59.2074 215.455 59.6932C214.338 60.1705 213.064 60.4091 211.632 60.4091C210.243 60.4091 208.999 60.1832 207.899 59.7315C206.8 59.2713 205.926 58.6364 205.278 57.8267C204.639 57.0085 204.303 56.0625 204.268 54.9886ZM234.023 55.9091L240.876 40.3636H243.739L235.251 60H232.796L224.461 40.3636H227.273L234.023 55.9091ZM226.302 40.3636V60H223.285V40.3636H226.302ZM241.745 60V40.3636H244.762V60H241.745ZM258.518 60.4091C256.626 60.4091 254.994 59.9915 253.621 59.1562C252.258 58.3125 251.205 57.1364 250.464 55.6278C249.731 54.1108 249.364 52.3466 249.364 50.3352C249.364 48.3239 249.731 46.5511 250.464 45.017C251.205 43.4744 252.237 42.2727 253.558 41.4119C254.887 40.5426 256.438 40.108 258.211 40.108C259.234 40.108 260.244 40.2784 261.241 40.6193C262.238 40.9602 263.146 41.5142 263.964 42.2812C264.782 43.0398 265.434 44.0455 265.92 45.2983C266.406 46.5511 266.648 48.0937 266.648 49.9261V51.2045H251.512V48.5966H263.58C263.58 47.4886 263.359 46.5 262.915 45.6307C262.481 44.7614 261.859 44.0753 261.049 43.5724C260.248 43.0696 259.302 42.8182 258.211 42.8182C257.009 42.8182 255.969 43.1165 255.092 43.7131C254.222 44.3011 253.553 45.0682 253.085 46.0142C252.616 46.9602 252.381 47.9744 252.381 49.0568V50.7955C252.381 52.2784 252.637 53.5355 253.148 54.5668C253.668 55.5895 254.388 56.3693 255.309 56.9062C256.229 57.4347 257.299 57.6989 258.518 57.6989C259.31 57.6989 260.026 57.5881 260.665 57.3665C261.313 57.1364 261.871 56.7955 262.34 56.3438C262.809 55.8835 263.171 55.3125 263.427 54.6307L266.342 55.4489C266.035 56.4375 265.519 57.3068 264.795 58.0568C264.07 58.7983 263.175 59.3778 262.11 59.7955C261.045 60.2045 259.847 60.4091 258.518 60.4091ZM284.38 48.8011V51.6136H273.539V48.8011H284.38ZM274.255 40.3636V60H271.238V40.3636H274.255ZM286.681 40.3636V60H283.664V40.3636H286.681ZM300.424 60.4091C298.532 60.4091 296.9 59.9915 295.528 59.1562C294.164 58.3125 293.112 57.1364 292.37 55.6278C291.637 54.1108 291.271 52.3466 291.271 50.3352C291.271 48.3239 291.637 46.5511 292.37 45.017C293.112 43.4744 294.143 42.2727 295.464 41.4119C296.793 40.5426 298.344 40.108 300.117 40.108C301.14 40.108 302.15 40.2784 303.147 40.6193C304.144 40.9602 305.052 41.5142 305.87 42.2812C306.688 43.0398 307.34 44.0455 307.826 45.2983C308.312 46.5511 308.555 48.0937 308.555 49.9261V51.2045H293.418V48.5966H305.487C305.487 47.4886 305.265 46.5 304.822 45.6307C304.387 44.7614 303.765 44.0753 302.955 43.5724C302.154 43.0696 301.208 42.8182 300.117 42.8182C298.915 42.8182 297.876 43.1165 296.998 43.7131C296.129 44.3011 295.46 45.0682 294.991 46.0142C294.522 46.9602 294.288 47.9744 294.288 49.0568V50.7955C294.288 52.2784 294.543 53.5355 295.055 54.5668C295.575 55.5895 296.295 56.3693 297.215 56.9062C298.136 57.4347 299.205 57.6989 300.424 57.6989C301.217 57.6989 301.933 57.5881 302.572 57.3665C303.219 57.1364 303.778 56.7955 304.246 56.3438C304.715 55.8835 305.077 55.3125 305.333 54.6307L308.248 55.4489C307.941 56.4375 307.425 57.3068 306.701 58.0568C305.977 58.7983 305.082 59.3778 304.016 59.7955C302.951 60.2045 301.754 60.4091 300.424 60.4091ZM326.286 48.8011V51.6136H315.445V48.8011H326.286ZM316.161 40.3636V60H313.144V40.3636H316.161ZM328.587 40.3636V60H325.57V40.3636H328.587ZM337.114 55.5511L346.575 40.3636H350.052V60H347.035V44.8125L337.626 60H334.097V40.3636H337.114V55.5511ZM363.811 60.4091C361.919 60.4091 360.287 59.9915 358.914 59.1562C357.551 58.3125 356.498 57.1364 355.757 55.6278C355.024 54.1108 354.657 52.3466 354.657 50.3352C354.657 48.3239 355.024 46.5511 355.757 45.017C356.498 43.4744 357.529 42.2727 358.85 41.4119C360.18 40.5426 361.731 40.108 363.504 40.108C364.527 40.108 365.537 40.2784 366.534 40.6193C367.531 40.9602 368.439 41.5142 369.257 42.2812C370.075 43.0398 370.727 44.0455 371.213 45.2983C371.699 46.5511 371.941 48.0937 371.941 49.9261V51.2045H356.805V48.5966H368.873C368.873 47.4886 368.652 46.5 368.208 45.6307C367.774 44.7614 367.152 44.0753 366.342 43.5724C365.541 43.0696 364.595 42.8182 363.504 42.8182C362.302 42.8182 361.262 43.1165 360.385 43.7131C359.515 44.3011 358.846 45.0682 358.377 46.0142C357.909 46.9602 357.674 47.9744 357.674 49.0568V50.7955C357.674 52.2784 357.93 53.5355 358.441 54.5668C358.961 55.5895 359.681 56.3693 360.602 56.9062C361.522 57.4347 362.592 57.6989 363.811 57.6989C364.603 57.6989 365.319 57.5881 365.958 57.3665C366.606 57.1364 367.164 56.7955 367.633 56.3438C368.102 55.8835 368.464 55.3125 368.72 54.6307L371.635 55.4489C371.328 56.4375 370.812 57.3068 370.088 58.0568C369.363 58.7983 368.468 59.3778 367.403 59.7955C366.338 60.2045 365.14 60.4091 363.811 60.4091ZM378.73 60.2045C378.099 60.2045 377.558 59.9787 377.106 59.527C376.654 59.0753 376.429 58.5341 376.429 57.9034C376.429 57.2727 376.654 56.7315 377.106 56.2798C377.558 55.8281 378.099 55.6023 378.73 55.6023C379.36 55.6023 379.902 55.8281 380.353 56.2798C380.805 56.7315 381.031 57.2727 381.031 57.9034C381.031 58.321 380.924 58.7045 380.711 59.054C380.507 59.4034 380.23 59.6847 379.88 59.8977C379.539 60.1023 379.156 60.2045 378.73 60.2045ZM378.73 45.6307C378.099 45.6307 377.558 45.4048 377.106 44.9531C376.654 44.5014 376.429 43.9602 376.429 43.3295C376.429 42.6989 376.654 42.1577 377.106 41.706C377.558 41.2543 378.099 41.0284 378.73 41.0284C379.36 41.0284 379.902 41.2543 380.353 41.706C380.805 42.1577 381.031 42.6989 381.031 43.3295C381.031 43.7472 380.924 44.1307 380.711 44.4801C380.507 44.8295 380.23 45.1108 379.88 45.3239C379.539 45.5284 379.156 45.6307 378.73 45.6307Z" fill="white" fill-opacity="0.5"/>
<path d="M405.723 33.8182V60H402.553V37.142H402.4L396.007 41.3864V38.1648L402.553 33.8182H405.723ZM421.64 60.358C419.884 60.358 418.333 60.0469 416.986 59.4247C415.648 58.794 414.604 57.929 413.854 56.8295C413.104 55.7216 412.733 54.4602 412.742 53.0455C412.733 51.9375 412.951 50.9148 413.394 49.9773C413.837 49.0312 414.442 48.2429 415.209 47.6122C415.985 46.973 416.85 46.5682 417.804 46.3977V46.2443C416.551 45.9205 415.554 45.2173 414.813 44.1349C414.071 43.044 413.705 41.804 413.713 40.4148C413.705 39.0852 414.042 37.8963 414.723 36.848C415.405 35.7997 416.343 34.973 417.536 34.3679C418.738 33.7628 420.105 33.4602 421.64 33.4602C423.157 33.4602 424.512 33.7628 425.705 34.3679C426.898 34.973 427.836 35.7997 428.517 36.848C429.208 37.8963 429.557 39.0852 429.566 40.4148C429.557 41.804 429.178 43.044 428.428 44.1349C427.686 45.2173 426.702 45.9205 425.475 46.2443V46.3977C426.421 46.5682 427.273 46.973 428.032 47.6122C428.79 48.2429 429.395 49.0312 429.847 49.9773C430.299 50.9148 430.529 51.9375 430.537 53.0455C430.529 54.4602 430.145 55.7216 429.387 56.8295C428.637 57.929 427.593 58.794 426.255 59.4247C424.925 60.0469 423.387 60.358 421.64 60.358ZM421.64 57.5455C422.824 57.5455 423.847 57.3537 424.708 56.9702C425.569 56.5866 426.233 56.0455 426.702 55.3466C427.171 54.6477 427.409 53.8295 427.418 52.892C427.409 51.9034 427.154 51.0298 426.651 50.2713C426.148 49.5128 425.462 48.9162 424.593 48.4815C423.732 48.0469 422.748 47.8295 421.64 47.8295C420.523 47.8295 419.526 48.0469 418.648 48.4815C417.779 48.9162 417.093 49.5128 416.59 50.2713C416.096 51.0298 415.853 51.9034 415.861 52.892C415.853 53.8295 416.078 54.6477 416.539 55.3466C417.007 56.0455 417.676 56.5866 418.546 56.9702C419.415 57.3537 420.446 57.5455 421.64 57.5455ZM421.64 45.1193C422.577 45.1193 423.408 44.9318 424.132 44.5568C424.865 44.1818 425.441 43.6577 425.858 42.9844C426.276 42.3111 426.489 41.5227 426.498 40.6193C426.489 39.733 426.28 38.9616 425.871 38.3054C425.462 37.6406 424.895 37.1293 424.171 36.7713C423.446 36.4048 422.603 36.2216 421.64 36.2216C420.659 36.2216 419.803 36.4048 419.07 36.7713C418.337 37.1293 417.77 37.6406 417.37 38.3054C416.969 38.9616 416.773 39.733 416.782 40.6193C416.773 41.5227 416.973 42.3111 417.382 42.9844C417.8 43.6577 418.375 44.1818 419.108 44.5568C419.841 44.9318 420.685 45.1193 421.64 45.1193ZM436.878 60.2045C436.248 60.2045 435.706 59.9787 435.255 59.527C434.803 59.0753 434.577 58.5341 434.577 57.9034C434.577 57.2727 434.803 56.7315 435.255 56.2798C435.706 55.8281 436.248 55.6023 436.878 55.6023C437.509 55.6023 438.05 55.8281 438.502 56.2798C438.953 56.7315 439.179 57.2727 439.179 57.9034C439.179 58.321 439.073 58.7045 438.86 59.054C438.655 59.4034 438.378 59.6847 438.029 59.8977C437.688 60.1023 437.304 60.2045 436.878 60.2045ZM452.168 60.358C450.242 60.358 448.601 59.8338 447.246 58.7855C445.891 57.7287 444.855 56.1989 444.14 54.196C443.424 52.1847 443.066 49.7557 443.066 46.9091C443.066 44.0795 443.424 41.6634 444.14 39.6605C444.864 37.6491 445.904 36.1151 447.259 35.0582C448.623 33.9929 450.259 33.4602 452.168 33.4602C454.077 33.4602 455.709 33.9929 457.064 35.0582C458.428 36.1151 459.468 37.6491 460.184 39.6605C460.908 41.6634 461.27 44.0795 461.27 46.9091C461.27 49.7557 460.912 52.1847 460.196 54.196C459.48 56.1989 458.445 57.7287 457.09 58.7855C455.735 59.8338 454.094 60.358 452.168 60.358ZM452.168 57.5455C454.077 57.5455 455.56 56.625 456.617 54.7841C457.674 52.9432 458.202 50.3182 458.202 46.9091C458.202 44.642 457.959 42.7116 457.473 41.1179C456.996 39.5241 456.306 38.3097 455.402 37.4744C454.507 36.6392 453.429 36.2216 452.168 36.2216C450.276 36.2216 448.797 37.1548 447.732 39.0213C446.667 40.8793 446.134 43.5085 446.134 46.9091C446.134 49.1761 446.373 51.1023 446.85 52.6875C447.327 54.2727 448.013 55.4787 448.908 56.3054C449.811 57.1321 450.898 57.5455 452.168 57.5455ZM465.515 54.6307V52.0227L477.02 33.8182H478.912V37.858H477.634L468.941 51.6136V51.8182H484.435V54.6307H465.515ZM477.838 60V53.8381V52.6236V33.8182H480.855V60H477.838ZM490.245 60.2045C489.615 60.2045 489.074 59.9787 488.622 59.527C488.17 59.0753 487.944 58.5341 487.944 57.9034C487.944 57.2727 488.17 56.7315 488.622 56.2798C489.074 55.8281 489.615 55.6023 490.245 55.6023C490.876 55.6023 491.417 55.8281 491.869 56.2798C492.321 56.7315 492.547 57.2727 492.547 57.9034C492.547 58.321 492.44 58.7045 492.227 59.054C492.022 59.4034 491.745 59.6847 491.396 59.8977C491.055 60.1023 490.672 60.2045 490.245 60.2045ZM497.909 60V57.6989L506.551 48.2386C507.566 47.1307 508.401 46.1676 509.057 45.3494C509.713 44.5227 510.199 43.7472 510.515 43.0227C510.838 42.2898 511 41.5227 511 40.7216C511 39.8011 510.779 39.0043 510.336 38.331C509.901 37.6577 509.304 37.1378 508.546 36.7713C507.787 36.4048 506.935 36.2216 505.989 36.2216C504.983 36.2216 504.105 36.4304 503.355 36.848C502.614 37.2571 502.039 37.8324 501.63 38.5739C501.229 39.3153 501.029 40.1847 501.029 41.1818H498.012C498.012 39.6477 498.365 38.3011 499.073 37.142C499.78 35.983 500.743 35.0795 501.962 34.4318C503.189 33.7841 504.566 33.4602 506.091 33.4602C507.625 33.4602 508.985 33.7841 510.169 34.4318C511.354 35.0795 512.283 35.9531 512.956 37.0526C513.63 38.152 513.966 39.375 513.966 40.7216C513.966 41.6847 513.792 42.6264 513.442 43.5469C513.101 44.4588 512.505 45.4773 511.652 46.6023C510.809 47.7187 509.637 49.0824 508.137 50.6932L502.256 56.983V57.1875H514.426V60H497.909ZM528.246 60.358C526.32 60.358 524.679 59.8338 523.324 58.7855C521.969 57.7287 520.934 56.1989 520.218 54.196C519.502 52.1847 519.144 49.7557 519.144 46.9091C519.144 44.0795 519.502 41.6634 520.218 39.6605C520.942 37.6491 521.982 36.1151 523.337 35.0582C524.701 33.9929 526.337 33.4602 528.246 33.4602C530.155 33.4602 531.787 33.9929 533.142 35.0582C534.506 36.1151 535.546 37.6491 536.262 39.6605C536.986 41.6634 537.348 44.0795 537.348 46.9091C537.348 49.7557 536.99 52.1847 536.275 54.196C535.559 56.1989 534.523 57.7287 533.168 58.7855C531.813 59.8338 530.172 60.358 528.246 60.358ZM528.246 57.5455C530.155 57.5455 531.638 56.625 532.695 54.7841C533.752 52.9432 534.28 50.3182 534.28 46.9091C534.28 44.642 534.037 42.7116 533.551 41.1179C533.074 39.5241 532.384 38.3097 531.48 37.4744C530.586 36.6392 529.507 36.2216 528.246 36.2216C526.354 36.2216 524.875 37.1548 523.81 39.0213C522.745 40.8793 522.212 43.5085 522.212 46.9091C522.212 49.1761 522.451 51.1023 522.928 52.6875C523.405 54.2727 524.091 55.4787 524.986 56.3054C525.89 57.1321 526.976 57.5455 528.246 57.5455ZM542.206 60V57.6989L550.848 48.2386C551.863 47.1307 552.698 46.1676 553.354 45.3494C554.01 44.5227 554.496 43.7472 554.811 43.0227C555.135 42.2898 555.297 41.5227 555.297 40.7216C555.297 39.8011 555.076 39.0043 554.632 38.331C554.198 37.6577 553.601 37.1378 552.843 36.7713C552.084 36.4048 551.232 36.2216 550.286 36.2216C549.28 36.2216 548.402 36.4304 547.652 36.848C546.911 37.2571 546.336 37.8324 545.926 38.5739C545.526 39.3153 545.326 40.1847 545.326 41.1818H542.309C542.309 39.6477 542.662 38.3011 543.37 37.142C544.077 35.983 545.04 35.0795 546.259 34.4318C547.486 33.7841 548.863 33.4602 550.388 33.4602C551.922 33.4602 553.282 33.7841 554.466 34.4318C555.651 35.0795 556.58 35.9531 557.253 37.0526C557.926 38.152 558.263 39.375 558.263 40.7216C558.263 41.6847 558.088 42.6264 557.739 43.5469C557.398 44.4588 556.801 45.4773 555.949 46.6023C555.105 47.7187 553.934 49.0824 552.434 50.6932L546.553 56.983V57.1875H558.723V60H542.206ZM562.827 54.6307V52.0227L574.333 33.8182H576.225V37.858H574.946L566.253 51.6136V51.8182H581.748V54.6307H562.827ZM575.151 60V53.8381V52.6236V33.8182H578.168V60H575.151ZM596.714 60V40.3636H604.743C606.857 40.3636 608.536 40.8409 609.78 41.7955C611.024 42.75 611.646 44.0114 611.646 45.5795C611.646 46.7727 611.293 47.6974 610.585 48.3537C609.878 49.0014 608.97 49.4403 607.862 49.6705C608.587 49.7727 609.29 50.0284 609.972 50.4375C610.662 50.8466 611.233 51.4091 611.685 52.125C612.136 52.8324 612.362 53.7017 612.362 54.733C612.362 55.7386 612.107 56.6378 611.595 57.4304C611.084 58.223 610.351 58.8494 609.396 59.3097C608.442 59.7699 607.3 60 605.97 60H596.714ZM599.578 57.2386H605.97C607.01 57.2386 607.824 56.9915 608.412 56.4972C609 56.0028 609.294 55.3295 609.294 54.4773C609.294 53.4631 609 52.6662 608.412 52.0866C607.824 51.4986 607.01 51.2045 605.97 51.2045H599.578V57.2386ZM599.578 48.5966H604.743C605.553 48.5966 606.247 48.4858 606.827 48.2642C607.406 48.0341 607.849 47.7102 608.156 47.2926C608.472 46.8665 608.629 46.3636 608.629 45.7841C608.629 44.9574 608.284 44.3097 607.594 43.8409C606.903 43.3636 605.953 43.125 604.743 43.125H599.578V48.5966ZM636.208 33.8182V60H633.037V37.142H632.884L626.492 41.3864V38.1648L633.037 33.8182H636.208ZM652.124 60.358C650.368 60.358 648.817 60.0469 647.471 59.4247C646.132 58.794 645.088 57.929 644.338 56.8295C643.588 55.7216 643.218 54.4602 643.226 53.0455C643.218 51.9375 643.435 50.9148 643.878 49.9773C644.321 49.0312 644.926 48.2429 645.694 47.6122C646.469 46.973 647.334 46.5682 648.289 46.3977V46.2443C647.036 45.9205 646.039 45.2173 645.297 44.1349C644.556 43.044 644.189 41.804 644.198 40.4148C644.189 39.0852 644.526 37.8963 645.208 36.848C645.89 35.7997 646.827 34.973 648.02 34.3679C649.222 33.7628 650.59 33.4602 652.124 33.4602C653.641 33.4602 654.996 33.7628 656.189 34.3679C657.382 34.973 658.32 35.7997 659.002 36.848C659.692 37.8963 660.042 39.0852 660.05 40.4148C660.042 41.804 659.662 43.044 658.912 44.1349C658.171 45.2173 657.186 45.9205 655.959 46.2443V46.3977C656.905 46.5682 657.757 46.973 658.516 47.6122C659.275 48.2429 659.88 49.0312 660.331 49.9773C660.783 50.9148 661.013 51.9375 661.022 53.0455C661.013 54.4602 660.63 55.7216 659.871 56.8295C659.121 57.929 658.077 58.794 656.739 59.4247C655.409 60.0469 653.871 60.358 652.124 60.358ZM652.124 57.5455C653.309 57.5455 654.331 57.3537 655.192 56.9702C656.053 56.5866 656.718 56.0455 657.186 55.3466C657.655 54.6477 657.894 53.8295 657.902 52.892C657.894 51.9034 657.638 51.0298 657.135 50.2713C656.632 49.5128 655.946 48.9162 655.077 48.4815C654.216 48.0469 653.232 47.8295 652.124 47.8295C651.007 47.8295 650.01 48.0469 649.132 48.4815C648.263 48.9162 647.577 49.5128 647.074 50.2713C646.58 51.0298 646.337 51.9034 646.346 52.892C646.337 53.8295 646.563 54.6477 647.023 55.3466C647.492 56.0455 648.161 56.5866 649.03 56.9702C649.9 57.3537 650.931 57.5455 652.124 57.5455ZM652.124 45.1193C653.061 45.1193 653.892 44.9318 654.617 44.5568C655.35 44.1818 655.925 43.6577 656.343 42.9844C656.76 42.3111 656.973 41.5227 656.982 40.6193C656.973 39.733 656.765 38.9616 656.355 38.3054C655.946 37.6406 655.38 37.1293 654.655 36.7713C653.931 36.4048 653.087 36.2216 652.124 36.2216C651.144 36.2216 650.287 36.4048 649.554 36.7713C648.821 37.1293 648.255 37.6406 647.854 38.3054C647.453 38.9616 647.257 39.733 647.266 40.6193C647.257 41.5227 647.458 42.3111 647.867 42.9844C648.284 43.6577 648.86 44.1818 649.593 44.5568C650.326 44.9318 651.169 45.1193 652.124 45.1193ZM668.171 56.6506C667.54 56.6506 666.999 56.4247 666.548 55.973C666.096 55.5213 665.87 54.9801 665.87 54.3494C665.87 53.7187 666.096 53.1776 666.548 52.7259C666.999 52.2741 667.54 52.0483 668.171 52.0483C668.802 52.0483 669.343 52.2741 669.795 52.7259C670.246 53.1776 670.472 53.7187 670.472 54.3494C670.472 54.767 670.366 55.1506 670.153 55.5C669.948 55.8494 669.671 56.1307 669.322 56.3438C668.981 56.5483 668.597 56.6506 668.171 56.6506ZM668.171 43.4062C667.54 43.4062 666.999 43.1804 666.548 42.7287C666.096 42.277 665.87 41.7358 665.87 41.1051C665.87 40.4744 666.096 39.9332 666.548 39.4815C666.999 39.0298 667.54 38.804 668.171 38.804C668.802 38.804 669.343 39.0298 669.795 39.4815C670.246 39.9332 670.472 40.4744 670.472 41.1051C670.472 41.5227 670.366 41.9062 670.153 42.2557C669.948 42.6051 669.671 42.8864 669.322 43.0994C668.981 43.304 668.597 43.4062 668.171 43.4062ZM684.375 60.358C682.449 60.358 680.808 59.8338 679.453 58.7855C678.098 57.7287 677.063 56.1989 676.347 54.196C675.631 52.1847 675.273 49.7557 675.273 46.9091C675.273 44.0795 675.631 41.6634 676.347 39.6605C677.071 37.6491 678.111 36.1151 679.466 35.0582C680.83 33.9929 682.466 33.4602 684.375 33.4602C686.284 33.4602 687.916 33.9929 689.271 35.0582C690.635 36.1151 691.675 37.6491 692.391 39.6605C693.115 41.6634 693.477 44.0795 693.477 46.9091C693.477 49.7557 693.119 52.1847 692.403 54.196C691.688 56.1989 690.652 57.7287 689.297 58.7855C687.942 59.8338 686.301 60.358 684.375 60.358ZM684.375 57.5455C686.284 57.5455 687.767 56.625 688.824 54.7841C689.881 52.9432 690.409 50.3182 690.409 46.9091C690.409 44.642 690.166 42.7116 689.68 41.1179C689.203 39.5241 688.513 38.3097 687.609 37.4744C686.714 36.6392 685.636 36.2216 684.375 36.2216C682.483 36.2216 681.004 37.1548 679.939 39.0213C678.874 40.8793 678.341 43.5085 678.341 46.9091C678.341 49.1761 678.58 51.1023 679.057 52.6875C679.534 54.2727 680.22 55.4787 681.115 56.3054C682.018 57.1321 683.105 57.5455 684.375 57.5455ZM697.722 54.6307V52.0227L709.227 33.8182H711.119V37.858H709.841L701.148 51.6136V51.8182H716.642V54.6307H697.722ZM710.045 60V53.8381V52.6236V33.8182H713.062V60H710.045Z" fill="white"/>
<rect x="1120" y="38" width="401" height="18" rx="9" fill="white" fill-opacity="0.2"/>
<rect x="1120" y="38" width="16" height="18" rx="8" fill="white"/>
<defs>
<linearGradient id="paint0_linear_0_1" x1="765" y1="47" x2="1583" y2="47" gradientUnits="userSpaceOnUse">
<stop stop-color="white"/>
<stop offset="1" stop-color="#999999"/>
</linearGradient>
</defs>
</svg>
