<svg width="727" height="44" viewBox="0 0 727 44" fill="none" xmlns="http://www.w3.org/2000/svg">
<path d="M22.7557 8.81818V35H19.5852V11.6307H6.39205V35H3.22159V8.81818H22.7557ZM36.7191 35.4091C34.9464 35.4091 33.391 34.9872 32.0529 34.1435C30.7234 33.2997 29.6836 32.1193 28.9336 30.6023C28.1921 29.0852 27.8214 27.3125 27.8214 25.2841C27.8214 23.2386 28.1921 21.4531 28.9336 19.9276C29.6836 18.402 30.7234 17.2173 32.0529 16.3736C33.391 15.5298 34.9464 15.108 36.7191 15.108C38.4918 15.108 40.043 15.5298 41.3725 16.3736C42.7106 17.2173 43.7504 18.402 44.4918 19.9276C45.2418 21.4531 45.6168 23.2386 45.6168 25.2841C45.6168 27.3125 45.2418 29.0852 44.4918 30.6023C43.7504 32.1193 42.7106 33.2997 41.3725 34.1435C40.043 34.9872 38.4918 35.4091 36.7191 35.4091ZM36.7191 32.6989C38.0657 32.6989 39.1737 32.3537 40.043 31.6634C40.9123 30.973 41.5558 30.0653 41.9734 28.9403C42.391 27.8153 42.5998 26.5966 42.5998 25.2841C42.5998 23.9716 42.391 22.7486 41.9734 21.6151C41.5558 20.4815 40.9123 19.5653 40.043 18.8665C39.1737 18.1676 38.0657 17.8182 36.7191 17.8182C35.3725 17.8182 34.2646 18.1676 33.3952 18.8665C32.5259 19.5653 31.8825 20.4815 31.4648 21.6151C31.0472 22.7486 30.8384 23.9716 30.8384 25.2841C30.8384 26.5966 31.0472 27.8153 31.4648 28.9403C31.8825 30.0653 32.5259 30.973 33.3952 31.6634C34.2646 32.3537 35.3725 32.6989 36.7191 32.6989ZM58.1996 35.4091C56.3587 35.4091 54.7734 34.9744 53.4439 34.1051C52.1143 33.2358 51.0916 32.0384 50.3757 30.5128C49.6598 28.9872 49.3018 27.2443 49.3018 25.2841C49.3018 23.2898 49.6683 21.5298 50.4013 20.0043C51.1428 18.4702 52.174 17.2727 53.495 16.4119C54.8246 15.5426 56.3757 15.108 58.1484 15.108C59.5291 15.108 60.7734 15.3636 61.8814 15.875C62.9893 16.3864 63.897 17.1023 64.6044 18.0227C65.3118 18.9432 65.7507 20.017 65.9212 21.2443H62.9041C62.674 20.3494 62.1626 19.5568 61.37 18.8665C60.5859 18.1676 59.5291 17.8182 58.1996 17.8182C57.0234 17.8182 55.9922 18.125 55.1058 18.7386C54.228 19.3437 53.5419 20.2003 53.0476 21.3082C52.5618 22.4077 52.3189 23.6989 52.3189 25.1818C52.3189 26.6989 52.5575 28.0199 53.0348 29.1449C53.5206 30.2699 54.2024 31.1435 55.0803 31.7656C55.9666 32.3878 57.0064 32.6989 58.1996 32.6989C58.9837 32.6989 59.6953 32.5625 60.3345 32.2898C60.9737 32.017 61.5149 31.625 61.9581 31.1136C62.4013 30.6023 62.7166 29.9886 62.9041 29.2727H65.9212C65.7507 30.4318 65.3288 31.4759 64.6555 32.4048C63.9908 33.3253 63.1087 34.0582 62.0092 34.6037C60.9183 35.1406 59.6484 35.4091 58.1996 35.4091ZM68.593 35V32.1875H69.3089C69.897 32.1875 70.3871 32.0724 70.7791 31.8423C71.1712 31.6037 71.4865 31.1903 71.7251 30.6023C71.9723 30.0057 72.1598 29.179 72.2876 28.1222C72.424 27.0568 72.522 25.7017 72.5817 24.0568L72.9396 15.3636H86.0305V35H83.0135V18.1761H75.8033L75.4964 25.1818C75.4283 26.7926 75.2834 28.2116 75.0618 29.4389C74.8487 30.6577 74.5206 31.6804 74.0774 32.5071C73.6428 33.3338 73.0632 33.956 72.3388 34.3736C71.6143 34.7912 70.7067 35 69.6158 35H68.593ZM99.799 35.4091C97.907 35.4091 96.2749 34.9915 94.9027 34.1562C93.5391 33.3125 92.4865 32.1364 91.745 30.6278C91.0121 29.1108 90.6456 27.3466 90.6456 25.3352C90.6456 23.3239 91.0121 21.5511 91.745 20.017C92.4865 18.4744 93.5178 17.2727 94.8388 16.4119C96.1683 15.5426 97.7195 15.108 99.4922 15.108C100.515 15.108 101.525 15.2784 102.522 15.6193C103.519 15.9602 104.427 16.5142 105.245 17.2812C106.063 18.0398 106.715 19.0455 107.201 20.2983C107.687 21.5511 107.93 23.0937 107.93 24.9261V26.2045H92.7933V23.5966H104.862C104.862 22.4886 104.64 21.5 104.197 20.6307C103.762 19.7614 103.14 19.0753 102.33 18.5724C101.529 18.0696 100.583 17.8182 99.4922 17.8182C98.2905 17.8182 97.2507 18.1165 96.3729 18.7131C95.5036 19.3011 94.8345 20.0682 94.3658 21.0142C93.897 21.9602 93.6626 22.9744 93.6626 24.0568V25.7955C93.6626 27.2784 93.9183 28.5355 94.4297 29.5668C94.9496 30.5895 95.6697 31.3693 96.5902 31.9062C97.5107 32.4347 98.5803 32.6989 99.799 32.6989C100.592 32.6989 101.308 32.5881 101.947 32.3665C102.594 32.1364 103.153 31.7955 103.621 31.3438C104.09 30.8835 104.452 30.3125 104.708 29.6307L107.623 30.4489C107.316 31.4375 106.8 32.3068 106.076 33.0568C105.352 33.7983 104.457 34.3778 103.391 34.7955C102.326 35.2045 101.129 35.4091 99.799 35.4091ZM110.423 40.625V32.1875H112.059C112.46 31.7699 112.805 31.3182 113.094 30.8324C113.384 30.3466 113.636 29.7713 113.849 29.1065C114.07 28.4332 114.258 27.6151 114.411 26.652C114.565 25.6804 114.701 24.5085 114.82 23.1364L115.485 15.3636H127.962V32.1875H130.979V40.625H127.962V35H113.44V40.625H110.423ZM115.485 32.1875H124.945V18.1761H118.298L117.786 23.1364C117.573 25.1903 117.309 26.9844 116.994 28.5185C116.678 30.0526 116.175 31.2756 115.485 32.1875ZM148.126 23.8011V26.6136H137.285V23.8011H148.126ZM138.001 15.3636V35H134.984V15.3636H138.001ZM150.427 15.3636V35H147.41V15.3636H150.427ZM164.17 35.4091C162.278 35.4091 160.646 34.9915 159.274 34.1562C157.91 33.3125 156.858 32.1364 156.116 30.6278C155.383 29.1108 155.017 27.3466 155.017 25.3352C155.017 23.3239 155.383 21.5511 156.116 20.017C156.858 18.4744 157.889 17.2727 159.21 16.4119C160.539 15.5426 162.091 15.108 163.863 15.108C164.886 15.108 165.896 15.2784 166.893 15.6193C167.89 15.9602 168.798 16.5142 169.616 17.2812C170.434 18.0398 171.086 19.0455 171.572 20.2983C172.058 21.5511 172.301 23.0937 172.301 24.9261V26.2045H157.164V23.5966H169.233C169.233 22.4886 169.011 21.5 168.568 20.6307C168.133 19.7614 167.511 19.0753 166.701 18.5724C165.9 18.0696 164.954 17.8182 163.863 17.8182C162.662 17.8182 161.622 18.1165 160.744 18.7131C159.875 19.3011 159.206 20.0682 158.737 21.0142C158.268 21.9602 158.034 22.9744 158.034 24.0568V25.7955C158.034 27.2784 158.289 28.5355 158.801 29.5668C159.321 30.5895 160.041 31.3693 160.961 31.9062C161.882 32.4347 162.951 32.6989 164.17 32.6989C164.963 32.6989 165.679 32.5881 166.318 32.3665C166.966 32.1364 167.524 31.7955 167.993 31.3438C168.461 30.8835 168.824 30.3125 169.079 29.6307L171.994 30.4489C171.687 31.4375 171.172 32.3068 170.447 33.0568C169.723 33.7983 168.828 34.3778 167.762 34.7955C166.697 35.2045 165.5 35.4091 164.17 35.4091ZM190.032 30.5511L199.493 15.3636H202.97V35H199.953V19.8125L190.544 35H187.015V15.3636H190.032V30.5511ZM207.268 29.9886H210.49C210.558 30.875 210.959 31.5483 211.692 32.0085C212.433 32.4688 213.396 32.6989 214.581 32.6989C215.791 32.6989 216.827 32.4517 217.688 31.9574C218.548 31.4545 218.979 30.6449 218.979 29.5284C218.979 28.8722 218.817 28.3011 218.493 27.8153C218.169 27.321 217.713 26.9375 217.125 26.6648C216.537 26.392 215.842 26.2557 215.041 26.2557H211.666V23.5455H215.041C216.243 23.5455 217.129 23.2727 217.7 22.7273C218.28 22.1818 218.57 21.5 218.57 20.6818C218.57 19.804 218.259 19.1009 217.636 18.5724C217.014 18.0355 216.132 17.767 214.99 17.767C213.839 17.767 212.881 18.027 212.114 18.5469C211.347 19.0582 210.942 19.7187 210.899 20.5284H207.729C207.763 19.4716 208.087 18.5384 208.7 17.7287C209.314 16.9105 210.149 16.2713 211.206 15.8111C212.263 15.3423 213.473 15.108 214.837 15.108C216.217 15.108 217.415 15.3509 218.429 15.8366C219.452 16.3139 220.24 16.9659 220.794 17.7926C221.357 18.6108 221.638 19.5398 221.638 20.5795C221.638 21.6875 221.327 22.5824 220.705 23.2642C220.082 23.946 219.303 24.4318 218.365 24.7216V24.9261C219.107 24.9773 219.75 25.2159 220.295 25.642C220.849 26.0597 221.28 26.6094 221.587 27.2912C221.893 27.9645 222.047 28.7102 222.047 29.5284C222.047 30.7216 221.727 31.7614 221.088 32.6477C220.449 33.5256 219.571 34.2074 218.455 34.6932C217.338 35.1705 216.064 35.4091 214.632 35.4091C213.243 35.4091 211.999 35.1832 210.899 34.7315C209.8 34.2713 208.926 33.6364 208.278 32.8267C207.639 32.0085 207.303 31.0625 207.268 29.9886ZM237.023 30.9091L243.876 15.3636H246.739L238.251 35H235.796L227.461 15.3636H230.273L237.023 30.9091ZM229.302 15.3636V35H226.285V15.3636H229.302ZM244.745 35V15.3636H247.762V35H244.745ZM261.518 35.4091C259.626 35.4091 257.994 34.9915 256.621 34.1562C255.258 33.3125 254.205 32.1364 253.464 30.6278C252.731 29.1108 252.364 27.3466 252.364 25.3352C252.364 23.3239 252.731 21.5511 253.464 20.017C254.205 18.4744 255.237 17.2727 256.558 16.4119C257.887 15.5426 259.438 15.108 261.211 15.108C262.234 15.108 263.244 15.2784 264.241 15.6193C265.238 15.9602 266.146 16.5142 266.964 17.2812C267.782 18.0398 268.434 19.0455 268.92 20.2983C269.406 21.5511 269.648 23.0937 269.648 24.9261V26.2045H254.512V23.5966H266.58C266.58 22.4886 266.359 21.5 265.915 20.6307C265.481 19.7614 264.859 19.0753 264.049 18.5724C263.248 18.0696 262.302 17.8182 261.211 17.8182C260.009 17.8182 258.969 18.1165 258.092 18.7131C257.222 19.3011 256.553 20.0682 256.085 21.0142C255.616 21.9602 255.381 22.9744 255.381 24.0568V25.7955C255.381 27.2784 255.637 28.5355 256.148 29.5668C256.668 30.5895 257.388 31.3693 258.309 31.9062C259.229 32.4347 260.299 32.6989 261.518 32.6989C262.31 32.6989 263.026 32.5881 263.665 32.3665C264.313 32.1364 264.871 31.7955 265.34 31.3438C265.809 30.8835 266.171 30.3125 266.427 29.6307L269.342 30.4489C269.035 31.4375 268.519 32.3068 267.795 33.0568C267.07 33.7983 266.175 34.3778 265.11 34.7955C264.045 35.2045 262.847 35.4091 261.518 35.4091ZM287.38 23.8011V26.6136H276.539V23.8011H287.38ZM277.255 15.3636V35H274.238V15.3636H277.255ZM289.681 15.3636V35H286.664V15.3636H289.681ZM303.424 35.4091C301.532 35.4091 299.9 34.9915 298.528 34.1562C297.164 33.3125 296.112 32.1364 295.37 30.6278C294.637 29.1108 294.271 27.3466 294.271 25.3352C294.271 23.3239 294.637 21.5511 295.37 20.017C296.112 18.4744 297.143 17.2727 298.464 16.4119C299.793 15.5426 301.344 15.108 303.117 15.108C304.14 15.108 305.15 15.2784 306.147 15.6193C307.144 15.9602 308.052 16.5142 308.87 17.2812C309.688 18.0398 310.34 19.0455 310.826 20.2983C311.312 21.5511 311.555 23.0937 311.555 24.9261V26.2045H296.418V23.5966H308.487C308.487 22.4886 308.265 21.5 307.822 20.6307C307.387 19.7614 306.765 19.0753 305.955 18.5724C305.154 18.0696 304.208 17.8182 303.117 17.8182C301.915 17.8182 300.876 18.1165 299.998 18.7131C299.129 19.3011 298.46 20.0682 297.991 21.0142C297.522 21.9602 297.288 22.9744 297.288 24.0568V25.7955C297.288 27.2784 297.543 28.5355 298.055 29.5668C298.575 30.5895 299.295 31.3693 300.215 31.9062C301.136 32.4347 302.205 32.6989 303.424 32.6989C304.217 32.6989 304.933 32.5881 305.572 32.3665C306.219 32.1364 306.778 31.7955 307.246 31.3438C307.715 30.8835 308.077 30.3125 308.333 29.6307L311.248 30.4489C310.941 31.4375 310.425 32.3068 309.701 33.0568C308.977 33.7983 308.082 34.3778 307.016 34.7955C305.951 35.2045 304.754 35.4091 303.424 35.4091ZM329.286 23.8011V26.6136H318.445V23.8011H329.286ZM319.161 15.3636V35H316.144V15.3636H319.161ZM331.587 15.3636V35H328.57V15.3636H331.587ZM340.114 30.5511L349.575 15.3636H353.052V35H350.035V19.8125L340.626 35H337.097V15.3636H340.114V30.5511ZM366.811 35.4091C364.919 35.4091 363.287 34.9915 361.914 34.1562C360.551 33.3125 359.498 32.1364 358.757 30.6278C358.024 29.1108 357.657 27.3466 357.657 25.3352C357.657 23.3239 358.024 21.5511 358.757 20.017C359.498 18.4744 360.529 17.2727 361.85 16.4119C363.18 15.5426 364.731 15.108 366.504 15.108C367.527 15.108 368.537 15.2784 369.534 15.6193C370.531 15.9602 371.439 16.5142 372.257 17.2812C373.075 18.0398 373.727 19.0455 374.213 20.2983C374.699 21.5511 374.941 23.0937 374.941 24.9261V26.2045H359.805V23.5966H371.873C371.873 22.4886 371.652 21.5 371.208 20.6307C370.774 19.7614 370.152 19.0753 369.342 18.5724C368.541 18.0696 367.595 17.8182 366.504 17.8182C365.302 17.8182 364.262 18.1165 363.385 18.7131C362.515 19.3011 361.846 20.0682 361.377 21.0142C360.909 21.9602 360.674 22.9744 360.674 24.0568V25.7955C360.674 27.2784 360.93 28.5355 361.441 29.5668C361.961 30.5895 362.681 31.3693 363.602 31.9062C364.522 32.4347 365.592 32.6989 366.811 32.6989C367.603 32.6989 368.319 32.5881 368.958 32.3665C369.606 32.1364 370.164 31.7955 370.633 31.3438C371.102 30.8835 371.464 30.3125 371.72 29.6307L374.635 30.4489C374.328 31.4375 373.812 32.3068 373.088 33.0568C372.363 33.7983 371.468 34.3778 370.403 34.7955C369.338 35.2045 368.14 35.4091 366.811 35.4091ZM381.73 35.2045C381.099 35.2045 380.558 34.9787 380.106 34.527C379.654 34.0753 379.429 33.5341 379.429 32.9034C379.429 32.2727 379.654 31.7315 380.106 31.2798C380.558 30.8281 381.099 30.6023 381.73 30.6023C382.36 30.6023 382.902 30.8281 383.353 31.2798C383.805 31.7315 384.031 32.2727 384.031 32.9034C384.031 33.321 383.924 33.7045 383.711 34.054C383.507 34.4034 383.23 34.6847 382.88 34.8977C382.539 35.1023 382.156 35.2045 381.73 35.2045ZM381.73 20.6307C381.099 20.6307 380.558 20.4048 380.106 19.9531C379.654 19.5014 379.429 18.9602 379.429 18.3295C379.429 17.6989 379.654 17.1577 380.106 16.706C380.558 16.2543 381.099 16.0284 381.73 16.0284C382.36 16.0284 382.902 16.2543 383.353 16.706C383.805 17.1577 384.031 17.6989 384.031 18.3295C384.031 18.7472 383.924 19.1307 383.711 19.4801C383.507 19.8295 383.23 20.1108 382.88 20.3239C382.539 20.5284 382.156 20.6307 381.73 20.6307Z" fill="black" fill-opacity="0.5"/>
<path d="M399.519 35V32.6989L408.161 23.2386C409.175 22.1307 410.01 21.1676 410.667 20.3494C411.323 19.5227 411.809 18.7472 412.124 18.0227C412.448 17.2898 412.61 16.5227 412.61 15.7216C412.61 14.8011 412.388 14.0043 411.945 13.331C411.51 12.6577 410.914 12.1378 410.155 11.7713C409.397 11.4048 408.544 11.2216 407.598 11.2216C406.593 11.2216 405.715 11.4304 404.965 11.848C404.223 12.2571 403.648 12.8324 403.239 13.5739C402.838 14.3153 402.638 15.1847 402.638 16.1818H399.621C399.621 14.6477 399.975 13.3011 400.682 12.142C401.39 10.983 402.353 10.0795 403.571 9.43182C404.799 8.78409 406.175 8.46023 407.701 8.46023C409.235 8.46023 410.594 8.78409 411.779 9.43182C412.963 10.0795 413.892 10.9531 414.566 12.0526C415.239 13.152 415.576 14.375 415.576 15.7216C415.576 16.6847 415.401 17.6264 415.051 18.5469C414.711 19.4588 414.114 20.4773 413.262 21.6023C412.418 22.7187 411.246 24.0824 409.746 25.6932L403.865 31.983V32.1875H416.036V35H399.519ZM420.14 29.6307V27.0227L431.645 8.81818H433.537V12.858H432.259L423.566 26.6136V26.8182H439.06V29.6307H420.14ZM432.463 35V28.8381V27.6236V8.81818H435.48V35H432.463ZM444.87 35.2045C444.24 35.2045 443.699 34.9787 443.247 34.527C442.795 34.0753 442.569 33.5341 442.569 32.9034C442.569 32.2727 442.795 31.7315 443.247 31.2798C443.699 30.8281 444.24 30.6023 444.87 30.6023C445.501 30.6023 446.042 30.8281 446.494 31.2798C446.946 31.7315 447.172 32.2727 447.172 32.9034C447.172 33.321 447.065 33.7045 446.852 34.054C446.647 34.4034 446.37 34.6847 446.021 34.8977C445.68 35.1023 445.297 35.2045 444.87 35.2045ZM460.16 35.358C458.234 35.358 456.593 34.8338 455.238 33.7855C453.883 32.7287 452.848 31.1989 452.132 29.196C451.416 27.1847 451.058 24.7557 451.058 21.9091C451.058 19.0795 451.416 16.6634 452.132 14.6605C452.856 12.6491 453.896 11.1151 455.251 10.0582C456.615 8.9929 458.251 8.46023 460.16 8.46023C462.069 8.46023 463.701 8.9929 465.056 10.0582C466.42 11.1151 467.46 12.6491 468.176 14.6605C468.9 16.6634 469.262 19.0795 469.262 21.9091C469.262 24.7557 468.904 27.1847 468.189 29.196C467.473 31.1989 466.437 32.7287 465.082 33.7855C463.727 34.8338 462.086 35.358 460.16 35.358ZM460.16 32.5455C462.069 32.5455 463.552 31.625 464.609 29.7841C465.666 27.9432 466.194 25.3182 466.194 21.9091C466.194 19.642 465.951 17.7116 465.466 16.1179C464.988 14.5241 464.298 13.3097 463.395 12.4744C462.5 11.6392 461.422 11.2216 460.16 11.2216C458.268 11.2216 456.789 12.1548 455.724 14.0213C454.659 15.8793 454.126 18.5085 454.126 21.9091C454.126 24.1761 454.365 26.1023 454.842 27.6875C455.319 29.2727 456.005 30.4787 456.9 31.3054C457.804 32.1321 458.89 32.5455 460.16 32.5455ZM473.507 29.6307V27.0227L485.012 8.81818H486.904V12.858H485.626L476.933 26.6136V26.8182H492.427V29.6307H473.507ZM485.831 35V28.8381V27.6236V8.81818H488.848V35H485.831ZM498.238 35.2045C497.607 35.2045 497.066 34.9787 496.614 34.527C496.162 34.0753 495.936 33.5341 495.936 32.9034C495.936 32.2727 496.162 31.7315 496.614 31.2798C497.066 30.8281 497.607 30.6023 498.238 30.6023C498.868 30.6023 499.409 30.8281 499.861 31.2798C500.313 31.7315 500.539 32.2727 500.539 32.9034C500.539 33.321 500.432 33.7045 500.219 34.054C500.015 34.4034 499.738 34.6847 499.388 34.8977C499.047 35.1023 498.664 35.2045 498.238 35.2045ZM505.902 35V32.6989L514.544 23.2386C515.558 22.1307 516.393 21.1676 517.049 20.3494C517.706 19.5227 518.191 18.7472 518.507 18.0227C518.831 17.2898 518.993 16.5227 518.993 15.7216C518.993 14.8011 518.771 14.0043 518.328 13.331C517.893 12.6577 517.297 12.1378 516.538 11.7713C515.779 11.4048 514.927 11.2216 513.981 11.2216C512.975 11.2216 512.098 11.4304 511.348 11.848C510.606 12.2571 510.031 12.8324 509.622 13.5739C509.221 14.3153 509.021 15.1847 509.021 16.1818H506.004C506.004 14.6477 506.358 13.3011 507.065 12.142C507.772 10.983 508.735 10.0795 509.954 9.43182C511.181 8.78409 512.558 8.46023 514.083 8.46023C515.618 8.46023 516.977 8.78409 518.162 9.43182C519.346 10.0795 520.275 10.9531 520.949 12.0526C521.622 13.152 521.958 14.375 521.958 15.7216C521.958 16.6847 521.784 17.6264 521.434 18.5469C521.093 19.4588 520.497 20.4773 519.645 21.6023C518.801 22.7187 517.629 24.0824 516.129 25.6932L510.248 31.983V32.1875H522.419V35H505.902ZM536.238 35.358C534.312 35.358 532.672 34.8338 531.316 33.7855C529.961 32.7287 528.926 31.1989 528.21 29.196C527.494 27.1847 527.136 24.7557 527.136 21.9091C527.136 19.0795 527.494 16.6634 528.21 14.6605C528.934 12.6491 529.974 11.1151 531.329 10.0582C532.693 8.9929 534.329 8.46023 536.238 8.46023C538.147 8.46023 539.779 8.9929 541.135 10.0582C542.498 11.1151 543.538 12.6491 544.254 14.6605C544.978 16.6634 545.341 19.0795 545.341 21.9091C545.341 24.7557 544.983 27.1847 544.267 29.196C543.551 31.1989 542.515 32.7287 541.16 33.7855C539.805 34.8338 538.164 35.358 536.238 35.358ZM536.238 32.5455C538.147 32.5455 539.63 31.625 540.687 29.7841C541.744 27.9432 542.272 25.3182 542.272 21.9091C542.272 19.642 542.029 17.7116 541.544 16.1179C541.066 14.5241 540.376 13.3097 539.473 12.4744C538.578 11.6392 537.5 11.2216 536.238 11.2216C534.346 11.2216 532.868 12.1548 531.802 14.0213C530.737 15.8793 530.204 18.5085 530.204 21.9091C530.204 24.1761 530.443 26.1023 530.92 27.6875C531.397 29.2727 532.083 30.4787 532.978 31.3054C533.882 32.1321 534.968 32.5455 536.238 32.5455ZM550.199 35V32.6989L558.841 23.2386C559.855 22.1307 560.69 21.1676 561.346 20.3494C562.002 19.5227 562.488 18.7472 562.804 18.0227C563.127 17.2898 563.289 16.5227 563.289 15.7216C563.289 14.8011 563.068 14.0043 562.625 13.331C562.19 12.6577 561.593 12.1378 560.835 11.7713C560.076 11.4048 559.224 11.2216 558.278 11.2216C557.272 11.2216 556.395 11.4304 555.645 11.848C554.903 12.2571 554.328 12.8324 553.919 13.5739C553.518 14.3153 553.318 15.1847 553.318 16.1818H550.301C550.301 14.6477 550.654 13.3011 551.362 12.142C552.069 10.983 553.032 10.0795 554.251 9.43182C555.478 8.78409 556.855 8.46023 558.38 8.46023C559.914 8.46023 561.274 8.78409 562.458 9.43182C563.643 10.0795 564.572 10.9531 565.245 12.0526C565.919 13.152 566.255 14.375 566.255 15.7216C566.255 16.6847 566.081 17.6264 565.731 18.5469C565.39 19.4588 564.794 20.4773 563.941 21.6023C563.098 22.7187 561.926 24.0824 560.426 25.6932L554.545 31.983V32.1875H566.716V35H550.199ZM570.819 29.6307V27.0227L582.325 8.81818H584.217V12.858H582.939L574.245 26.6136V26.8182H589.74V29.6307H570.819ZM583.143 35V28.8381V27.6236V8.81818H586.16V35H583.143ZM604.707 35V15.3636H612.735C614.849 15.3636 616.528 15.8409 617.772 16.7955C619.016 17.75 619.638 19.0114 619.638 20.5795C619.638 21.7727 619.285 22.6974 618.577 23.3537C617.87 24.0014 616.962 24.4403 615.854 24.6705C616.579 24.7727 617.282 25.0284 617.964 25.4375C618.654 25.8466 619.225 26.4091 619.677 27.125C620.129 27.8324 620.354 28.7017 620.354 29.733C620.354 30.7386 620.099 31.6378 619.587 32.4304C619.076 33.223 618.343 33.8494 617.388 34.3097C616.434 34.7699 615.292 35 613.962 35H604.707ZM607.57 32.2386H613.962C615.002 32.2386 615.816 31.9915 616.404 31.4972C616.992 31.0028 617.286 30.3295 617.286 29.4773C617.286 28.4631 616.992 27.6662 616.404 27.0866C615.816 26.4986 615.002 26.2045 613.962 26.2045H607.57V32.2386ZM607.57 23.5966H612.735C613.545 23.5966 614.239 23.4858 614.819 23.2642C615.398 23.0341 615.842 22.7102 616.148 22.2926C616.464 21.8665 616.621 21.3636 616.621 20.7841C616.621 19.9574 616.276 19.3097 615.586 18.8409C614.896 18.3636 613.945 18.125 612.735 18.125H607.57V23.5966ZM644.2 8.81818V35H641.029V12.142H640.876L634.484 16.3864V13.1648L641.029 8.81818H644.2ZM660.423 35.358C659.349 35.3409 658.275 35.1364 657.201 34.7443C656.127 34.3523 655.147 33.6918 654.261 32.7628C653.375 31.8253 652.663 30.5597 652.126 28.9659C651.589 27.3636 651.321 25.3523 651.321 22.9318C651.321 20.6136 651.538 18.5597 651.973 16.7699C652.407 14.9716 653.038 13.4588 653.865 12.2315C654.691 10.9957 655.689 10.0582 656.856 9.41903C658.032 8.77983 659.358 8.46023 660.832 8.46023C662.298 8.46023 663.602 8.75426 664.744 9.34233C665.895 9.92187 666.832 10.7315 667.556 11.7713C668.281 12.8111 668.75 14.0085 668.963 15.3636H665.843C665.554 14.1875 664.991 13.2116 664.156 12.4361C663.321 11.6605 662.213 11.2727 660.832 11.2727C658.804 11.2727 657.206 12.1548 656.038 13.919C654.879 15.6832 654.295 18.1591 654.287 21.3466H654.491C654.968 20.6222 655.535 20.0043 656.191 19.4929C656.856 18.973 657.589 18.5724 658.39 18.2912C659.191 18.0099 660.039 17.8693 660.934 17.8693C662.434 17.8693 663.806 18.2443 665.051 18.9943C666.295 19.7358 667.292 20.7628 668.042 22.0753C668.792 23.3793 669.167 24.875 669.167 26.5625C669.167 28.1818 668.805 29.6648 668.081 31.0114C667.356 32.3494 666.338 33.4148 665.025 34.2074C663.721 34.9915 662.187 35.375 660.423 35.358ZM660.423 32.5455C661.497 32.5455 662.46 32.277 663.312 31.7401C664.173 31.2031 664.85 30.483 665.345 29.5795C665.848 28.6761 666.099 27.6705 666.099 26.5625C666.099 25.4801 665.856 24.4957 665.37 23.6094C664.893 22.7145 664.233 22.0028 663.389 21.4744C662.554 20.946 661.599 20.6818 660.525 20.6818C659.716 20.6818 658.961 20.8437 658.262 21.1676C657.564 21.483 656.95 21.9176 656.422 22.4716C655.902 23.0256 655.493 23.6605 655.194 24.3764C654.896 25.0838 654.747 25.8295 654.747 26.6136C654.747 27.6534 654.99 28.625 655.475 29.5284C655.97 30.4318 656.643 31.1605 657.495 31.7145C658.356 32.2685 659.332 32.5455 660.423 32.5455ZM676.445 31.6506C675.814 31.6506 675.273 31.4247 674.821 30.973C674.369 30.5213 674.143 29.9801 674.143 29.3494C674.143 28.7187 674.369 28.1776 674.821 27.7259C675.273 27.2741 675.814 27.0483 676.445 27.0483C677.075 27.0483 677.616 27.2741 678.068 27.7259C678.52 28.1776 678.746 28.7187 678.746 29.3494C678.746 29.767 678.639 30.1506 678.426 30.5C678.222 30.8494 677.945 31.1307 677.595 31.3438C677.254 31.5483 676.871 31.6506 676.445 31.6506ZM676.445 18.4062C675.814 18.4062 675.273 18.1804 674.821 17.7287C674.369 17.277 674.143 16.7358 674.143 16.1051C674.143 15.4744 674.369 14.9332 674.821 14.4815C675.273 14.0298 675.814 13.804 676.445 13.804C677.075 13.804 677.616 14.0298 678.068 14.4815C678.52 14.9332 678.746 15.4744 678.746 16.1051C678.746 16.5227 678.639 16.9062 678.426 17.2557C678.222 17.6051 677.945 17.8864 677.595 18.0994C677.254 18.304 676.871 18.4062 676.445 18.4062ZM692.955 35.358C691.268 35.358 689.763 35.0682 688.442 34.4886C687.13 33.9091 686.086 33.1037 685.31 32.0724C684.543 31.0327 684.126 29.8267 684.058 28.4545H687.279C687.347 29.2983 687.637 30.027 688.148 30.6406C688.66 31.2457 689.329 31.7145 690.156 32.0469C690.982 32.3793 691.898 32.5455 692.904 32.5455C694.029 32.5455 695.026 32.3494 695.896 31.9574C696.765 31.5653 697.447 31.0199 697.941 30.321C698.435 29.6222 698.683 28.8125 698.683 27.892C698.683 26.929 698.444 26.081 697.967 25.348C697.489 24.6065 696.79 24.027 695.87 23.6094C694.95 23.1918 693.825 22.983 692.495 22.983H690.398V20.1705H692.495C693.535 20.1705 694.447 19.983 695.231 19.608C696.023 19.233 696.641 18.7045 697.085 18.0227C697.536 17.3409 697.762 16.5398 697.762 15.6193C697.762 14.733 697.566 13.9616 697.174 13.3054C696.782 12.6491 696.228 12.1378 695.512 11.7713C694.805 11.4048 693.969 11.2216 693.006 11.2216C692.103 11.2216 691.251 11.3878 690.45 11.7202C689.657 12.044 689.009 12.517 688.506 13.1392C688.004 13.7528 687.731 14.4943 687.688 15.3636H684.62C684.671 13.9915 685.085 12.7898 685.86 11.7585C686.636 10.7187 687.65 9.90909 688.903 9.32955C690.164 8.75 691.549 8.46023 693.058 8.46023C694.677 8.46023 696.066 8.78835 697.225 9.4446C698.384 10.0923 699.275 10.9489 699.897 12.0142C700.519 13.0795 700.83 14.2301 700.83 15.4659C700.83 16.9403 700.442 18.1974 699.667 19.2372C698.9 20.277 697.856 20.9972 696.535 21.3977V21.6023C698.188 21.875 699.479 22.5781 700.408 23.7116C701.337 24.8366 701.802 26.2301 701.802 27.892C701.802 29.3153 701.414 30.5938 700.638 31.7273C699.871 32.8523 698.823 33.7386 697.494 34.3864C696.164 35.0341 694.651 35.358 692.955 35.358ZM715.366 8.46023C716.44 8.46875 717.513 8.67329 718.587 9.07386C719.661 9.47443 720.641 10.1392 721.528 11.0682C722.414 11.9886 723.126 13.2457 723.663 14.8395C724.2 16.4332 724.468 18.4318 724.468 20.8352C724.468 23.1619 724.246 25.2287 723.803 27.0355C723.369 28.8338 722.738 30.3509 721.911 31.5866C721.093 32.8224 720.096 33.7599 718.92 34.3991C717.752 35.0384 716.431 35.358 714.957 35.358C713.491 35.358 712.183 35.0682 711.032 34.4886C709.89 33.9006 708.952 33.0866 708.219 32.0469C707.495 30.9986 707.031 29.7841 706.826 28.4034H709.945C710.227 29.6051 710.785 30.598 711.62 31.3821C712.464 32.1577 713.576 32.5455 714.957 32.5455C716.977 32.5455 718.57 31.6634 719.738 29.8991C720.914 28.1349 721.502 25.642 721.502 22.4205H721.298C720.82 23.1364 720.254 23.7543 719.597 24.2741C718.941 24.794 718.212 25.1946 717.411 25.4759C716.61 25.7571 715.758 25.8977 714.854 25.8977C713.354 25.8977 711.978 25.527 710.725 24.7855C709.481 24.0355 708.484 23.0085 707.734 21.7045C706.992 20.392 706.621 18.892 706.621 17.2045C706.621 15.6023 706.979 14.1364 707.695 12.8068C708.42 11.4687 709.434 10.4034 710.738 9.6108C712.05 8.81818 713.593 8.43466 715.366 8.46023ZM715.366 11.2727C714.292 11.2727 713.325 11.5412 712.464 12.0781C711.612 12.6065 710.934 13.3224 710.431 14.2259C709.937 15.1207 709.69 16.1136 709.69 17.2045C709.69 18.2955 709.928 19.2884 710.406 20.1832C710.891 21.0696 711.552 21.777 712.387 22.3054C713.231 22.8253 714.19 23.0852 715.263 23.0852C716.073 23.0852 716.827 22.9276 717.526 22.6122C718.225 22.2884 718.835 21.8494 719.354 21.2955C719.883 20.733 720.296 20.098 720.594 19.3906C720.893 18.6747 721.042 17.929 721.042 17.1534C721.042 16.1307 720.795 15.1719 720.3 14.277C719.815 13.3821 719.141 12.6577 718.281 12.1037C717.428 11.5497 716.457 11.2727 715.366 11.2727Z" fill="black"/>
</svg>
