<svg width="475" height="94" viewBox="0 0 475 94" fill="none" xmlns="http://www.w3.org/2000/svg">
<rect width="475" height="94" rx="25" fill="#03132D" fill-opacity="0.7"/>
<path d="M60.8111 40.0156C60.6918 38.8991 60.1889 38.0298 59.3026 37.4077C58.4247 36.7855 57.2827 36.4744 55.8764 36.4744C54.8878 36.4744 54.0398 36.6236 53.3324 36.9219C52.625 37.2202 52.0838 37.625 51.7088 38.1364C51.3338 38.6477 51.142 39.2315 51.1335 39.8878C51.1335 40.4332 51.2571 40.9062 51.5043 41.3068C51.7599 41.7074 52.1051 42.0483 52.5398 42.3295C52.9744 42.6023 53.456 42.8324 53.9844 43.0199C54.5128 43.2074 55.0455 43.3651 55.5824 43.4929L58.0369 44.1065C59.0256 44.3366 59.9759 44.6477 60.8878 45.0398C61.8082 45.4318 62.6307 45.9261 63.3551 46.5227C64.0881 47.1193 64.6676 47.8395 65.0938 48.6832C65.5199 49.527 65.733 50.5156 65.733 51.6491C65.733 53.1832 65.3409 54.5341 64.5568 55.7017C63.7727 56.8608 62.6392 57.7685 61.1562 58.4247C59.6818 59.0724 57.8963 59.3963 55.7997 59.3963C53.7628 59.3963 51.9943 59.081 50.4943 58.4503C49.0028 57.8196 47.8352 56.8991 46.9915 55.6889C46.1563 54.4787 45.7045 53.0043 45.6364 51.2656H50.3026C50.3707 52.1776 50.652 52.9361 51.1463 53.5412C51.6406 54.1463 52.2841 54.598 53.0767 54.8963C53.8778 55.1946 54.7727 55.3438 55.7614 55.3438C56.7926 55.3438 57.696 55.1903 58.4716 54.8835C59.2557 54.5682 59.8693 54.1335 60.3125 53.5795C60.7557 53.017 60.9815 52.3608 60.9901 51.6108C60.9815 50.929 60.7813 50.3665 60.3892 49.9233C59.9972 49.4716 59.4474 49.0966 58.7401 48.7983C58.0412 48.4915 57.223 48.2187 56.2855 47.9801L53.3068 47.2131C51.1506 46.6591 49.446 45.8196 48.1932 44.6946C46.9489 43.5611 46.3267 42.0568 46.3267 40.1818C46.3267 38.6392 46.7443 37.2884 47.5795 36.1293C48.4233 34.9702 49.5696 34.071 51.0185 33.4318C52.4673 32.7841 54.108 32.4602 55.9403 32.4602C57.7983 32.4602 59.4261 32.7841 60.8239 33.4318C62.2301 34.071 63.3338 34.9616 64.1349 36.1037C64.9361 37.2372 65.3494 38.5412 65.375 40.0156H60.8111ZM78.3221 59.3835C76.3619 59.3835 74.6786 58.9531 73.2724 58.0923C71.8746 57.2315 70.7965 56.0426 70.038 54.5256C69.288 53 68.913 51.2443 68.913 49.2585C68.913 47.2642 69.2965 45.5043 70.0636 43.9787C70.8306 42.4446 71.913 41.2514 73.3107 40.3991C74.717 39.5384 76.3789 39.108 78.2965 39.108C79.8903 39.108 81.3008 39.402 82.5281 39.9901C83.7639 40.5696 84.7482 41.392 85.4812 42.4574C86.2141 43.5142 86.6317 44.75 86.734 46.1648H82.3107C82.1317 45.2187 81.7056 44.4304 81.0323 43.7997C80.3675 43.1605 79.4769 42.8409 78.3604 42.8409C77.4144 42.8409 76.5835 43.0966 75.8675 43.608C75.1516 44.1108 74.5934 44.8352 74.1928 45.7812C73.8008 46.7273 73.6048 47.8608 73.6048 49.1818C73.6048 50.5199 73.8008 51.6705 74.1928 52.6335C74.5849 53.5881 75.1346 54.3253 75.842 54.8452C76.5579 55.3565 77.3974 55.6122 78.3604 55.6122C79.0423 55.6122 79.6516 55.4844 80.1886 55.2287C80.734 54.9645 81.19 54.5852 81.5565 54.0909C81.9229 53.5966 82.1744 52.9957 82.3107 52.2884H86.734C86.6232 53.6776 86.2141 54.9091 85.5067 55.983C84.7994 57.0483 83.8363 57.8835 82.6175 58.4886C81.3988 59.0852 79.967 59.3835 78.3221 59.3835ZM90.5341 59V39.3636H95.0213V42.6364H95.2259C95.5838 41.5028 96.1974 40.6293 97.0668 40.0156C97.9446 39.3935 98.946 39.0824 100.071 39.0824C100.327 39.0824 100.612 39.0952 100.928 39.1207C101.251 39.1378 101.52 39.1676 101.733 39.2102V43.4673C101.537 43.3991 101.226 43.3395 100.8 43.2884C100.382 43.2287 99.9773 43.1989 99.5852 43.1989C98.7415 43.1989 97.983 43.3821 97.3097 43.7486C96.6449 44.1065 96.1207 44.6051 95.7372 45.2443C95.3537 45.8835 95.1619 46.6207 95.1619 47.456V59H90.5341ZM112.564 59.3835C110.647 59.3835 108.985 58.9616 107.578 58.1179C106.172 57.2741 105.081 56.0937 104.306 54.5767C103.539 53.0597 103.155 51.2869 103.155 49.2585C103.155 47.2301 103.539 45.4531 104.306 43.9276C105.081 42.402 106.172 41.2173 107.578 40.3736C108.985 39.5298 110.647 39.108 112.564 39.108C114.482 39.108 116.144 39.5298 117.55 40.3736C118.956 41.2173 120.043 42.402 120.81 43.9276C121.586 45.4531 121.973 47.2301 121.973 49.2585C121.973 51.2869 121.586 53.0597 120.81 54.5767C120.043 56.0937 118.956 57.2741 117.55 58.1179C116.144 58.9616 114.482 59.3835 112.564 59.3835ZM112.59 55.6761C113.63 55.6761 114.499 55.3906 115.198 54.8196C115.897 54.2401 116.417 53.4645 116.757 52.4929C117.107 51.5213 117.282 50.4389 117.282 49.2457C117.282 48.044 117.107 46.9574 116.757 45.9858C116.417 45.0057 115.897 44.2259 115.198 43.6463C114.499 43.0668 113.63 42.777 112.59 42.777C111.525 42.777 110.638 43.0668 109.931 43.6463C109.232 44.2259 108.708 45.0057 108.358 45.9858C108.017 46.9574 107.847 48.044 107.847 49.2457C107.847 50.4389 108.017 51.5213 108.358 52.4929C108.708 53.4645 109.232 54.2401 109.931 54.8196C110.638 55.3906 111.525 55.6761 112.59 55.6761ZM130.529 32.8182V59H125.901V32.8182H130.529ZM139.916 32.8182V59H135.288V32.8182H139.916ZM160.891 59.3452C159.349 59.3452 157.968 58.9489 156.749 58.1562C155.531 57.3636 154.567 56.2131 153.86 54.7045C153.153 53.196 152.799 51.3636 152.799 49.2074C152.799 47.0256 153.157 45.1847 153.873 43.6847C154.597 42.1761 155.573 41.0384 156.8 40.2713C158.028 39.4957 159.396 39.108 160.904 39.108C162.055 39.108 163.001 39.304 163.742 39.696C164.484 40.0795 165.072 40.544 165.506 41.0895C165.941 41.6264 166.278 42.1335 166.516 42.6108H166.708V32.8182H171.349V59H166.798V55.9062H166.516C166.278 56.3835 165.933 56.8906 165.481 57.4276C165.029 57.956 164.433 58.4077 163.691 58.7827C162.95 59.1577 162.016 59.3452 160.891 59.3452ZM162.183 55.5483C163.163 55.5483 163.998 55.2841 164.688 54.7557C165.379 54.2187 165.903 53.473 166.261 52.5185C166.619 51.5639 166.798 50.4517 166.798 49.1818C166.798 47.9119 166.619 46.8082 166.261 45.8707C165.911 44.9332 165.391 44.2045 164.701 43.6847C164.019 43.1648 163.18 42.9048 162.183 42.9048C161.151 42.9048 160.29 43.1733 159.6 43.7102C158.91 44.2472 158.39 44.9886 158.04 45.9347C157.691 46.8807 157.516 47.9631 157.516 49.1818C157.516 50.4091 157.691 51.5043 158.04 52.4673C158.398 53.4219 158.923 54.1761 159.613 54.7301C160.312 55.2756 161.168 55.5483 162.183 55.5483ZM184.846 59.3835C182.928 59.3835 181.266 58.9616 179.86 58.1179C178.453 57.2741 177.363 56.0937 176.587 54.5767C175.82 53.0597 175.436 51.2869 175.436 49.2585C175.436 47.2301 175.82 45.4531 176.587 43.9276C177.363 42.402 178.453 41.2173 179.86 40.3736C181.266 39.5298 182.928 39.108 184.846 39.108C186.763 39.108 188.425 39.5298 189.831 40.3736C191.238 41.2173 192.324 42.402 193.091 43.9276C193.867 45.4531 194.255 47.2301 194.255 49.2585C194.255 51.2869 193.867 53.0597 193.091 54.5767C192.324 56.0937 191.238 57.2741 189.831 58.1179C188.425 58.9616 186.763 59.3835 184.846 59.3835ZM184.871 55.6761C185.911 55.6761 186.78 55.3906 187.479 54.8196C188.178 54.2401 188.698 53.4645 189.039 52.4929C189.388 51.5213 189.563 50.4389 189.563 49.2457C189.563 48.044 189.388 46.9574 189.039 45.9858C188.698 45.0057 188.178 44.2259 187.479 43.6463C186.78 43.0668 185.911 42.777 184.871 42.777C183.806 42.777 182.919 43.0668 182.212 43.6463C181.513 44.2259 180.989 45.0057 180.64 45.9858C180.299 46.9574 180.128 48.044 180.128 49.2457C180.128 50.4389 180.299 51.5213 180.64 52.4929C180.989 53.4645 181.513 54.2401 182.212 54.8196C182.919 55.3906 183.806 55.6761 184.871 55.6761ZM201.673 59L196.124 39.3636H200.842L204.293 53.1705H204.472L208.001 39.3636H212.667L216.195 53.0938H216.387L219.788 39.3636H224.518L218.957 59H214.137L210.455 45.7301H210.187L206.505 59H201.673ZM232.377 47.4943V59H227.749V39.3636H232.172V42.7003H232.402C232.854 41.6009 233.574 40.7273 234.563 40.0795C235.56 39.4318 236.792 39.108 238.257 39.108C239.613 39.108 240.793 39.3977 241.799 39.9773C242.813 40.5568 243.597 41.3963 244.151 42.4957C244.713 43.5952 244.99 44.929 244.982 46.4972V59H240.354V47.2131C240.354 45.9006 240.013 44.8736 239.331 44.1321C238.658 43.3906 237.725 43.0199 236.532 43.0199C235.722 43.0199 235.002 43.1989 234.371 43.5568C233.749 43.9062 233.259 44.4134 232.901 45.0781C232.551 45.7429 232.377 46.5483 232.377 47.4943ZM319.36 39.3636V41.9205H309.184V39.3636H319.36ZM312.15 34.6591H315.167V53.375C315.167 54.2273 315.29 54.8665 315.537 55.2926C315.793 55.7102 316.117 55.9915 316.509 56.1364C316.909 56.2727 317.331 56.3409 317.775 56.3409C318.107 56.3409 318.38 56.3239 318.593 56.2898C318.806 56.2472 318.976 56.2131 319.104 56.1875L319.718 58.8977C319.513 58.9744 319.228 59.0511 318.861 59.1278C318.495 59.2131 318.03 59.2557 317.468 59.2557C316.615 59.2557 315.78 59.0724 314.962 58.706C314.152 58.3395 313.479 57.7812 312.942 57.0312C312.414 56.2812 312.15 55.3352 312.15 54.1932V34.6591ZM331.664 59.4091C329.892 59.4091 328.336 58.9872 326.998 58.1435C325.669 57.2997 324.629 56.1193 323.879 54.6023C323.137 53.0852 322.767 51.3125 322.767 49.2841C322.767 47.2386 323.137 45.4531 323.879 43.9276C324.629 42.402 325.669 41.2173 326.998 40.3736C328.336 39.5298 329.892 39.108 331.664 39.108C333.437 39.108 334.988 39.5298 336.318 40.3736C337.656 41.2173 338.696 42.402 339.437 43.9276C340.187 45.4531 340.562 47.2386 340.562 49.2841C340.562 51.3125 340.187 53.0852 339.437 54.6023C338.696 56.1193 337.656 57.2997 336.318 58.1435C334.988 58.9872 333.437 59.4091 331.664 59.4091ZM331.664 56.6989C333.011 56.6989 334.119 56.3537 334.988 55.6634C335.858 54.973 336.501 54.0653 336.919 52.9403C337.336 51.8153 337.545 50.5966 337.545 49.2841C337.545 47.9716 337.336 46.7486 336.919 45.6151C336.501 44.4815 335.858 43.5653 334.988 42.8665C334.119 42.1676 333.011 41.8182 331.664 41.8182C330.318 41.8182 329.21 42.1676 328.341 42.8665C327.471 43.5653 326.828 44.4815 326.41 45.6151C325.993 46.7486 325.784 47.9716 325.784 49.2841C325.784 50.5966 325.993 51.8153 326.41 52.9403C326.828 54.0653 327.471 54.973 328.341 55.6634C329.21 56.3537 330.318 56.6989 331.664 56.6989ZM371.349 39.3636L364.088 59H361.02L353.759 39.3636H357.031L362.452 55.0114H362.656L368.077 39.3636H371.349ZM375.332 59V39.3636H378.349V59H375.332ZM376.866 36.0909C376.278 36.0909 375.771 35.8906 375.344 35.4901C374.927 35.0895 374.718 34.608 374.718 34.0455C374.718 33.483 374.927 33.0014 375.344 32.6009C375.771 32.2003 376.278 32 376.866 32C377.454 32 377.957 32.2003 378.374 32.6009C378.8 33.0014 379.013 33.483 379.013 34.0455C379.013 34.608 378.8 35.0895 378.374 35.4901C377.957 35.8906 377.454 36.0909 376.866 36.0909ZM392.108 59.4091C390.216 59.4091 388.583 58.9915 387.211 58.1562C385.848 57.3125 384.795 56.1364 384.054 54.6278C383.321 53.1108 382.954 51.3466 382.954 49.3352C382.954 47.3239 383.321 45.5511 384.054 44.017C384.795 42.4744 385.826 41.2727 387.147 40.4119C388.477 39.5426 390.028 39.108 391.801 39.108C392.824 39.108 393.833 39.2784 394.831 39.6193C395.828 39.9602 396.735 40.5142 397.554 41.2812C398.372 42.0398 399.024 43.0455 399.51 44.2983C399.995 45.5511 400.238 47.0937 400.238 48.9261V50.2045H385.102V47.5966H397.17C397.17 46.4886 396.949 45.5 396.505 44.6307C396.071 43.7614 395.449 43.0753 394.639 42.5724C393.838 42.0696 392.892 41.8182 391.801 41.8182C390.599 41.8182 389.559 42.1165 388.681 42.7131C387.812 43.3011 387.143 44.0682 386.674 45.0142C386.206 45.9602 385.971 46.9744 385.971 48.0568V49.7955C385.971 51.2784 386.227 52.5355 386.738 53.5668C387.258 54.5895 387.978 55.3693 388.899 55.9062C389.819 56.4347 390.889 56.6989 392.108 56.6989C392.9 56.6989 393.616 56.5881 394.255 56.3665C394.903 56.1364 395.461 55.7955 395.93 55.3438C396.399 54.8835 396.761 54.3125 397.017 53.6307L399.931 54.4489C399.625 55.4375 399.109 56.3068 398.385 57.0568C397.66 57.7983 396.765 58.3778 395.7 58.7955C394.635 59.2045 393.437 59.4091 392.108 59.4091ZM409.277 59L403.294 39.3636H406.464L410.708 54.3977H410.913L415.106 39.3636H418.328L422.47 54.3466H422.674L426.919 39.3636H430.089L424.106 59H421.14L416.845 43.9148H416.538L412.243 59H409.277Z" fill="white"/>
<path d="M278 41V37M278 65C271.373 65 266 59.6274 266 53V41C266 34.3726 271.373 29 278 29C284.627 29 290 34.3726 290 41V53C290 59.6274 284.627 65 278 65Z" stroke="white" stroke-width="3" stroke-linecap="round" stroke-linejoin="round"/>
</svg>
