<svg width="640" height="94" viewBox="0 0 640 94" fill="none" xmlns="http://www.w3.org/2000/svg">
<rect width="640" height="94" rx="25" fill="#03132D" fill-opacity="0.7"/>
<path d="M44.9205 66.3409V57.1875H46.608C47.1875 56.6591 47.733 55.9134 48.2443 54.9503C48.7642 53.9787 49.2031 52.6832 49.5611 51.0639C49.9276 49.4361 50.1705 47.3693 50.2898 44.8636L50.8523 33.8182H66.3977V57.1875H69.4148V66.2898H66.3977V60H47.9375V66.3409H44.9205ZM50.392 57.1875H63.3807V36.6307H53.7159L53.3068 44.8636C53.2045 46.7727 53.0256 48.5028 52.7699 50.054C52.5142 51.5966 52.1861 52.9645 51.7855 54.1577C51.3849 55.3423 50.9205 56.3523 50.392 57.1875ZM72.0579 60V57.1875H72.7738C73.3619 57.1875 73.8519 57.0724 74.244 56.8423C74.636 56.6037 74.9513 56.1903 75.19 55.6023C75.4371 55.0057 75.6246 54.179 75.7525 53.1222C75.8888 52.0568 75.9869 50.7017 76.0465 49.0568L76.4045 40.3636H89.4954V60H86.4783V43.1761H79.2681L78.9613 50.1818C78.8931 51.7926 78.7482 53.2116 78.5266 54.4389C78.3136 55.6577 77.9854 56.6804 77.5423 57.5071C77.1076 58.3338 76.5281 58.956 75.8036 59.3736C75.0792 59.7912 74.1715 60 73.0806 60H72.0579ZM106.843 60V43.125H101.627C100.451 43.125 99.5266 43.3977 98.8533 43.9432C98.18 44.4886 97.8434 45.2386 97.8434 46.1932C97.8434 47.1307 98.146 47.8679 98.7511 48.4048C99.3647 48.9418 100.204 49.2102 101.27 49.2102H107.61V52.0227H101.27C99.94 52.0227 98.7937 51.7884 97.8306 51.3196C96.8675 50.8509 96.1261 50.1818 95.6062 49.3125C95.0863 48.4347 94.8263 47.3949 94.8263 46.1932C94.8263 44.983 95.0991 43.9432 95.6445 43.0739C96.19 42.2045 96.9698 41.5355 97.984 41.0668C99.0067 40.598 100.221 40.3636 101.627 40.3636H109.707V60H106.843ZM93.7525 60L99.3263 50.233H102.599L97.0252 60H93.7525ZM125.371 60V40.3636H140.814V60H137.797V43.1761H128.388V60H125.371ZM146.324 67.3636V40.3636H149.239V43.483H149.597C149.818 43.142 150.125 42.7074 150.517 42.179C150.918 41.642 151.489 41.1648 152.23 40.7472C152.98 40.321 153.994 40.108 155.273 40.108C156.926 40.108 158.384 40.5213 159.645 41.348C160.906 42.1747 161.891 43.3466 162.598 44.8636C163.305 46.3807 163.659 48.1705 163.659 50.233C163.659 52.3125 163.305 54.1151 162.598 55.6406C161.891 57.1577 160.911 58.3338 159.658 59.169C158.405 59.9957 156.96 60.4091 155.324 60.4091C154.063 60.4091 153.053 60.2003 152.294 59.7827C151.536 59.3565 150.952 58.875 150.543 58.3381C150.134 57.7926 149.818 57.3409 149.597 56.983H149.341V67.3636H146.324ZM149.29 50.1818C149.29 51.6648 149.507 52.973 149.942 54.1065C150.376 55.2315 151.011 56.1136 151.847 56.7528C152.682 57.3835 153.705 57.6989 154.915 57.6989C156.176 57.6989 157.229 57.3665 158.072 56.7017C158.925 56.0284 159.564 55.125 159.99 53.9915C160.425 52.8494 160.642 51.5795 160.642 50.1818C160.642 48.8011 160.429 47.5568 160.003 46.4489C159.585 45.3324 158.95 44.4503 158.098 43.8026C157.254 43.1463 156.193 42.8182 154.915 42.8182C153.688 42.8182 152.656 43.1293 151.821 43.7514C150.986 44.3651 150.355 45.2259 149.929 46.3338C149.503 47.4332 149.29 48.7159 149.29 50.1818ZM176.239 60.4091C174.466 60.4091 172.911 59.9872 171.572 59.1435C170.243 58.2997 169.203 57.1193 168.453 55.6023C167.712 54.0852 167.341 52.3125 167.341 50.2841C167.341 48.2386 167.712 46.4531 168.453 44.9276C169.203 43.402 170.243 42.2173 171.572 41.3736C172.911 40.5298 174.466 40.108 176.239 40.108C178.011 40.108 179.563 40.5298 180.892 41.3736C182.23 42.2173 183.27 43.402 184.011 44.9276C184.761 46.4531 185.136 48.2386 185.136 50.2841C185.136 52.3125 184.761 54.0852 184.011 55.6023C183.27 57.1193 182.23 58.2997 180.892 59.1435C179.563 59.9872 178.011 60.4091 176.239 60.4091ZM176.239 57.6989C177.585 57.6989 178.693 57.3537 179.562 56.6634C180.432 55.973 181.075 55.0653 181.493 53.9403C181.911 52.8153 182.119 51.5966 182.119 50.2841C182.119 48.9716 181.911 47.7486 181.493 46.6151C181.075 45.4815 180.432 44.5653 179.562 43.8665C178.693 43.1676 177.585 42.8182 176.239 42.8182C174.892 42.8182 173.784 43.1676 172.915 43.8665C172.045 44.5653 171.402 45.4815 170.984 46.6151C170.567 47.7486 170.358 48.9716 170.358 50.2841C170.358 51.5966 170.567 52.8153 170.984 53.9403C171.402 55.0653 172.045 55.973 172.915 56.6634C173.784 57.3537 174.892 57.6989 176.239 57.6989ZM197.719 60.4091C195.878 60.4091 194.293 59.9744 192.963 59.1051C191.634 58.2358 190.611 57.0384 189.895 55.5128C189.179 53.9872 188.821 52.2443 188.821 50.2841C188.821 48.2898 189.188 46.5298 189.921 45.0043C190.662 43.4702 191.694 42.2727 193.015 41.4119C194.344 40.5426 195.895 40.108 197.668 40.108C199.049 40.108 200.293 40.3636 201.401 40.875C202.509 41.3864 203.417 42.1023 204.124 43.0227C204.831 43.9432 205.27 45.017 205.441 46.2443H202.424C202.194 45.3494 201.682 44.5568 200.89 43.8665C200.105 43.1676 199.049 42.8182 197.719 42.8182C196.543 42.8182 195.512 43.125 194.625 43.7386C193.748 44.3437 193.061 45.2003 192.567 46.3082C192.081 47.4077 191.838 48.6989 191.838 50.1818C191.838 51.6989 192.077 53.0199 192.554 54.1449C193.04 55.2699 193.722 56.1435 194.6 56.7656C195.486 57.3878 196.526 57.6989 197.719 57.6989C198.503 57.6989 199.215 57.5625 199.854 57.2898C200.493 57.017 201.034 56.625 201.478 56.1136C201.921 55.6023 202.236 54.9886 202.424 54.2727H205.441C205.27 55.4318 204.848 56.4759 204.175 57.4048C203.51 58.3253 202.628 59.0582 201.529 59.6037C200.438 60.1406 199.168 60.4091 197.719 60.4091ZM220.59 55.9091L227.442 40.3636H230.306L221.817 60H219.363L211.027 40.3636H213.84L220.59 55.9091ZM212.868 40.3636V60H209.851V40.3636H212.868ZM228.311 60V40.3636H231.328V60H228.311ZM244.828 60.4091C243.056 60.4091 241.5 59.9872 240.162 59.1435C238.833 58.2997 237.793 57.1193 237.043 55.6023C236.301 54.0852 235.931 52.3125 235.931 50.2841C235.931 48.2386 236.301 46.4531 237.043 44.9276C237.793 43.402 238.833 42.2173 240.162 41.3736C241.5 40.5298 243.056 40.108 244.828 40.108C246.601 40.108 248.152 40.5298 249.482 41.3736C250.82 42.2173 251.86 43.402 252.601 44.9276C253.351 46.4531 253.726 48.2386 253.726 50.2841C253.726 52.3125 253.351 54.0852 252.601 55.6023C251.86 57.1193 250.82 58.2997 249.482 59.1435C248.152 59.9872 246.601 60.4091 244.828 60.4091ZM244.828 57.6989C246.175 57.6989 247.283 57.3537 248.152 56.6634C249.022 55.973 249.665 55.0653 250.083 53.9403C250.5 52.8153 250.709 51.5966 250.709 50.2841C250.709 48.9716 250.5 47.7486 250.083 46.6151C249.665 45.4815 249.022 44.5653 248.152 43.8665C247.283 43.1676 246.175 42.8182 244.828 42.8182C243.482 42.8182 242.374 43.1676 241.505 43.8665C240.635 44.5653 239.992 45.4815 239.574 46.6151C239.157 47.7486 238.948 48.9716 238.948 50.2841C238.948 51.5966 239.157 52.8153 239.574 53.9403C239.992 55.0653 240.635 55.973 241.505 56.6634C242.374 57.3537 243.482 57.6989 244.828 57.6989ZM255.765 43.1761V40.3636H271.72V43.1761H265.277V60H262.26V43.1761H255.765ZM276.121 67.3636V40.3636H279.036V43.483H279.393C279.615 43.142 279.922 42.7074 280.314 42.179C280.714 41.642 281.286 41.1648 282.027 40.7472C282.777 40.321 283.791 40.108 285.07 40.108C286.723 40.108 288.18 40.5213 289.442 41.348C290.703 42.1747 291.688 43.3466 292.395 44.8636C293.102 46.3807 293.456 48.1705 293.456 50.233C293.456 52.3125 293.102 54.1151 292.395 55.6406C291.688 57.1577 290.707 58.3338 289.455 59.169C288.202 59.9957 286.757 60.4091 285.121 60.4091C283.859 60.4091 282.849 60.2003 282.091 59.7827C281.332 59.3565 280.749 58.875 280.339 58.3381C279.93 57.7926 279.615 57.3409 279.393 56.983H279.138V67.3636H276.121ZM279.087 50.1818C279.087 51.6648 279.304 52.973 279.739 54.1065C280.173 55.2315 280.808 56.1136 281.643 56.7528C282.479 57.3835 283.501 57.6989 284.712 57.6989C285.973 57.6989 287.026 57.3665 287.869 56.7017C288.722 56.0284 289.361 55.125 289.787 53.9915C290.222 52.8494 290.439 51.5795 290.439 50.1818C290.439 48.8011 290.226 47.5568 289.8 46.4489C289.382 45.3324 288.747 44.4503 287.895 43.8026C287.051 43.1463 285.99 42.8182 284.712 42.8182C283.484 42.8182 282.453 43.1293 281.618 43.7514C280.783 44.3651 280.152 45.2259 279.726 46.3338C279.3 47.4332 279.087 48.7159 279.087 50.1818ZM303.837 60.4602C302.592 60.4602 301.463 60.2259 300.449 59.7571C299.435 59.2798 298.629 58.5938 298.033 57.6989C297.436 56.7955 297.138 55.7045 297.138 54.4261C297.138 53.3011 297.359 52.3892 297.803 51.6903C298.246 50.983 298.838 50.429 299.58 50.0284C300.321 49.6278 301.139 49.3295 302.034 49.1335C302.938 48.929 303.845 48.767 304.757 48.6477C305.95 48.4943 306.918 48.3793 307.659 48.3026C308.409 48.2173 308.955 48.0767 309.295 47.8807C309.645 47.6847 309.82 47.3437 309.82 46.858V46.7557C309.82 45.4943 309.474 44.5142 308.784 43.8153C308.102 43.1165 307.067 42.767 305.678 42.767C304.237 42.767 303.108 43.0824 302.29 43.7131C301.472 44.3437 300.896 45.017 300.564 45.733L297.7 44.7102C298.212 43.517 298.893 42.5881 299.746 41.9233C300.607 41.25 301.544 40.7812 302.558 40.517C303.581 40.2443 304.587 40.108 305.575 40.108C306.206 40.108 306.93 40.1847 307.749 40.3381C308.575 40.483 309.372 40.7855 310.139 41.2457C310.915 41.706 311.558 42.4006 312.07 43.3295C312.581 44.2585 312.837 45.5028 312.837 47.0625V60H309.82V57.3409H309.666C309.462 57.767 309.121 58.223 308.643 58.7088C308.166 59.1946 307.531 59.608 306.739 59.9489C305.946 60.2898 304.979 60.4602 303.837 60.4602ZM304.297 57.75C305.49 57.75 306.496 57.5156 307.314 57.0469C308.141 56.5781 308.763 55.973 309.18 55.2315C309.607 54.4901 309.82 53.7102 309.82 52.892V50.1307C309.692 50.2841 309.411 50.4247 308.976 50.5526C308.55 50.6719 308.055 50.7784 307.493 50.8722C306.939 50.9574 306.398 51.0341 305.869 51.1023C305.349 51.1619 304.928 51.2131 304.604 51.2557C303.82 51.358 303.087 51.5241 302.405 51.7543C301.732 51.9759 301.186 52.3125 300.768 52.7642C300.359 53.2074 300.155 53.8125 300.155 54.5795C300.155 55.6278 300.543 56.4205 301.318 56.9574C302.102 57.4858 303.095 57.75 304.297 57.75ZM387.275 60.3835C385.315 60.3835 383.632 59.9531 382.225 59.0923C380.828 58.2315 379.75 57.0426 378.991 55.5256C378.241 54 377.866 52.2443 377.866 50.2585C377.866 48.2642 378.25 46.5043 379.017 44.9787C379.784 43.4446 380.866 42.2514 382.264 41.3991C383.67 40.5384 385.332 40.108 387.25 40.108C388.843 40.108 390.254 40.402 391.481 40.9901C392.717 41.5696 393.701 42.392 394.434 43.4574C395.167 44.5142 395.585 45.75 395.687 47.1648H391.264C391.085 46.2187 390.659 45.4304 389.985 44.7997C389.321 44.1605 388.43 43.8409 387.314 43.8409C386.368 43.8409 385.537 44.0966 384.821 44.608C384.105 45.1108 383.547 45.8352 383.146 46.7812C382.754 47.7273 382.558 48.8608 382.558 50.1818C382.558 51.5199 382.754 52.6705 383.146 53.6335C383.538 54.5881 384.088 55.3253 384.795 55.8452C385.511 56.3565 386.35 56.6122 387.314 56.6122C387.995 56.6122 388.605 56.4844 389.142 56.2287C389.687 55.9645 390.143 55.5852 390.51 55.0909C390.876 54.5966 391.127 53.9957 391.264 53.2884H395.687C395.576 54.6776 395.167 55.9091 394.46 56.983C393.752 58.0483 392.789 58.8835 391.571 59.4886C390.352 60.0852 388.92 60.3835 387.275 60.3835ZM399.487 60V40.3636H404.115V48.2898H405.803L411.709 40.3636H417.283L410.009 50.0028L417.359 60H411.76L406.378 52.598H404.115V60H399.487ZM419.983 67.3636V40.3636H424.534V43.6108H424.803C425.042 43.1335 425.378 42.6264 425.813 42.0895C426.248 41.544 426.836 41.0795 427.577 40.696C428.319 40.304 429.265 40.108 430.415 40.108C431.932 40.108 433.3 40.4957 434.519 41.2713C435.746 42.0384 436.718 43.1761 437.434 44.6847C438.158 46.1847 438.52 48.0256 438.52 50.2074C438.52 52.3636 438.167 54.196 437.459 55.7045C436.752 57.2131 435.789 58.3636 434.57 59.1562C433.351 59.9489 431.971 60.3452 430.428 60.3452C429.303 60.3452 428.37 60.1577 427.628 59.7827C426.887 59.4077 426.29 58.956 425.838 58.4276C425.395 57.8906 425.05 57.3835 424.803 56.9062H424.611V67.3636H419.983ZM424.522 50.1818C424.522 51.4517 424.701 52.5639 425.059 53.5185C425.425 54.473 425.949 55.2187 426.631 55.7557C427.321 56.2841 428.157 56.5483 429.137 56.5483C430.159 56.5483 431.016 56.2756 431.706 55.7301C432.397 55.1761 432.917 54.4219 433.266 53.4673C433.624 52.5043 433.803 51.4091 433.803 50.1818C433.803 48.9631 433.628 47.8807 433.279 46.9347C432.929 45.9886 432.409 45.2472 431.719 44.7102C431.029 44.1733 430.168 43.9048 429.137 43.9048C428.148 43.9048 427.309 44.1648 426.618 44.6847C425.928 45.2045 425.404 45.9332 425.046 46.8707C424.696 47.8082 424.522 48.9119 424.522 50.1818ZM451.049 60.3835C449.131 60.3835 447.469 59.9616 446.063 59.1179C444.657 58.2741 443.566 57.0937 442.79 55.5767C442.023 54.0597 441.64 52.2869 441.64 50.2585C441.64 48.2301 442.023 46.4531 442.79 44.9276C443.566 43.402 444.657 42.2173 446.063 41.3736C447.469 40.5298 449.131 40.108 451.049 40.108C452.966 40.108 454.628 40.5298 456.034 41.3736C457.441 42.2173 458.527 43.402 459.294 44.9276C460.07 46.4531 460.458 48.2301 460.458 50.2585C460.458 52.2869 460.07 54.0597 459.294 55.5767C458.527 57.0937 457.441 58.2741 456.034 59.1179C454.628 59.9616 452.966 60.3835 451.049 60.3835ZM451.074 56.6761C452.114 56.6761 452.983 56.3906 453.682 55.8196C454.381 55.2401 454.901 54.4645 455.242 53.4929C455.591 52.5213 455.766 51.4389 455.766 50.2457C455.766 49.044 455.591 47.9574 455.242 46.9858C454.901 46.0057 454.381 45.2259 453.682 44.6463C452.983 44.0668 452.114 43.777 451.074 43.777C450.009 43.777 449.123 44.0668 448.415 44.6463C447.716 45.2259 447.192 46.0057 446.843 46.9858C446.502 47.9574 446.331 49.044 446.331 50.2457C446.331 51.4389 446.502 52.5213 446.843 53.4929C447.192 54.4645 447.716 55.2401 448.415 55.8196C449.123 56.3906 450.009 56.6761 451.074 56.6761ZM463.031 60L463.005 56.1903H463.683C464.194 56.1903 464.624 56.0753 464.974 55.8452C465.323 55.6151 465.613 55.2315 465.843 54.6946C466.073 54.1491 466.252 53.4162 466.38 52.4957C466.508 51.5753 466.597 50.429 466.648 49.0568L466.994 40.3636H481.312V60H476.837V44.1605H471.2L470.893 50.4886C470.816 52.125 470.633 53.544 470.343 54.7457C470.062 55.9389 469.661 56.9233 469.141 57.6989C468.63 58.4744 467.987 59.054 467.211 59.4375C466.435 59.8125 465.519 60 464.462 60H463.031ZM489.104 46.7557H494.895C497.401 46.7557 499.339 47.3651 500.712 48.5838C502.084 49.8026 502.774 51.4006 502.783 53.3778C502.774 54.6648 502.459 55.8068 501.837 56.804C501.223 57.8011 500.328 58.5852 499.152 59.1562C497.984 59.7188 496.565 60 494.895 60H485.972V40.3636H490.433V56.2031H494.895C495.901 56.2031 496.727 55.9474 497.375 55.4361C498.023 54.9162 498.347 54.2514 498.347 53.4418C498.347 52.5895 498.023 51.8949 497.375 51.358C496.727 50.821 495.901 50.5526 494.895 50.5526H489.104V46.7557ZM515.679 60V40.3636H523.924C526.251 40.3636 528.088 40.8281 529.434 41.7571C530.789 42.6861 531.467 43.9815 531.467 45.6435C531.467 46.7429 531.083 47.642 530.316 48.3409C529.558 49.0312 528.522 49.4957 527.21 49.7344C528.241 49.8196 529.145 50.0795 529.92 50.5142C530.704 50.9489 531.318 51.5199 531.761 52.2273C532.204 52.9347 532.426 53.7486 532.426 54.669C532.426 55.7514 532.14 56.6932 531.569 57.4943C531.007 58.2869 530.184 58.9048 529.102 59.348C528.028 59.7827 526.724 60 525.19 60H515.679ZM520.012 56.3565H525.19C526.042 56.3565 526.711 56.1562 527.197 55.7557C527.683 55.3466 527.926 54.7926 527.926 54.0938C527.926 53.2841 527.683 52.6491 527.197 52.1889C526.711 51.7202 526.042 51.4858 525.19 51.4858H520.012V56.3565ZM520.012 48.4943H524.014C524.645 48.4943 525.186 48.4048 525.637 48.2259C526.089 48.0384 526.434 47.7784 526.673 47.446C526.912 47.1051 527.031 46.7003 527.031 46.2315C527.031 45.5582 526.754 45.0298 526.2 44.6463C525.654 44.2628 524.896 44.071 523.924 44.071H520.012V48.4943ZM549.732 48.2642V52.0611H539.275V48.2642H549.732ZM540.707 40.3636V60H536.245V40.3636H540.707ZM552.762 40.3636V60H548.313V40.3636H552.762ZM561.906 53.7358L569.768 40.3636H574.524V60H570.049V46.6151L562.213 60H557.444V40.3636H561.906V53.7358ZM578.19 54.6179H582.779C582.822 55.3509 583.15 55.9176 583.763 56.3182C584.377 56.7187 585.174 56.919 586.154 56.919C587.151 56.919 587.991 56.7017 588.673 56.267C589.363 55.8239 589.708 55.1548 589.708 54.2599C589.708 53.7315 589.576 53.267 589.312 52.8665C589.048 52.4574 588.677 52.142 588.2 51.9205C587.722 51.6989 587.16 51.5881 586.512 51.5881H583.508V48.3026H586.512C587.475 48.3026 588.204 48.081 588.698 47.6378C589.201 47.1946 589.452 46.6364 589.452 45.9631C589.452 45.2386 589.188 44.6506 588.66 44.1989C588.14 43.7472 587.42 43.5213 586.499 43.5213C585.579 43.5213 584.812 43.7301 584.198 44.1477C583.593 44.5653 583.278 45.1023 583.252 45.7585H578.688C578.705 44.6165 579.046 43.6236 579.711 42.7798C580.384 41.9361 581.288 41.2798 582.421 40.8111C583.563 40.3423 584.85 40.108 586.282 40.108C587.816 40.108 589.141 40.3381 590.258 40.7983C591.374 41.2585 592.235 41.902 592.84 42.7287C593.445 43.5469 593.748 44.5099 593.748 45.6179C593.748 46.6832 593.415 47.5653 592.751 48.2642C592.086 48.9545 591.191 49.4489 590.066 49.7472V49.9517C590.842 49.9943 591.54 50.2159 592.163 50.6165C592.785 51.0085 593.279 51.5412 593.646 52.2145C594.012 52.8878 594.195 53.6676 594.195 54.554C594.195 55.7557 593.85 56.7955 593.16 57.6733C592.469 58.5426 591.519 59.2116 590.309 59.6804C589.107 60.1491 587.731 60.3835 586.18 60.3835C584.671 60.3835 583.32 60.1577 582.127 59.706C580.942 59.2457 580.001 58.5852 579.302 57.7244C578.603 56.8636 578.232 55.8281 578.19 54.6179Z" fill="white"/>
<path d="M346 42V38M346 66C339.373 66 334 60.6274 334 54V42C334 35.3726 339.373 30 346 30C352.627 30 358 35.3726 358 42V54C358 60.6274 352.627 66 346 66Z" stroke="white" stroke-width="3" stroke-linecap="round" stroke-linejoin="round"/>
</svg>
