<svg width="1299" height="94" viewBox="0 0 1299 94" fill="none" xmlns="http://www.w3.org/2000/svg">
<rect width="407" height="94" rx="25" fill="url(#paint0_linear_0_1)" fill-opacity="0.05"/>
<rect x="463" width="836" height="94" rx="25" fill="white" fill-opacity="0.9"/>
<path d="M36.2273 29.0909H41.2727L53.1364 58.0682H53.5455L65.4091 29.0909H70.4545V64H66.5V37.4773H66.1591L55.25 64H51.4318L40.5227 37.4773H40.1818V64H36.2273V29.0909ZM89.0213 64.5455C86.6577 64.5455 84.5838 63.983 82.7997 62.858C81.027 61.733 79.6406 60.1591 78.6406 58.1364C77.652 56.1136 77.1577 53.75 77.1577 51.0455C77.1577 48.3182 77.652 45.9375 78.6406 43.9034C79.6406 41.8693 81.027 40.2898 82.7997 39.1648C84.5838 38.0398 86.6577 37.4773 89.0213 37.4773C91.3849 37.4773 93.4531 38.0398 95.2259 39.1648C97.0099 40.2898 98.3963 41.8693 99.3849 43.9034C100.385 45.9375 100.885 48.3182 100.885 51.0455C100.885 53.75 100.385 56.1136 99.3849 58.1364C98.3963 60.1591 97.0099 61.733 95.2259 62.858C93.4531 63.983 91.3849 64.5455 89.0213 64.5455ZM89.0213 60.9318C90.8168 60.9318 92.294 60.4716 93.4531 59.5511C94.6122 58.6307 95.4702 57.4205 96.027 55.9205C96.5838 54.4205 96.8622 52.7955 96.8622 51.0455C96.8622 49.2955 96.5838 47.6648 96.027 46.1534C95.4702 44.642 94.6122 43.4205 93.4531 42.4886C92.294 41.5568 90.8168 41.0909 89.0213 41.0909C87.2259 41.0909 85.7486 41.5568 84.5895 42.4886C83.4304 43.4205 82.5724 44.642 82.0156 46.1534C81.4588 47.6648 81.1804 49.2955 81.1804 51.0455C81.1804 52.7955 81.4588 54.4205 82.0156 55.9205C82.5724 57.4205 83.4304 58.6307 84.5895 59.5511C85.7486 60.4716 87.2259 60.9318 89.0213 60.9318ZM107.026 73.8182V37.8182H110.912V41.9773H111.389C111.685 41.5227 112.094 40.9432 112.616 40.2386C113.151 39.5227 113.912 38.8864 114.901 38.3295C115.901 37.7614 117.253 37.4773 118.957 37.4773C121.162 37.4773 123.105 38.0284 124.787 39.1307C126.469 40.233 127.781 41.7955 128.724 43.8182C129.668 45.8409 130.139 48.2273 130.139 50.9773C130.139 53.75 129.668 56.1534 128.724 58.1875C127.781 60.2102 126.474 61.7784 124.804 62.892C123.134 63.9943 121.207 64.5455 119.026 64.5455C117.344 64.5455 115.997 64.267 114.986 63.7102C113.974 63.142 113.196 62.5 112.651 61.7841C112.105 61.0568 111.685 60.4545 111.389 59.9773H111.048V73.8182H107.026ZM110.98 50.9091C110.98 52.8864 111.27 54.6307 111.849 56.142C112.429 57.642 113.276 58.8182 114.389 59.6705C115.503 60.5114 116.866 60.9318 118.48 60.9318C120.162 60.9318 121.565 60.4886 122.69 59.6023C123.827 58.7045 124.679 57.5 125.247 55.9886C125.827 54.4659 126.116 52.7727 126.116 50.9091C126.116 49.0682 125.832 47.4091 125.264 45.9318C124.707 44.4432 123.861 43.267 122.724 42.4034C121.599 41.5284 120.185 41.0909 118.48 41.0909C116.844 41.0909 115.469 41.5057 114.355 42.3352C113.241 43.1534 112.401 44.3011 111.832 45.7784C111.264 47.2443 110.98 48.9545 110.98 50.9091ZM140.298 58.0682L152.912 37.8182H157.548V64H153.526V43.75L140.98 64H136.276V37.8182H140.298V58.0682ZM190.757 27.4545L179.507 69.25H175.825L187.075 27.4545H190.757ZM209.571 29.0909H213.73V56.5682H214.071L233.162 29.0909H237.253V64H233.026V36.5909H232.685L213.662 64H209.571V29.0909ZM242.848 64V60.25H243.803C244.587 60.25 245.24 60.0966 245.763 59.7898C246.286 59.4716 246.706 58.9205 247.024 58.1364C247.354 57.3409 247.604 56.2386 247.774 54.8295C247.956 53.4091 248.087 51.6023 248.166 49.4091L248.643 37.8182H266.098V64H262.075V41.5682H252.462L252.053 50.9091C251.962 53.0568 251.768 54.9489 251.473 56.5852C251.189 58.2102 250.751 59.5739 250.161 60.6761C249.581 61.7784 248.808 62.608 247.842 63.1648C246.876 63.7216 245.666 64 244.212 64H242.848ZM286.024 49.2727V53.0227H272.183V49.2727H286.024ZM275.592 37.8182V64H271.57V37.8182H275.592ZM294.07 64.5455C291.706 64.5455 289.632 63.983 287.848 62.858C286.075 61.733 284.689 60.1591 283.689 58.1364C282.7 56.1136 282.206 53.75 282.206 51.0455C282.206 48.3182 282.7 45.9375 283.689 43.9034C284.689 41.8693 286.075 40.2898 287.848 39.1648C289.632 38.0398 291.706 37.4773 294.07 37.4773C296.433 37.4773 298.501 38.0398 300.274 39.1648C302.058 40.2898 303.445 41.8693 304.433 43.9034C305.433 45.9375 305.933 48.3182 305.933 51.0455C305.933 53.75 305.433 56.1136 304.433 58.1364C303.445 60.1591 302.058 61.733 300.274 62.858C298.501 63.983 296.433 64.5455 294.07 64.5455ZM294.07 60.9318C295.865 60.9318 297.342 60.4716 298.501 59.5511C299.661 58.6307 300.518 57.4205 301.075 55.9205C301.632 54.4205 301.911 52.7955 301.911 51.0455C301.911 49.2955 301.632 47.6648 301.075 46.1534C300.518 44.642 299.661 43.4205 298.501 42.4886C297.342 41.5568 295.865 41.0909 294.07 41.0909C292.274 41.0909 290.797 41.5568 289.638 42.4886C288.479 43.4205 287.621 44.642 287.064 46.1534C286.507 47.6648 286.229 49.2955 286.229 51.0455C286.229 52.7955 286.507 54.4205 287.064 55.9205C287.621 57.4205 288.479 58.6307 289.638 59.5511C290.797 60.4716 292.274 60.9318 294.07 60.9318ZM312.479 37.8182H316.501V60.25H326.388V37.8182H330.411V60.25H340.297V37.8182H344.32V64H312.479V37.8182ZM359.371 64.6136C357.712 64.6136 356.206 64.3011 354.854 63.6761C353.501 63.0398 352.428 62.125 351.632 60.9318C350.837 59.7273 350.439 58.2727 350.439 56.5682C350.439 55.0682 350.734 53.8523 351.325 52.9205C351.916 51.9773 352.706 51.2386 353.695 50.7045C354.683 50.1705 355.774 49.7727 356.967 49.5114C358.172 49.2386 359.382 49.0227 360.598 48.8636C362.189 48.6591 363.479 48.5057 364.467 48.4034C365.467 48.2898 366.195 48.1023 366.649 47.8409C367.115 47.5795 367.348 47.125 367.348 46.4773V46.3409C367.348 44.6591 366.888 43.3523 365.967 42.4205C365.058 41.4886 363.678 41.0227 361.825 41.0227C359.905 41.0227 358.399 41.4432 357.308 42.2841C356.217 43.125 355.45 44.0227 355.007 44.9773L351.189 43.6136C351.871 42.0227 352.78 40.7841 353.916 39.8977C355.064 39 356.314 38.375 357.666 38.0227C359.03 37.6591 360.371 37.4773 361.689 37.4773C362.53 37.4773 363.496 37.5795 364.587 37.7841C365.689 37.9773 366.751 38.3807 367.774 38.9943C368.808 39.608 369.666 40.5341 370.348 41.7727C371.03 43.0114 371.371 44.6705 371.371 46.75V64H367.348V60.4545H367.143C366.871 61.0227 366.416 61.6307 365.78 62.2784C365.143 62.9261 364.297 63.4773 363.24 63.9318C362.183 64.3864 360.893 64.6136 359.371 64.6136ZM359.984 61C361.575 61 362.916 60.6875 364.007 60.0625C365.109 59.4375 365.939 58.6307 366.496 57.642C367.064 56.6534 367.348 55.6136 367.348 54.5227V50.8409C367.178 51.0455 366.803 51.233 366.223 51.4034C365.655 51.5625 364.996 51.7045 364.246 51.8295C363.507 51.9432 362.786 52.0455 362.081 52.1364C361.388 52.2159 360.825 52.2841 360.393 52.3409C359.348 52.4773 358.371 52.6989 357.462 53.0057C356.564 53.3011 355.837 53.75 355.28 54.3523C354.734 54.9432 354.462 55.75 354.462 56.7727C354.462 58.1705 354.979 59.2273 356.013 59.9432C357.058 60.6477 358.382 61 359.984 61Z" fill="white"/>
<path d="M514.92 66.3409V57.1875H516.608C517.188 56.6591 517.733 55.9134 518.244 54.9503C518.764 53.9787 519.203 52.6832 519.561 51.0639C519.928 49.4361 520.17 47.3693 520.29 44.8636L520.852 33.8182H536.398V57.1875H539.415V66.2898H536.398V60H517.938V66.3409H514.92ZM520.392 57.1875H533.381V36.6307H523.716L523.307 44.8636C523.205 46.7727 523.026 48.5028 522.77 50.054C522.514 51.5966 522.186 52.9645 521.786 54.1577C521.385 55.3423 520.92 56.3523 520.392 57.1875ZM542.058 60V57.1875H542.774C543.362 57.1875 543.852 57.0724 544.244 56.8423C544.636 56.6037 544.951 56.1903 545.19 55.6023C545.437 55.0057 545.625 54.179 545.752 53.1222C545.889 52.0568 545.987 50.7017 546.047 49.0568L546.404 40.3636H559.495V60H556.478V43.1761H549.268L548.961 50.1818C548.893 51.7926 548.748 53.2116 548.527 54.4389C548.314 55.6577 547.985 56.6804 547.542 57.5071C547.108 58.3338 546.528 58.956 545.804 59.3736C545.079 59.7912 544.172 60 543.081 60H542.058ZM576.843 60V43.125H571.627C570.451 43.125 569.527 43.3977 568.853 43.9432C568.18 44.4886 567.843 45.2386 567.843 46.1932C567.843 47.1307 568.146 47.8679 568.751 48.4048C569.365 48.9418 570.204 49.2102 571.27 49.2102H577.61V52.0227H571.27C569.94 52.0227 568.794 51.7884 567.831 51.3196C566.868 50.8509 566.126 50.1818 565.606 49.3125C565.086 48.4347 564.826 47.3949 564.826 46.1932C564.826 44.983 565.099 43.9432 565.645 43.0739C566.19 42.2045 566.97 41.5355 567.984 41.0668C569.007 40.598 570.221 40.3636 571.627 40.3636H579.707V60H576.843ZM563.752 60L569.326 50.233H572.599L567.025 60H563.752ZM595.371 60V40.3636H610.814V60H607.797V43.1761H598.388V60H595.371ZM616.324 67.3636V40.3636H619.239V43.483H619.597C619.818 43.142 620.125 42.7074 620.517 42.179C620.918 41.642 621.489 41.1648 622.23 40.7472C622.98 40.321 623.994 40.108 625.273 40.108C626.926 40.108 628.384 40.5213 629.645 41.348C630.906 42.1747 631.891 43.3466 632.598 44.8636C633.305 46.3807 633.659 48.1705 633.659 50.233C633.659 52.3125 633.305 54.1151 632.598 55.6406C631.891 57.1577 630.911 58.3338 629.658 59.169C628.405 59.9957 626.96 60.4091 625.324 60.4091C624.063 60.4091 623.053 60.2003 622.294 59.7827C621.536 59.3565 620.952 58.875 620.543 58.3381C620.134 57.7926 619.818 57.3409 619.597 56.983H619.341V67.3636H616.324ZM619.29 50.1818C619.29 51.6648 619.507 52.973 619.942 54.1065C620.376 55.2315 621.011 56.1136 621.847 56.7528C622.682 57.3835 623.705 57.6989 624.915 57.6989C626.176 57.6989 627.229 57.3665 628.072 56.7017C628.925 56.0284 629.564 55.125 629.99 53.9915C630.425 52.8494 630.642 51.5795 630.642 50.1818C630.642 48.8011 630.429 47.5568 630.003 46.4489C629.585 45.3324 628.95 44.4503 628.098 43.8026C627.254 43.1463 626.193 42.8182 624.915 42.8182C623.688 42.8182 622.656 43.1293 621.821 43.7514C620.986 44.3651 620.355 45.2259 619.929 46.3338C619.503 47.4332 619.29 48.7159 619.29 50.1818ZM646.239 60.4091C644.466 60.4091 642.911 59.9872 641.572 59.1435C640.243 58.2997 639.203 57.1193 638.453 55.6023C637.712 54.0852 637.341 52.3125 637.341 50.2841C637.341 48.2386 637.712 46.4531 638.453 44.9276C639.203 43.402 640.243 42.2173 641.572 41.3736C642.911 40.5298 644.466 40.108 646.239 40.108C648.011 40.108 649.563 40.5298 650.892 41.3736C652.23 42.2173 653.27 43.402 654.011 44.9276C654.761 46.4531 655.136 48.2386 655.136 50.2841C655.136 52.3125 654.761 54.0852 654.011 55.6023C653.27 57.1193 652.23 58.2997 650.892 59.1435C649.563 59.9872 648.011 60.4091 646.239 60.4091ZM646.239 57.6989C647.585 57.6989 648.693 57.3537 649.562 56.6634C650.432 55.973 651.075 55.0653 651.493 53.9403C651.911 52.8153 652.119 51.5966 652.119 50.2841C652.119 48.9716 651.911 47.7486 651.493 46.6151C651.075 45.4815 650.432 44.5653 649.562 43.8665C648.693 43.1676 647.585 42.8182 646.239 42.8182C644.892 42.8182 643.784 43.1676 642.915 43.8665C642.045 44.5653 641.402 45.4815 640.984 46.6151C640.567 47.7486 640.358 48.9716 640.358 50.2841C640.358 51.5966 640.567 52.8153 640.984 53.9403C641.402 55.0653 642.045 55.973 642.915 56.6634C643.784 57.3537 644.892 57.6989 646.239 57.6989ZM667.719 60.4091C665.878 60.4091 664.293 59.9744 662.963 59.1051C661.634 58.2358 660.611 57.0384 659.895 55.5128C659.179 53.9872 658.821 52.2443 658.821 50.2841C658.821 48.2898 659.188 46.5298 659.921 45.0043C660.662 43.4702 661.694 42.2727 663.015 41.4119C664.344 40.5426 665.895 40.108 667.668 40.108C669.049 40.108 670.293 40.3636 671.401 40.875C672.509 41.3864 673.417 42.1023 674.124 43.0227C674.831 43.9432 675.27 45.017 675.441 46.2443H672.424C672.194 45.3494 671.682 44.5568 670.89 43.8665C670.105 43.1676 669.049 42.8182 667.719 42.8182C666.543 42.8182 665.512 43.125 664.625 43.7386C663.748 44.3437 663.061 45.2003 662.567 46.3082C662.081 47.4077 661.838 48.6989 661.838 50.1818C661.838 51.6989 662.077 53.0199 662.554 54.1449C663.04 55.2699 663.722 56.1435 664.6 56.7656C665.486 57.3878 666.526 57.6989 667.719 57.6989C668.503 57.6989 669.215 57.5625 669.854 57.2898C670.493 57.017 671.034 56.625 671.478 56.1136C671.921 55.6023 672.236 54.9886 672.424 54.2727H675.441C675.27 55.4318 674.848 56.4759 674.175 57.4048C673.51 58.3253 672.628 59.0582 671.529 59.6037C670.438 60.1406 669.168 60.4091 667.719 60.4091ZM690.59 55.9091L697.442 40.3636H700.306L691.817 60H689.363L681.027 40.3636H683.84L690.59 55.9091ZM682.868 40.3636V60H679.851V40.3636H682.868ZM698.311 60V40.3636H701.328V60H698.311ZM714.828 60.4091C713.056 60.4091 711.5 59.9872 710.162 59.1435C708.833 58.2997 707.793 57.1193 707.043 55.6023C706.301 54.0852 705.931 52.3125 705.931 50.2841C705.931 48.2386 706.301 46.4531 707.043 44.9276C707.793 43.402 708.833 42.2173 710.162 41.3736C711.5 40.5298 713.056 40.108 714.828 40.108C716.601 40.108 718.152 40.5298 719.482 41.3736C720.82 42.2173 721.86 43.402 722.601 44.9276C723.351 46.4531 723.726 48.2386 723.726 50.2841C723.726 52.3125 723.351 54.0852 722.601 55.6023C721.86 57.1193 720.82 58.2997 719.482 59.1435C718.152 59.9872 716.601 60.4091 714.828 60.4091ZM714.828 57.6989C716.175 57.6989 717.283 57.3537 718.152 56.6634C719.022 55.973 719.665 55.0653 720.083 53.9403C720.5 52.8153 720.709 51.5966 720.709 50.2841C720.709 48.9716 720.5 47.7486 720.083 46.6151C719.665 45.4815 719.022 44.5653 718.152 43.8665C717.283 43.1676 716.175 42.8182 714.828 42.8182C713.482 42.8182 712.374 43.1676 711.505 43.8665C710.635 44.5653 709.992 45.4815 709.574 46.6151C709.157 47.7486 708.948 48.9716 708.948 50.2841C708.948 51.5966 709.157 52.8153 709.574 53.9403C709.992 55.0653 710.635 55.973 711.505 56.6634C712.374 57.3537 713.482 57.6989 714.828 57.6989ZM725.765 43.1761V40.3636H741.72V43.1761H735.277V60H732.26V43.1761H725.765ZM746.121 67.3636V40.3636H749.036V43.483H749.393C749.615 43.142 749.922 42.7074 750.314 42.179C750.714 41.642 751.286 41.1648 752.027 40.7472C752.777 40.321 753.791 40.108 755.07 40.108C756.723 40.108 758.18 40.5213 759.442 41.348C760.703 42.1747 761.688 43.3466 762.395 44.8636C763.102 46.3807 763.456 48.1705 763.456 50.233C763.456 52.3125 763.102 54.1151 762.395 55.6406C761.688 57.1577 760.707 58.3338 759.455 59.169C758.202 59.9957 756.757 60.4091 755.121 60.4091C753.859 60.4091 752.849 60.2003 752.091 59.7827C751.332 59.3565 750.749 58.875 750.339 58.3381C749.93 57.7926 749.615 57.3409 749.393 56.983H749.138V67.3636H746.121ZM749.087 50.1818C749.087 51.6648 749.304 52.973 749.739 54.1065C750.173 55.2315 750.808 56.1136 751.643 56.7528C752.479 57.3835 753.501 57.6989 754.712 57.6989C755.973 57.6989 757.026 57.3665 757.869 56.7017C758.722 56.0284 759.361 55.125 759.787 53.9915C760.222 52.8494 760.439 51.5795 760.439 50.1818C760.439 48.8011 760.226 47.5568 759.8 46.4489C759.382 45.3324 758.747 44.4503 757.895 43.8026C757.051 43.1463 755.99 42.8182 754.712 42.8182C753.484 42.8182 752.453 43.1293 751.618 43.7514C750.783 44.3651 750.152 45.2259 749.726 46.3338C749.3 47.4332 749.087 48.7159 749.087 50.1818ZM773.837 60.4602C772.592 60.4602 771.463 60.2259 770.449 59.7571C769.435 59.2798 768.629 58.5938 768.033 57.6989C767.436 56.7955 767.138 55.7045 767.138 54.4261C767.138 53.3011 767.359 52.3892 767.803 51.6903C768.246 50.983 768.838 50.429 769.58 50.0284C770.321 49.6278 771.139 49.3295 772.034 49.1335C772.938 48.929 773.845 48.767 774.757 48.6477C775.95 48.4943 776.918 48.3793 777.659 48.3026C778.409 48.2173 778.955 48.0767 779.295 47.8807C779.645 47.6847 779.82 47.3437 779.82 46.858V46.7557C779.82 45.4943 779.474 44.5142 778.784 43.8153C778.102 43.1165 777.067 42.767 775.678 42.767C774.237 42.767 773.108 43.0824 772.29 43.7131C771.472 44.3437 770.896 45.017 770.564 45.733L767.7 44.7102C768.212 43.517 768.893 42.5881 769.746 41.9233C770.607 41.25 771.544 40.7812 772.558 40.517C773.581 40.2443 774.587 40.108 775.575 40.108C776.206 40.108 776.93 40.1847 777.749 40.3381C778.575 40.483 779.372 40.7855 780.139 41.2457C780.915 41.706 781.558 42.4006 782.07 43.3295C782.581 44.2585 782.837 45.5028 782.837 47.0625V60H779.82V57.3409H779.666C779.462 57.767 779.121 58.223 778.643 58.7088C778.166 59.1946 777.531 59.608 776.739 59.9489C775.946 60.2898 774.979 60.4602 773.837 60.4602ZM774.297 57.75C775.49 57.75 776.496 57.5156 777.314 57.0469C778.141 56.5781 778.763 55.973 779.18 55.2315C779.607 54.4901 779.82 53.7102 779.82 52.892V50.1307C779.692 50.2841 779.411 50.4247 778.976 50.5526C778.55 50.6719 778.055 50.7784 777.493 50.8722C776.939 50.9574 776.398 51.0341 775.869 51.1023C775.349 51.1619 774.928 51.2131 774.604 51.2557C773.82 51.358 773.087 51.5241 772.405 51.7543C771.732 51.9759 771.186 52.3125 770.768 52.7642C770.359 53.2074 770.155 53.8125 770.155 54.5795C770.155 55.6278 770.543 56.4205 771.318 56.9574C772.102 57.4858 773.095 57.75 774.297 57.75ZM804.247 60.4602C803.002 60.4602 801.873 60.2259 800.859 59.7571C799.845 59.2798 799.039 58.5938 798.443 57.6989C797.846 56.7955 797.548 55.7045 797.548 54.4261C797.548 53.3011 797.77 52.3892 798.213 51.6903C798.656 50.983 799.248 50.429 799.99 50.0284C800.731 49.6278 801.549 49.3295 802.444 49.1335C803.348 48.929 804.255 48.767 805.167 48.6477C806.36 48.4943 807.328 48.3793 808.069 48.3026C808.819 48.2173 809.365 48.0767 809.706 47.8807C810.055 47.6847 810.23 47.3437 810.23 46.858V46.7557C810.23 45.4943 809.885 44.5142 809.194 43.8153C808.512 43.1165 807.477 42.767 806.088 42.767C804.647 42.767 803.518 43.0824 802.7 43.7131C801.882 44.3437 801.306 45.017 800.974 45.733L798.11 44.7102C798.622 43.517 799.304 42.5881 800.156 41.9233C801.017 41.25 801.954 40.7812 802.968 40.517C803.991 40.2443 804.997 40.108 805.985 40.108C806.616 40.108 807.341 40.1847 808.159 40.3381C808.985 40.483 809.782 40.7855 810.549 41.2457C811.325 41.706 811.968 42.4006 812.48 43.3295C812.991 44.2585 813.247 45.5028 813.247 47.0625V60H810.23V57.3409H810.076C809.872 57.767 809.531 58.223 809.054 58.7088C808.576 59.1946 807.941 59.608 807.149 59.9489C806.356 60.2898 805.389 60.4602 804.247 60.4602ZM804.707 57.75C805.9 57.75 806.906 57.5156 807.724 57.0469C808.551 56.5781 809.173 55.973 809.591 55.2315C810.017 54.4901 810.23 53.7102 810.23 52.892V50.1307C810.102 50.2841 809.821 50.4247 809.386 50.5526C808.96 50.6719 808.466 50.7784 807.903 50.8722C807.349 50.9574 806.808 51.0341 806.279 51.1023C805.76 51.1619 805.338 51.2131 805.014 51.2557C804.23 51.358 803.497 51.5241 802.815 51.7543C802.142 51.9759 801.596 52.3125 801.179 52.7642C800.77 53.2074 800.565 53.8125 800.565 54.5795C800.565 55.6278 800.953 56.4205 801.728 56.9574C802.512 57.4858 803.505 57.75 804.707 57.75ZM831.896 48.8011V51.6136H821.055V48.8011H831.896ZM821.771 40.3636V60H818.754V40.3636H821.771ZM834.197 40.3636V60H831.18V40.3636H834.197ZM842.724 55.5511L852.184 40.3636H855.661V60H852.644V44.8125L843.235 60H839.707V40.3636H842.724V55.5511ZM871.926 55.9091L878.778 40.3636H881.642L873.153 60H870.699L862.363 40.3636H865.176L871.926 55.9091ZM864.204 40.3636V60H861.187V40.3636H864.204ZM879.647 60V40.3636H882.664V60H879.647ZM893.966 60.4602C892.721 60.4602 891.592 60.2259 890.578 59.7571C889.564 59.2798 888.758 58.5938 888.162 57.6989C887.565 56.7955 887.267 55.7045 887.267 54.4261C887.267 53.3011 887.488 52.3892 887.931 51.6903C888.375 50.983 888.967 50.429 889.708 50.0284C890.45 49.6278 891.268 49.3295 892.163 49.1335C893.066 48.929 893.974 48.767 894.886 48.6477C896.079 48.4943 897.047 48.3793 897.788 48.3026C898.538 48.2173 899.083 48.0767 899.424 47.8807C899.774 47.6847 899.949 47.3437 899.949 46.858V46.7557C899.949 45.4943 899.603 44.5142 898.913 43.8153C898.231 43.1165 897.196 42.767 895.806 42.767C894.366 42.767 893.237 43.0824 892.419 43.7131C891.6 44.3437 891.025 45.017 890.693 45.733L887.829 44.7102C888.341 43.517 889.022 42.5881 889.875 41.9233C890.735 41.25 891.673 40.7812 892.687 40.517C893.71 40.2443 894.716 40.108 895.704 40.108C896.335 40.108 897.059 40.1847 897.877 40.3381C898.704 40.483 899.501 40.7855 900.268 41.2457C901.044 41.706 901.687 42.4006 902.199 43.3295C902.71 44.2585 902.966 45.5028 902.966 47.0625V60H899.949V57.3409H899.795C899.591 57.767 899.25 58.223 898.772 58.7088C898.295 59.1946 897.66 59.608 896.868 59.9489C896.075 60.2898 895.108 60.4602 893.966 60.4602ZM894.426 57.75C895.619 57.75 896.625 57.5156 897.443 57.0469C898.27 56.5781 898.892 55.973 899.309 55.2315C899.735 54.4901 899.949 53.7102 899.949 52.892V50.1307C899.821 50.2841 899.539 50.4247 899.105 50.5526C898.679 50.6719 898.184 50.7784 897.622 50.8722C897.068 50.9574 896.527 51.0341 895.998 51.1023C895.478 51.1619 895.056 51.2131 894.733 51.2557C893.949 51.358 893.216 51.5241 892.534 51.7543C891.86 51.9759 891.315 52.3125 890.897 52.7642C890.488 53.2074 890.284 53.8125 890.284 54.5795C890.284 55.6278 890.672 56.4205 891.447 56.9574C892.231 57.4858 893.224 57.75 894.426 57.75ZM923.915 40.3636V57.1875H926.677V66.3409H923.66V60H908.472V40.3636H911.489V57.1875H920.898V40.3636H923.915ZM934.341 55.5511L943.801 40.3636H947.278V60H944.261V44.8125L934.852 60H931.324V40.3636H934.341V55.5511ZM955.821 55.5511L965.282 40.3636H968.759V60H965.742V44.8125L956.333 60H952.804V40.3636H955.821V55.5511ZM1043.01 60.4091C1041.17 60.4091 1039.59 59.9744 1038.26 59.1051C1036.93 58.2358 1035.9 57.0384 1035.19 55.5128C1034.47 53.9872 1034.11 52.2443 1034.11 50.2841C1034.11 48.2898 1034.48 46.5298 1035.21 45.0043C1035.96 43.4702 1036.99 42.2727 1038.31 41.4119C1039.64 40.5426 1041.19 40.108 1042.96 40.108C1044.34 40.108 1045.59 40.3636 1046.69 40.875C1047.8 41.3864 1048.71 42.1023 1049.42 43.0227C1050.12 43.9432 1050.56 45.017 1050.73 46.2443H1047.72C1047.49 45.3494 1046.98 44.5568 1046.18 43.8665C1045.4 43.1676 1044.34 42.8182 1043.01 42.8182C1041.84 42.8182 1040.8 43.125 1039.92 43.7386C1039.04 44.3437 1038.35 45.2003 1037.86 46.3082C1037.37 47.4077 1037.13 48.6989 1037.13 50.1818C1037.13 51.6989 1037.37 53.0199 1037.85 54.1449C1038.33 55.2699 1039.01 56.1435 1039.89 56.7656C1040.78 57.3878 1041.82 57.6989 1043.01 57.6989C1043.8 57.6989 1044.51 57.5625 1045.15 57.2898C1045.79 57.017 1046.33 56.625 1046.77 56.1136C1047.21 55.6023 1047.53 54.9886 1047.72 54.2727H1050.73C1050.56 55.4318 1050.14 56.4759 1049.47 57.4048C1048.8 58.3253 1047.92 59.0582 1046.82 59.6037C1045.73 60.1406 1044.46 60.4091 1043.01 60.4091ZM1055.14 60V40.3636H1058.16V48.9034H1060.16L1067.21 40.3636H1071.1L1063.17 49.8239L1071.2 60H1067.31L1060.87 51.7159H1058.16V60H1055.14ZM1074.48 67.3636V40.3636H1077.39V43.483H1077.75C1077.97 43.142 1078.28 42.7074 1078.67 42.179C1079.07 41.642 1079.64 41.1648 1080.39 40.7472C1081.14 40.321 1082.15 40.108 1083.43 40.108C1085.08 40.108 1086.54 40.5213 1087.8 41.348C1089.06 42.1747 1090.05 43.3466 1090.75 44.8636C1091.46 46.3807 1091.82 48.1705 1091.82 50.233C1091.82 52.3125 1091.46 54.1151 1090.75 55.6406C1090.05 57.1577 1089.07 58.3338 1087.81 59.169C1086.56 59.9957 1085.12 60.4091 1083.48 60.4091C1082.22 60.4091 1081.21 60.2003 1080.45 59.7827C1079.69 59.3565 1079.11 58.875 1078.7 58.3381C1078.29 57.7926 1077.97 57.3409 1077.75 56.983H1077.5V67.3636H1074.48ZM1077.45 50.1818C1077.45 51.6648 1077.66 52.973 1078.1 54.1065C1078.53 55.2315 1079.17 56.1136 1080 56.7528C1080.84 57.3835 1081.86 57.6989 1083.07 57.6989C1084.33 57.6989 1085.38 57.3665 1086.23 56.7017C1087.08 56.0284 1087.72 55.125 1088.15 53.9915C1088.58 52.8494 1088.8 51.5795 1088.8 50.1818C1088.8 48.8011 1088.59 47.5568 1088.16 46.4489C1087.74 45.3324 1087.11 44.4503 1086.25 43.8026C1085.41 43.1463 1084.35 42.8182 1083.07 42.8182C1081.84 42.8182 1080.81 43.1293 1079.98 43.7514C1079.14 44.3651 1078.51 45.2259 1078.09 46.3338C1077.66 47.4332 1077.45 48.7159 1077.45 50.1818ZM1104.39 60.4091C1102.62 60.4091 1101.07 59.9872 1099.73 59.1435C1098.4 58.2997 1097.36 57.1193 1096.61 55.6023C1095.87 54.0852 1095.5 52.3125 1095.5 50.2841C1095.5 48.2386 1095.87 46.4531 1096.61 44.9276C1097.36 43.402 1098.4 42.2173 1099.73 41.3736C1101.07 40.5298 1102.62 40.108 1104.39 40.108C1106.17 40.108 1107.72 40.5298 1109.05 41.3736C1110.39 42.2173 1111.43 43.402 1112.17 44.9276C1112.92 46.4531 1113.29 48.2386 1113.29 50.2841C1113.29 52.3125 1112.92 54.0852 1112.17 55.6023C1111.43 57.1193 1110.39 58.2997 1109.05 59.1435C1107.72 59.9872 1106.17 60.4091 1104.39 60.4091ZM1104.39 57.6989C1105.74 57.6989 1106.85 57.3537 1107.72 56.6634C1108.59 55.973 1109.23 55.0653 1109.65 53.9403C1110.07 52.8153 1110.28 51.5966 1110.28 50.2841C1110.28 48.9716 1110.07 47.7486 1109.65 46.6151C1109.23 45.4815 1108.59 44.5653 1107.72 43.8665C1106.85 43.1676 1105.74 42.8182 1104.39 42.8182C1103.05 42.8182 1101.94 43.1676 1101.07 43.8665C1100.2 44.5653 1099.56 45.4815 1099.14 46.6151C1098.72 47.7486 1098.51 48.9716 1098.51 50.2841C1098.51 51.5966 1098.72 52.8153 1099.14 53.9403C1099.56 55.0653 1100.2 55.973 1101.07 56.6634C1101.94 57.3537 1103.05 57.6989 1104.39 57.6989ZM1116.16 60V57.1875H1116.88C1117.46 57.1875 1117.95 57.0724 1118.35 56.8423C1118.74 56.6037 1119.05 56.1903 1119.29 55.6023C1119.54 55.0057 1119.73 54.179 1119.85 53.1222C1119.99 52.0568 1120.09 50.7017 1120.15 49.0568L1120.51 40.3636H1133.6V60H1130.58V43.1761H1123.37L1123.06 50.1818C1122.99 51.7926 1122.85 53.2116 1122.63 54.4389C1122.42 55.6577 1122.09 56.6804 1121.64 57.5071C1121.21 58.3338 1120.63 58.956 1119.91 59.3736C1119.18 59.7912 1118.27 60 1117.18 60H1116.16ZM1141.74 47.4716H1147.37C1149.67 47.4716 1151.43 48.0554 1152.65 49.223C1153.86 50.3906 1154.47 51.8693 1154.47 53.6591C1154.47 54.8352 1154.2 55.9048 1153.66 56.8679C1153.11 57.8224 1152.31 58.5852 1151.25 59.1562C1150.19 59.7188 1148.9 60 1147.37 60H1139.13V40.3636H1142.15V57.1875H1147.37C1148.56 57.1875 1149.54 56.8722 1150.31 56.2415C1151.07 55.6108 1151.46 54.8011 1151.46 53.8125C1151.46 52.7727 1151.07 51.9247 1150.31 51.2685C1149.54 50.6122 1148.56 50.2841 1147.37 50.2841H1141.74V47.4716ZM1169.19 60V40.3636H1177.22C1179.33 40.3636 1181.01 40.8409 1182.26 41.7955C1183.5 42.75 1184.12 44.0114 1184.12 45.5795C1184.12 46.7727 1183.77 47.6974 1183.06 48.3537C1182.35 49.0014 1181.45 49.4403 1180.34 49.6705C1181.06 49.7727 1181.77 50.0284 1182.45 50.4375C1183.14 50.8466 1183.71 51.4091 1184.16 52.125C1184.61 52.8324 1184.84 53.7017 1184.84 54.733C1184.84 55.7386 1184.58 56.6378 1184.07 57.4304C1183.56 58.223 1182.83 58.8494 1181.87 59.3097C1180.92 59.7699 1179.78 60 1178.45 60H1169.19ZM1172.05 57.2386H1178.45C1179.49 57.2386 1180.3 56.9915 1180.89 56.4972C1181.48 56.0028 1181.77 55.3295 1181.77 54.4773C1181.77 53.4631 1181.48 52.6662 1180.89 52.0866C1180.3 51.4986 1179.49 51.2045 1178.45 51.2045H1172.05V57.2386ZM1172.05 48.5966H1177.22C1178.03 48.5966 1178.72 48.4858 1179.3 48.2642C1179.88 48.0341 1180.33 47.7102 1180.63 47.2926C1180.95 46.8665 1181.11 46.3636 1181.11 45.7841C1181.11 44.9574 1180.76 44.3097 1180.07 43.8409C1179.38 43.3636 1178.43 43.125 1177.22 43.125H1172.05V48.5966ZM1202.55 48.8011V51.6136H1191.71V48.8011H1202.55ZM1192.42 40.3636V60H1189.41V40.3636H1192.42ZM1204.85 40.3636V60H1201.83V40.3636H1204.85ZM1213.38 55.5511L1222.84 40.3636H1226.31V60H1223.3V44.8125L1213.89 60H1210.36V40.3636H1213.38V55.5511ZM1230.61 54.9886H1233.83C1233.9 55.875 1234.3 56.5483 1235.04 57.0085C1235.78 57.4688 1236.74 57.6989 1237.92 57.6989C1239.13 57.6989 1240.17 57.4517 1241.03 56.9574C1241.89 56.4545 1242.32 55.6449 1242.32 54.5284C1242.32 53.8722 1242.16 53.3011 1241.84 52.8153C1241.51 52.321 1241.06 51.9375 1240.47 51.6648C1239.88 51.392 1239.19 51.2557 1238.38 51.2557H1235.01V48.5455H1238.38C1239.59 48.5455 1240.47 48.2727 1241.04 47.7273C1241.62 47.1818 1241.91 46.5 1241.91 45.6818C1241.91 44.804 1241.6 44.1009 1240.98 43.5724C1240.36 43.0355 1239.48 42.767 1238.33 42.767C1237.18 42.767 1236.22 43.027 1235.46 43.5469C1234.69 44.0582 1234.29 44.7187 1234.24 45.5284H1231.07C1231.11 44.4716 1231.43 43.5384 1232.04 42.7287C1232.66 41.9105 1233.49 41.2713 1234.55 40.8111C1235.61 40.3423 1236.82 40.108 1238.18 40.108C1239.56 40.108 1240.76 40.3509 1241.77 40.8366C1242.8 41.3139 1243.58 41.9659 1244.14 42.7926C1244.7 43.6108 1244.98 44.5398 1244.98 45.5795C1244.98 46.6875 1244.67 47.5824 1244.05 48.2642C1243.43 48.946 1242.65 49.4318 1241.71 49.7216V49.9261C1242.45 49.9773 1243.09 50.2159 1243.64 50.642C1244.19 51.0597 1244.62 51.6094 1244.93 52.2912C1245.24 52.9645 1245.39 53.7102 1245.39 54.5284C1245.39 55.7216 1245.07 56.7614 1244.43 57.6477C1243.79 58.5256 1242.91 59.2074 1241.8 59.6932C1240.68 60.1705 1239.41 60.4091 1237.98 60.4091C1236.59 60.4091 1235.34 60.1832 1234.24 59.7315C1233.14 59.2713 1232.27 58.6364 1231.62 57.8267C1230.98 57.0085 1230.65 56.0625 1230.61 54.9886Z" fill="black"/>
<path d="M1002 41V37M1002 65C995.373 65 990 59.6274 990 53V41C990 34.3726 995.373 29 1002 29C1008.63 29 1014 34.3726 1014 41V53C1014 59.6274 1008.63 65 1002 65Z" stroke="black" stroke-width="3" stroke-linecap="round" stroke-linejoin="round"/>
<defs>
<linearGradient id="paint0_linear_0_1" x1="0" y1="47" x2="407" y2="47" gradientUnits="userSpaceOnUse">
<stop stop-color="white"/>
<stop offset="1" stop-color="#999999"/>
</linearGradient>
</defs>
</svg>
