<svg width="640" height="94" viewBox="0 0 640 94" fill="none" xmlns="http://www.w3.org/2000/svg">
<rect width="640" height="94" rx="25" fill="url(#paint0_linear_16_2)" fill-opacity="0.7"/>
<path d="M44.9205 66.3409V57.1875H46.608C47.1875 56.6591 47.733 55.9134 48.2443 54.9503C48.7642 53.9787 49.2031 52.6832 49.5611 51.0639C49.9276 49.4361 50.1705 47.3693 50.2898 44.8636L50.8523 33.8182H66.3977V57.1875H69.4148V66.2898H66.3977V60H47.9375V66.3409H44.9205ZM50.392 57.1875H63.3807V36.6307H53.7159L53.3068 44.8636C53.2045 46.7727 53.0256 48.5028 52.7699 50.054C52.5142 51.5966 52.1861 52.9645 51.7855 54.1577C51.3849 55.3423 50.9205 56.3523 50.392 57.1875ZM72.0579 60V57.1875H72.7738C73.3619 57.1875 73.8519 57.0724 74.244 56.8423C74.636 56.6037 74.9513 56.1903 75.19 55.6023C75.4371 55.0057 75.6246 54.179 75.7525 53.1222C75.8888 52.0568 75.9869 50.7017 76.0465 49.0568L76.4045 40.3636H89.4954V60H86.4783V43.1761H79.2681L78.9613 50.1818C78.8931 51.7926 78.7482 53.2116 78.5266 54.4389C78.3136 55.6577 77.9854 56.6804 77.5423 57.5071C77.1076 58.3338 76.5281 58.956 75.8036 59.3736C75.0792 59.7912 74.1715 60 73.0806 60H72.0579ZM106.843 60V43.125H101.627C100.451 43.125 99.5266 43.3977 98.8533 43.9432C98.18 44.4886 97.8434 45.2386 97.8434 46.1932C97.8434 47.1307 98.146 47.8679 98.7511 48.4048C99.3647 48.9418 100.204 49.2102 101.27 49.2102H107.61V52.0227H101.27C99.94 52.0227 98.7937 51.7884 97.8306 51.3196C96.8675 50.8509 96.1261 50.1818 95.6062 49.3125C95.0863 48.4347 94.8263 47.3949 94.8263 46.1932C94.8263 44.983 95.0991 43.9432 95.6445 43.0739C96.19 42.2045 96.9698 41.5355 97.984 41.0668C99.0067 40.598 100.221 40.3636 101.627 40.3636H109.707V60H106.843ZM93.7525 60L99.3263 50.233H102.599L97.0252 60H93.7525ZM125.371 60V40.3636H140.814V60H137.797V43.1761H128.388V60H125.371ZM146.324 67.3636V40.3636H149.239V43.483H149.597C149.818 43.142 150.125 42.7074 150.517 42.179C150.918 41.642 151.489 41.1648 152.23 40.7472C152.98 40.321 153.994 40.108 155.273 40.108C156.926 40.108 158.384 40.5213 159.645 41.348C160.906 42.1747 161.891 43.3466 162.598 44.8636C163.305 46.3807 163.659 48.1705 163.659 50.233C163.659 52.3125 163.305 54.1151 162.598 55.6406C161.891 57.1577 160.911 58.3338 159.658 59.169C158.405 59.9957 156.96 60.4091 155.324 60.4091C154.063 60.4091 153.053 60.2003 152.294 59.7827C151.536 59.3565 150.952 58.875 150.543 58.3381C150.134 57.7926 149.818 57.3409 149.597 56.983H149.341V67.3636H146.324ZM149.29 50.1818C149.29 51.6648 149.507 52.973 149.942 54.1065C150.376 55.2315 151.011 56.1136 151.847 56.7528C152.682 57.3835 153.705 57.6989 154.915 57.6989C156.176 57.6989 157.229 57.3665 158.072 56.7017C158.925 56.0284 159.564 55.125 159.99 53.9915C160.425 52.8494 160.642 51.5795 160.642 50.1818C160.642 48.8011 160.429 47.5568 160.003 46.4489C159.585 45.3324 158.95 44.4503 158.098 43.8026C157.254 43.1463 156.193 42.8182 154.915 42.8182C153.688 42.8182 152.656 43.1293 151.821 43.7514C150.986 44.3651 150.355 45.2259 149.929 46.3338C149.503 47.4332 149.29 48.7159 149.29 50.1818ZM176.239 60.4091C174.466 60.4091 172.911 59.9872 171.572 59.1435C170.243 58.2997 169.203 57.1193 168.453 55.6023C167.712 54.0852 167.341 52.3125 167.341 50.2841C167.341 48.2386 167.712 46.4531 168.453 44.9276C169.203 43.402 170.243 42.2173 171.572 41.3736C172.911 40.5298 174.466 40.108 176.239 40.108C178.011 40.108 179.563 40.5298 180.892 41.3736C182.23 42.2173 183.27 43.402 184.011 44.9276C184.761 46.4531 185.136 48.2386 185.136 50.2841C185.136 52.3125 184.761 54.0852 184.011 55.6023C183.27 57.1193 182.23 58.2997 180.892 59.1435C179.563 59.9872 178.011 60.4091 176.239 60.4091ZM176.239 57.6989C177.585 57.6989 178.693 57.3537 179.562 56.6634C180.432 55.973 181.075 55.0653 181.493 53.9403C181.911 52.8153 182.119 51.5966 182.119 50.2841C182.119 48.9716 181.911 47.7486 181.493 46.6151C181.075 45.4815 180.432 44.5653 179.562 43.8665C178.693 43.1676 177.585 42.8182 176.239 42.8182C174.892 42.8182 173.784 43.1676 172.915 43.8665C172.045 44.5653 171.402 45.4815 170.984 46.6151C170.567 47.7486 170.358 48.9716 170.358 50.2841C170.358 51.5966 170.567 52.8153 170.984 53.9403C171.402 55.0653 172.045 55.973 172.915 56.6634C173.784 57.3537 174.892 57.6989 176.239 57.6989ZM197.719 60.4091C195.878 60.4091 194.293 59.9744 192.963 59.1051C191.634 58.2358 190.611 57.0384 189.895 55.5128C189.179 53.9872 188.821 52.2443 188.821 50.2841C188.821 48.2898 189.188 46.5298 189.921 45.0043C190.662 43.4702 191.694 42.2727 193.015 41.4119C194.344 40.5426 195.895 40.108 197.668 40.108C199.049 40.108 200.293 40.3636 201.401 40.875C202.509 41.3864 203.417 42.1023 204.124 43.0227C204.831 43.9432 205.27 45.017 205.441 46.2443H202.424C202.194 45.3494 201.682 44.5568 200.89 43.8665C200.105 43.1676 199.049 42.8182 197.719 42.8182C196.543 42.8182 195.512 43.125 194.625 43.7386C193.748 44.3437 193.061 45.2003 192.567 46.3082C192.081 47.4077 191.838 48.6989 191.838 50.1818C191.838 51.6989 192.077 53.0199 192.554 54.1449C193.04 55.2699 193.722 56.1435 194.6 56.7656C195.486 57.3878 196.526 57.6989 197.719 57.6989C198.503 57.6989 199.215 57.5625 199.854 57.2898C200.493 57.017 201.034 56.625 201.478 56.1136C201.921 55.6023 202.236 54.9886 202.424 54.2727H205.441C205.27 55.4318 204.848 56.4759 204.175 57.4048C203.51 58.3253 202.628 59.0582 201.529 59.6037C200.438 60.1406 199.168 60.4091 197.719 60.4091ZM220.59 55.9091L227.442 40.3636H230.306L221.817 60H219.363L211.027 40.3636H213.84L220.59 55.9091ZM212.868 40.3636V60H209.851V40.3636H212.868ZM228.311 60V40.3636H231.328V60H228.311ZM244.828 60.4091C243.056 60.4091 241.5 59.9872 240.162 59.1435C238.833 58.2997 237.793 57.1193 237.043 55.6023C236.301 54.0852 235.931 52.3125 235.931 50.2841C235.931 48.2386 236.301 46.4531 237.043 44.9276C237.793 43.402 238.833 42.2173 240.162 41.3736C241.5 40.5298 243.056 40.108 244.828 40.108C246.601 40.108 248.152 40.5298 249.482 41.3736C250.82 42.2173 251.86 43.402 252.601 44.9276C253.351 46.4531 253.726 48.2386 253.726 50.2841C253.726 52.3125 253.351 54.0852 252.601 55.6023C251.86 57.1193 250.82 58.2997 249.482 59.1435C248.152 59.9872 246.601 60.4091 244.828 60.4091ZM244.828 57.6989C246.175 57.6989 247.283 57.3537 248.152 56.6634C249.022 55.973 249.665 55.0653 250.083 53.9403C250.5 52.8153 250.709 51.5966 250.709 50.2841C250.709 48.9716 250.5 47.7486 250.083 46.6151C249.665 45.4815 249.022 44.5653 248.152 43.8665C247.283 43.1676 246.175 42.8182 244.828 42.8182C243.482 42.8182 242.374 43.1676 241.505 43.8665C240.635 44.5653 239.992 45.4815 239.574 46.6151C239.157 47.7486 238.948 48.9716 238.948 50.2841C238.948 51.5966 239.157 52.8153 239.574 53.9403C239.992 55.0653 240.635 55.973 241.505 56.6634C242.374 57.3537 243.482 57.6989 244.828 57.6989ZM255.765 43.1761V40.3636H271.72V43.1761H265.277V60H262.26V43.1761H255.765ZM276.121 67.3636V40.3636H279.036V43.483H279.393C279.615 43.142 279.922 42.7074 280.314 42.179C280.714 41.642 281.286 41.1648 282.027 40.7472C282.777 40.321 283.791 40.108 285.07 40.108C286.723 40.108 288.18 40.5213 289.442 41.348C290.703 42.1747 291.688 43.3466 292.395 44.8636C293.102 46.3807 293.456 48.1705 293.456 50.233C293.456 52.3125 293.102 54.1151 292.395 55.6406C291.688 57.1577 290.707 58.3338 289.455 59.169C288.202 59.9957 286.757 60.4091 285.121 60.4091C283.859 60.4091 282.849 60.2003 282.091 59.7827C281.332 59.3565 280.749 58.875 280.339 58.3381C279.93 57.7926 279.615 57.3409 279.393 56.983H279.138V67.3636H276.121ZM279.087 50.1818C279.087 51.6648 279.304 52.973 279.739 54.1065C280.173 55.2315 280.808 56.1136 281.643 56.7528C282.479 57.3835 283.501 57.6989 284.712 57.6989C285.973 57.6989 287.026 57.3665 287.869 56.7017C288.722 56.0284 289.361 55.125 289.787 53.9915C290.222 52.8494 290.439 51.5795 290.439 50.1818C290.439 48.8011 290.226 47.5568 289.8 46.4489C289.382 45.3324 288.747 44.4503 287.895 43.8026C287.051 43.1463 285.99 42.8182 284.712 42.8182C283.484 42.8182 282.453 43.1293 281.618 43.7514C280.783 44.3651 280.152 45.2259 279.726 46.3338C279.3 47.4332 279.087 48.7159 279.087 50.1818ZM303.837 60.4602C302.592 60.4602 301.463 60.2259 300.449 59.7571C299.435 59.2798 298.629 58.5938 298.033 57.6989C297.436 56.7955 297.138 55.7045 297.138 54.4261C297.138 53.3011 297.359 52.3892 297.803 51.6903C298.246 50.983 298.838 50.429 299.58 50.0284C300.321 49.6278 301.139 49.3295 302.034 49.1335C302.938 48.929 303.845 48.767 304.757 48.6477C305.95 48.4943 306.918 48.3793 307.659 48.3026C308.409 48.2173 308.955 48.0767 309.295 47.8807C309.645 47.6847 309.82 47.3437 309.82 46.858V46.7557C309.82 45.4943 309.474 44.5142 308.784 43.8153C308.102 43.1165 307.067 42.767 305.678 42.767C304.237 42.767 303.108 43.0824 302.29 43.7131C301.472 44.3437 300.896 45.017 300.564 45.733L297.7 44.7102C298.212 43.517 298.893 42.5881 299.746 41.9233C300.607 41.25 301.544 40.7812 302.558 40.517C303.581 40.2443 304.587 40.108 305.575 40.108C306.206 40.108 306.93 40.1847 307.749 40.3381C308.575 40.483 309.372 40.7855 310.139 41.2457C310.915 41.706 311.558 42.4006 312.07 43.3295C312.581 44.2585 312.837 45.5028 312.837 47.0625V60H309.82V57.3409H309.666C309.462 57.767 309.121 58.223 308.643 58.7088C308.166 59.1946 307.531 59.608 306.739 59.9489C305.946 60.2898 304.979 60.4602 303.837 60.4602ZM304.297 57.75C305.49 57.75 306.496 57.5156 307.314 57.0469C308.141 56.5781 308.763 55.973 309.18 55.2315C309.607 54.4901 309.82 53.7102 309.82 52.892V50.1307C309.692 50.2841 309.411 50.4247 308.976 50.5526C308.55 50.6719 308.055 50.7784 307.493 50.8722C306.939 50.9574 306.398 51.0341 305.869 51.1023C305.349 51.1619 304.928 51.2131 304.604 51.2557C303.82 51.358 303.087 51.5241 302.405 51.7543C301.732 51.9759 301.186 52.3125 300.768 52.7642C300.359 53.2074 300.155 53.8125 300.155 54.5795C300.155 55.6278 300.543 56.4205 301.318 56.9574C302.102 57.4858 303.095 57.75 304.297 57.75ZM385.588 60.3835C383.627 60.3835 382.017 59.9531 380.755 59.0923C379.494 58.2315 378.612 57.0426 378.109 55.5256C377.615 54 377.534 52.2443 377.866 50.2585C378.19 48.2642 378.859 46.5043 379.873 44.9787C380.896 43.4446 382.183 42.2514 383.734 41.3991C385.285 40.5384 387.02 40.108 388.937 40.108C390.531 40.108 391.89 40.402 393.015 40.9901C394.149 41.5696 394.993 42.392 395.547 43.4574C396.109 44.5142 396.326 45.75 396.199 47.1648H391.762C391.745 46.2187 391.451 45.4304 390.88 44.7997C390.309 44.1605 389.474 43.8409 388.375 43.8409C387.42 43.8409 386.542 44.0966 385.741 44.608C384.94 45.1108 384.262 45.8352 383.708 46.7812C383.154 47.7273 382.771 48.8608 382.558 50.1818C382.336 51.5199 382.341 52.6705 382.571 53.6335C382.809 54.5881 383.24 55.3253 383.862 55.8452C384.493 56.3565 385.289 56.6122 386.252 56.6122C386.934 56.6122 387.569 56.4844 388.157 56.2287C388.745 55.9645 389.261 55.5852 389.704 55.0909C390.156 54.5966 390.51 53.9957 390.765 53.2884H395.189C394.839 54.6776 394.217 55.9091 393.322 56.983C392.436 58.0483 391.336 58.8835 390.024 59.4886C388.711 60.0852 387.233 60.3835 385.588 60.3835ZM397.864 60L401.136 40.3636H405.777L404.447 48.2898H406.135L413.371 40.3636H418.932L410.06 50.0028L415.749 60H410.136L405.994 52.598H403.732L402.504 60H397.864ZM417.168 67.3636L421.693 40.3636H426.244L425.72 43.6108H425.989C426.295 43.1335 426.709 42.6264 427.229 42.0895C427.757 41.544 428.426 41.0795 429.236 40.696C430.045 40.304 431.03 40.108 432.189 40.108C433.697 40.108 434.997 40.4957 436.088 41.2713C437.179 42.0384 437.959 43.1761 438.428 44.6847C438.905 46.1847 438.964 48.0256 438.607 50.2074C438.249 52.3636 437.588 54.196 436.625 55.7045C435.662 57.2131 434.507 58.3636 433.161 59.1562C431.814 59.9489 430.369 60.3452 428.827 60.3452C427.702 60.3452 426.794 60.1577 426.104 59.7827C425.422 59.4077 424.906 58.956 424.557 58.4276C424.207 57.8906 423.947 57.3835 423.777 56.9062H423.572L421.834 67.3636H417.168ZM424.595 50.1818C424.391 51.4517 424.386 52.5639 424.582 53.5185C424.787 54.473 425.192 55.2187 425.797 55.7557C426.402 56.2841 427.195 56.5483 428.175 56.5483C429.197 56.5483 430.092 56.2756 430.859 55.7301C431.635 55.1761 432.278 54.4219 432.79 53.4673C433.31 52.5043 433.676 51.4091 433.889 50.1818C434.085 48.9631 434.085 47.8807 433.889 46.9347C433.693 45.9886 433.297 45.2472 432.7 44.7102C432.104 44.1733 431.294 43.9048 430.271 43.9048C429.274 43.9048 428.384 44.1648 427.599 44.6847C426.824 45.2045 426.18 45.9332 425.669 46.8707C425.158 47.8082 424.8 48.9119 424.595 50.1818ZM449.534 60.3835C447.599 60.3835 445.988 59.9574 444.701 59.1051C443.423 58.2528 442.524 57.0554 442.004 55.5128C441.484 53.9702 441.39 52.1804 441.723 50.1435C442.055 48.1321 442.72 46.3722 443.717 44.8636C444.723 43.3551 445.988 42.1875 447.514 41.3608C449.048 40.5256 450.765 40.108 452.666 40.108C454.6 40.108 456.207 40.5384 457.485 41.3991C458.764 42.2514 459.663 43.4489 460.183 44.9915C460.711 46.5341 460.809 48.3324 460.477 50.3864C460.153 52.3892 459.484 54.1406 458.47 55.6406C457.464 57.1406 456.199 58.3082 454.673 59.1435C453.147 59.9702 451.434 60.3835 449.534 60.3835ZM449.917 56.6761C450.991 56.6761 451.933 56.3864 452.743 55.8068C453.561 55.2187 454.23 54.4304 454.75 53.4418C455.278 52.4446 455.645 51.3366 455.849 50.1179C456.037 48.9418 456.041 47.8764 455.862 46.9219C455.683 45.9588 455.299 45.196 454.711 44.6335C454.132 44.0625 453.326 43.777 452.295 43.777C451.221 43.777 450.271 44.0753 449.444 44.6719C448.626 45.2599 447.957 46.0526 447.437 47.0497C446.917 48.0384 446.559 49.142 446.363 50.3608C446.167 51.5369 446.159 52.6023 446.338 53.5568C446.517 54.5114 446.9 55.2699 447.488 55.8324C448.076 56.3949 448.886 56.6761 449.917 56.6761ZM461.464 60L462.065 56.1903H462.743C463.246 56.1903 463.693 56.0753 464.085 55.8452C464.477 55.6151 464.835 55.2315 465.159 54.6946C465.483 54.1491 465.786 53.4162 466.067 52.4957C466.357 51.5753 466.642 50.429 466.923 49.0568L468.7 40.3636H483.018L479.746 60H475.271L477.918 44.1605H472.28L470.925 50.4886C470.575 52.125 470.158 53.544 469.672 54.7457C469.186 55.9389 468.619 56.9233 467.972 57.6989C467.324 58.4744 466.578 59.054 465.734 59.4375C464.899 59.8125 463.953 60 462.896 60H461.464ZM489.775 46.7557H495.566C498.063 46.7557 499.896 47.3651 501.063 48.5838C502.239 49.8026 502.67 51.4006 502.354 53.3778C502.133 54.6648 501.626 55.8068 500.833 56.804C500.049 57.8011 499.022 58.5852 497.752 59.1562C496.491 59.7188 495.025 60 493.354 60H484.418L487.691 40.3636H492.165L489.519 56.2031H493.968C494.982 56.2031 495.856 55.9474 496.589 55.4361C497.33 54.9247 497.765 54.2599 497.893 53.4418C498.038 52.5895 497.829 51.8949 497.266 51.358C496.704 50.821 495.928 50.5526 494.94 50.5526H489.161L489.775 46.7557ZM514.125 60L517.398 40.3636H525.657C527.966 40.3636 529.718 40.8324 530.911 41.7699C532.113 42.6989 532.577 43.9901 532.304 45.6435C532.117 46.7514 531.584 47.6506 530.706 48.3409C529.828 49.0312 528.721 49.4957 527.382 49.7344C528.388 49.8196 529.245 50.0795 529.952 50.5142C530.668 50.9489 531.188 51.5241 531.512 52.2401C531.836 52.9474 531.921 53.7571 531.767 54.669C531.588 55.7514 531.15 56.6932 530.451 57.4943C529.752 58.2869 528.827 58.9048 527.676 59.348C526.526 59.7827 525.184 60 523.65 60H514.125ZM519.073 56.3565H524.25C525.111 56.3565 525.819 56.152 526.373 55.7429C526.926 55.3338 527.255 54.7841 527.357 54.0938C527.502 53.2841 527.365 52.6491 526.948 52.1889C526.539 51.7202 525.912 51.4858 525.069 51.4858H519.891L519.073 56.3565ZM520.377 48.4943H524.378C525 48.4943 525.554 48.4048 526.04 48.2259C526.526 48.0384 526.918 47.7784 527.216 47.446C527.523 47.1051 527.711 46.7003 527.779 46.2315C527.898 45.5582 527.711 45.0298 527.216 44.6463C526.722 44.2628 525.993 44.071 525.03 44.071H521.118L520.377 48.4943ZM550.122 48.2642L549.509 52.0611H539.051L539.678 48.2642H550.122ZM542.439 40.3636L539.166 60H534.692L537.964 40.3636H542.439ZM554.494 40.3636L551.222 60H546.773L550.045 40.3636H554.494ZM561.414 53.7358L571.5 40.3636H576.243L572.971 60H568.509L570.721 46.6151L560.672 60H555.891L559.164 40.3636H563.638L561.414 53.7358ZM577.531 54.6179H582.121C582.036 55.3509 582.266 55.9176 582.811 56.3182C583.357 56.7187 584.119 56.919 585.099 56.919C586.097 56.919 586.97 56.7017 587.72 56.267C588.479 55.8239 588.935 55.1548 589.088 54.2599C589.182 53.7315 589.126 53.267 588.922 52.8665C588.726 52.4574 588.406 52.142 587.963 51.9205C587.528 51.6989 586.987 51.5881 586.339 51.5881H583.335L583.898 48.3026H586.902C587.857 48.3026 588.619 48.081 589.19 47.6378C589.77 47.1946 590.111 46.6364 590.213 45.9631C590.332 45.2386 590.166 44.6506 589.714 44.1989C589.263 43.7472 588.577 43.5213 587.656 43.5213C586.736 43.5213 585.935 43.7301 585.253 44.1477C584.58 44.5653 584.17 45.1023 584.026 45.7585H579.462C579.675 44.6165 580.186 43.6236 580.996 42.7798C581.805 41.9361 582.82 41.2798 584.038 40.8111C585.257 40.3423 586.582 40.108 588.014 40.108C589.548 40.108 590.835 40.3381 591.875 40.7983C592.915 41.2585 593.669 41.902 594.138 42.7287C594.607 43.5469 594.747 44.5099 594.56 45.6179C594.381 46.6832 593.899 47.5653 593.115 48.2642C592.339 48.9545 591.372 49.4489 590.213 49.7472L590.162 49.9517C590.929 49.9943 591.589 50.2159 592.143 50.6165C592.706 51.0085 593.111 51.5412 593.358 52.2145C593.614 52.8878 593.669 53.6676 593.524 54.554C593.32 55.7557 592.8 56.7955 591.964 57.6733C591.138 58.5426 590.081 59.2116 588.794 59.6804C587.516 60.1491 586.097 60.3835 584.537 60.3835C583.028 60.3835 581.72 60.1577 580.612 59.706C579.504 59.2457 578.673 58.5852 578.119 57.7244C577.565 56.8636 577.369 55.8281 577.531 54.6179Z" fill="white"/>
<path d="M346 41V37M346 65C339.373 65 334 59.6274 334 53V41C334 34.3726 339.373 29 346 29C352.627 29 358 34.3726 358 41V53C358 59.6274 352.627 65 346 65Z" stroke="white" stroke-width="3" stroke-linecap="round" stroke-linejoin="round"/>
<defs>
<linearGradient id="paint0_linear_16_2" x1="0" y1="47" x2="640" y2="47" gradientUnits="userSpaceOnUse">
<stop/>
<stop offset="1" stop-color="#666666"/>
</linearGradient>
</defs>
</svg>
