<svg width="836" height="94" viewBox="0 0 836 94" fill="none" xmlns="http://www.w3.org/2000/svg">
<rect width="836" height="94" rx="25" fill="white" fill-opacity="0.9"/>
<path d="M51.9205 66.3409V57.1875H53.608C54.1875 56.6591 54.733 55.9134 55.2443 54.9503C55.7642 53.9787 56.2031 52.6832 56.5611 51.0639C56.9276 49.4361 57.1705 47.3693 57.2898 44.8636L57.8523 33.8182H73.3977V57.1875H76.4148V66.2898H73.3977V60H54.9375V66.3409H51.9205ZM57.392 57.1875H70.3807V36.6307H60.7159L60.3068 44.8636C60.2045 46.7727 60.0256 48.5028 59.7699 50.054C59.5142 51.5966 59.1861 52.9645 58.7855 54.1577C58.3849 55.3423 57.9205 56.3523 57.392 57.1875ZM79.0579 60V57.1875H79.7738C80.3619 57.1875 80.8519 57.0724 81.244 56.8423C81.636 56.6037 81.9513 56.1903 82.19 55.6023C82.4371 55.0057 82.6246 54.179 82.7525 53.1222C82.8888 52.0568 82.9869 50.7017 83.0465 49.0568L83.4045 40.3636H96.4954V60H93.4783V43.1761H86.2681L85.9613 50.1818C85.8931 51.7926 85.7482 53.2116 85.5266 54.4389C85.3136 55.6577 84.9854 56.6804 84.5423 57.5071C84.1076 58.3338 83.5281 58.956 82.8036 59.3736C82.0792 59.7912 81.1715 60 80.0806 60H79.0579ZM113.843 60V43.125H108.627C107.451 43.125 106.527 43.3977 105.853 43.9432C105.18 44.4886 104.843 45.2386 104.843 46.1932C104.843 47.1307 105.146 47.8679 105.751 48.4048C106.365 48.9418 107.204 49.2102 108.27 49.2102H114.61V52.0227H108.27C106.94 52.0227 105.794 51.7884 104.831 51.3196C103.868 50.8509 103.126 50.1818 102.606 49.3125C102.086 48.4347 101.826 47.3949 101.826 46.1932C101.826 44.983 102.099 43.9432 102.645 43.0739C103.19 42.2045 103.97 41.5355 104.984 41.0668C106.007 40.598 107.221 40.3636 108.627 40.3636H116.707V60H113.843ZM100.752 60L106.326 50.233H109.599L104.025 60H100.752ZM132.371 60V40.3636H147.814V60H144.797V43.1761H135.388V60H132.371ZM153.324 67.3636V40.3636H156.239V43.483H156.597C156.818 43.142 157.125 42.7074 157.517 42.179C157.918 41.642 158.489 41.1648 159.23 40.7472C159.98 40.321 160.994 40.108 162.273 40.108C163.926 40.108 165.384 40.5213 166.645 41.348C167.906 42.1747 168.891 43.3466 169.598 44.8636C170.305 46.3807 170.659 48.1705 170.659 50.233C170.659 52.3125 170.305 54.1151 169.598 55.6406C168.891 57.1577 167.911 58.3338 166.658 59.169C165.405 59.9957 163.96 60.4091 162.324 60.4091C161.063 60.4091 160.053 60.2003 159.294 59.7827C158.536 59.3565 157.952 58.875 157.543 58.3381C157.134 57.7926 156.818 57.3409 156.597 56.983H156.341V67.3636H153.324ZM156.29 50.1818C156.29 51.6648 156.507 52.973 156.942 54.1065C157.376 55.2315 158.011 56.1136 158.847 56.7528C159.682 57.3835 160.705 57.6989 161.915 57.6989C163.176 57.6989 164.229 57.3665 165.072 56.7017C165.925 56.0284 166.564 55.125 166.99 53.9915C167.425 52.8494 167.642 51.5795 167.642 50.1818C167.642 48.8011 167.429 47.5568 167.003 46.4489C166.585 45.3324 165.95 44.4503 165.098 43.8026C164.254 43.1463 163.193 42.8182 161.915 42.8182C160.688 42.8182 159.656 43.1293 158.821 43.7514C157.986 44.3651 157.355 45.2259 156.929 46.3338C156.503 47.4332 156.29 48.7159 156.29 50.1818ZM183.239 60.4091C181.466 60.4091 179.911 59.9872 178.572 59.1435C177.243 58.2997 176.203 57.1193 175.453 55.6023C174.712 54.0852 174.341 52.3125 174.341 50.2841C174.341 48.2386 174.712 46.4531 175.453 44.9276C176.203 43.402 177.243 42.2173 178.572 41.3736C179.911 40.5298 181.466 40.108 183.239 40.108C185.011 40.108 186.563 40.5298 187.892 41.3736C189.23 42.2173 190.27 43.402 191.011 44.9276C191.761 46.4531 192.136 48.2386 192.136 50.2841C192.136 52.3125 191.761 54.0852 191.011 55.6023C190.27 57.1193 189.23 58.2997 187.892 59.1435C186.563 59.9872 185.011 60.4091 183.239 60.4091ZM183.239 57.6989C184.585 57.6989 185.693 57.3537 186.562 56.6634C187.432 55.973 188.075 55.0653 188.493 53.9403C188.911 52.8153 189.119 51.5966 189.119 50.2841C189.119 48.9716 188.911 47.7486 188.493 46.6151C188.075 45.4815 187.432 44.5653 186.562 43.8665C185.693 43.1676 184.585 42.8182 183.239 42.8182C181.892 42.8182 180.784 43.1676 179.915 43.8665C179.045 44.5653 178.402 45.4815 177.984 46.6151C177.567 47.7486 177.358 48.9716 177.358 50.2841C177.358 51.5966 177.567 52.8153 177.984 53.9403C178.402 55.0653 179.045 55.973 179.915 56.6634C180.784 57.3537 181.892 57.6989 183.239 57.6989ZM204.719 60.4091C202.878 60.4091 201.293 59.9744 199.963 59.1051C198.634 58.2358 197.611 57.0384 196.895 55.5128C196.179 53.9872 195.821 52.2443 195.821 50.2841C195.821 48.2898 196.188 46.5298 196.921 45.0043C197.662 43.4702 198.694 42.2727 200.015 41.4119C201.344 40.5426 202.895 40.108 204.668 40.108C206.049 40.108 207.293 40.3636 208.401 40.875C209.509 41.3864 210.417 42.1023 211.124 43.0227C211.831 43.9432 212.27 45.017 212.441 46.2443H209.424C209.194 45.3494 208.682 44.5568 207.89 43.8665C207.105 43.1676 206.049 42.8182 204.719 42.8182C203.543 42.8182 202.512 43.125 201.625 43.7386C200.748 44.3437 200.061 45.2003 199.567 46.3082C199.081 47.4077 198.838 48.6989 198.838 50.1818C198.838 51.6989 199.077 53.0199 199.554 54.1449C200.04 55.2699 200.722 56.1435 201.6 56.7656C202.486 57.3878 203.526 57.6989 204.719 57.6989C205.503 57.6989 206.215 57.5625 206.854 57.2898C207.493 57.017 208.034 56.625 208.478 56.1136C208.921 55.6023 209.236 54.9886 209.424 54.2727H212.441C212.27 55.4318 211.848 56.4759 211.175 57.4048C210.51 58.3253 209.628 59.0582 208.529 59.6037C207.438 60.1406 206.168 60.4091 204.719 60.4091ZM227.59 55.9091L234.442 40.3636H237.306L228.817 60H226.363L218.027 40.3636H220.84L227.59 55.9091ZM219.868 40.3636V60H216.851V40.3636H219.868ZM235.311 60V40.3636H238.328V60H235.311ZM251.828 60.4091C250.056 60.4091 248.5 59.9872 247.162 59.1435C245.833 58.2997 244.793 57.1193 244.043 55.6023C243.301 54.0852 242.931 52.3125 242.931 50.2841C242.931 48.2386 243.301 46.4531 244.043 44.9276C244.793 43.402 245.833 42.2173 247.162 41.3736C248.5 40.5298 250.056 40.108 251.828 40.108C253.601 40.108 255.152 40.5298 256.482 41.3736C257.82 42.2173 258.86 43.402 259.601 44.9276C260.351 46.4531 260.726 48.2386 260.726 50.2841C260.726 52.3125 260.351 54.0852 259.601 55.6023C258.86 57.1193 257.82 58.2997 256.482 59.1435C255.152 59.9872 253.601 60.4091 251.828 60.4091ZM251.828 57.6989C253.175 57.6989 254.283 57.3537 255.152 56.6634C256.022 55.973 256.665 55.0653 257.083 53.9403C257.5 52.8153 257.709 51.5966 257.709 50.2841C257.709 48.9716 257.5 47.7486 257.083 46.6151C256.665 45.4815 256.022 44.5653 255.152 43.8665C254.283 43.1676 253.175 42.8182 251.828 42.8182C250.482 42.8182 249.374 43.1676 248.505 43.8665C247.635 44.5653 246.992 45.4815 246.574 46.6151C246.157 47.7486 245.948 48.9716 245.948 50.2841C245.948 51.5966 246.157 52.8153 246.574 53.9403C246.992 55.0653 247.635 55.973 248.505 56.6634C249.374 57.3537 250.482 57.6989 251.828 57.6989ZM262.765 43.1761V40.3636H278.72V43.1761H272.277V60H269.26V43.1761H262.765ZM283.121 67.3636V40.3636H286.036V43.483H286.393C286.615 43.142 286.922 42.7074 287.314 42.179C287.714 41.642 288.286 41.1648 289.027 40.7472C289.777 40.321 290.791 40.108 292.07 40.108C293.723 40.108 295.18 40.5213 296.442 41.348C297.703 42.1747 298.688 43.3466 299.395 44.8636C300.102 46.3807 300.456 48.1705 300.456 50.233C300.456 52.3125 300.102 54.1151 299.395 55.6406C298.688 57.1577 297.707 58.3338 296.455 59.169C295.202 59.9957 293.757 60.4091 292.121 60.4091C290.859 60.4091 289.849 60.2003 289.091 59.7827C288.332 59.3565 287.749 58.875 287.339 58.3381C286.93 57.7926 286.615 57.3409 286.393 56.983H286.138V67.3636H283.121ZM286.087 50.1818C286.087 51.6648 286.304 52.973 286.739 54.1065C287.173 55.2315 287.808 56.1136 288.643 56.7528C289.479 57.3835 290.501 57.6989 291.712 57.6989C292.973 57.6989 294.026 57.3665 294.869 56.7017C295.722 56.0284 296.361 55.125 296.787 53.9915C297.222 52.8494 297.439 51.5795 297.439 50.1818C297.439 48.8011 297.226 47.5568 296.8 46.4489C296.382 45.3324 295.747 44.4503 294.895 43.8026C294.051 43.1463 292.99 42.8182 291.712 42.8182C290.484 42.8182 289.453 43.1293 288.618 43.7514C287.783 44.3651 287.152 45.2259 286.726 46.3338C286.3 47.4332 286.087 48.7159 286.087 50.1818ZM310.837 60.4602C309.592 60.4602 308.463 60.2259 307.449 59.7571C306.435 59.2798 305.629 58.5938 305.033 57.6989C304.436 56.7955 304.138 55.7045 304.138 54.4261C304.138 53.3011 304.359 52.3892 304.803 51.6903C305.246 50.983 305.838 50.429 306.58 50.0284C307.321 49.6278 308.139 49.3295 309.034 49.1335C309.938 48.929 310.845 48.767 311.757 48.6477C312.95 48.4943 313.918 48.3793 314.659 48.3026C315.409 48.2173 315.955 48.0767 316.295 47.8807C316.645 47.6847 316.82 47.3437 316.82 46.858V46.7557C316.82 45.4943 316.474 44.5142 315.784 43.8153C315.102 43.1165 314.067 42.767 312.678 42.767C311.237 42.767 310.108 43.0824 309.29 43.7131C308.472 44.3437 307.896 45.017 307.564 45.733L304.7 44.7102C305.212 43.517 305.893 42.5881 306.746 41.9233C307.607 41.25 308.544 40.7812 309.558 40.517C310.581 40.2443 311.587 40.108 312.575 40.108C313.206 40.108 313.93 40.1847 314.749 40.3381C315.575 40.483 316.372 40.7855 317.139 41.2457C317.915 41.706 318.558 42.4006 319.07 43.3295C319.581 44.2585 319.837 45.5028 319.837 47.0625V60H316.82V57.3409H316.666C316.462 57.767 316.121 58.223 315.643 58.7088C315.166 59.1946 314.531 59.608 313.739 59.9489C312.946 60.2898 311.979 60.4602 310.837 60.4602ZM311.297 57.75C312.49 57.75 313.496 57.5156 314.314 57.0469C315.141 56.5781 315.763 55.973 316.18 55.2315C316.607 54.4901 316.82 53.7102 316.82 52.892V50.1307C316.692 50.2841 316.411 50.4247 315.976 50.5526C315.55 50.6719 315.055 50.7784 314.493 50.8722C313.939 50.9574 313.398 51.0341 312.869 51.1023C312.349 51.1619 311.928 51.2131 311.604 51.2557C310.82 51.358 310.087 51.5241 309.405 51.7543C308.732 51.9759 308.186 52.3125 307.768 52.7642C307.359 53.2074 307.155 53.8125 307.155 54.5795C307.155 55.6278 307.543 56.4205 308.318 56.9574C309.102 57.4858 310.095 57.75 311.297 57.75ZM341.247 60.4602C340.002 60.4602 338.873 60.2259 337.859 59.7571C336.845 59.2798 336.039 58.5938 335.443 57.6989C334.846 56.7955 334.548 55.7045 334.548 54.4261C334.548 53.3011 334.77 52.3892 335.213 51.6903C335.656 50.983 336.248 50.429 336.99 50.0284C337.731 49.6278 338.549 49.3295 339.444 49.1335C340.348 48.929 341.255 48.767 342.167 48.6477C343.36 48.4943 344.328 48.3793 345.069 48.3026C345.819 48.2173 346.365 48.0767 346.706 47.8807C347.055 47.6847 347.23 47.3437 347.23 46.858V46.7557C347.23 45.4943 346.885 44.5142 346.194 43.8153C345.512 43.1165 344.477 42.767 343.088 42.767C341.647 42.767 340.518 43.0824 339.7 43.7131C338.882 44.3437 338.306 45.017 337.974 45.733L335.11 44.7102C335.622 43.517 336.304 42.5881 337.156 41.9233C338.017 41.25 338.954 40.7812 339.968 40.517C340.991 40.2443 341.997 40.108 342.985 40.108C343.616 40.108 344.341 40.1847 345.159 40.3381C345.985 40.483 346.782 40.7855 347.549 41.2457C348.325 41.706 348.968 42.4006 349.48 43.3295C349.991 44.2585 350.247 45.5028 350.247 47.0625V60H347.23V57.3409H347.076C346.872 57.767 346.531 58.223 346.054 58.7088C345.576 59.1946 344.941 59.608 344.149 59.9489C343.356 60.2898 342.389 60.4602 341.247 60.4602ZM341.707 57.75C342.9 57.75 343.906 57.5156 344.724 57.0469C345.551 56.5781 346.173 55.973 346.591 55.2315C347.017 54.4901 347.23 53.7102 347.23 52.892V50.1307C347.102 50.2841 346.821 50.4247 346.386 50.5526C345.96 50.6719 345.466 50.7784 344.903 50.8722C344.349 50.9574 343.808 51.0341 343.279 51.1023C342.76 51.1619 342.338 51.2131 342.014 51.2557C341.23 51.358 340.497 51.5241 339.815 51.7543C339.142 51.9759 338.596 52.3125 338.179 52.7642C337.77 53.2074 337.565 53.8125 337.565 54.5795C337.565 55.6278 337.953 56.4205 338.728 56.9574C339.512 57.4858 340.505 57.75 341.707 57.75ZM368.896 48.8011V51.6136H358.055V48.8011H368.896ZM358.771 40.3636V60H355.754V40.3636H358.771ZM371.197 40.3636V60H368.18V40.3636H371.197ZM379.724 55.5511L389.184 40.3636H392.661V60H389.644V44.8125L380.235 60H376.707V40.3636H379.724V55.5511ZM408.926 55.9091L415.778 40.3636H418.642L410.153 60H407.699L399.363 40.3636H402.176L408.926 55.9091ZM401.204 40.3636V60H398.187V40.3636H401.204ZM416.647 60V40.3636H419.664V60H416.647ZM430.966 60.4602C429.721 60.4602 428.592 60.2259 427.578 59.7571C426.564 59.2798 425.758 58.5938 425.162 57.6989C424.565 56.7955 424.267 55.7045 424.267 54.4261C424.267 53.3011 424.488 52.3892 424.931 51.6903C425.375 50.983 425.967 50.429 426.708 50.0284C427.45 49.6278 428.268 49.3295 429.163 49.1335C430.066 48.929 430.974 48.767 431.886 48.6477C433.079 48.4943 434.047 48.3793 434.788 48.3026C435.538 48.2173 436.083 48.0767 436.424 47.8807C436.774 47.6847 436.949 47.3437 436.949 46.858V46.7557C436.949 45.4943 436.603 44.5142 435.913 43.8153C435.231 43.1165 434.196 42.767 432.806 42.767C431.366 42.767 430.237 43.0824 429.419 43.7131C428.6 44.3437 428.025 45.017 427.693 45.733L424.829 44.7102C425.341 43.517 426.022 42.5881 426.875 41.9233C427.735 41.25 428.673 40.7812 429.687 40.517C430.71 40.2443 431.716 40.108 432.704 40.108C433.335 40.108 434.059 40.1847 434.877 40.3381C435.704 40.483 436.501 40.7855 437.268 41.2457C438.044 41.706 438.687 42.4006 439.199 43.3295C439.71 44.2585 439.966 45.5028 439.966 47.0625V60H436.949V57.3409H436.795C436.591 57.767 436.25 58.223 435.772 58.7088C435.295 59.1946 434.66 59.608 433.868 59.9489C433.075 60.2898 432.108 60.4602 430.966 60.4602ZM431.426 57.75C432.619 57.75 433.625 57.5156 434.443 57.0469C435.27 56.5781 435.892 55.973 436.309 55.2315C436.735 54.4901 436.949 53.7102 436.949 52.892V50.1307C436.821 50.2841 436.539 50.4247 436.105 50.5526C435.679 50.6719 435.184 50.7784 434.622 50.8722C434.068 50.9574 433.527 51.0341 432.998 51.1023C432.478 51.1619 432.056 51.2131 431.733 51.2557C430.949 51.358 430.216 51.5241 429.534 51.7543C428.86 51.9759 428.315 52.3125 427.897 52.7642C427.488 53.2074 427.284 53.8125 427.284 54.5795C427.284 55.6278 427.672 56.4205 428.447 56.9574C429.231 57.4858 430.224 57.75 431.426 57.75ZM460.915 40.3636V57.1875H463.677V66.3409H460.66V60H445.472V40.3636H448.489V57.1875H457.898V40.3636H460.915ZM471.341 55.5511L480.801 40.3636H484.278V60H481.261V44.8125L471.852 60H468.324V40.3636H471.341V55.5511ZM492.821 55.5511L502.282 40.3636H505.759V60H502.742V44.8125L493.333 60H489.804V40.3636H492.821V55.5511ZM580.012 60.4091C578.171 60.4091 576.586 59.9744 575.256 59.1051C573.927 58.2358 572.904 57.0384 572.188 55.5128C571.472 53.9872 571.114 52.2443 571.114 50.2841C571.114 48.2898 571.481 46.5298 572.214 45.0043C572.955 43.4702 573.987 42.2727 575.308 41.4119C576.637 40.5426 578.188 40.108 579.961 40.108C581.342 40.108 582.586 40.3636 583.694 40.875C584.802 41.3864 585.71 42.1023 586.417 43.0227C587.124 43.9432 587.563 45.017 587.734 46.2443H584.717C584.487 45.3494 583.975 44.5568 583.183 43.8665C582.398 43.1676 581.342 42.8182 580.012 42.8182C578.836 42.8182 577.805 43.125 576.918 43.7386C576.04 44.3437 575.354 45.2003 574.86 46.3082C574.374 47.4077 574.131 48.6989 574.131 50.1818C574.131 51.6989 574.37 53.0199 574.847 54.1449C575.333 55.2699 576.015 56.1435 576.893 56.7656C577.779 57.3878 578.819 57.6989 580.012 57.6989C580.796 57.6989 581.508 57.5625 582.147 57.2898C582.786 57.017 583.327 56.625 583.771 56.1136C584.214 55.6023 584.529 54.9886 584.717 54.2727H587.734C587.563 55.4318 587.141 56.4759 586.468 57.4048C585.803 58.3253 584.921 59.0582 583.822 59.6037C582.731 60.1406 581.461 60.4091 580.012 60.4091ZM592.144 60V40.3636H595.161V48.9034H597.156L604.212 40.3636H608.099L600.173 49.8239L608.201 60H604.315L597.871 51.7159H595.161V60H592.144ZM611.48 67.3636V40.3636H614.395V43.483H614.753C614.974 43.142 615.281 42.7074 615.673 42.179C616.074 41.642 616.645 41.1648 617.386 40.7472C618.136 40.321 619.151 40.108 620.429 40.108C622.082 40.108 623.54 40.5213 624.801 41.348C626.063 42.1747 627.047 43.3466 627.754 44.8636C628.462 46.3807 628.815 48.1705 628.815 50.233C628.815 52.3125 628.462 54.1151 627.754 55.6406C627.047 57.1577 626.067 58.3338 624.814 59.169C623.561 59.9957 622.116 60.4091 620.48 60.4091C619.219 60.4091 618.209 60.2003 617.45 59.7827C616.692 59.3565 616.108 58.875 615.699 58.3381C615.29 57.7926 614.974 57.3409 614.753 56.983H614.497V67.3636H611.48ZM614.446 50.1818C614.446 51.6648 614.663 52.973 615.098 54.1065C615.533 55.2315 616.168 56.1136 617.003 56.7528C617.838 57.3835 618.861 57.6989 620.071 57.6989C621.332 57.6989 622.385 57.3665 623.229 56.7017C624.081 56.0284 624.72 55.125 625.146 53.9915C625.581 52.8494 625.798 51.5795 625.798 50.1818C625.798 48.8011 625.585 47.5568 625.159 46.4489C624.741 45.3324 624.107 44.4503 623.254 43.8026C622.411 43.1463 621.349 42.8182 620.071 42.8182C618.844 42.8182 617.813 43.1293 616.977 43.7514C616.142 44.3651 615.511 45.2259 615.085 46.3338C614.659 47.4332 614.446 48.7159 614.446 50.1818ZM641.395 60.4091C639.622 60.4091 638.067 59.9872 636.729 59.1435C635.399 58.2997 634.359 57.1193 633.609 55.6023C632.868 54.0852 632.497 52.3125 632.497 50.2841C632.497 48.2386 632.868 46.4531 633.609 44.9276C634.359 43.402 635.399 42.2173 636.729 41.3736C638.067 40.5298 639.622 40.108 641.395 40.108C643.168 40.108 644.719 40.5298 646.048 41.3736C647.386 42.2173 648.426 43.402 649.168 44.9276C649.918 46.4531 650.293 48.2386 650.293 50.2841C650.293 52.3125 649.918 54.0852 649.168 55.6023C648.426 57.1193 647.386 58.2997 646.048 59.1435C644.719 59.9872 643.168 60.4091 641.395 60.4091ZM641.395 57.6989C642.741 57.6989 643.849 57.3537 644.719 56.6634C645.588 55.973 646.232 55.0653 646.649 53.9403C647.067 52.8153 647.276 51.5966 647.276 50.2841C647.276 48.9716 647.067 47.7486 646.649 46.6151C646.232 45.4815 645.588 44.5653 644.719 43.8665C643.849 43.1676 642.741 42.8182 641.395 42.8182C640.048 42.8182 638.94 43.1676 638.071 43.8665C637.202 44.5653 636.558 45.4815 636.141 46.6151C635.723 47.7486 635.514 48.9716 635.514 50.2841C635.514 51.5966 635.723 52.8153 636.141 53.9403C636.558 55.0653 637.202 55.973 638.071 56.6634C638.94 57.3537 640.048 57.6989 641.395 57.6989ZM653.159 60V57.1875H653.875C654.463 57.1875 654.953 57.0724 655.346 56.8423C655.738 56.6037 656.053 56.1903 656.292 55.6023C656.539 55.0057 656.726 54.179 656.854 53.1222C656.99 52.0568 657.088 50.7017 657.148 49.0568L657.506 40.3636H670.597V60H667.58V43.1761H660.37L660.063 50.1818C659.995 51.7926 659.85 53.2116 659.628 54.4389C659.415 55.6577 659.087 56.6804 658.644 57.5071C658.209 58.3338 657.63 58.956 656.905 59.3736C656.181 59.7912 655.273 60 654.182 60H653.159ZM678.74 47.4716H684.365C686.667 47.4716 688.426 48.0554 689.645 49.223C690.864 50.3906 691.473 51.8693 691.473 53.6591C691.473 54.8352 691.201 55.9048 690.655 56.8679C690.11 57.8224 689.309 58.5852 688.252 59.1562C687.195 59.7188 685.9 60 684.365 60H676.132V40.3636H679.15V57.1875H684.365C685.559 57.1875 686.539 56.8722 687.306 56.2415C688.073 55.6108 688.456 54.8011 688.456 53.8125C688.456 52.7727 688.073 51.9247 687.306 51.2685C686.539 50.6122 685.559 50.2841 684.365 50.2841H678.74V47.4716ZM706.191 60V40.3636H714.219C716.333 40.3636 718.012 40.8409 719.256 41.7955C720.501 42.75 721.123 44.0114 721.123 45.5795C721.123 46.7727 720.769 47.6974 720.062 48.3537C719.354 49.0014 718.447 49.4403 717.339 49.6705C718.063 49.7727 718.766 50.0284 719.448 50.4375C720.138 50.8466 720.71 51.4091 721.161 52.125C721.613 52.8324 721.839 53.7017 721.839 54.733C721.839 55.7386 721.583 56.6378 721.072 57.4304C720.56 58.223 719.827 58.8494 718.873 59.3097C717.918 59.7699 716.776 60 715.447 60H706.191ZM709.055 57.2386H715.447C716.487 57.2386 717.3 56.9915 717.888 56.4972C718.477 56.0028 718.771 55.3295 718.771 54.4773C718.771 53.4631 718.477 52.6662 717.888 52.0866C717.3 51.4986 716.487 51.2045 715.447 51.2045H709.055V57.2386ZM709.055 48.5966H714.219C715.029 48.5966 715.724 48.4858 716.303 48.2642C716.883 48.0341 717.326 47.7102 717.633 47.2926C717.948 46.8665 718.106 46.3636 718.106 45.7841C718.106 44.9574 717.761 44.3097 717.07 43.8409C716.38 43.3636 715.43 43.125 714.219 43.125H709.055V48.5966ZM739.548 48.8011V51.6136H728.707V48.8011H739.548ZM729.423 40.3636V60H726.406V40.3636H729.423ZM741.849 40.3636V60H738.832V40.3636H741.849ZM750.376 55.5511L759.836 40.3636H763.314V60H760.297V44.8125L750.887 60H747.359V40.3636H750.376V55.5511ZM767.612 54.9886H770.834C770.902 55.875 771.303 56.5483 772.036 57.0085C772.777 57.4688 773.74 57.6989 774.925 57.6989C776.135 57.6989 777.17 57.4517 778.031 56.9574C778.892 56.4545 779.322 55.6449 779.322 54.5284C779.322 53.8722 779.161 53.3011 778.837 52.8153C778.513 52.321 778.057 51.9375 777.469 51.6648C776.881 51.392 776.186 51.2557 775.385 51.2557H772.01V48.5455H775.385C776.587 48.5455 777.473 48.2727 778.044 47.7273C778.624 47.1818 778.913 46.5 778.913 45.6818C778.913 44.804 778.602 44.1009 777.98 43.5724C777.358 43.0355 776.476 42.767 775.334 42.767C774.183 42.767 773.224 43.027 772.457 43.5469C771.69 44.0582 771.286 44.7187 771.243 45.5284H768.072C768.107 44.4716 768.43 43.5384 769.044 42.7287C769.658 41.9105 770.493 41.2713 771.55 40.8111C772.607 40.3423 773.817 40.108 775.18 40.108C776.561 40.108 777.759 40.3509 778.773 40.8366C779.795 41.3139 780.584 41.9659 781.138 42.7926C781.7 43.6108 781.982 44.5398 781.982 45.5795C781.982 46.6875 781.67 47.5824 781.048 48.2642C780.426 48.946 779.646 49.4318 778.709 49.7216V49.9261C779.45 49.9773 780.094 50.2159 780.639 50.642C781.193 51.0597 781.624 51.6094 781.93 52.2912C782.237 52.9645 782.391 53.7102 782.391 54.5284C782.391 55.7216 782.071 56.7614 781.432 57.6477C780.793 58.5256 779.915 59.2074 778.798 59.6932C777.682 60.1705 776.408 60.4091 774.976 60.4091C773.587 60.4091 772.342 60.1832 771.243 59.7315C770.143 59.2713 769.27 58.6364 768.622 57.8267C767.983 57.0085 767.646 56.0625 767.612 54.9886Z" fill="black"/>
<path d="M539 41V37M539 65C532.373 65 527 59.6274 527 53V41C527 34.3726 532.373 29 539 29C545.627 29 551 34.3726 551 41V53C551 59.6274 545.627 65 539 65Z" stroke="black" stroke-width="3" stroke-linecap="round" stroke-linejoin="round"/>
</svg>
