<svg width="105" height="105" viewBox="0 0 105 105" fill="none" xmlns="http://www.w3.org/2000/svg">
<path d="M77 56.5937C77 66.0217 77 70.736 74.071 73.6647C71.1423 76.5937 66.428 76.5937 57 76.5937H47C37.5719 76.5937 32.8579 76.5937 29.9289 73.6647C27 70.736 27 66.0217 27 56.5937C27 47.1656 27 42.4516 29.9289 39.5227C32.8579 36.5937 37.5719 36.5938 47 36.5938H57C66.428 36.5938 71.1423 36.5937 74.071 39.5227C75.7303 41.1818 76.4495 43.4136 76.7613 46.7506" stroke="white" stroke-width="3" stroke-linecap="round"/>
<path d="M31.9692 38C32.2503 35.6724 32.8371 34.064 34.0622 32.8431C36.4136 30.5 40.1981 30.5 47.767 30.5H55.795C63.364 30.5 67.1485 30.5 69.4998 32.8431C70.725 34.064 71.3118 35.6724 71.5928 38" stroke="white" stroke-width="3"/>
<path d="M65.75 51.5938C67.8211 51.5938 69.5 49.9148 69.5 47.8438C69.5 45.7727 67.8211 44.0938 65.75 44.0938C63.6789 44.0938 62 45.7727 62 47.8438C62 49.9148 63.6789 51.5938 65.75 51.5938Z" stroke="white" stroke-width="3"/>
<path d="M27 57.844L31.379 54.0125C33.6571 52.0192 37.0907 52.1335 39.2312 54.274L49.9555 64.9982C51.6735 66.7164 54.378 66.9507 56.366 65.5535L57.1115 65.0297C59.972 63.0192 63.8422 63.2522 66.4412 65.5912L74.5 72.8439" stroke="white" stroke-width="3" stroke-linecap="round"/>
</svg>
