<svg width="448" height="28" viewBox="0 0 448 28" fill="none" xmlns="http://www.w3.org/2000/svg">
<path d="M32.3984 19.5176L29.0762 27.1406H27.3594L30.6875 19.9395H26.4043V18.6094H32.3984V19.5176ZM39.5879 23.8945C39.5879 24.4453 39.5234 24.9316 39.3945 25.3535C39.2695 25.7715 39.0879 26.123 38.8496 26.4082C38.6113 26.6895 38.3203 26.9023 37.9766 27.0469C37.6328 27.1914 37.2461 27.2637 36.8164 27.2637C36.3906 27.2637 36.0059 27.1914 35.6621 27.0469C35.3184 26.9023 35.0254 26.6895 34.7832 26.4082C34.5449 26.123 34.3594 25.7715 34.2266 25.3535C34.0977 24.9316 34.0332 24.4453 34.0332 23.8945V21.8555C34.0332 21.3047 34.0977 20.8203 34.2266 20.4023C34.3555 19.9805 34.5391 19.6289 34.7773 19.3477C35.0195 19.0625 35.3105 18.8477 35.6504 18.7031C35.9941 18.5586 36.3789 18.4863 36.8047 18.4863C37.2344 18.4863 37.6211 18.5586 37.9648 18.7031C38.3086 18.8477 38.5996 19.0625 38.8379 19.3477C39.0801 19.6289 39.2656 19.9805 39.3945 20.4023C39.5234 20.8203 39.5879 21.3047 39.5879 21.8555V23.8945ZM35.6738 23.1914L37.9473 21.498C37.9355 20.9238 37.8359 20.498 37.6484 20.2207C37.4609 19.9434 37.1797 19.8047 36.8047 19.8047C36.4258 19.8047 36.1426 19.9512 35.9551 20.2441C35.7676 20.5371 35.6738 20.9883 35.6738 21.5977V23.1914ZM37.9473 22.6055L35.6738 24.293C35.6934 24.8555 35.7969 25.2734 35.9844 25.5469C36.1719 25.8164 36.4492 25.9512 36.8164 25.9512C37.1992 25.9512 37.4824 25.8027 37.666 25.5059C37.8535 25.209 37.9473 24.7539 37.9473 24.1406V22.6055ZM40.6191 20.1328C40.6191 19.9062 40.6523 19.6934 40.7188 19.4941C40.7891 19.2949 40.8926 19.1211 41.0293 18.9727C41.1699 18.8242 41.3438 18.707 41.5508 18.6211C41.7617 18.5312 42.0059 18.4863 42.2832 18.4863C42.5684 18.4863 42.8145 18.5312 43.0215 18.6211C43.2324 18.707 43.4062 18.8242 43.543 18.9727C43.6797 19.1211 43.7812 19.2949 43.8477 19.4941C43.918 19.6934 43.9531 19.9062 43.9531 20.1328V20.584C43.9531 20.8066 43.918 21.0176 43.8477 21.2168C43.7812 21.4121 43.6797 21.5859 43.543 21.7383C43.4062 21.8867 43.2344 22.0039 43.0273 22.0898C42.8203 22.1758 42.5762 22.2188 42.2949 22.2188C42.0137 22.2188 41.7676 22.1758 41.5566 22.0898C41.3496 22.0039 41.1758 21.8867 41.0352 21.7383C40.8984 21.5859 40.7949 21.4121 40.7246 21.2168C40.6543 21.0176 40.6191 20.8066 40.6191 20.584V20.1328ZM41.7207 20.584C41.7207 20.6738 41.7305 20.7617 41.75 20.8477C41.7695 20.9297 41.8008 21.0039 41.8438 21.0703C41.8906 21.1328 41.9512 21.1836 42.0254 21.2227C42.0996 21.2578 42.1895 21.2754 42.2949 21.2754C42.4004 21.2754 42.4883 21.2578 42.5586 21.2227C42.6328 21.1836 42.6914 21.1328 42.7344 21.0703C42.7773 21.0039 42.8086 20.9297 42.8281 20.8477C42.8477 20.7617 42.8574 20.6738 42.8574 20.584V20.1328C42.8574 20.043 42.8477 19.957 42.8281 19.875C42.8086 19.7891 42.7754 19.7148 42.7285 19.6523C42.6855 19.5859 42.627 19.5352 42.5527 19.5C42.4824 19.4609 42.3926 19.4414 42.2832 19.4414C42.1777 19.4414 42.0898 19.4609 42.0195 19.5C41.9492 19.5352 41.8906 19.5859 41.8438 19.6523C41.8008 19.7148 41.7695 19.7891 41.75 19.875C41.7305 19.957 41.7207 20.043 41.7207 20.1328V20.584ZM44.0645 25.166C44.0645 24.9434 44.0996 24.7324 44.1699 24.5332C44.2402 24.334 44.3438 24.1602 44.4805 24.0117C44.6211 23.8594 44.7949 23.7402 45.002 23.6543C45.2129 23.5684 45.457 23.5254 45.7344 23.5254C46.0195 23.5254 46.2656 23.5684 46.4727 23.6543C46.6836 23.7402 46.8574 23.8594 46.9941 24.0117C47.1309 24.1602 47.2324 24.334 47.2988 24.5332C47.3691 24.7324 47.4043 24.9434 47.4043 25.166V25.623C47.4043 25.8457 47.3711 26.0566 47.3047 26.2559C47.2383 26.4551 47.1348 26.6289 46.9941 26.7773C46.8574 26.9258 46.6855 27.043 46.4785 27.1289C46.2715 27.2148 46.0273 27.2578 45.7461 27.2578C45.4648 27.2578 45.2188 27.2148 45.0078 27.1289C44.7969 27.043 44.6211 26.9258 44.4805 26.7773C44.3438 26.6289 44.2402 26.4551 44.1699 26.2559C44.0996 26.0566 44.0645 25.8457 44.0645 25.623V25.166ZM45.166 25.623C45.166 25.7129 45.1777 25.8008 45.2012 25.8867C45.2246 25.9688 45.2598 26.043 45.3066 26.1094C45.3574 26.1719 45.418 26.2227 45.4883 26.2617C45.5625 26.2969 45.6484 26.3145 45.7461 26.3145C45.8672 26.3145 45.9648 26.2969 46.0391 26.2617C46.1133 26.2227 46.1699 26.1719 46.209 26.1094C46.248 26.043 46.2734 25.9688 46.2852 25.8867C46.2969 25.8047 46.3027 25.7168 46.3027 25.623V25.166C46.3027 25.0762 46.293 24.9902 46.2734 24.9082C46.2539 24.8262 46.2207 24.7539 46.1738 24.6914C46.1309 24.625 46.0723 24.5742 45.998 24.5391C45.9277 24.5 45.8398 24.4805 45.7344 24.4805C45.6289 24.4805 45.5391 24.5 45.4648 24.5391C45.3906 24.5742 45.332 24.625 45.2891 24.6914C45.2461 24.7539 45.2148 24.8262 45.1953 24.9082C45.1758 24.9902 45.166 25.0762 45.166 25.166V25.623ZM42.8457 25.9805L42.0488 25.5996L45.3359 19.5762L46.1328 19.957L42.8457 25.9805Z" fill="#DFDFF2"/>
<path d="M28.5312 9.81055H32.5273V11.1406H26.8789V2.60938H28.5312V9.81055ZM34.3379 2.60938H39.2715V3.93945H37.6074V9.81641H39.2715V11.1406H34.3379V9.81641H35.9609V3.93945H34.3379V2.60938ZM47.1875 7.75977C47.1836 8.2832 47.0918 8.77734 46.9121 9.24219C46.7363 9.70312 46.4766 10.0977 46.1328 10.4258L47.5449 11.7031L46.4844 12.6465L44.8613 11.1465C44.7246 11.1816 44.584 11.209 44.4395 11.2285C44.2988 11.248 44.1523 11.2578 44 11.2578C43.5078 11.2578 43.0703 11.1641 42.6875 10.9766C42.3047 10.7852 41.9805 10.5293 41.7148 10.209C41.4531 9.88477 41.2539 9.51172 41.1172 9.08984C40.9805 8.66797 40.9121 8.22461 40.9121 7.75977V6.2832C40.9121 5.73242 40.9805 5.22656 41.1172 4.76562C41.2539 4.30078 41.4531 3.90039 41.7148 3.56445C41.9805 3.22852 42.3047 2.9668 42.6875 2.7793C43.0703 2.58789 43.5078 2.49219 44 2.49219C44.4961 2.49219 44.9414 2.58789 45.3359 2.7793C45.7305 2.9668 46.0645 3.22852 46.3379 3.56445C46.6113 3.90039 46.8203 4.30078 46.9648 4.76562C47.1133 5.22656 47.1875 5.73242 47.1875 6.2832V7.75977ZM45.5176 6.27148C45.5176 5.91992 45.4883 5.59766 45.4297 5.30469C45.375 5.00781 45.2871 4.75195 45.166 4.53711C45.0449 4.32227 44.8887 4.15625 44.6973 4.03906C44.5059 3.91797 44.2734 3.85742 44 3.85742C43.7305 3.85742 43.5039 3.91797 43.3203 4.03906C43.1406 4.16016 42.9961 4.32812 42.8867 4.54297C42.7773 4.75391 42.6992 5.00781 42.6523 5.30469C42.6055 5.59766 42.582 5.91992 42.582 6.27148V7.75977C42.582 8.02539 42.6055 8.28711 42.6523 8.54492C42.6992 8.79883 42.7773 9.02734 42.8867 9.23047C42.9961 9.42969 43.1406 9.5918 43.3203 9.7168C43.5039 9.8418 43.7305 9.9043 44 9.9043C44.2734 9.9043 44.5059 9.84375 44.6973 9.72266C44.8887 9.59766 45.0449 9.43359 45.166 9.23047C45.2871 9.02734 45.375 8.79883 45.4297 8.54492C45.4883 8.28711 45.5176 8.02539 45.5176 7.75977V6.27148ZM54.0723 2.60938L54.0781 8.26367C54.0781 8.74023 54.0117 9.16406 53.8789 9.53516C53.75 9.90625 53.5605 10.2207 53.3105 10.4785C53.0645 10.7324 52.7617 10.9258 52.4023 11.0586C52.0469 11.1914 51.6406 11.2578 51.1836 11.2578C50.7539 11.2578 50.3652 11.1914 50.0176 11.0586C49.6738 10.9258 49.3789 10.7324 49.1328 10.4785C48.8867 10.2246 48.6953 9.91211 48.5586 9.54102C48.4258 9.16602 48.3594 8.74023 48.3594 8.26367L48.3652 2.60938H50.0117L50.0176 8.26367C50.0215 8.81445 50.1211 9.23047 50.3164 9.51172C50.5156 9.79297 50.8047 9.93359 51.1836 9.93359C51.5859 9.93359 51.8926 9.79297 52.1035 9.51172C52.3184 9.23047 52.4277 8.81445 52.4316 8.26367L52.4375 2.60938H54.0723ZM55.959 2.60938H60.8926V3.93945H59.2285V9.81641H60.8926V11.1406H55.959V9.81641H57.582V3.93945H55.959V2.60938ZM62.7676 11.1406V2.60938H64.9766C65.543 2.60938 66.0547 2.70703 66.5117 2.90234C66.9727 3.09375 67.3652 3.36328 67.6895 3.71094C68.0176 4.05469 68.2695 4.4668 68.4453 4.94727C68.625 5.42773 68.7148 5.95508 68.7148 6.5293V7.23242C68.7148 7.80664 68.625 8.33398 68.4453 8.81445C68.2695 9.29102 68.0215 9.70312 67.7012 10.0508C67.3809 10.3945 66.9961 10.6621 66.5469 10.8535C66.0977 11.0449 65.6016 11.1406 65.0586 11.1406H62.7676ZM64.4258 3.94531V9.81641H65.0586C65.3672 9.81641 65.6426 9.75781 65.8848 9.64062C66.1309 9.52344 66.3379 9.35352 66.5059 9.13086C66.6777 8.9082 66.8086 8.63867 66.8984 8.32227C66.9883 8.00195 67.0332 7.63867 67.0332 7.23242V6.51758C67.0332 6.13477 66.9883 5.78711 66.8984 5.47461C66.8125 5.1582 66.6816 4.88672 66.5059 4.66016C66.334 4.43359 66.1191 4.25781 65.8613 4.13281C65.6074 4.00781 65.3125 3.94531 64.9766 3.94531H64.4258ZM83.4863 3.95117H80.8555V11.1406H79.2031V3.95117H76.6074V2.60938H83.4863V3.95117ZM90.377 7.50195C90.377 8.04883 90.3047 8.55273 90.1602 9.01367C90.0156 9.47461 89.8066 9.87109 89.5332 10.2031C89.2598 10.5352 88.9258 10.7949 88.5312 10.9824C88.1406 11.166 87.6992 11.2578 87.207 11.2578C86.7148 11.2578 86.2773 11.166 85.8945 10.9824C85.5117 10.7949 85.1895 10.5352 84.9277 10.2031C84.666 9.86719 84.4668 9.4707 84.3301 9.01367C84.1934 8.55273 84.125 8.04883 84.125 7.50195V6.25977C84.125 5.71289 84.1934 5.20898 84.3301 4.74805C84.4668 4.28711 84.666 3.89063 84.9277 3.55859C85.1895 3.22266 85.5098 2.96094 85.8887 2.77344C86.2715 2.58594 86.709 2.49219 87.2012 2.49219C87.6973 2.49219 88.1406 2.58594 88.5312 2.77344C88.9258 2.96094 89.2598 3.22266 89.5332 3.55859C89.8066 3.89063 90.0156 4.28711 90.1602 4.74805C90.3047 5.20898 90.377 5.71289 90.377 6.25977V7.50195ZM88.707 6.24805C88.707 5.90039 88.6777 5.58008 88.6191 5.28711C88.5645 4.99414 88.4766 4.74219 88.3555 4.53125C88.2344 4.32031 88.0781 4.15625 87.8867 4.03906C87.6992 3.91797 87.4707 3.85742 87.2012 3.85742C86.9355 3.85742 86.7129 3.91797 86.5332 4.03906C86.3535 4.15625 86.209 4.32031 86.0996 4.53125C85.9902 4.74219 85.9121 4.99414 85.8652 5.28711C85.8184 5.58008 85.7949 5.90039 85.7949 6.24805V7.50195C85.7949 7.8457 85.8184 8.16406 85.8652 8.45703C85.9121 8.75 85.9902 9.00391 86.0996 9.21875C86.209 9.43359 86.3535 9.60156 86.5332 9.72266C86.7129 9.84375 86.9375 9.9043 87.207 9.9043C87.4727 9.9043 87.6992 9.84375 87.8867 9.72266C88.0781 9.60156 88.2324 9.43555 88.3496 9.22461C88.4707 9.00977 88.5605 8.75586 88.6191 8.46289C88.6777 8.16992 88.707 7.84961 88.707 7.50195V6.24805ZM94.1738 7.63672L93.2715 8.62695V11.1406H91.6191V2.60938H93.2715V6.51758L94.0449 5.47461L96.1191 2.60938H98.1348L95.2637 6.38281L98.2402 11.1406H96.2832L94.1738 7.63672ZM104.088 7.40234H100.584V9.81055H104.68V11.1406H98.9316V2.60938H104.662V3.95117H100.584V6.10156H104.088V7.40234ZM111.67 11.1406H110.029L107.656 5.63867V11.1406H105.998V2.60938H107.656L110.012 8.08789L110.018 2.60938H111.67V11.1406Z" fill="#DFDFF2"/>
<rect y="0.140625" width="15" height="15" rx="7.5" fill="black"/>
<path d="M202.131 2.60938H207.064V3.93945H205.4V9.81641H207.064V11.1406H202.131V9.81641H203.754V3.93945H202.131V2.60938ZM214.6 11.1406H212.959L210.586 5.63867V11.1406H208.928V2.60938H210.586L212.941 8.08789L212.947 2.60938H214.6V11.1406ZM219.006 8.75586L220.617 2.60938H222.434L219.85 11.1406H218.174L215.596 2.60938H217.412L219.006 8.75586ZM228.639 7.40234H225.135V9.81055H229.23V11.1406H223.482V2.60938H229.213V3.95117H225.135V6.10156H228.639V7.40234ZM235.025 8.91406C235.025 8.76172 234.998 8.61914 234.943 8.48633C234.893 8.35352 234.803 8.23047 234.674 8.11719C234.549 8 234.383 7.89453 234.176 7.80078C233.973 7.70312 233.719 7.61328 233.414 7.53125C233.043 7.42969 232.688 7.30273 232.348 7.15039C232.012 6.99805 231.715 6.81445 231.457 6.59961C231.199 6.38477 230.992 6.13477 230.836 5.84961C230.684 5.56445 230.607 5.23633 230.607 4.86523C230.607 4.50586 230.684 4.17969 230.836 3.88672C230.988 3.59375 231.199 3.34375 231.469 3.13672C231.738 2.92969 232.057 2.77148 232.424 2.66211C232.791 2.54883 233.189 2.49219 233.619 2.49219C234.064 2.49219 234.471 2.55664 234.838 2.68555C235.209 2.81445 235.527 2.99609 235.793 3.23047C236.059 3.46094 236.266 3.73633 236.414 4.05664C236.562 4.37695 236.637 4.72852 236.637 5.11133H235.031C235.023 4.91992 234.988 4.74414 234.926 4.58398C234.867 4.42383 234.777 4.28711 234.656 4.17383C234.539 4.05664 234.391 3.9668 234.211 3.9043C234.035 3.83789 233.828 3.80469 233.59 3.80469C233.371 3.80469 233.176 3.83203 233.004 3.88672C232.836 3.9375 232.693 4.01172 232.576 4.10938C232.459 4.20312 232.369 4.31641 232.307 4.44922C232.248 4.57812 232.219 4.71875 232.219 4.87109C232.219 5.03125 232.258 5.17578 232.336 5.30469C232.418 5.43359 232.535 5.55078 232.688 5.65625C232.84 5.75781 233.023 5.85156 233.238 5.9375C233.457 6.02344 233.703 6.10352 233.977 6.17773C234.367 6.29102 234.727 6.42969 235.055 6.59375C235.383 6.75781 235.664 6.95312 235.898 7.17969C236.137 7.40234 236.32 7.6582 236.449 7.94727C236.582 8.23242 236.648 8.55078 236.648 8.90234C236.648 9.27734 236.572 9.61133 236.42 9.9043C236.271 10.1934 236.064 10.4395 235.799 10.6426C235.533 10.8418 235.217 10.9941 234.85 11.0996C234.482 11.2012 234.082 11.252 233.648 11.252C233.379 11.252 233.109 11.2266 232.84 11.1758C232.574 11.1289 232.318 11.0547 232.072 10.9531C231.83 10.8516 231.604 10.7246 231.393 10.5723C231.182 10.4199 230.998 10.2422 230.842 10.0391C230.689 9.83594 230.568 9.60547 230.479 9.34766C230.393 9.08984 230.35 8.80469 230.35 8.49219H231.967C231.975 8.75 232.02 8.9707 232.102 9.1543C232.184 9.33789 232.297 9.48828 232.441 9.60547C232.59 9.72266 232.766 9.80859 232.969 9.86328C233.176 9.91797 233.402 9.94531 233.648 9.94531C233.867 9.94531 234.061 9.91992 234.229 9.86914C234.4 9.81836 234.545 9.74805 234.662 9.6582C234.779 9.56836 234.869 9.46094 234.932 9.33594C234.994 9.20703 235.025 9.06641 235.025 8.91406ZM244.072 3.95117H241.441V11.1406H239.789V3.95117H237.193V2.60938H244.072V3.95117ZM247.031 2.60938L247.84 5.81445L248.76 2.60938H250.805V11.1406H249.293V8.61523L249.363 4.625L248.244 8.32812H247.43L246.428 4.7832L246.498 8.61523V11.1406H244.986V2.60938H247.031ZM257.467 7.40234H253.963V9.81055H258.059V11.1406H252.311V2.60938H258.041V3.95117H253.963V6.10156H257.467V7.40234ZM265.049 11.1406H263.408L261.035 5.63867V11.1406H259.377V2.60938H261.035L263.391 8.08789L263.396 2.60938H265.049V11.1406ZM272.9 3.95117H270.27V11.1406H268.617V3.95117H266.021V2.60938H272.9V3.95117ZM278.268 8.91406C278.268 8.76172 278.24 8.61914 278.186 8.48633C278.135 8.35352 278.045 8.23047 277.916 8.11719C277.791 8 277.625 7.89453 277.418 7.80078C277.215 7.70312 276.961 7.61328 276.656 7.53125C276.285 7.42969 275.93 7.30273 275.59 7.15039C275.254 6.99805 274.957 6.81445 274.699 6.59961C274.441 6.38477 274.234 6.13477 274.078 5.84961C273.926 5.56445 273.85 5.23633 273.85 4.86523C273.85 4.50586 273.926 4.17969 274.078 3.88672C274.23 3.59375 274.441 3.34375 274.711 3.13672C274.98 2.92969 275.299 2.77148 275.666 2.66211C276.033 2.54883 276.432 2.49219 276.861 2.49219C277.307 2.49219 277.713 2.55664 278.08 2.68555C278.451 2.81445 278.77 2.99609 279.035 3.23047C279.301 3.46094 279.508 3.73633 279.656 4.05664C279.805 4.37695 279.879 4.72852 279.879 5.11133H278.273C278.266 4.91992 278.23 4.74414 278.168 4.58398C278.109 4.42383 278.02 4.28711 277.898 4.17383C277.781 4.05664 277.633 3.9668 277.453 3.9043C277.277 3.83789 277.07 3.80469 276.832 3.80469C276.613 3.80469 276.418 3.83203 276.246 3.88672C276.078 3.9375 275.936 4.01172 275.818 4.10938C275.701 4.20312 275.611 4.31641 275.549 4.44922C275.49 4.57812 275.461 4.71875 275.461 4.87109C275.461 5.03125 275.5 5.17578 275.578 5.30469C275.66 5.43359 275.777 5.55078 275.93 5.65625C276.082 5.75781 276.266 5.85156 276.48 5.9375C276.699 6.02344 276.945 6.10352 277.219 6.17773C277.609 6.29102 277.969 6.42969 278.297 6.59375C278.625 6.75781 278.906 6.95312 279.141 7.17969C279.379 7.40234 279.562 7.6582 279.691 7.94727C279.824 8.23242 279.891 8.55078 279.891 8.90234C279.891 9.27734 279.814 9.61133 279.662 9.9043C279.514 10.1934 279.307 10.4395 279.041 10.6426C278.775 10.8418 278.459 10.9941 278.092 11.0996C277.725 11.2012 277.324 11.252 276.891 11.252C276.621 11.252 276.352 11.2266 276.082 11.1758C275.816 11.1289 275.561 11.0547 275.314 10.9531C275.072 10.8516 274.846 10.7246 274.635 10.5723C274.424 10.4199 274.24 10.2422 274.084 10.0391C273.932 9.83594 273.811 9.60547 273.721 9.34766C273.635 9.08984 273.592 8.80469 273.592 8.49219H275.209C275.217 8.75 275.262 8.9707 275.344 9.1543C275.426 9.33789 275.539 9.48828 275.684 9.60547C275.832 9.72266 276.008 9.80859 276.211 9.86328C276.418 9.91797 276.645 9.94531 276.891 9.94531C277.109 9.94531 277.303 9.91992 277.471 9.86914C277.643 9.81836 277.787 9.74805 277.904 9.6582C278.021 9.56836 278.111 9.46094 278.174 9.33594C278.236 9.20703 278.268 9.06641 278.268 8.91406Z" fill="#DFDFF2"/>
<path d="M207.404 27.1406H201.586V26.0273L204.346 23.0625C204.561 22.8281 204.742 22.6152 204.891 22.4238C205.039 22.2324 205.158 22.0586 205.248 21.9023C205.342 21.7422 205.408 21.5938 205.447 21.457C205.49 21.3203 205.512 21.1875 205.512 21.0586C205.512 20.8672 205.484 20.6973 205.43 20.5488C205.375 20.4004 205.297 20.2754 205.195 20.1738C205.098 20.0684 204.979 19.9883 204.838 19.9336C204.701 19.8789 204.549 19.8516 204.381 19.8516C203.932 19.8516 203.596 19.9766 203.373 20.2266C203.154 20.4766 203.045 20.8262 203.045 21.2754H201.41C201.41 20.8965 201.482 20.5391 201.627 20.2031C201.771 19.8633 201.975 19.5664 202.236 19.3125C202.502 19.0586 202.82 18.8594 203.191 18.7148C203.566 18.5664 203.98 18.4922 204.434 18.4922C204.867 18.4922 205.25 18.5527 205.582 18.6738C205.918 18.7949 206.197 18.9648 206.42 19.1836C206.646 19.4023 206.818 19.666 206.936 19.9746C207.053 20.2793 207.111 20.6172 207.111 20.9883C207.111 21.2695 207.066 21.5391 206.977 21.7969C206.891 22.0508 206.766 22.3027 206.602 22.5527C206.441 22.8027 206.248 23.0586 206.021 23.3203C205.795 23.5781 205.543 23.8496 205.266 24.1348L203.66 25.834H207.404V27.1406ZM214.588 23.8945C214.588 24.4453 214.523 24.9316 214.395 25.3535C214.27 25.7715 214.088 26.123 213.85 26.4082C213.611 26.6895 213.32 26.9023 212.977 27.0469C212.633 27.1914 212.246 27.2637 211.816 27.2637C211.391 27.2637 211.006 27.1914 210.662 27.0469C210.318 26.9023 210.025 26.6895 209.783 26.4082C209.545 26.123 209.359 25.7715 209.227 25.3535C209.098 24.9316 209.033 24.4453 209.033 23.8945V21.8555C209.033 21.3047 209.098 20.8203 209.227 20.4023C209.355 19.9805 209.539 19.6289 209.777 19.3477C210.02 19.0625 210.311 18.8477 210.65 18.7031C210.994 18.5586 211.379 18.4863 211.805 18.4863C212.234 18.4863 212.621 18.5586 212.965 18.7031C213.309 18.8477 213.6 19.0625 213.838 19.3477C214.08 19.6289 214.266 19.9805 214.395 20.4023C214.523 20.8203 214.588 21.3047 214.588 21.8555V23.8945ZM210.674 23.1914L212.947 21.498C212.936 20.9238 212.836 20.498 212.648 20.2207C212.461 19.9434 212.18 19.8047 211.805 19.8047C211.426 19.8047 211.143 19.9512 210.955 20.2441C210.768 20.5371 210.674 20.9883 210.674 21.5977V23.1914ZM212.947 22.6055L210.674 24.293C210.693 24.8555 210.797 25.2734 210.984 25.5469C211.172 25.8164 211.449 25.9512 211.816 25.9512C212.199 25.9512 212.482 25.8027 212.666 25.5059C212.854 25.209 212.947 24.7539 212.947 24.1406V22.6055ZM215.619 20.1328C215.619 19.9062 215.652 19.6934 215.719 19.4941C215.789 19.2949 215.893 19.1211 216.029 18.9727C216.17 18.8242 216.344 18.707 216.551 18.6211C216.762 18.5312 217.006 18.4863 217.283 18.4863C217.568 18.4863 217.814 18.5312 218.021 18.6211C218.232 18.707 218.406 18.8242 218.543 18.9727C218.68 19.1211 218.781 19.2949 218.848 19.4941C218.918 19.6934 218.953 19.9062 218.953 20.1328V20.584C218.953 20.8066 218.918 21.0176 218.848 21.2168C218.781 21.4121 218.68 21.5859 218.543 21.7383C218.406 21.8867 218.234 22.0039 218.027 22.0898C217.82 22.1758 217.576 22.2188 217.295 22.2188C217.014 22.2188 216.768 22.1758 216.557 22.0898C216.35 22.0039 216.176 21.8867 216.035 21.7383C215.898 21.5859 215.795 21.4121 215.725 21.2168C215.654 21.0176 215.619 20.8066 215.619 20.584V20.1328ZM216.721 20.584C216.721 20.6738 216.73 20.7617 216.75 20.8477C216.77 20.9297 216.801 21.0039 216.844 21.0703C216.891 21.1328 216.951 21.1836 217.025 21.2227C217.1 21.2578 217.189 21.2754 217.295 21.2754C217.4 21.2754 217.488 21.2578 217.559 21.2227C217.633 21.1836 217.691 21.1328 217.734 21.0703C217.777 21.0039 217.809 20.9297 217.828 20.8477C217.848 20.7617 217.857 20.6738 217.857 20.584V20.1328C217.857 20.043 217.848 19.957 217.828 19.875C217.809 19.7891 217.775 19.7148 217.729 19.6523C217.686 19.5859 217.627 19.5352 217.553 19.5C217.482 19.4609 217.393 19.4414 217.283 19.4414C217.178 19.4414 217.09 19.4609 217.02 19.5C216.949 19.5352 216.891 19.5859 216.844 19.6523C216.801 19.7148 216.77 19.7891 216.75 19.875C216.73 19.957 216.721 20.043 216.721 20.1328V20.584ZM219.064 25.166C219.064 24.9434 219.1 24.7324 219.17 24.5332C219.24 24.334 219.344 24.1602 219.48 24.0117C219.621 23.8594 219.795 23.7402 220.002 23.6543C220.213 23.5684 220.457 23.5254 220.734 23.5254C221.02 23.5254 221.266 23.5684 221.473 23.6543C221.684 23.7402 221.857 23.8594 221.994 24.0117C222.131 24.1602 222.232 24.334 222.299 24.5332C222.369 24.7324 222.404 24.9434 222.404 25.166V25.623C222.404 25.8457 222.371 26.0566 222.305 26.2559C222.238 26.4551 222.135 26.6289 221.994 26.7773C221.857 26.9258 221.686 27.043 221.479 27.1289C221.271 27.2148 221.027 27.2578 220.746 27.2578C220.465 27.2578 220.219 27.2148 220.008 27.1289C219.797 27.043 219.621 26.9258 219.48 26.7773C219.344 26.6289 219.24 26.4551 219.17 26.2559C219.1 26.0566 219.064 25.8457 219.064 25.623V25.166ZM220.166 25.623C220.166 25.7129 220.178 25.8008 220.201 25.8867C220.225 25.9688 220.26 26.043 220.307 26.1094C220.357 26.1719 220.418 26.2227 220.488 26.2617C220.562 26.2969 220.648 26.3145 220.746 26.3145C220.867 26.3145 220.965 26.2969 221.039 26.2617C221.113 26.2227 221.17 26.1719 221.209 26.1094C221.248 26.043 221.273 25.9688 221.285 25.8867C221.297 25.8047 221.303 25.7168 221.303 25.623V25.166C221.303 25.0762 221.293 24.9902 221.273 24.9082C221.254 24.8262 221.221 24.7539 221.174 24.6914C221.131 24.625 221.072 24.5742 220.998 24.5391C220.928 24.5 220.84 24.4805 220.734 24.4805C220.629 24.4805 220.539 24.5 220.465 24.5391C220.391 24.5742 220.332 24.625 220.289 24.6914C220.246 24.7539 220.215 24.8262 220.195 24.9082C220.176 24.9902 220.166 25.0762 220.166 25.166V25.623ZM217.846 25.9805L217.049 25.5996L220.336 19.5762L221.133 19.957L217.846 25.9805Z" fill="#DFDFF2"/>
<rect x="176" y="0.140625" width="15" height="15" rx="7.5" fill="#EDFF66"/>
<path d="M381.393 11.1406H379.752L377.379 5.63867V11.1406H375.721V2.60938H377.379L379.734 8.08789L379.74 2.60938H381.393V11.1406ZM388.389 7.60742H384.732V11.1406H383.08V2.60938H388.846V3.95117H384.732V6.27148H388.389V7.60742ZM396.451 3.95117H393.82V11.1406H392.168V3.95117H389.572V2.60938H396.451V3.95117ZM408.791 9.35938H406.23L405.727 11.1406H403.992L406.787 2.60938H408.281L411.023 11.1406H409.289L408.791 9.35938ZM406.635 7.95898H408.404L407.531 4.81836L406.635 7.95898ZM416.232 8.91406C416.232 8.76172 416.205 8.61914 416.15 8.48633C416.1 8.35352 416.01 8.23047 415.881 8.11719C415.756 8 415.59 7.89453 415.383 7.80078C415.18 7.70312 414.926 7.61328 414.621 7.53125C414.25 7.42969 413.895 7.30273 413.555 7.15039C413.219 6.99805 412.922 6.81445 412.664 6.59961C412.406 6.38477 412.199 6.13477 412.043 5.84961C411.891 5.56445 411.814 5.23633 411.814 4.86523C411.814 4.50586 411.891 4.17969 412.043 3.88672C412.195 3.59375 412.406 3.34375 412.676 3.13672C412.945 2.92969 413.264 2.77148 413.631 2.66211C413.998 2.54883 414.396 2.49219 414.826 2.49219C415.271 2.49219 415.678 2.55664 416.045 2.68555C416.416 2.81445 416.734 2.99609 417 3.23047C417.266 3.46094 417.473 3.73633 417.621 4.05664C417.77 4.37695 417.844 4.72852 417.844 5.11133H416.238C416.23 4.91992 416.195 4.74414 416.133 4.58398C416.074 4.42383 415.984 4.28711 415.863 4.17383C415.746 4.05664 415.598 3.9668 415.418 3.9043C415.242 3.83789 415.035 3.80469 414.797 3.80469C414.578 3.80469 414.383 3.83203 414.211 3.88672C414.043 3.9375 413.9 4.01172 413.783 4.10938C413.666 4.20312 413.576 4.31641 413.514 4.44922C413.455 4.57812 413.426 4.71875 413.426 4.87109C413.426 5.03125 413.465 5.17578 413.543 5.30469C413.625 5.43359 413.742 5.55078 413.895 5.65625C414.047 5.75781 414.23 5.85156 414.445 5.9375C414.664 6.02344 414.91 6.10352 415.184 6.17773C415.574 6.29102 415.934 6.42969 416.262 6.59375C416.59 6.75781 416.871 6.95312 417.105 7.17969C417.344 7.40234 417.527 7.6582 417.656 7.94727C417.789 8.23242 417.855 8.55078 417.855 8.90234C417.855 9.27734 417.779 9.61133 417.627 9.9043C417.479 10.1934 417.271 10.4395 417.006 10.6426C416.74 10.8418 416.424 10.9941 416.057 11.0996C415.689 11.2012 415.289 11.252 414.855 11.252C414.586 11.252 414.316 11.2266 414.047 11.1758C413.781 11.1289 413.525 11.0547 413.279 10.9531C413.037 10.8516 412.811 10.7246 412.6 10.5723C412.389 10.4199 412.205 10.2422 412.049 10.0391C411.896 9.83594 411.775 9.60547 411.686 9.34766C411.6 9.08984 411.557 8.80469 411.557 8.49219H413.174C413.182 8.75 413.227 8.9707 413.309 9.1543C413.391 9.33789 413.504 9.48828 413.648 9.60547C413.797 9.72266 413.973 9.80859 414.176 9.86328C414.383 9.91797 414.609 9.94531 414.855 9.94531C415.074 9.94531 415.268 9.91992 415.436 9.86914C415.607 9.81836 415.752 9.74805 415.869 9.6582C415.986 9.56836 416.076 9.46094 416.139 9.33594C416.201 9.20703 416.232 9.06641 416.232 8.91406ZM423.439 8.91406C423.439 8.76172 423.412 8.61914 423.357 8.48633C423.307 8.35352 423.217 8.23047 423.088 8.11719C422.963 8 422.797 7.89453 422.59 7.80078C422.387 7.70312 422.133 7.61328 421.828 7.53125C421.457 7.42969 421.102 7.30273 420.762 7.15039C420.426 6.99805 420.129 6.81445 419.871 6.59961C419.613 6.38477 419.406 6.13477 419.25 5.84961C419.098 5.56445 419.021 5.23633 419.021 4.86523C419.021 4.50586 419.098 4.17969 419.25 3.88672C419.402 3.59375 419.613 3.34375 419.883 3.13672C420.152 2.92969 420.471 2.77148 420.838 2.66211C421.205 2.54883 421.604 2.49219 422.033 2.49219C422.479 2.49219 422.885 2.55664 423.252 2.68555C423.623 2.81445 423.941 2.99609 424.207 3.23047C424.473 3.46094 424.68 3.73633 424.828 4.05664C424.977 4.37695 425.051 4.72852 425.051 5.11133H423.445C423.438 4.91992 423.402 4.74414 423.34 4.58398C423.281 4.42383 423.191 4.28711 423.07 4.17383C422.953 4.05664 422.805 3.9668 422.625 3.9043C422.449 3.83789 422.242 3.80469 422.004 3.80469C421.785 3.80469 421.59 3.83203 421.418 3.88672C421.25 3.9375 421.107 4.01172 420.99 4.10938C420.873 4.20312 420.783 4.31641 420.721 4.44922C420.662 4.57812 420.633 4.71875 420.633 4.87109C420.633 5.03125 420.672 5.17578 420.75 5.30469C420.832 5.43359 420.949 5.55078 421.102 5.65625C421.254 5.75781 421.438 5.85156 421.652 5.9375C421.871 6.02344 422.117 6.10352 422.391 6.17773C422.781 6.29102 423.141 6.42969 423.469 6.59375C423.797 6.75781 424.078 6.95312 424.312 7.17969C424.551 7.40234 424.734 7.6582 424.863 7.94727C424.996 8.23242 425.062 8.55078 425.062 8.90234C425.062 9.27734 424.986 9.61133 424.834 9.9043C424.686 10.1934 424.479 10.4395 424.213 10.6426C423.947 10.8418 423.631 10.9941 423.264 11.0996C422.896 11.2012 422.496 11.252 422.062 11.252C421.793 11.252 421.523 11.2266 421.254 11.1758C420.988 11.1289 420.732 11.0547 420.486 10.9531C420.244 10.8516 420.018 10.7246 419.807 10.5723C419.596 10.4199 419.412 10.2422 419.256 10.0391C419.104 9.83594 418.982 9.60547 418.893 9.34766C418.807 9.08984 418.764 8.80469 418.764 8.49219H420.381C420.389 8.75 420.434 8.9707 420.516 9.1543C420.598 9.33789 420.711 9.48828 420.855 9.60547C421.004 9.72266 421.18 9.80859 421.383 9.86328C421.59 9.91797 421.816 9.94531 422.062 9.94531C422.281 9.94531 422.475 9.91992 422.643 9.86914C422.814 9.81836 422.959 9.74805 423.076 9.6582C423.193 9.56836 423.283 9.46094 423.346 9.33594C423.408 9.20703 423.439 9.06641 423.439 8.91406ZM431.467 7.40234H427.963V9.81055H432.059V11.1406H426.311V2.60938H432.041V3.95117H427.963V6.10156H431.467V7.40234ZM439.693 3.95117H437.062V11.1406H435.41V3.95117H432.814V2.60938H439.693V3.95117ZM445.061 8.91406C445.061 8.76172 445.033 8.61914 444.979 8.48633C444.928 8.35352 444.838 8.23047 444.709 8.11719C444.584 8 444.418 7.89453 444.211 7.80078C444.008 7.70312 443.754 7.61328 443.449 7.53125C443.078 7.42969 442.723 7.30273 442.383 7.15039C442.047 6.99805 441.75 6.81445 441.492 6.59961C441.234 6.38477 441.027 6.13477 440.871 5.84961C440.719 5.56445 440.643 5.23633 440.643 4.86523C440.643 4.50586 440.719 4.17969 440.871 3.88672C441.023 3.59375 441.234 3.34375 441.504 3.13672C441.773 2.92969 442.092 2.77148 442.459 2.66211C442.826 2.54883 443.225 2.49219 443.654 2.49219C444.1 2.49219 444.506 2.55664 444.873 2.68555C445.244 2.81445 445.562 2.99609 445.828 3.23047C446.094 3.46094 446.301 3.73633 446.449 4.05664C446.598 4.37695 446.672 4.72852 446.672 5.11133H445.066C445.059 4.91992 445.023 4.74414 444.961 4.58398C444.902 4.42383 444.812 4.28711 444.691 4.17383C444.574 4.05664 444.426 3.9668 444.246 3.9043C444.07 3.83789 443.863 3.80469 443.625 3.80469C443.406 3.80469 443.211 3.83203 443.039 3.88672C442.871 3.9375 442.729 4.01172 442.611 4.10938C442.494 4.20312 442.404 4.31641 442.342 4.44922C442.283 4.57812 442.254 4.71875 442.254 4.87109C442.254 5.03125 442.293 5.17578 442.371 5.30469C442.453 5.43359 442.57 5.55078 442.723 5.65625C442.875 5.75781 443.059 5.85156 443.273 5.9375C443.492 6.02344 443.738 6.10352 444.012 6.17773C444.402 6.29102 444.762 6.42969 445.09 6.59375C445.418 6.75781 445.699 6.95312 445.934 7.17969C446.172 7.40234 446.355 7.6582 446.484 7.94727C446.617 8.23242 446.684 8.55078 446.684 8.90234C446.684 9.27734 446.607 9.61133 446.455 9.9043C446.307 10.1934 446.1 10.4395 445.834 10.6426C445.568 10.8418 445.252 10.9941 444.885 11.0996C444.518 11.2012 444.117 11.252 443.684 11.252C443.414 11.252 443.145 11.2266 442.875 11.1758C442.609 11.1289 442.354 11.0547 442.107 10.9531C441.865 10.8516 441.639 10.7246 441.428 10.5723C441.217 10.4199 441.033 10.2422 440.877 10.0391C440.725 9.83594 440.604 9.60547 440.514 9.34766C440.428 9.08984 440.385 8.80469 440.385 8.49219H442.002C442.01 8.75 442.055 8.9707 442.137 9.1543C442.219 9.33789 442.332 9.48828 442.477 9.60547C442.625 9.72266 442.801 9.80859 443.004 9.86328C443.211 9.91797 443.438 9.94531 443.684 9.94531C443.902 9.94531 444.096 9.91992 444.264 9.86914C444.436 9.81836 444.58 9.74805 444.697 9.6582C444.814 9.56836 444.904 9.46094 444.967 9.33594C445.029 9.20703 445.061 9.06641 445.061 8.91406Z" fill="#DFDFF2"/>
<path d="M379.816 27.1406H378.17V20.5957L376.014 21.3691V19.9512L379.729 18.6094H379.816V27.1406ZM388.588 23.8945C388.588 24.4453 388.523 24.9316 388.395 25.3535C388.27 25.7715 388.088 26.123 387.85 26.4082C387.611 26.6895 387.32 26.9023 386.977 27.0469C386.633 27.1914 386.246 27.2637 385.816 27.2637C385.391 27.2637 385.006 27.1914 384.662 27.0469C384.318 26.9023 384.025 26.6895 383.783 26.4082C383.545 26.123 383.359 25.7715 383.227 25.3535C383.098 24.9316 383.033 24.4453 383.033 23.8945V21.8555C383.033 21.3047 383.098 20.8203 383.227 20.4023C383.355 19.9805 383.539 19.6289 383.777 19.3477C384.02 19.0625 384.311 18.8477 384.65 18.7031C384.994 18.5586 385.379 18.4863 385.805 18.4863C386.234 18.4863 386.621 18.5586 386.965 18.7031C387.309 18.8477 387.6 19.0625 387.838 19.3477C388.08 19.6289 388.266 19.9805 388.395 20.4023C388.523 20.8203 388.588 21.3047 388.588 21.8555V23.8945ZM384.674 23.1914L386.947 21.498C386.936 20.9238 386.836 20.498 386.648 20.2207C386.461 19.9434 386.18 19.8047 385.805 19.8047C385.426 19.8047 385.143 19.9512 384.955 20.2441C384.768 20.5371 384.674 20.9883 384.674 21.5977V23.1914ZM386.947 22.6055L384.674 24.293C384.693 24.8555 384.797 25.2734 384.984 25.5469C385.172 25.8164 385.449 25.9512 385.816 25.9512C386.199 25.9512 386.482 25.8027 386.666 25.5059C386.854 25.209 386.947 24.7539 386.947 24.1406V22.6055ZM389.619 20.1328C389.619 19.9062 389.652 19.6934 389.719 19.4941C389.789 19.2949 389.893 19.1211 390.029 18.9727C390.17 18.8242 390.344 18.707 390.551 18.6211C390.762 18.5312 391.006 18.4863 391.283 18.4863C391.568 18.4863 391.814 18.5312 392.021 18.6211C392.232 18.707 392.406 18.8242 392.543 18.9727C392.68 19.1211 392.781 19.2949 392.848 19.4941C392.918 19.6934 392.953 19.9062 392.953 20.1328V20.584C392.953 20.8066 392.918 21.0176 392.848 21.2168C392.781 21.4121 392.68 21.5859 392.543 21.7383C392.406 21.8867 392.234 22.0039 392.027 22.0898C391.82 22.1758 391.576 22.2188 391.295 22.2188C391.014 22.2188 390.768 22.1758 390.557 22.0898C390.35 22.0039 390.176 21.8867 390.035 21.7383C389.898 21.5859 389.795 21.4121 389.725 21.2168C389.654 21.0176 389.619 20.8066 389.619 20.584V20.1328ZM390.721 20.584C390.721 20.6738 390.73 20.7617 390.75 20.8477C390.77 20.9297 390.801 21.0039 390.844 21.0703C390.891 21.1328 390.951 21.1836 391.025 21.2227C391.1 21.2578 391.189 21.2754 391.295 21.2754C391.4 21.2754 391.488 21.2578 391.559 21.2227C391.633 21.1836 391.691 21.1328 391.734 21.0703C391.777 21.0039 391.809 20.9297 391.828 20.8477C391.848 20.7617 391.857 20.6738 391.857 20.584V20.1328C391.857 20.043 391.848 19.957 391.828 19.875C391.809 19.7891 391.775 19.7148 391.729 19.6523C391.686 19.5859 391.627 19.5352 391.553 19.5C391.482 19.4609 391.393 19.4414 391.283 19.4414C391.178 19.4414 391.09 19.4609 391.02 19.5C390.949 19.5352 390.891 19.5859 390.844 19.6523C390.801 19.7148 390.77 19.7891 390.75 19.875C390.73 19.957 390.721 20.043 390.721 20.1328V20.584ZM393.064 25.166C393.064 24.9434 393.1 24.7324 393.17 24.5332C393.24 24.334 393.344 24.1602 393.48 24.0117C393.621 23.8594 393.795 23.7402 394.002 23.6543C394.213 23.5684 394.457 23.5254 394.734 23.5254C395.02 23.5254 395.266 23.5684 395.473 23.6543C395.684 23.7402 395.857 23.8594 395.994 24.0117C396.131 24.1602 396.232 24.334 396.299 24.5332C396.369 24.7324 396.404 24.9434 396.404 25.166V25.623C396.404 25.8457 396.371 26.0566 396.305 26.2559C396.238 26.4551 396.135 26.6289 395.994 26.7773C395.857 26.9258 395.686 27.043 395.479 27.1289C395.271 27.2148 395.027 27.2578 394.746 27.2578C394.465 27.2578 394.219 27.2148 394.008 27.1289C393.797 27.043 393.621 26.9258 393.48 26.7773C393.344 26.6289 393.24 26.4551 393.17 26.2559C393.1 26.0566 393.064 25.8457 393.064 25.623V25.166ZM394.166 25.623C394.166 25.7129 394.178 25.8008 394.201 25.8867C394.225 25.9688 394.26 26.043 394.307 26.1094C394.357 26.1719 394.418 26.2227 394.488 26.2617C394.562 26.2969 394.648 26.3145 394.746 26.3145C394.867 26.3145 394.965 26.2969 395.039 26.2617C395.113 26.2227 395.17 26.1719 395.209 26.1094C395.248 26.043 395.273 25.9688 395.285 25.8867C395.297 25.8047 395.303 25.7168 395.303 25.623V25.166C395.303 25.0762 395.293 24.9902 395.273 24.9082C395.254 24.8262 395.221 24.7539 395.174 24.6914C395.131 24.625 395.072 24.5742 394.998 24.5391C394.928 24.5 394.84 24.4805 394.734 24.4805C394.629 24.4805 394.539 24.5 394.465 24.5391C394.391 24.5742 394.332 24.625 394.289 24.6914C394.246 24.7539 394.215 24.8262 394.195 24.9082C394.176 24.9902 394.166 25.0762 394.166 25.166V25.623ZM391.846 25.9805L391.049 25.5996L394.336 19.5762L395.133 19.957L391.846 25.9805Z" fill="#DFDFF2"/>
<rect x="349" y="0.140625" width="15" height="15" rx="7.5" fill="#DFDFF2"/>
</svg>
