<svg width="728" height="502" viewBox="0 0 728 502" fill="none" xmlns="http://www.w3.org/2000/svg">
<rect x="1" y="1" width="726" height="500" rx="17" fill="url(#paint0_linear_0_1)" stroke="url(#paint1_linear_0_1)" stroke-width="2"/>
<path d="M59.5227 125.909H62.9886V148.807H63.2727L79.1818 125.909H82.5909V155H79.0682V132.159H78.7841L62.9318 155H59.5227V125.909ZM98.3172 150.455L105.931 133.182H109.113L99.6808 155H96.9536L87.6922 133.182H90.8172L98.3172 150.455ZM89.7376 133.182V155H86.3854V133.182H89.7376ZM106.897 155V133.182H110.249V155H106.897ZM126.71 155V136.25H120.915C119.608 136.25 118.581 136.553 117.833 137.159C117.084 137.765 116.71 138.598 116.71 139.659C116.71 140.701 117.047 141.52 117.719 142.116C118.401 142.713 119.333 143.011 120.517 143.011H127.563V146.136H120.517C119.04 146.136 117.766 145.876 116.696 145.355C115.626 144.834 114.802 144.091 114.225 143.125C113.647 142.15 113.358 140.994 113.358 139.659C113.358 138.314 113.661 137.159 114.267 136.193C114.873 135.227 115.74 134.484 116.867 133.963C118.003 133.442 119.352 133.182 120.915 133.182H129.892V155H126.71ZM112.165 155L118.358 144.148H121.994L115.801 155H112.165ZM154.196 138.892V142.017H141.469V138.892H154.196ZM166.199 125.909H169.665V148.807H169.949L185.858 125.909H189.267V155H185.745V132.159H185.461L169.608 155H166.199V125.909ZM191.13 155V151.875H191.926C192.579 151.875 193.123 151.747 193.559 151.491C193.995 151.226 194.345 150.767 194.61 150.114C194.885 149.451 195.093 148.532 195.235 147.358C195.387 146.174 195.496 144.669 195.562 142.841L195.96 133.182H210.505V155H207.153V136.307H199.141L198.801 144.091C198.725 145.881 198.564 147.457 198.318 148.821C198.081 150.175 197.716 151.312 197.224 152.23C196.741 153.149 196.097 153.84 195.292 154.304C194.487 154.768 193.479 155 192.266 155H191.13ZM216.753 141.08H223.003C225.56 141.08 227.516 141.728 228.87 143.026C230.224 144.323 230.901 145.966 230.901 147.955C230.901 149.261 230.598 150.45 229.992 151.52C229.386 152.58 228.496 153.428 227.322 154.062C226.147 154.688 224.708 155 223.003 155H213.856V133.182H217.208V151.875H223.003C224.329 151.875 225.418 151.525 226.27 150.824C227.123 150.123 227.549 149.223 227.549 148.125C227.549 146.97 227.123 146.027 226.27 145.298C225.418 144.569 224.329 144.205 223.003 144.205H216.753V141.08ZM246.329 155V136.25H240.534C239.227 136.25 238.199 136.553 237.451 137.159C236.703 137.765 236.329 138.598 236.329 139.659C236.329 140.701 236.665 141.52 237.338 142.116C238.019 142.713 238.952 143.011 240.136 143.011H247.181V146.136H240.136C238.659 146.136 237.385 145.876 236.315 145.355C235.245 144.834 234.421 144.091 233.843 143.125C233.266 142.15 232.977 140.994 232.977 139.659C232.977 138.314 233.28 137.159 233.886 136.193C234.492 135.227 235.358 134.484 236.485 133.963C237.622 133.442 238.971 133.182 240.534 133.182H249.511V155H246.329ZM231.784 155L237.977 144.148H241.613L235.42 155H231.784ZM59.5227 203V173.909H69.6932C71.7197 173.909 73.3911 174.259 74.7074 174.96C76.0237 175.652 77.0038 176.584 77.6477 177.759C78.2917 178.923 78.6136 180.216 78.6136 181.636C78.6136 182.886 78.3911 183.919 77.946 184.733C77.5104 185.547 76.9328 186.191 76.2131 186.665C75.5028 187.138 74.7311 187.489 73.8977 187.716V188C74.7879 188.057 75.6828 188.369 76.5824 188.938C77.482 189.506 78.2348 190.32 78.8409 191.381C79.447 192.441 79.75 193.739 79.75 195.273C79.75 196.731 79.4186 198.043 78.7557 199.207C78.0928 200.372 77.0464 201.295 75.6165 201.977C74.1866 202.659 72.3258 203 70.0341 203H59.5227ZM63.0455 199.875H70.0341C72.3352 199.875 73.9688 199.43 74.9347 198.54C75.91 197.64 76.3977 196.551 76.3977 195.273C76.3977 194.288 76.1468 193.379 75.6449 192.545C75.143 191.703 74.428 191.03 73.5 190.528C72.572 190.017 71.4735 189.761 70.2045 189.761H63.0455V199.875ZM63.0455 186.693H69.5795C70.6402 186.693 71.5966 186.485 72.4489 186.068C73.3106 185.652 73.9924 185.064 74.4943 184.307C75.0057 183.549 75.2614 182.659 75.2614 181.636C75.2614 180.358 74.8163 179.274 73.9261 178.384C73.036 177.484 71.625 177.034 69.6932 177.034H63.0455V186.693ZM91.1474 203.455C89.1777 203.455 87.4495 202.986 85.9628 202.048C84.4855 201.111 83.3302 199.799 82.4969 198.114C81.673 196.428 81.2611 194.458 81.2611 192.205C81.2611 189.932 81.673 187.948 82.4969 186.253C83.3302 184.558 84.4855 183.241 85.9628 182.304C87.4495 181.366 89.1777 180.898 91.1474 180.898C93.1171 180.898 94.8406 181.366 96.3179 182.304C97.8046 183.241 98.9599 184.558 99.7838 186.253C100.617 187.948 101.034 189.932 101.034 192.205C101.034 194.458 100.617 196.428 99.7838 198.114C98.9599 199.799 97.8046 201.111 96.3179 202.048C94.8406 202.986 93.1171 203.455 91.1474 203.455ZM91.1474 200.443C92.6437 200.443 93.8747 200.06 94.8406 199.293C95.8065 198.526 96.5215 197.517 96.9855 196.267C97.4495 195.017 97.6815 193.663 97.6815 192.205C97.6815 190.746 97.4495 189.387 96.9855 188.128C96.5215 186.868 95.8065 185.85 94.8406 185.074C93.8747 184.297 92.6437 183.909 91.1474 183.909C89.6512 183.909 88.4202 184.297 87.4543 185.074C86.4884 185.85 85.7734 186.868 85.3094 188.128C84.8454 189.387 84.6134 190.746 84.6134 192.205C84.6134 193.663 84.8454 195.017 85.3094 196.267C85.7734 197.517 86.4884 198.526 87.4543 199.293C88.4202 200.06 89.6512 200.443 91.1474 200.443ZM101.987 197.432H105.567C105.643 198.417 106.088 199.165 106.902 199.676C107.726 200.188 108.796 200.443 110.112 200.443C111.457 200.443 112.608 200.169 113.564 199.619C114.521 199.061 114.999 198.161 114.999 196.92C114.999 196.191 114.819 195.557 114.459 195.017C114.099 194.468 113.592 194.042 112.939 193.739C112.286 193.436 111.514 193.284 110.624 193.284H106.874V190.273H110.624C111.959 190.273 112.944 189.97 113.578 189.364C114.222 188.758 114.544 188 114.544 187.091C114.544 186.116 114.199 185.334 113.507 184.747C112.816 184.151 111.836 183.852 110.567 183.852C109.288 183.852 108.223 184.141 107.371 184.719C106.519 185.287 106.069 186.021 106.021 186.92H102.499C102.537 185.746 102.896 184.709 103.578 183.81C104.26 182.901 105.188 182.19 106.362 181.679C107.537 181.158 108.881 180.898 110.396 180.898C111.931 180.898 113.261 181.168 114.388 181.707C115.524 182.238 116.4 182.962 117.016 183.881C117.641 184.79 117.953 185.822 117.953 186.977C117.953 188.208 117.608 189.203 116.916 189.96C116.225 190.718 115.359 191.258 114.317 191.58V191.807C115.141 191.864 115.856 192.129 116.462 192.602C117.077 193.066 117.556 193.677 117.896 194.435C118.237 195.183 118.408 196.011 118.408 196.92C118.408 198.246 118.053 199.402 117.342 200.386C116.632 201.362 115.657 202.119 114.416 202.659C113.176 203.189 111.76 203.455 110.169 203.455C108.626 203.455 107.243 203.204 106.021 202.702C104.8 202.19 103.829 201.485 103.11 200.585C102.399 199.676 102.025 198.625 101.987 197.432ZM120.317 211.182V181.182H123.555V184.648H123.953C124.199 184.269 124.54 183.786 124.976 183.199C125.421 182.602 126.055 182.072 126.879 181.608C127.712 181.134 128.839 180.898 130.26 180.898C132.097 180.898 133.716 181.357 135.118 182.276C136.519 183.194 137.613 184.496 138.399 186.182C139.185 187.867 139.578 189.856 139.578 192.148C139.578 194.458 139.185 196.461 138.399 198.156C137.613 199.842 136.524 201.149 135.132 202.077C133.74 202.995 132.135 203.455 130.317 203.455C128.915 203.455 127.793 203.223 126.95 202.759C126.107 202.285 125.459 201.75 125.004 201.153C124.55 200.547 124.199 200.045 123.953 199.648H123.669V211.182H120.317ZM123.612 192.091C123.612 193.739 123.854 195.192 124.337 196.452C124.819 197.702 125.525 198.682 126.453 199.392C127.381 200.093 128.517 200.443 129.862 200.443C131.264 200.443 132.433 200.074 133.371 199.335C134.318 198.587 135.028 197.583 135.501 196.324C135.984 195.055 136.226 193.644 136.226 192.091C136.226 190.557 135.989 189.174 135.515 187.943C135.051 186.703 134.346 185.723 133.399 185.003C132.462 184.274 131.283 183.909 129.862 183.909C128.498 183.909 127.353 184.255 126.425 184.946C125.497 185.628 124.796 186.584 124.322 187.815C123.849 189.037 123.612 190.462 123.612 192.091ZM148.312 203.511C146.93 203.511 145.675 203.251 144.548 202.73C143.421 202.2 142.526 201.438 141.863 200.443C141.2 199.439 140.869 198.227 140.869 196.807C140.869 195.557 141.115 194.544 141.608 193.767C142.1 192.981 142.758 192.366 143.582 191.92C144.406 191.475 145.315 191.144 146.309 190.926C147.313 190.699 148.322 190.519 149.335 190.386C150.661 190.216 151.735 190.088 152.559 190.003C153.393 189.908 153.999 189.752 154.377 189.534C154.766 189.316 154.96 188.937 154.96 188.398V188.284C154.96 186.883 154.576 185.794 153.809 185.017C153.052 184.241 151.901 183.852 150.358 183.852C148.757 183.852 147.502 184.203 146.593 184.903C145.684 185.604 145.045 186.352 144.676 187.148L141.494 186.011C142.062 184.686 142.82 183.653 143.767 182.915C144.723 182.167 145.765 181.646 146.892 181.352C148.028 181.049 149.145 180.898 150.244 180.898C150.945 180.898 151.75 180.983 152.659 181.153C153.577 181.314 154.463 181.651 155.315 182.162C156.177 182.673 156.892 183.445 157.46 184.477C158.028 185.509 158.312 186.892 158.312 188.625V203H154.96V200.045H154.789C154.562 200.519 154.183 201.026 153.653 201.565C153.123 202.105 152.417 202.564 151.537 202.943C150.656 203.322 149.581 203.511 148.312 203.511ZM148.823 200.5C150.149 200.5 151.267 200.24 152.176 199.719C153.094 199.198 153.786 198.526 154.25 197.702C154.723 196.878 154.96 196.011 154.96 195.102V192.034C154.818 192.205 154.505 192.361 154.022 192.503C153.549 192.635 153 192.754 152.375 192.858C151.759 192.953 151.158 193.038 150.571 193.114C149.993 193.18 149.524 193.237 149.164 193.284C148.293 193.398 147.479 193.582 146.721 193.838C145.973 194.084 145.367 194.458 144.903 194.96C144.448 195.453 144.221 196.125 144.221 196.977C144.221 198.142 144.652 199.023 145.514 199.619C146.385 200.206 147.488 200.5 148.823 200.5ZM170.494 203.455C168.449 203.455 166.688 202.972 165.21 202.006C163.733 201.04 162.597 199.709 161.801 198.014C161.006 196.319 160.608 194.383 160.608 192.205C160.608 189.989 161.015 188.033 161.83 186.338C162.653 184.634 163.799 183.303 165.267 182.347C166.744 181.381 168.468 180.898 170.438 180.898C171.972 180.898 173.354 181.182 174.585 181.75C175.816 182.318 176.825 183.114 177.611 184.136C178.397 185.159 178.884 186.352 179.074 187.716H175.722C175.466 186.722 174.898 185.841 174.017 185.074C173.146 184.297 171.972 183.909 170.494 183.909C169.188 183.909 168.042 184.25 167.057 184.932C166.081 185.604 165.319 186.556 164.77 187.787C164.23 189.009 163.96 190.443 163.96 192.091C163.96 193.777 164.225 195.244 164.756 196.494C165.295 197.744 166.053 198.715 167.028 199.406C168.013 200.098 169.169 200.443 170.494 200.443C171.366 200.443 172.156 200.292 172.866 199.989C173.577 199.686 174.178 199.25 174.67 198.682C175.163 198.114 175.513 197.432 175.722 196.636H179.074C178.884 197.924 178.416 199.084 177.668 200.116C176.929 201.139 175.949 201.954 174.727 202.56C173.515 203.156 172.104 203.455 170.494 203.455ZM179.456 184.307V181.182H197.183V184.307H190.024V203H186.672V184.307H179.456ZM220.223 186.892V190.017H207.496V186.892H220.223ZM231.714 203V200.443L241.317 189.932C242.444 188.701 243.372 187.631 244.101 186.722C244.83 185.803 245.37 184.941 245.72 184.136C246.08 183.322 246.26 182.47 246.26 181.58C246.26 180.557 246.014 179.671 245.521 178.923C245.038 178.175 244.375 177.598 243.533 177.19C242.69 176.783 241.743 176.58 240.692 176.58C239.574 176.58 238.599 176.812 237.766 177.276C236.942 177.73 236.303 178.369 235.848 179.193C235.403 180.017 235.18 180.983 235.18 182.091H231.828C231.828 180.386 232.221 178.89 233.007 177.602C233.793 176.314 234.863 175.311 236.217 174.591C237.581 173.871 239.11 173.511 240.805 173.511C242.51 173.511 244.02 173.871 245.337 174.591C246.653 175.311 247.685 176.281 248.433 177.503C249.181 178.724 249.555 180.083 249.555 181.58C249.555 182.65 249.361 183.696 248.973 184.719C248.594 185.732 247.931 186.864 246.984 188.114C246.047 189.354 244.745 190.869 243.078 192.659L236.544 199.648V199.875H250.067V203H231.714ZM262.622 203.398C260.482 203.398 258.659 202.815 257.153 201.651C255.647 200.476 254.497 198.777 253.701 196.551C252.906 194.316 252.508 191.617 252.508 188.455C252.508 185.311 252.906 182.626 253.701 180.401C254.506 178.166 255.662 176.461 257.167 175.287C258.682 174.103 260.501 173.511 262.622 173.511C264.743 173.511 266.557 174.103 268.062 175.287C269.577 176.461 270.733 178.166 271.528 180.401C272.333 182.626 272.736 185.311 272.736 188.455C272.736 191.617 272.338 194.316 271.542 196.551C270.747 198.777 269.596 200.476 268.091 201.651C266.585 202.815 264.762 203.398 262.622 203.398ZM262.622 200.273C264.743 200.273 266.391 199.25 267.565 197.205C268.739 195.159 269.326 192.242 269.326 188.455C269.326 185.936 269.057 183.791 268.517 182.02C267.986 180.249 267.219 178.9 266.216 177.972C265.221 177.044 264.023 176.58 262.622 176.58C260.52 176.58 258.877 177.616 257.693 179.69C256.509 181.755 255.917 184.676 255.917 188.455C255.917 190.973 256.182 193.114 256.713 194.875C257.243 196.636 258.005 197.976 259 198.895C260.004 199.813 261.211 200.273 262.622 200.273ZM281.908 203V199.875H282.704C283.357 199.875 283.902 199.747 284.337 199.491C284.773 199.226 285.123 198.767 285.388 198.114C285.663 197.451 285.871 196.532 286.013 195.358C286.165 194.174 286.274 192.669 286.34 190.841L286.738 181.182H301.283V203H297.931V184.307H289.92L289.579 192.091C289.503 193.881 289.342 195.457 289.096 196.821C288.859 198.175 288.494 199.312 288.002 200.23C287.519 201.149 286.875 201.84 286.07 202.304C285.265 202.768 284.257 203 283.045 203H281.908ZM313.782 203.455C311.679 203.455 309.866 202.991 308.341 202.062C306.826 201.125 305.657 199.818 304.833 198.142C304.018 196.456 303.611 194.496 303.611 192.261C303.611 190.027 304.018 188.057 304.833 186.352C305.657 184.638 306.802 183.303 308.27 182.347C309.747 181.381 311.471 180.898 313.441 180.898C314.577 180.898 315.699 181.087 316.807 181.466C317.915 181.845 318.924 182.46 319.833 183.312C320.742 184.155 321.466 185.273 322.006 186.665C322.546 188.057 322.816 189.771 322.816 191.807V193.227H305.997V190.33H319.407C319.407 189.098 319.16 188 318.668 187.034C318.185 186.068 317.494 185.306 316.594 184.747C315.704 184.188 314.653 183.909 313.441 183.909C312.105 183.909 310.95 184.241 309.975 184.903C309.009 185.557 308.265 186.409 307.745 187.46C307.224 188.511 306.963 189.638 306.963 190.841V192.773C306.963 194.42 307.247 195.817 307.816 196.963C308.393 198.099 309.193 198.966 310.216 199.562C311.239 200.15 312.427 200.443 313.782 200.443C314.662 200.443 315.458 200.32 316.168 200.074C316.888 199.818 317.508 199.439 318.029 198.938C318.55 198.426 318.952 197.792 319.236 197.034L322.475 197.943C322.134 199.042 321.561 200.008 320.756 200.841C319.951 201.665 318.957 202.309 317.773 202.773C316.589 203.227 315.259 203.455 313.782 203.455ZM323.084 184.307V181.182H340.811V184.307H333.652V203H330.3V184.307H323.084ZM77.0795 221.909V225.034H63.0455V251H59.5227V221.909H77.0795ZM84.9756 251.455C83.0059 251.455 81.2777 250.986 79.7909 250.048C78.3136 249.111 77.1583 247.799 76.325 246.114C75.5011 244.428 75.0892 242.458 75.0892 240.205C75.0892 237.932 75.5011 235.948 76.325 234.253C77.1583 232.558 78.3136 231.241 79.7909 230.304C81.2777 229.366 83.0059 228.898 84.9756 228.898C86.9453 228.898 88.6688 229.366 90.146 230.304C91.6328 231.241 92.7881 232.558 93.6119 234.253C94.4453 235.948 94.8619 237.932 94.8619 240.205C94.8619 242.458 94.4453 244.428 93.6119 246.114C92.7881 247.799 91.6328 249.111 90.146 250.048C88.6688 250.986 86.9453 251.455 84.9756 251.455ZM84.9756 248.443C86.4718 248.443 87.7028 248.06 88.6688 247.293C89.6347 246.526 90.3496 245.517 90.8136 244.267C91.2777 243.017 91.5097 241.663 91.5097 240.205C91.5097 238.746 91.2777 237.387 90.8136 236.128C90.3496 234.868 89.6347 233.85 88.6688 233.074C87.7028 232.297 86.4718 231.909 84.9756 231.909C83.4794 231.909 82.2483 232.297 81.2824 233.074C80.3165 233.85 79.6015 234.868 79.1375 236.128C78.6735 237.387 78.4415 238.746 78.4415 240.205C78.4415 241.663 78.6735 243.017 79.1375 244.267C79.6015 245.517 80.3165 246.526 81.2824 247.293C82.2483 248.06 83.4794 248.443 84.9756 248.443ZM97.1791 259.182V229.182H100.418V232.648H100.815C101.062 232.269 101.403 231.786 101.838 231.199C102.283 230.602 102.918 230.072 103.742 229.608C104.575 229.134 105.702 228.898 107.122 228.898C108.959 228.898 110.579 229.357 111.98 230.276C113.382 231.194 114.476 232.496 115.262 234.182C116.047 235.867 116.44 237.856 116.44 240.148C116.44 242.458 116.047 244.461 115.262 246.156C114.476 247.842 113.387 249.149 111.994 250.077C110.602 250.995 108.997 251.455 107.179 251.455C105.778 251.455 104.655 251.223 103.813 250.759C102.97 250.285 102.321 249.75 101.867 249.153C101.412 248.547 101.062 248.045 100.815 247.648H100.531V259.182H97.1791ZM100.475 240.091C100.475 241.739 100.716 243.192 101.199 244.452C101.682 245.702 102.387 246.682 103.315 247.392C104.244 248.093 105.38 248.443 106.725 248.443C108.126 248.443 109.296 248.074 110.233 247.335C111.18 246.587 111.89 245.583 112.364 244.324C112.847 243.055 113.088 241.644 113.088 240.091C113.088 238.557 112.851 237.174 112.378 235.943C111.914 234.703 111.208 233.723 110.262 233.003C109.324 232.274 108.145 231.909 106.725 231.909C105.361 231.909 104.215 232.255 103.287 232.946C102.359 233.628 101.658 234.584 101.185 235.815C100.711 237.037 100.475 238.462 100.475 240.091ZM127.618 251.455C125.648 251.455 123.92 250.986 122.433 250.048C120.956 249.111 119.801 247.799 118.967 246.114C118.143 244.428 117.731 242.458 117.731 240.205C117.731 237.932 118.143 235.948 118.967 234.253C119.801 232.558 120.956 231.241 122.433 230.304C123.92 229.366 125.648 228.898 127.618 228.898C129.587 228.898 131.311 229.366 132.788 230.304C134.275 231.241 135.43 232.558 136.254 234.253C137.087 235.948 137.504 237.932 137.504 240.205C137.504 242.458 137.087 244.428 136.254 246.114C135.43 247.799 134.275 249.111 132.788 250.048C131.311 250.986 129.587 251.455 127.618 251.455ZM127.618 248.443C129.114 248.443 130.345 248.06 131.311 247.293C132.277 246.526 132.992 245.517 133.456 244.267C133.92 243.017 134.152 241.663 134.152 240.205C134.152 238.746 133.92 237.387 133.456 236.128C132.992 234.868 132.277 233.85 131.311 233.074C130.345 232.297 129.114 231.909 127.618 231.909C126.122 231.909 124.89 232.297 123.925 233.074C122.959 233.85 122.244 234.868 121.78 236.128C121.316 237.387 121.084 238.746 121.084 240.205C121.084 241.663 121.316 243.017 121.78 244.267C122.244 245.517 122.959 246.526 123.925 247.293C124.89 248.06 126.122 248.443 127.618 248.443ZM137.492 257.25V247.875H139.31C139.755 247.411 140.139 246.909 140.461 246.369C140.782 245.83 141.062 245.19 141.299 244.452C141.545 243.704 141.753 242.795 141.924 241.724C142.094 240.645 142.246 239.343 142.378 237.818L143.117 229.182H156.98V247.875H160.333V257.25H156.98V251H140.844V257.25H137.492ZM143.117 247.875H153.628V232.307H146.242L145.674 237.818C145.437 240.1 145.143 242.094 144.793 243.798C144.443 245.503 143.884 246.862 143.117 247.875ZM182.932 234.892V238.017H170.205V234.892H182.932ZM212.038 251L202.038 237.648H198.458V251H194.935V221.909H198.458V234.523H199.992L211.64 221.909H215.844L204.083 234.693L216.242 251H212.038ZM217.54 259.182V229.182H220.779V232.648H221.176C221.423 232.269 221.764 231.786 222.199 231.199C222.644 230.602 223.279 230.072 224.103 229.608C224.936 229.134 226.063 228.898 227.483 228.898C229.32 228.898 230.94 229.357 232.341 230.276C233.743 231.194 234.836 232.496 235.622 234.182C236.408 235.867 236.801 237.856 236.801 240.148C236.801 242.458 236.408 244.461 235.622 246.156C234.836 247.842 233.747 249.149 232.355 250.077C230.963 250.995 229.358 251.455 227.54 251.455C226.139 251.455 225.016 251.223 224.174 250.759C223.331 250.285 222.682 249.75 222.228 249.153C221.773 248.547 221.423 248.045 221.176 247.648H220.892V259.182H217.54ZM220.836 240.091C220.836 241.739 221.077 243.192 221.56 244.452C222.043 245.702 222.748 246.682 223.676 247.392C224.604 248.093 225.741 248.443 227.086 248.443C228.487 248.443 229.657 248.074 230.594 247.335C231.541 246.587 232.251 245.583 232.725 244.324C233.208 243.055 233.449 241.644 233.449 240.091C233.449 238.557 233.212 237.174 232.739 235.943C232.275 234.703 231.569 233.723 230.622 233.003C229.685 232.274 228.506 231.909 227.086 231.909C225.722 231.909 224.576 232.255 223.648 232.946C222.72 233.628 222.019 234.584 221.546 235.815C221.072 237.037 220.836 238.462 220.836 240.091ZM245.536 251.511C244.153 251.511 242.898 251.251 241.771 250.73C240.644 250.2 239.75 249.438 239.087 248.443C238.424 247.439 238.092 246.227 238.092 244.807C238.092 243.557 238.339 242.544 238.831 241.767C239.323 240.981 239.982 240.366 240.805 239.92C241.629 239.475 242.538 239.144 243.533 238.926C244.536 238.699 245.545 238.519 246.558 238.386C247.884 238.216 248.959 238.088 249.783 238.003C250.616 237.908 251.222 237.752 251.601 237.534C251.989 237.316 252.183 236.937 252.183 236.398V236.284C252.183 234.883 251.8 233.794 251.033 233.017C250.275 232.241 249.125 231.852 247.581 231.852C245.981 231.852 244.726 232.203 243.817 232.903C242.908 233.604 242.268 234.352 241.899 235.148L238.717 234.011C239.286 232.686 240.043 231.653 240.99 230.915C241.946 230.167 242.988 229.646 244.115 229.352C245.251 229.049 246.369 228.898 247.467 228.898C248.168 228.898 248.973 228.983 249.882 229.153C250.801 229.314 251.686 229.651 252.538 230.162C253.4 230.673 254.115 231.445 254.683 232.477C255.251 233.509 255.536 234.892 255.536 236.625V251H252.183V248.045H252.013C251.786 248.519 251.407 249.026 250.876 249.565C250.346 250.105 249.641 250.564 248.76 250.943C247.879 251.322 246.804 251.511 245.536 251.511ZM246.047 248.5C247.373 248.5 248.49 248.24 249.399 247.719C250.318 247.198 251.009 246.526 251.473 245.702C251.946 244.878 252.183 244.011 252.183 243.102V240.034C252.041 240.205 251.729 240.361 251.246 240.503C250.772 240.635 250.223 240.754 249.598 240.858C248.982 240.953 248.381 241.038 247.794 241.114C247.216 241.18 246.748 241.237 246.388 241.284C245.517 241.398 244.702 241.582 243.945 241.838C243.196 242.084 242.59 242.458 242.126 242.96C241.672 243.453 241.445 244.125 241.445 244.977C241.445 246.142 241.875 247.023 242.737 247.619C243.608 248.206 244.712 248.5 246.047 248.5ZM267.718 251.455C265.672 251.455 263.911 250.972 262.434 250.006C260.956 249.04 259.82 247.709 259.025 246.014C258.229 244.319 257.831 242.383 257.831 240.205C257.831 237.989 258.239 236.033 259.053 234.338C259.877 232.634 261.023 231.303 262.49 230.347C263.968 229.381 265.691 228.898 267.661 228.898C269.195 228.898 270.578 229.182 271.809 229.75C273.04 230.318 274.048 231.114 274.834 232.136C275.62 233.159 276.108 234.352 276.297 235.716H272.945C272.689 234.722 272.121 233.841 271.24 233.074C270.369 232.297 269.195 231.909 267.718 231.909C266.411 231.909 265.265 232.25 264.28 232.932C263.305 233.604 262.543 234.556 261.993 235.787C261.454 237.009 261.184 238.443 261.184 240.091C261.184 241.777 261.449 243.244 261.979 244.494C262.519 245.744 263.276 246.715 264.252 247.406C265.237 248.098 266.392 248.443 267.718 248.443C268.589 248.443 269.38 248.292 270.09 247.989C270.8 247.686 271.401 247.25 271.894 246.682C272.386 246.114 272.737 245.432 272.945 244.636H276.297C276.108 245.924 275.639 247.084 274.891 248.116C274.152 249.139 273.172 249.954 271.951 250.56C270.739 251.156 269.328 251.455 267.718 251.455ZM293 238.557V241.682H280.955V238.557H293ZM281.75 229.182V251H278.398V229.182H281.75ZM295.557 229.182V251H292.205V229.182H295.557ZM307.743 251.455C305.773 251.455 304.045 250.986 302.558 250.048C301.081 249.111 299.926 247.799 299.092 246.114C298.268 244.428 297.856 242.458 297.856 240.205C297.856 237.932 298.268 235.948 299.092 234.253C299.926 232.558 301.081 231.241 302.558 230.304C304.045 229.366 305.773 228.898 307.743 228.898C309.712 228.898 311.436 229.366 312.913 230.304C314.4 231.241 315.555 232.558 316.379 234.253C317.212 235.948 317.629 237.932 317.629 240.205C317.629 242.458 317.212 244.428 316.379 246.114C315.555 247.799 314.4 249.111 312.913 250.048C311.436 250.986 309.712 251.455 307.743 251.455ZM307.743 248.443C309.239 248.443 310.47 248.06 311.436 247.293C312.402 246.526 313.117 245.517 313.581 244.267C314.045 243.017 314.277 241.663 314.277 240.205C314.277 238.746 314.045 237.387 313.581 236.128C313.117 234.868 312.402 233.85 311.436 233.074C310.47 232.297 309.239 231.909 307.743 231.909C306.247 231.909 305.015 232.297 304.05 233.074C303.084 233.85 302.369 234.868 301.905 236.128C301.441 237.387 301.209 238.746 301.209 240.205C301.209 241.663 301.441 243.017 301.905 244.267C302.369 245.517 303.084 246.526 304.05 247.293C305.015 248.06 306.247 248.443 307.743 248.443ZM317.617 257.25V247.875H319.435C319.88 247.411 320.264 246.909 320.585 246.369C320.907 245.83 321.187 245.19 321.424 244.452C321.67 243.704 321.878 242.795 322.049 241.724C322.219 240.645 322.371 239.343 322.503 237.818L323.242 229.182H337.105V247.875H340.458V257.25H337.105V251H320.969V257.25H317.617ZM323.242 247.875H333.753V232.307H326.367L325.799 237.818C325.562 240.1 325.268 242.094 324.918 243.798C324.568 245.503 324.009 246.862 323.242 247.875ZM348.528 251.511C347.145 251.511 345.89 251.251 344.763 250.73C343.637 250.2 342.742 249.438 342.079 248.443C341.416 247.439 341.085 246.227 341.085 244.807C341.085 243.557 341.331 242.544 341.823 241.767C342.316 240.981 342.974 240.366 343.798 239.92C344.621 239.475 345.531 239.144 346.525 238.926C347.529 238.699 348.537 238.519 349.55 238.386C350.876 238.216 351.951 238.088 352.775 238.003C353.608 237.908 354.214 237.752 354.593 237.534C354.981 237.316 355.175 236.937 355.175 236.398V236.284C355.175 234.883 354.792 233.794 354.025 233.017C353.267 232.241 352.117 231.852 350.573 231.852C348.973 231.852 347.718 232.203 346.809 232.903C345.9 233.604 345.261 234.352 344.891 235.148L341.71 234.011C342.278 232.686 343.035 231.653 343.982 230.915C344.939 230.167 345.98 229.646 347.107 229.352C348.244 229.049 349.361 228.898 350.46 228.898C351.16 228.898 351.965 228.983 352.874 229.153C353.793 229.314 354.678 229.651 355.531 230.162C356.392 230.673 357.107 231.445 357.675 232.477C358.244 233.509 358.528 234.892 358.528 236.625V251H355.175V248.045H355.005C354.778 248.519 354.399 249.026 353.869 249.565C353.338 250.105 352.633 250.564 351.752 250.943C350.871 251.322 349.797 251.511 348.528 251.511ZM349.039 248.5C350.365 248.5 351.482 248.24 352.391 247.719C353.31 247.198 354.001 246.526 354.465 245.702C354.939 244.878 355.175 244.011 355.175 243.102V240.034C355.033 240.205 354.721 240.361 354.238 240.503C353.764 240.635 353.215 240.754 352.59 240.858C351.975 240.953 351.373 241.038 350.786 241.114C350.209 241.18 349.74 241.237 349.38 241.284C348.509 241.398 347.694 241.582 346.937 241.838C346.189 242.084 345.583 242.458 345.119 242.96C344.664 243.453 344.437 244.125 344.437 244.977C344.437 246.142 344.868 247.023 345.729 247.619C346.601 248.206 347.704 248.5 349.039 248.5ZM361.846 259.182V229.182H365.085V232.648H365.483C365.729 232.269 366.07 231.786 366.505 231.199C366.95 230.602 367.585 230.072 368.409 229.608C369.242 229.134 370.369 228.898 371.79 228.898C373.627 228.898 375.246 229.357 376.647 230.276C378.049 231.194 379.143 232.496 379.929 234.182C380.715 235.867 381.108 237.856 381.108 240.148C381.108 242.458 380.715 244.461 379.929 246.156C379.143 247.842 378.054 249.149 376.662 250.077C375.27 250.995 373.665 251.455 371.846 251.455C370.445 251.455 369.323 251.223 368.48 250.759C367.637 250.285 366.988 249.75 366.534 249.153C366.079 248.547 365.729 248.045 365.483 247.648H365.199V259.182H361.846ZM365.142 240.091C365.142 241.739 365.383 243.192 365.866 244.452C366.349 245.702 367.055 246.682 367.983 247.392C368.911 248.093 370.047 248.443 371.392 248.443C372.793 248.443 373.963 248.074 374.9 247.335C375.847 246.587 376.557 245.583 377.031 244.324C377.514 243.055 377.755 241.644 377.755 240.091C377.755 238.557 377.519 237.174 377.045 235.943C376.581 234.703 375.876 233.723 374.929 233.003C373.991 232.274 372.812 231.909 371.392 231.909C370.028 231.909 368.882 232.255 367.954 232.946C367.026 233.628 366.325 234.584 365.852 235.815C365.379 237.037 365.142 238.462 365.142 240.091ZM388.421 247.023L388.194 248.557C388.033 249.636 387.787 250.792 387.455 252.023C387.133 253.254 386.797 254.414 386.447 255.503C386.096 256.592 385.808 257.458 385.58 258.102H383.024C383.147 257.496 383.308 256.696 383.507 255.702C383.705 254.707 383.904 253.595 384.103 252.364C384.311 251.142 384.482 249.892 384.614 248.614L384.785 247.023H388.421ZM400.737 251V221.909H410.566C412.849 221.909 414.714 222.321 416.163 223.145C417.621 223.959 418.701 225.062 419.402 226.455C420.102 227.847 420.453 229.4 420.453 231.114C420.453 232.828 420.102 234.385 419.402 235.787C418.71 237.188 417.64 238.306 416.191 239.139C414.742 239.963 412.886 240.375 410.623 240.375H403.578V237.25H410.51C412.072 237.25 413.327 236.98 414.274 236.44C415.221 235.901 415.907 235.171 416.333 234.253C416.769 233.325 416.987 232.278 416.987 231.114C416.987 229.949 416.769 228.907 416.333 227.989C415.907 227.07 415.216 226.35 414.26 225.83C413.303 225.299 412.034 225.034 410.453 225.034H404.26V251H400.737ZM431.502 251.455C429.532 251.455 427.804 250.986 426.317 250.048C424.84 249.111 423.685 247.799 422.852 246.114C422.028 244.428 421.616 242.458 421.616 240.205C421.616 237.932 422.028 235.948 422.852 234.253C423.685 232.558 424.84 231.241 426.317 230.304C427.804 229.366 429.532 228.898 431.502 228.898C433.472 228.898 435.195 229.366 436.673 230.304C438.159 231.241 439.315 232.558 440.138 234.253C440.972 235.948 441.388 237.932 441.388 240.205C441.388 242.458 440.972 244.428 440.138 246.114C439.315 247.799 438.159 249.111 436.673 250.048C435.195 250.986 433.472 251.455 431.502 251.455ZM431.502 248.443C432.998 248.443 434.229 248.06 435.195 247.293C436.161 246.526 436.876 245.517 437.34 244.267C437.804 243.017 438.036 241.663 438.036 240.205C438.036 238.746 437.804 237.387 437.34 236.128C436.876 234.868 436.161 233.85 435.195 233.074C434.229 232.297 432.998 231.909 431.502 231.909C430.006 231.909 428.775 232.297 427.809 233.074C426.843 233.85 426.128 234.868 425.664 236.128C425.2 237.387 424.968 238.746 424.968 240.205C424.968 241.663 425.2 243.017 425.664 244.267C426.128 245.517 426.843 246.526 427.809 247.293C428.775 248.06 430.006 248.443 431.502 248.443ZM452.569 251.455C450.524 251.455 448.763 250.972 447.285 250.006C445.808 249.04 444.672 247.709 443.876 246.014C443.081 244.319 442.683 242.383 442.683 240.205C442.683 237.989 443.09 236.033 443.905 234.338C444.728 232.634 445.874 231.303 447.342 230.347C448.819 229.381 450.543 228.898 452.513 228.898C454.047 228.898 455.429 229.182 456.66 229.75C457.891 230.318 458.9 231.114 459.686 232.136C460.472 233.159 460.959 234.352 461.149 235.716H457.797C457.541 234.722 456.973 233.841 456.092 233.074C455.221 232.297 454.047 231.909 452.569 231.909C451.263 231.909 450.117 232.25 449.132 232.932C448.156 233.604 447.394 234.556 446.845 235.787C446.305 237.009 446.035 238.443 446.035 240.091C446.035 241.777 446.3 243.244 446.831 244.494C447.37 245.744 448.128 246.715 449.103 247.406C450.088 248.098 451.244 248.443 452.569 248.443C453.441 248.443 454.231 248.292 454.941 247.989C455.652 247.686 456.253 247.25 456.745 246.682C457.238 246.114 457.588 245.432 457.797 244.636H461.149C460.959 245.924 460.491 247.084 459.743 248.116C459.004 249.139 458.024 249.954 456.802 250.56C455.59 251.156 454.179 251.455 452.569 251.455ZM472.113 251.455C470.068 251.455 468.306 250.972 466.829 250.006C465.352 249.04 464.215 247.709 463.42 246.014C462.624 244.319 462.227 242.383 462.227 240.205C462.227 237.989 462.634 236.033 463.448 234.338C464.272 232.634 465.418 231.303 466.886 230.347C468.363 229.381 470.087 228.898 472.056 228.898C473.59 228.898 474.973 229.182 476.204 229.75C477.435 230.318 478.444 231.114 479.23 232.136C480.016 233.159 480.503 234.352 480.693 235.716H477.34C477.085 234.722 476.516 233.841 475.636 233.074C474.765 232.297 473.59 231.909 472.113 231.909C470.806 231.909 469.66 232.25 468.676 232.932C467.7 233.604 466.938 234.556 466.389 235.787C465.849 237.009 465.579 238.443 465.579 240.091C465.579 241.777 465.844 243.244 466.374 244.494C466.914 245.744 467.672 246.715 468.647 247.406C469.632 248.098 470.787 248.443 472.113 248.443C472.984 248.443 473.775 248.292 474.485 247.989C475.195 247.686 475.797 247.25 476.289 246.682C476.782 246.114 477.132 245.432 477.34 244.636H480.693C480.503 245.924 480.034 247.084 479.286 248.116C478.548 249.139 477.568 249.954 476.346 250.56C475.134 251.156 473.723 251.455 472.113 251.455ZM486.145 246.057L496.657 229.182H500.52V251H497.168V234.125L486.714 251H482.793V229.182H486.145V246.057ZM516.985 251V232.25H511.19C509.883 232.25 508.856 232.553 508.108 233.159C507.359 233.765 506.985 234.598 506.985 235.659C506.985 236.701 507.322 237.52 507.994 238.116C508.676 238.713 509.608 239.011 510.792 239.011H517.838V242.136H510.792C509.315 242.136 508.041 241.876 506.971 241.355C505.901 240.834 505.077 240.091 504.5 239.125C503.922 238.15 503.633 236.994 503.633 235.659C503.633 234.314 503.936 233.159 504.542 232.193C505.148 231.227 506.015 230.484 507.142 229.963C508.278 229.442 509.627 229.182 511.19 229.182H520.167V251H516.985ZM502.44 251L508.633 240.148H512.269L506.076 251H502.44Z" fill="white"/>
<path d="M56 46C56 42.6863 58.6863 40 62 40H223C226.314 40 229 42.6863 229 46V78C229 81.3137 226.314 84 223 84H62C58.6863 84 56 81.3137 56 78V46Z" fill="white" fill-opacity="0.2"/>
<path d="M87.7217 70V53.2727H98.4784V55.8129H90.7519V59.7333H93.9781C95.2577 59.7333 96.3549 59.9429 97.2696 60.3622C98.1899 60.776 98.895 61.3614 99.385 62.1183C99.8751 62.8751 100.12 63.7654 100.12 64.7891C100.12 65.8182 99.8751 66.7248 99.385 67.5089C98.895 68.2875 98.1899 68.8974 97.2696 69.3384C96.3549 69.7795 95.2577 70 93.9781 70H87.7217ZM90.7519 67.517H93.9781C94.6533 67.517 95.225 67.3891 95.6933 67.1332C96.1616 66.8772 96.5155 66.5397 96.7551 66.1204C97.0001 65.7011 97.1226 65.2464 97.1226 64.7564C97.1226 64.0485 96.8504 63.4469 96.3059 62.9513C95.7668 62.4504 94.9909 62.1999 93.9781 62.1999H90.7519V67.517ZM103.88 65.9979L108.903 57.4545H111.942V70H109.083V61.4485L104.076 70H101.03V57.4545H103.88V65.9979ZM118.84 70.245C117.615 70.245 116.553 69.9755 115.655 69.4364C114.757 68.8974 114.06 68.1432 113.564 67.174C113.074 66.2048 112.829 65.0722 112.829 63.7763C112.829 62.4804 113.074 61.3451 113.564 60.3704C114.06 59.3957 114.757 58.6388 115.655 58.0998C116.553 57.5607 117.615 57.2912 118.84 57.2912C120.066 57.2912 121.127 57.5607 122.026 58.0998C122.924 58.6388 123.618 59.3957 124.108 60.3704C124.604 61.3451 124.852 62.4804 124.852 63.7763C124.852 65.0722 124.604 66.2048 124.108 67.174C123.618 68.1432 122.924 68.8974 122.026 69.4364C121.127 69.9755 120.066 70.245 118.84 70.245ZM118.857 67.8764C119.521 67.8764 120.076 67.694 120.523 67.3292C120.969 66.9589 121.302 66.4634 121.519 65.8427C121.743 65.2219 121.854 64.5304 121.854 63.7681C121.854 63.0004 121.743 62.3061 121.519 61.6854C121.302 61.0592 120.969 60.561 120.523 60.1907C120.076 59.8204 119.521 59.6353 118.857 59.6353C118.176 59.6353 117.61 59.8204 117.158 60.1907C116.711 60.561 116.376 61.0592 116.153 61.6854C115.935 62.3061 115.827 63.0004 115.827 63.7681C115.827 64.5304 115.935 65.2219 116.153 65.8427C116.376 66.4634 116.711 66.9589 117.158 67.3292C117.61 67.694 118.176 67.8764 118.857 67.8764ZM134.05 57.4545V59.8803H128.643V70H125.751V57.4545H134.05ZM134.81 74.7045V57.4545H137.718V59.5291H137.889C138.042 59.2242 138.257 58.9002 138.535 58.5572C138.812 58.2087 139.188 57.9119 139.662 57.6669C140.135 57.4164 140.74 57.2912 141.475 57.2912C142.444 57.2912 143.318 57.5389 144.097 58.0344C144.881 58.5245 145.502 59.2514 145.959 60.2152C146.422 61.1735 146.653 62.3497 146.653 63.7436C146.653 65.1212 146.427 66.2919 145.975 67.2557C145.523 68.2195 144.908 68.9545 144.129 69.4609C143.351 69.9673 142.469 70.2205 141.483 70.2205C140.764 70.2205 140.168 70.1007 139.694 69.8612C139.221 69.6216 138.84 69.333 138.551 68.9954C138.268 68.6523 138.047 68.3284 137.889 68.0234H137.767V74.7045H134.81ZM137.71 63.7273C137.71 64.5386 137.824 65.2492 138.053 65.859C138.287 66.4689 138.622 66.9453 139.057 67.2884C139.498 67.6259 140.032 67.7947 140.658 67.7947C141.312 67.7947 141.859 67.6205 142.3 67.272C142.741 66.9181 143.073 66.4362 143.296 65.8263C143.525 65.2111 143.639 64.5114 143.639 63.7273C143.639 62.9486 143.528 62.2571 143.305 61.6527C143.081 61.0483 142.749 60.5746 142.308 60.2315C141.867 59.8885 141.317 59.717 140.658 59.717C140.027 59.717 139.49 59.883 139.049 60.2152C138.608 60.5473 138.273 61.0129 138.045 61.6119C137.821 62.2108 137.71 62.916 137.71 63.7273ZM151.185 70.2532C150.39 70.2532 149.674 70.1116 149.037 69.8285C148.406 69.5399 147.905 69.1152 147.534 68.5543C147.17 67.9935 146.987 67.302 146.987 66.4798C146.987 65.7719 147.118 65.1866 147.379 64.7237C147.641 64.2609 147.997 63.8906 148.449 63.6129C148.901 63.3352 149.41 63.1256 149.976 62.984C150.548 62.837 151.139 62.7308 151.749 62.6655C152.484 62.5893 153.08 62.5212 153.538 62.4613C153.995 62.396 154.327 62.2979 154.534 62.1673C154.746 62.0311 154.853 61.8215 154.853 61.5384V61.4893C154.853 60.8741 154.67 60.3976 154.305 60.06C153.94 59.7224 153.415 59.5536 152.729 59.5536C152.005 59.5536 151.43 59.7115 151.006 60.0273C150.586 60.3432 150.303 60.7161 150.156 61.1463L147.396 60.7543C147.613 59.992 147.973 59.3549 148.474 58.843C148.975 58.3258 149.587 57.9392 150.311 57.6832C151.036 57.4219 151.836 57.2912 152.713 57.2912C153.317 57.2912 153.919 57.362 154.518 57.5036C155.117 57.6451 155.664 57.8793 156.159 58.206C156.655 58.5272 157.052 58.9656 157.352 59.521C157.657 60.0763 157.809 60.7706 157.809 61.6037V70H154.967V68.2766H154.869C154.689 68.6251 154.436 68.9518 154.109 69.2567C153.788 69.5562 153.382 69.7985 152.892 69.9837C152.408 70.1634 151.839 70.2532 151.185 70.2532ZM151.953 68.0806C152.547 68.0806 153.061 67.9635 153.497 67.7294C153.932 67.4898 154.267 67.174 154.501 66.782C154.741 66.3899 154.861 65.9625 154.861 65.4996V64.0213C154.768 64.0975 154.61 64.1683 154.387 64.2337C154.169 64.299 153.924 64.3562 153.652 64.4052C153.38 64.4542 153.11 64.4978 152.843 64.5359C152.576 64.574 152.345 64.6067 152.149 64.6339C151.708 64.6938 151.313 64.7918 150.965 64.9279C150.616 65.064 150.341 65.2546 150.14 65.4996C149.938 65.7392 149.838 66.0496 149.838 66.4308C149.838 66.9753 150.036 67.3864 150.434 67.6641C150.831 67.9418 151.338 68.0806 151.953 68.0806ZM164.865 74.2635V53.2727H167.83V74.2635H164.865ZM164.865 70.245C163.945 70.245 163.104 70.0898 162.341 69.7795C161.579 69.4691 160.92 69.0281 160.365 68.4563C159.815 67.8846 159.387 67.204 159.082 66.4144C158.783 65.6194 158.633 64.7401 158.633 63.7763C158.633 62.8125 158.783 61.9331 159.082 61.1381C159.387 60.3432 159.815 59.6598 160.365 59.0881C160.92 58.5109 161.579 58.0671 162.341 57.7567C163.104 57.4464 163.945 57.2912 164.865 57.2912H165.494V70.245H164.865ZM164.865 67.8601H165.233V59.6761H164.865C164.342 59.6761 163.879 59.785 163.477 60.0028C163.079 60.2152 162.744 60.512 162.472 60.8931C162.205 61.2688 162.001 61.7044 161.859 62.1999C161.723 62.69 161.655 63.2154 161.655 63.7763C161.655 64.5223 161.778 65.2056 162.023 65.8263C162.268 66.4416 162.627 66.9344 163.101 67.3047C163.58 67.675 164.168 67.8601 164.865 67.8601ZM167.83 70.245H167.201V57.2912H167.83C168.75 57.2912 169.591 57.4464 170.354 57.7567C171.116 58.0671 171.772 58.5109 172.322 59.0881C172.877 59.6598 173.305 60.3432 173.604 61.1381C173.909 61.9331 174.062 62.8125 174.062 63.7763C174.062 64.7401 173.909 65.6194 173.604 66.4144C173.305 67.204 172.877 67.8846 172.322 68.4563C171.772 69.0281 171.116 69.4691 170.354 69.7795C169.591 70.0898 168.75 70.245 167.83 70.245ZM167.83 67.8601C168.358 67.8601 168.821 67.7539 169.218 67.5415C169.616 67.3292 169.948 67.0352 170.215 66.6594C170.487 66.2837 170.691 65.8509 170.827 65.3608C170.964 64.8653 171.032 64.3371 171.032 63.7763C171.032 63.0303 170.912 62.3469 170.672 61.7262C170.433 61.1055 170.073 60.61 169.594 60.2397C169.12 59.864 168.532 59.6761 167.83 59.6761H167.462V67.8601H167.83ZM177.797 65.9979L182.821 57.4545H185.859V70H183V61.4485L177.994 70H174.947V57.4545H177.797V65.9979ZM194.701 70V59.8558H192.022C191.342 59.8558 190.819 60.0137 190.454 60.3295C190.089 60.6454 189.91 61.0374 189.915 61.5057C189.91 61.974 190.081 62.3606 190.43 62.6655C190.778 62.9704 191.276 63.1229 191.924 63.1229H195.633V65.2791H191.924C190.923 65.2791 190.057 65.1212 189.327 64.8054C188.597 64.4896 188.037 64.0431 187.645 63.4659C187.253 62.8887 187.057 62.2135 187.057 61.4403C187.057 60.6345 187.255 59.9348 187.653 59.3413C188.056 58.7423 188.627 58.2795 189.368 57.9528C190.114 57.6206 190.999 57.4545 192.022 57.4545H197.47V70H194.701ZM186.599 70L190.103 63.5639H193.019L189.507 70H186.599Z" fill="white"/>
<path d="M325.915 53.2727V70H322.909V55.7884H315.591V70H312.585V53.2727H325.915ZM327.799 74.7045V57.4545H330.706V59.5291H330.878C331.03 59.2242 331.245 58.9002 331.523 58.5572C331.801 58.2087 332.177 57.9119 332.65 57.6669C333.124 57.4164 333.728 57.2912 334.463 57.2912C335.433 57.2912 336.307 57.5389 337.085 58.0344C337.869 58.5245 338.49 59.2514 338.947 60.2152C339.41 61.1735 339.642 62.3497 339.642 63.7436C339.642 65.1212 339.416 66.2919 338.964 67.2557C338.512 68.2195 337.897 68.9545 337.118 69.4609C336.339 69.9673 335.457 70.2205 334.472 70.2205C333.753 70.2205 333.157 70.1007 332.683 69.8612C332.209 69.6216 331.828 69.333 331.539 68.9954C331.256 68.6523 331.036 68.3284 330.878 68.0234H330.755V74.7045H327.799ZM330.698 63.7273C330.698 64.5386 330.813 65.2492 331.041 65.859C331.275 66.4689 331.61 66.9453 332.046 67.2884C332.487 67.6259 333.02 67.7947 333.647 67.7947C334.3 67.7947 334.847 67.6205 335.288 67.272C335.729 66.9181 336.062 66.4362 336.285 65.8263C336.514 65.2111 336.628 64.5114 336.628 63.7273C336.628 62.9486 336.516 62.2571 336.293 61.6527C336.07 61.0483 335.738 60.5746 335.297 60.2315C334.855 59.8885 334.306 59.717 333.647 59.717C333.015 59.717 332.479 59.883 332.038 60.2152C331.597 60.5473 331.262 61.0129 331.033 61.6119C330.81 62.2108 330.698 62.916 330.698 63.7273ZM346.036 70.245C344.811 70.245 343.749 69.9755 342.851 69.4364C341.952 68.8974 341.255 68.1432 340.76 67.174C340.27 66.2048 340.025 65.0722 340.025 63.7763C340.025 62.4804 340.27 61.3451 340.76 60.3704C341.255 59.3957 341.952 58.6388 342.851 58.0998C343.749 57.5607 344.811 57.2912 346.036 57.2912C347.261 57.2912 348.323 57.5607 349.221 58.0998C350.12 58.6388 350.814 59.3957 351.304 60.3704C351.8 61.3451 352.047 62.4804 352.047 63.7763C352.047 65.0722 351.8 66.2048 351.304 67.174C350.814 68.1432 350.12 68.8974 349.221 69.4364C348.323 69.9755 347.261 70.245 346.036 70.245ZM346.052 67.8764C346.717 67.8764 347.272 67.694 347.719 67.3292C348.165 66.9589 348.497 66.4634 348.715 65.8427C348.938 65.2219 349.05 64.5304 349.05 63.7681C349.05 63.0004 348.938 62.3061 348.715 61.6854C348.497 61.0592 348.165 60.561 347.719 60.1907C347.272 59.8204 346.717 59.6353 346.052 59.6353C345.372 59.6353 344.805 59.8204 344.353 60.1907C343.907 60.561 343.572 61.0592 343.349 61.6854C343.131 62.3061 343.022 63.0004 343.022 63.7681C343.022 64.5304 343.131 65.2219 343.349 65.8427C343.572 66.4634 343.907 66.9589 344.353 67.3292C344.805 67.694 345.372 67.8764 346.052 67.8764ZM361.245 57.4545V59.8803H355.838V70H352.947V57.4545H361.245ZM362.006 74.7045V57.4545H364.913V59.5291H365.085C365.237 59.2242 365.453 58.9002 365.73 58.5572C366.008 58.2087 366.384 57.9119 366.857 57.6669C367.331 57.4164 367.935 57.2912 368.671 57.2912C369.64 57.2912 370.514 57.5389 371.292 58.0344C372.076 58.5245 372.697 59.2514 373.155 60.2152C373.617 61.1735 373.849 62.3497 373.849 63.7436C373.849 65.1212 373.623 66.2919 373.171 67.2557C372.719 68.2195 372.104 68.9545 371.325 69.4609C370.546 69.9673 369.664 70.2205 368.679 70.2205C367.96 70.2205 367.364 70.1007 366.89 69.8612C366.416 69.6216 366.035 69.333 365.747 68.9954C365.463 68.6523 365.243 68.3284 365.085 68.0234H364.962V74.7045H362.006ZM364.905 63.7273C364.905 64.5386 365.02 65.2492 365.248 65.859C365.482 66.4689 365.817 66.9453 366.253 67.2884C366.694 67.6259 367.228 67.7947 367.854 67.7947C368.507 67.7947 369.054 67.6205 369.495 67.272C369.937 66.9181 370.269 66.4362 370.492 65.8263C370.721 65.2111 370.835 64.5114 370.835 63.7273C370.835 62.9486 370.723 62.2571 370.5 61.6527C370.277 61.0483 369.945 60.5746 369.504 60.2315C369.063 59.8885 368.513 59.717 367.854 59.717C367.222 59.717 366.686 59.883 366.245 60.2152C365.804 60.5473 365.469 61.0129 365.24 61.6119C365.017 62.2108 364.905 62.916 364.905 63.7273ZM378.381 70.2532C377.586 70.2532 376.87 70.1116 376.233 69.8285C375.601 69.5399 375.1 69.1152 374.73 68.5543C374.365 67.9935 374.183 67.302 374.183 66.4798C374.183 65.7719 374.313 65.1866 374.575 64.7237C374.836 64.2609 375.193 63.8906 375.645 63.6129C376.097 63.3352 376.606 63.1256 377.172 62.984C377.744 62.837 378.335 62.7308 378.944 62.6655C379.68 62.5893 380.276 62.5212 380.733 62.4613C381.191 62.396 381.523 62.2979 381.73 62.1673C381.942 62.0311 382.048 61.8215 382.048 61.5384V61.4893C382.048 60.8741 381.866 60.3976 381.501 60.06C381.136 59.7224 380.611 59.5536 379.925 59.5536C379.2 59.5536 378.626 59.7115 378.201 60.0273C377.782 60.3432 377.499 60.7161 377.352 61.1463L374.591 60.7543C374.809 59.992 375.168 59.3549 375.669 58.843C376.17 58.3258 376.783 57.9392 377.507 57.6832C378.231 57.4219 379.032 57.2912 379.908 57.2912C380.513 57.2912 381.114 57.362 381.713 57.5036C382.312 57.6451 382.859 57.8793 383.355 58.206C383.85 58.5272 384.248 58.9656 384.547 59.521C384.852 60.0763 385.005 60.7706 385.005 61.6037V70H382.162V68.2766H382.064C381.885 68.6251 381.632 68.9518 381.305 69.2567C380.984 69.5562 380.578 69.7985 380.088 69.9837C379.603 70.1634 379.034 70.2532 378.381 70.2532ZM379.149 68.0806C379.742 68.0806 380.257 67.9635 380.692 67.7294C381.128 67.4898 381.463 67.174 381.697 66.782C381.936 66.3899 382.056 65.9625 382.056 65.4996V64.0213C381.964 64.0975 381.806 64.1683 381.583 64.2337C381.365 64.299 381.12 64.3562 380.847 64.4052C380.575 64.4542 380.306 64.4978 380.039 64.5359C379.772 64.574 379.541 64.6067 379.345 64.6339C378.904 64.6938 378.509 64.7918 378.16 64.9279C377.812 65.064 377.537 65.2546 377.335 65.4996C377.134 65.7392 377.033 66.0496 377.033 66.4308C377.033 66.9753 377.232 67.3864 377.629 67.6641C378.027 67.9418 378.533 68.0806 379.149 68.0806ZM393.588 66.5614L397.312 57.4545H399.697L394.625 70H392.559L387.601 57.4545H389.962L393.588 66.5614ZM389.218 57.4545V70H386.368V57.4545H389.218ZM398.08 70V57.4545H400.906V70H398.08ZM405.128 65.9979L410.151 57.4545H413.189V70H410.331V61.4485L405.324 70H402.277V57.4545H405.128V65.9979ZM420.088 70.245C418.836 70.245 417.76 69.9701 416.862 69.4201C415.969 68.8701 415.28 68.1106 414.795 67.1413C414.316 66.1667 414.077 65.045 414.077 63.7763C414.077 62.5021 414.322 61.3777 414.812 60.4031C415.302 59.4229 415.993 58.6606 416.886 58.1161C417.785 57.5662 418.846 57.2912 420.072 57.2912C421.09 57.2912 421.991 57.479 422.775 57.8548C423.565 58.225 424.193 58.7505 424.662 59.4311C425.13 60.1063 425.397 60.8958 425.462 61.7997H422.636C422.522 61.1953 422.25 60.6916 421.819 60.2887C421.395 59.8803 420.826 59.6761 420.112 59.6761C419.508 59.6761 418.977 59.8395 418.52 60.1662C418.062 60.4875 417.706 60.9503 417.45 61.5547C417.199 62.1591 417.074 62.8833 417.074 63.7273C417.074 64.5821 417.199 65.3172 417.45 65.9325C417.7 66.5424 418.051 67.0134 418.503 67.3455C418.961 67.6722 419.497 67.8356 420.112 67.8356C420.548 67.8356 420.937 67.7539 421.28 67.5906C421.629 67.4218 421.92 67.1795 422.154 66.8636C422.388 66.5478 422.549 66.1639 422.636 65.712H425.462C425.391 66.5996 425.13 67.3864 424.678 68.0724C424.226 68.7531 423.611 69.2867 422.832 69.6733C422.054 70.0545 421.139 70.245 420.088 70.245ZM425.369 59.8803V57.4545H436.347V59.8803H432.287V70H429.429V59.8803H425.369ZM455.634 58.9165H452.58C452.493 58.4156 452.332 57.9718 452.098 57.5852C451.864 57.1932 451.572 56.861 451.224 56.5888C450.875 56.3165 450.478 56.1123 450.031 55.9762C449.59 55.8346 449.114 55.7638 448.602 55.7638C447.693 55.7638 446.887 55.9925 446.185 56.4499C445.482 56.9019 444.932 57.5662 444.535 58.4428C444.137 59.314 443.938 60.3786 443.938 61.6364C443.938 62.916 444.137 63.9941 444.535 64.8707C444.938 65.742 445.488 66.4008 446.185 66.8473C446.887 67.2884 447.69 67.5089 448.594 67.5089C449.095 67.5089 449.563 67.4435 449.999 67.3129C450.44 67.1767 450.835 66.978 451.183 66.7166C451.537 66.4553 451.834 66.134 452.073 65.7528C452.318 65.3717 452.487 64.9361 452.58 64.446L455.634 64.4624C455.52 65.2573 455.272 66.0033 454.891 66.7003C454.516 67.3973 454.023 68.0125 453.413 68.5462C452.803 69.0743 452.09 69.4882 451.273 69.7876C450.456 70.0817 449.55 70.2287 448.553 70.2287C447.083 70.2287 445.771 69.8884 444.616 69.2077C443.462 68.5271 442.553 67.5443 441.888 66.2592C441.224 64.9742 440.892 63.4332 440.892 61.6364C440.892 59.834 441.227 58.2931 441.897 57.0135C442.566 55.7285 443.478 54.7456 444.633 54.065C445.787 53.3844 447.094 53.044 448.553 53.044C449.484 53.044 450.35 53.1747 451.15 53.4361C451.951 53.6974 452.664 54.0813 453.29 54.5877C453.917 55.0887 454.431 55.704 454.834 56.4336C455.242 57.1578 455.509 57.9854 455.634 58.9165ZM461.602 67.321V56.017H464.167V67.321H461.602ZM457.232 62.9513V60.3867H468.536V62.9513H457.232ZM475.468 67.321V56.017H478.032V67.321H475.468ZM471.098 62.9513V60.3867H482.402V62.9513H471.098ZM487.871 67.7131L487.765 68.6115C487.689 69.2976 487.553 69.9946 487.357 70.7024C487.166 71.4157 486.965 72.0719 486.752 72.6708C486.54 73.2698 486.368 73.7408 486.238 74.0838H484.245C484.321 73.7517 484.424 73.2997 484.555 72.728C484.691 72.1563 484.822 71.5137 484.947 70.8004C485.072 70.0871 485.157 69.3629 485.2 68.6278L485.258 67.7131H487.871ZM497.214 70V67.8111L503.021 62.1183C503.577 61.5574 504.039 61.0592 504.41 60.6236C504.78 60.188 505.058 59.766 505.243 59.3576C505.428 58.9492 505.52 58.5136 505.52 58.0508C505.52 57.5226 505.401 57.0707 505.161 56.695C504.922 56.3138 504.592 56.0198 504.173 55.8129C503.754 55.6059 503.277 55.5025 502.743 55.5025C502.194 55.5025 501.712 55.6168 501.298 55.8455C500.884 56.0688 500.563 56.3873 500.334 56.8011C500.111 57.215 499.999 57.7077 499.999 58.2795H497.116C497.116 57.2177 497.358 56.2947 497.843 55.5107C498.328 54.7266 498.995 54.1194 499.844 53.6893C500.699 53.2591 501.679 53.044 502.784 53.044C503.906 53.044 504.892 53.2537 505.741 53.6729C506.59 54.0922 507.249 54.6667 507.718 55.3963C508.191 56.1259 508.428 56.959 508.428 57.8956C508.428 58.5218 508.308 59.1371 508.069 59.7415C507.829 60.3459 507.407 61.0156 506.803 61.7507C506.204 62.4858 505.363 63.3761 504.279 64.4215L501.396 67.3537V67.468H508.681V70H497.214ZM515.721 70H510.053V53.2727H515.835C517.496 53.2727 518.923 53.6076 520.115 54.2773C521.313 54.9416 522.233 55.8973 522.876 57.1442C523.518 58.3911 523.839 59.883 523.839 61.62C523.839 63.3625 523.515 64.8598 522.868 66.1122C522.225 67.3646 521.297 68.3256 520.082 68.9954C518.874 69.6651 517.42 70 515.721 70ZM513.083 67.3782H515.574C516.739 67.3782 517.711 67.1658 518.49 66.7411C519.268 66.311 519.854 65.6712 520.246 64.8217C520.638 63.9669 520.834 62.8996 520.834 61.62C520.834 60.3404 520.638 59.2786 520.246 58.4347C519.854 57.5852 519.274 56.9509 518.506 56.5316C517.744 56.1069 516.796 55.8945 515.664 55.8945H513.083V67.3782ZM529.976 70.245C528.833 70.245 527.85 70.0381 527.028 69.6243C526.206 69.2105 525.571 68.6523 525.125 67.9499C524.684 67.2421 524.463 66.4444 524.463 65.5568C524.463 64.8871 524.599 64.2936 524.872 63.7763C525.149 63.259 525.531 62.7798 526.015 62.3388C526.505 61.8977 527.071 61.4594 527.714 61.0238L530.679 59.0064C531.114 58.7232 531.444 58.4238 531.667 58.108C531.896 57.7921 532.01 57.4219 532.01 56.9972C532.01 56.6378 531.858 56.2975 531.553 55.9762C531.253 55.6549 530.839 55.4943 530.311 55.4943C529.957 55.4943 529.644 55.5787 529.372 55.7475C529.105 55.9109 528.896 56.1259 528.743 56.3928C528.596 56.6596 528.523 56.9427 528.523 57.2422C528.523 57.607 528.623 57.9773 528.825 58.353C529.032 58.7287 529.299 59.118 529.625 59.521C529.957 59.9239 530.311 60.3513 530.687 60.8033L538.536 70H535.334L528.817 62.5348C528.332 61.9685 527.864 61.4104 527.412 60.8604C526.965 60.3105 526.598 59.7388 526.309 59.1452C526.026 58.5463 525.884 57.8983 525.884 57.2013C525.884 56.4118 526.067 55.7067 526.432 55.0859C526.797 54.4598 527.306 53.967 527.959 53.6076C528.618 53.2482 529.388 53.0685 530.27 53.0685C531.153 53.0685 531.909 53.2428 532.541 53.5913C533.173 53.9397 533.66 54.4026 534.003 54.9798C534.346 55.5569 534.518 56.1858 534.518 56.8665C534.518 57.656 534.322 58.3639 533.93 58.9901C533.538 59.6108 532.993 60.1744 532.296 60.6808L528.915 63.1555C528.359 63.5585 527.962 63.9669 527.722 64.3807C527.483 64.7891 527.363 65.1375 527.363 65.4261C527.363 65.8672 527.474 66.2674 527.698 66.6268C527.921 66.9862 528.234 67.2747 528.637 67.4925C529.045 67.7049 529.522 67.8111 530.066 67.8111C530.665 67.8111 531.256 67.6777 531.839 67.4109C532.421 67.1386 532.952 66.752 533.431 66.2511C533.911 65.7501 534.292 65.1512 534.575 64.4542C534.858 63.7518 535 62.9731 535 62.1183H537.54C537.54 63.1746 537.423 64.0948 537.188 64.8789C536.954 65.6576 536.652 66.3164 536.282 66.8555C535.912 67.3891 535.52 67.8165 535.106 68.1378C534.975 68.2304 534.85 68.3229 534.73 68.4155C534.61 68.508 534.485 68.6006 534.354 68.6932C533.766 69.2268 533.077 69.6188 532.288 69.8693C531.504 70.1198 530.733 70.245 529.976 70.245ZM544.589 70.2287C543.413 70.2287 542.368 70.0272 541.453 69.6243C540.544 69.2214 539.825 68.6605 539.297 67.9418C538.769 67.223 538.488 66.3926 538.455 65.4506H541.527C541.554 65.9026 541.703 66.2973 541.976 66.6349C542.248 66.9671 542.61 67.2257 543.062 67.4109C543.514 67.596 544.02 67.6886 544.581 67.6886C545.18 67.6886 545.711 67.5851 546.174 67.3782C546.637 67.1658 546.999 66.8718 547.26 66.4961C547.522 66.1204 547.65 65.6875 547.644 65.1974C547.65 64.6911 547.519 64.2446 547.252 63.858C546.985 63.4714 546.599 63.1692 546.092 62.9513C545.591 62.7335 544.987 62.6246 544.279 62.6246H542.801V60.2887H544.279C544.862 60.2887 545.371 60.188 545.806 59.9865C546.247 59.785 546.593 59.5019 546.844 59.1371C547.094 58.7668 547.217 58.3394 547.211 57.8548C547.217 57.381 547.11 56.9699 546.893 56.6214C546.68 56.2675 546.378 55.9925 545.986 55.7965C545.599 55.6005 545.145 55.5025 544.622 55.5025C544.11 55.5025 543.636 55.5951 543.201 55.7802C542.765 55.9653 542.414 56.2294 542.147 56.5724C541.88 56.91 541.739 57.313 541.723 57.7812H538.807C538.828 56.8447 539.098 56.0225 539.615 55.3146C540.138 54.6013 540.835 54.0459 541.706 53.6484C542.577 53.2455 543.555 53.044 544.638 53.044C545.755 53.044 546.724 53.2537 547.546 53.6729C548.374 54.0868 549.013 54.6449 549.465 55.3473C549.917 56.0497 550.143 56.8256 550.143 57.6751C550.149 58.6171 549.871 59.4066 549.31 60.0437C548.755 60.6808 548.025 61.0973 547.121 61.2933V61.424C548.297 61.5874 549.199 62.023 549.825 62.7308C550.456 63.4332 550.77 64.3072 550.764 65.3526C550.764 66.2892 550.497 67.1277 549.964 67.8683C549.435 68.6033 548.706 69.1805 547.775 69.5998C546.849 70.0191 545.787 70.2287 544.589 70.2287ZM557.789 70H552.121V53.2727H557.904C559.564 53.2727 560.991 53.6076 562.183 54.2773C563.381 54.9416 564.302 55.8973 564.944 57.1442C565.587 58.3911 565.908 59.883 565.908 61.62C565.908 63.3625 565.584 64.8598 564.936 66.1122C564.293 67.3646 563.365 68.3256 562.151 68.9954C560.942 69.6651 559.488 70 557.789 70ZM555.151 67.3782H557.642C558.808 67.3782 559.779 67.1658 560.558 66.7411C561.337 66.311 561.922 65.6712 562.314 64.8217C562.706 63.9669 562.902 62.8996 562.902 61.62C562.902 60.3404 562.706 59.2786 562.314 58.4347C561.922 57.5852 561.342 56.9509 560.574 56.5316C559.812 56.1069 558.865 55.8945 557.732 55.8945H555.151V67.3782ZM570.031 73.6428V67.5661H571.027C571.294 67.3591 571.517 67.0787 571.697 66.7248C571.876 66.3654 572.023 65.9434 572.138 65.4588C572.258 64.9687 572.356 64.4215 572.432 63.8171C572.508 63.2073 572.576 62.5511 572.636 61.8487L572.995 57.4545H582.061V67.5661H584.005V73.6428H581.147V70H572.938V73.6428H570.031ZM574.065 67.5661H579.235V59.8395H575.56L575.364 61.8487C575.255 63.1773 575.111 64.3153 574.931 65.2628C574.751 66.2102 574.463 66.978 574.065 67.5661ZM587.453 65.9979L592.476 57.4545H595.515V70H592.656V61.4485L587.649 70H584.603V57.4545H587.453V65.9979ZM596.247 66.5614H599.179C599.206 67.0297 599.416 67.3918 599.808 67.6477C600.2 67.9036 600.709 68.0316 601.335 68.0316C601.972 68.0316 602.508 67.8928 602.944 67.6151C603.385 67.3319 603.606 66.9045 603.606 66.3327C603.606 65.9951 603.521 65.6984 603.352 65.4425C603.184 65.1811 602.947 64.9796 602.642 64.8381C602.337 64.6965 601.978 64.6257 601.564 64.6257H599.644V62.5266H601.564C602.179 62.5266 602.645 62.3851 602.96 62.1019C603.282 61.8188 603.442 61.4621 603.442 61.032C603.442 60.5691 603.274 60.1934 602.936 59.9048C602.604 59.6162 602.144 59.4719 601.556 59.4719C600.968 59.4719 600.477 59.6053 600.085 59.8722C599.699 60.139 599.497 60.482 599.481 60.9013H596.565C596.576 60.1716 596.794 59.5373 597.219 58.9982C597.649 58.4592 598.226 58.0399 598.95 57.7404C599.68 57.4409 600.502 57.2912 601.417 57.2912C602.397 57.2912 603.244 57.4382 603.957 57.7322C604.67 58.0263 605.22 58.4374 605.607 58.9656C605.993 59.4883 606.187 60.1036 606.187 60.8114C606.187 61.4921 605.974 62.0556 605.55 62.5021C605.125 62.9432 604.553 63.259 603.834 63.4496V63.5803C604.33 63.6075 604.776 63.7491 605.174 64.005C605.571 64.2554 605.887 64.5958 606.121 65.0259C606.355 65.4561 606.473 65.9543 606.473 66.5206C606.473 67.2884 606.252 67.9527 605.811 68.5135C605.37 69.0689 604.763 69.4963 603.99 69.7958C603.222 70.0953 602.342 70.245 601.351 70.245C600.388 70.245 599.525 70.1007 598.762 69.8121C598.005 69.5181 597.404 69.0961 596.957 68.5462C596.511 67.9962 596.274 67.3346 596.247 66.5614ZM610.8 70.2532C610.005 70.2532 609.289 70.1116 608.652 69.8285C608.021 69.5399 607.52 69.1152 607.149 68.5543C606.785 67.9935 606.602 67.302 606.602 66.4798C606.602 65.7719 606.733 65.1866 606.994 64.7237C607.256 64.2609 607.612 63.8906 608.064 63.6129C608.516 63.3352 609.025 63.1256 609.592 62.984C610.163 62.837 610.754 62.7308 611.364 62.6655C612.099 62.5893 612.695 62.5212 613.153 62.4613C613.61 62.396 613.942 62.2979 614.149 62.1673C614.361 62.0311 614.468 61.8215 614.468 61.5384V61.4893C614.468 60.8741 614.285 60.3976 613.92 60.06C613.556 59.7224 613.03 59.5536 612.344 59.5536C611.62 59.5536 611.045 59.7115 610.621 60.0273C610.201 60.3432 609.918 60.7161 609.771 61.1463L607.011 60.7543C607.228 59.992 607.588 59.3549 608.089 58.843C608.59 58.3258 609.202 57.9392 609.926 57.6832C610.651 57.4219 611.451 57.2912 612.328 57.2912C612.932 57.2912 613.534 57.362 614.133 57.5036C614.732 57.6451 615.279 57.8793 615.774 58.206C616.27 58.5272 616.667 58.9656 616.967 59.521C617.272 60.0763 617.424 60.7706 617.424 61.6037V70H614.582V68.2766H614.484C614.304 68.6251 614.051 68.9518 613.724 69.2567C613.403 69.5562 612.997 69.7985 612.507 69.9837C612.023 70.1634 611.454 70.2532 610.8 70.2532ZM611.568 68.0806C612.162 68.0806 612.676 67.9635 613.112 67.7294C613.547 67.4898 613.882 67.174 614.116 66.782C614.356 66.3899 614.476 65.9625 614.476 65.4996V64.0213C614.383 64.0975 614.225 64.1683 614.002 64.2337C613.784 64.299 613.539 64.3562 613.267 64.4052C612.995 64.4542 612.725 64.4978 612.458 64.5359C612.192 64.574 611.96 64.6067 611.764 64.6339C611.323 64.6938 610.928 64.7918 610.58 64.9279C610.231 65.064 609.956 65.2546 609.755 65.4996C609.553 65.7392 609.453 66.0496 609.453 66.4308C609.453 66.9753 609.651 67.3864 610.049 67.6641C610.446 67.9418 610.953 68.0806 611.568 68.0806ZM621.638 65.9979L626.661 57.4545H629.699V70H626.841V61.4485L621.834 70H618.787V57.4545H621.638V65.9979ZM625.852 53.142H628.066C628.066 54.0949 627.72 54.8681 627.028 55.4616C626.342 56.0497 625.411 56.3438 624.235 56.3438C623.07 56.3438 622.141 56.0497 621.45 55.4616C620.764 54.8681 620.424 54.0949 620.429 53.142H622.626C622.626 53.5341 622.746 53.8853 622.985 54.1957C623.23 54.5006 623.647 54.6531 624.235 54.6531C624.812 54.6531 625.223 54.5006 625.468 54.1957C625.719 53.8907 625.847 53.5395 625.852 53.142ZM639.742 62.5021V64.9279H633.061V62.5021H639.742ZM633.976 57.4545V70H631.126V57.4545H633.976ZM641.678 57.4545V70H638.836V57.4545H641.678ZM648.613 70.245C647.356 70.245 646.269 69.9837 645.355 69.4609C644.445 68.9328 643.746 68.1868 643.256 67.223C642.765 66.2538 642.52 65.113 642.52 63.8008C642.52 62.5103 642.765 61.3777 643.256 60.4031C643.751 59.4229 644.443 58.6606 645.33 58.1161C646.218 57.5662 647.26 57.2912 648.458 57.2912C649.231 57.2912 649.961 57.4164 650.647 57.6669C651.339 57.9119 651.949 58.2931 652.477 58.8104C653.01 59.3277 653.43 59.9865 653.735 60.7869C654.039 61.5819 654.192 62.5294 654.192 63.6293V64.5359H643.909V62.543H651.358C651.352 61.9767 651.23 61.473 650.99 61.032C650.751 60.5855 650.416 60.2343 649.986 59.9783C649.561 59.7224 649.065 59.5945 648.499 59.5945C647.895 59.5945 647.364 59.7415 646.906 60.0355C646.449 60.3241 646.092 60.7053 645.836 61.179C645.586 61.6473 645.458 62.1618 645.453 62.7227V64.4624C645.453 65.192 645.586 65.8182 645.853 66.3409C646.12 66.8582 646.493 67.2557 646.972 67.5334C647.451 67.8056 648.012 67.9418 648.654 67.9418C649.084 67.9418 649.474 67.8819 649.822 67.7621C650.171 67.6368 650.473 67.4544 650.729 67.2148C650.985 66.9753 651.178 66.6785 651.309 66.3246L654.069 66.6349C653.895 67.3646 653.563 68.0017 653.073 68.5462C652.588 69.0852 651.968 69.5045 651.211 69.804C650.454 70.098 649.588 70.245 648.613 70.245ZM655.083 74.7045V57.4545H657.991V59.5291H658.162C658.315 59.2242 658.53 58.9002 658.808 58.5572C659.085 58.2087 659.461 57.9119 659.935 57.6669C660.409 57.4164 661.013 57.2912 661.748 57.2912C662.717 57.2912 663.591 57.5389 664.37 58.0344C665.154 58.5245 665.775 59.2514 666.232 60.2152C666.695 61.1735 666.926 62.3497 666.926 63.7436C666.926 65.1212 666.7 66.2919 666.248 67.2557C665.796 68.2195 665.181 68.9545 664.403 69.4609C663.624 69.9673 662.742 70.2205 661.756 70.2205C661.037 70.2205 660.441 70.1007 659.968 69.8612C659.494 69.6216 659.113 69.333 658.824 68.9954C658.541 68.6523 658.32 68.3284 658.162 68.0234H658.04V74.7045H655.083ZM657.983 63.7273C657.983 64.5386 658.097 65.2492 658.326 65.859C658.56 66.4689 658.895 66.9453 659.33 67.2884C659.772 67.6259 660.305 67.7947 660.931 67.7947C661.585 67.7947 662.132 67.6205 662.573 67.272C663.014 66.9181 663.346 66.4362 663.569 65.8263C663.798 65.2111 663.912 64.5114 663.912 63.7273C663.912 62.9486 663.801 62.2571 663.578 61.6527C663.354 61.0483 663.022 60.5746 662.581 60.2315C662.14 59.8885 661.59 59.717 660.931 59.717C660.3 59.717 659.763 59.883 659.322 60.2152C658.881 60.5473 658.546 61.0129 658.318 61.6119C658.094 62.2108 657.983 62.916 657.983 63.7273ZM669.67 70.1797C669.174 70.1797 668.749 70.0054 668.396 69.657C668.042 69.3085 667.867 68.8838 667.873 68.3828C667.867 67.8928 668.042 67.4735 668.396 67.125C668.749 66.7765 669.174 66.6023 669.67 66.6023C670.149 66.6023 670.565 66.7765 670.919 67.125C671.279 67.4735 671.461 67.8928 671.467 68.3828C671.461 68.715 671.374 69.0172 671.205 69.2894C671.042 69.5617 670.824 69.7795 670.552 69.9428C670.285 70.1007 669.991 70.1797 669.67 70.1797Z" fill="white"/>
<path d="M71.9677 429.917H68.913C68.8259 429.416 68.6652 428.972 68.4311 428.585C68.197 428.193 67.9057 427.861 67.5572 427.589C67.2087 427.317 66.8112 427.112 66.3647 426.976C65.9237 426.835 65.4472 426.764 64.9354 426.764C64.026 426.764 63.2202 426.993 62.5178 427.45C61.8153 427.902 61.2654 428.566 60.8679 429.443C60.4704 430.314 60.2717 431.379 60.2717 432.636C60.2717 433.916 60.4704 434.994 60.8679 435.871C61.2708 436.742 61.8208 437.401 62.5178 437.847C63.2202 438.288 64.0233 438.509 64.9272 438.509C65.4281 438.509 65.8964 438.444 66.332 438.313C66.7731 438.177 67.1679 437.978 67.5163 437.717C67.8703 437.455 68.167 437.134 68.4066 436.753C68.6516 436.372 68.8204 435.936 68.913 435.446L71.9677 435.462C71.8533 436.257 71.6056 437.003 71.2244 437.7C70.8487 438.397 70.3559 439.013 69.7461 439.546C69.1362 440.074 68.4229 440.488 67.6062 440.788C66.7894 441.082 65.8828 441.229 64.8864 441.229C63.4162 441.229 62.1039 440.888 60.9496 440.208C59.7952 439.527 58.8859 438.544 58.2216 437.259C57.5573 435.974 57.2251 434.433 57.2251 432.636C57.2251 430.834 57.56 429.293 58.2298 428.013C58.8995 426.728 59.8116 425.746 60.9659 425.065C62.1203 424.384 63.4271 424.044 64.8864 424.044C65.8175 424.044 66.6832 424.175 67.4837 424.436C68.2841 424.697 68.9974 425.081 69.6236 425.588C70.2498 426.089 70.7643 426.704 71.1673 427.434C71.5756 428.158 71.8424 428.985 71.9677 429.917ZM73.002 441V428.455H78.2701C79.7566 428.455 80.93 428.751 81.7903 429.345C82.6561 429.938 83.089 430.766 83.089 431.828C83.089 432.53 82.8439 433.105 82.3539 433.551C81.8693 433.992 81.2077 434.289 80.3691 434.441C81.028 434.496 81.6052 434.662 82.1007 434.94C82.6016 435.217 82.9937 435.582 83.2768 436.034C83.56 436.486 83.7015 437.006 83.7015 437.594C83.7015 438.286 83.5191 438.887 83.1543 439.399C82.7949 439.906 82.2695 440.3 81.5779 440.583C80.8919 440.861 80.0588 441 79.0787 441H73.002ZM75.7708 438.672H79.0787C79.6232 438.672 80.0506 438.544 80.361 438.288C80.6713 438.027 80.8265 437.673 80.8265 437.227C80.8265 436.709 80.6713 436.304 80.361 436.01C80.0506 435.71 79.6232 435.56 79.0787 435.56H75.7708V438.672ZM75.7708 433.649H78.3272C78.7302 433.649 79.0759 433.592 79.3645 433.478C79.6531 433.358 79.8736 433.192 80.0261 432.979C80.1786 432.762 80.2548 432.503 80.2548 432.203C80.2548 431.773 80.0778 431.436 79.7239 431.191C79.3754 430.946 78.8908 430.823 78.2701 430.823H75.7708V433.649ZM91.9478 441V430.856H89.2688C88.5882 430.856 88.0655 431.014 87.7006 431.33C87.3358 431.645 87.1561 432.037 87.1616 432.506C87.1561 432.974 87.3276 433.361 87.6761 433.665C88.0246 433.97 88.5228 434.123 89.1708 434.123H92.8789V436.279H89.1708C88.1689 436.279 87.3031 436.121 86.5735 435.805C85.8439 435.49 85.283 435.043 84.891 434.466C84.4989 433.889 84.3029 433.214 84.3029 432.44C84.3029 431.634 84.5017 430.935 84.8991 430.341C85.3021 429.742 85.8738 429.279 86.6143 428.953C87.3603 428.621 88.2451 428.455 89.2688 428.455H94.7166V441H91.9478ZM83.8455 441L87.3494 434.564H90.2653L86.7532 441H83.8455ZM95.3895 437.561H98.3216C98.3489 438.03 98.5585 438.392 98.9505 438.648C99.3426 438.904 99.8517 439.032 100.478 439.032C101.115 439.032 101.651 438.893 102.087 438.615C102.528 438.332 102.748 437.904 102.748 437.333C102.748 436.995 102.664 436.698 102.495 436.442C102.326 436.181 102.09 435.98 101.785 435.838C101.48 435.696 101.12 435.626 100.707 435.626H98.7872V433.527H100.707C101.322 433.527 101.787 433.385 102.103 433.102C102.424 432.819 102.585 432.462 102.585 432.032C102.585 431.569 102.416 431.193 102.079 430.905C101.747 430.616 101.286 430.472 100.698 430.472C100.11 430.472 99.6203 430.605 99.2282 430.872C98.8416 431.139 98.6402 431.482 98.6238 431.901H95.708C95.7189 431.172 95.9367 430.537 96.3614 429.998C96.7916 429.459 97.3687 429.04 98.0929 428.74C98.8226 428.441 99.6448 428.291 100.56 428.291C101.54 428.291 102.386 428.438 103.1 428.732C103.813 429.026 104.363 429.437 104.75 429.966C105.136 430.488 105.329 431.104 105.329 431.811C105.329 432.492 105.117 433.056 104.692 433.502C104.268 433.943 103.696 434.259 102.977 434.45V434.58C103.473 434.607 103.919 434.749 104.317 435.005C104.714 435.255 105.03 435.596 105.264 436.026C105.498 436.456 105.615 436.954 105.615 437.521C105.615 438.288 105.395 438.953 104.954 439.513C104.513 440.069 103.906 440.496 103.132 440.796C102.365 441.095 101.485 441.245 100.494 441.245C99.5304 441.245 98.6674 441.101 97.9051 440.812C97.1482 440.518 96.5465 440.096 96.1 439.546C95.6535 438.996 95.4167 438.335 95.3895 437.561ZM109.943 441.253C109.148 441.253 108.432 441.112 107.795 440.828C107.163 440.54 106.663 440.115 106.292 439.554C105.927 438.993 105.745 438.302 105.745 437.48C105.745 436.772 105.876 436.187 106.137 435.724C106.398 435.261 106.755 434.891 107.207 434.613C107.659 434.335 108.168 434.126 108.734 433.984C109.306 433.837 109.897 433.731 110.507 433.665C111.242 433.589 111.838 433.521 112.295 433.461C112.753 433.396 113.085 433.298 113.292 433.167C113.504 433.031 113.61 432.821 113.61 432.538V432.489C113.61 431.874 113.428 431.398 113.063 431.06C112.698 430.722 112.173 430.554 111.487 430.554C110.763 430.554 110.188 430.712 109.763 431.027C109.344 431.343 109.061 431.716 108.914 432.146L106.153 431.754C106.371 430.992 106.731 430.355 107.232 429.843C107.732 429.326 108.345 428.939 109.069 428.683C109.793 428.422 110.594 428.291 111.471 428.291C112.075 428.291 112.677 428.362 113.276 428.504C113.875 428.645 114.422 428.879 114.917 429.206C115.413 429.527 115.81 429.966 116.11 430.521C116.415 431.076 116.567 431.771 116.567 432.604V441H113.725V439.277H113.627C113.447 439.625 113.194 439.952 112.867 440.257C112.546 440.556 112.14 440.799 111.65 440.984C111.166 441.163 110.597 441.253 109.943 441.253ZM110.711 439.081C111.304 439.081 111.819 438.964 112.255 438.729C112.69 438.49 113.025 438.174 113.259 437.782C113.499 437.39 113.619 436.962 113.619 436.5V435.021C113.526 435.098 113.368 435.168 113.145 435.234C112.927 435.299 112.682 435.356 112.41 435.405C112.138 435.454 111.868 435.498 111.601 435.536C111.334 435.574 111.103 435.607 110.907 435.634C110.466 435.694 110.071 435.792 109.723 435.928C109.374 436.064 109.099 436.255 108.898 436.5C108.696 436.739 108.596 437.05 108.596 437.431C108.596 437.975 108.794 438.386 109.192 438.664C109.589 438.942 110.096 439.081 110.711 439.081ZM116.525 430.88V428.455H127.503V430.88H123.443V441H120.585V430.88H116.525ZM130.248 432.538H133.948C135.549 432.538 136.787 432.928 137.664 433.706C138.541 434.485 138.982 435.506 138.987 436.769C138.982 437.591 138.78 438.321 138.383 438.958C137.991 439.595 137.419 440.096 136.668 440.461C135.922 440.82 135.015 441 133.948 441H128.247V428.455H131.097V438.574H133.948C134.59 438.574 135.119 438.411 135.532 438.084C135.946 437.752 136.153 437.327 136.153 436.81C136.153 436.266 135.946 435.822 135.532 435.479C135.119 435.136 134.59 434.964 133.948 434.964H130.248V432.538ZM145.384 441.245C144.131 441.245 143.056 440.97 142.157 440.42C141.264 439.87 140.576 439.111 140.091 438.141C139.612 437.167 139.372 436.045 139.372 434.776C139.372 433.502 139.617 432.378 140.107 431.403C140.597 430.423 141.289 429.661 142.182 429.116C143.08 428.566 144.142 428.291 145.367 428.291C146.385 428.291 147.287 428.479 148.071 428.855C148.86 429.225 149.489 429.75 149.957 430.431C150.426 431.106 150.693 431.896 150.758 432.8H147.932C147.818 432.195 147.545 431.692 147.115 431.289C146.69 430.88 146.121 430.676 145.408 430.676C144.804 430.676 144.273 430.839 143.815 431.166C143.358 431.487 143.001 431.95 142.745 432.555C142.495 433.159 142.37 433.883 142.37 434.727C142.37 435.582 142.495 436.317 142.745 436.933C142.996 437.542 143.347 438.013 143.799 438.346C144.256 438.672 144.793 438.836 145.408 438.836C145.844 438.836 146.233 438.754 146.576 438.591C146.925 438.422 147.216 438.179 147.45 437.864C147.684 437.548 147.845 437.164 147.932 436.712H150.758C150.687 437.6 150.426 438.386 149.974 439.072C149.522 439.753 148.907 440.287 148.128 440.673C147.349 441.054 146.434 441.245 145.384 441.245ZM158.992 441V430.856H156.313C155.632 430.856 155.11 431.014 154.745 431.33C154.38 431.645 154.2 432.037 154.206 432.506C154.2 432.974 154.372 433.361 154.72 433.665C155.069 433.97 155.567 434.123 156.215 434.123H159.923V436.279H156.215C155.213 436.279 154.347 436.121 153.618 435.805C152.888 435.49 152.327 435.043 151.935 434.466C151.543 433.889 151.347 433.214 151.347 432.44C151.347 431.634 151.546 430.935 151.943 430.341C152.346 429.742 152.918 429.279 153.658 428.953C154.404 428.621 155.289 428.455 156.313 428.455H161.761V441H158.992ZM150.89 441L154.394 434.564H157.309L153.797 441H150.89ZM172.695 441.245C171.443 441.245 170.367 440.97 169.469 440.42C168.576 439.87 167.887 439.111 167.403 438.141C166.923 437.167 166.684 436.045 166.684 434.776C166.684 433.502 166.929 432.378 167.419 431.403C167.909 430.423 168.6 429.661 169.493 429.116C170.392 428.566 171.454 428.291 172.679 428.291C173.697 428.291 174.598 428.479 175.382 428.855C176.172 429.225 176.801 429.75 177.269 430.431C177.737 431.106 178.004 431.896 178.069 432.8H175.243C175.129 432.195 174.857 431.692 174.427 431.289C174.002 430.88 173.433 430.676 172.72 430.676C172.115 430.676 171.584 430.839 171.127 431.166C170.67 431.487 170.313 431.95 170.057 432.555C169.807 433.159 169.681 433.883 169.681 434.727C169.681 435.582 169.807 436.317 170.057 436.933C170.308 437.542 170.659 438.013 171.111 438.346C171.568 438.672 172.104 438.836 172.72 438.836C173.155 438.836 173.545 438.754 173.888 438.591C174.236 438.422 174.527 438.179 174.762 437.864C174.996 437.548 175.156 437.164 175.243 436.712H178.069C177.999 437.6 177.737 438.386 177.285 439.072C176.833 439.753 176.218 440.287 175.44 440.673C174.661 441.054 173.746 441.245 172.695 441.245ZM184.36 441.245C183.134 441.245 182.073 440.975 181.174 440.436C180.276 439.897 179.579 439.143 179.083 438.174C178.593 437.205 178.348 436.072 178.348 434.776C178.348 433.48 178.593 432.345 179.083 431.37C179.579 430.396 180.276 429.639 181.174 429.1C182.073 428.561 183.134 428.291 184.36 428.291C185.585 428.291 186.647 428.561 187.545 429.1C188.443 429.639 189.138 430.396 189.628 431.37C190.123 432.345 190.371 433.48 190.371 434.776C190.371 436.072 190.123 437.205 189.628 438.174C189.138 439.143 188.443 439.897 187.545 440.436C186.647 440.975 185.585 441.245 184.36 441.245ZM184.376 438.876C185.04 438.876 185.596 438.694 186.042 438.329C186.489 437.959 186.821 437.463 187.039 436.843C187.262 436.222 187.373 435.53 187.373 434.768C187.373 434 187.262 433.306 187.039 432.685C186.821 432.059 186.489 431.561 186.042 431.191C185.596 430.82 185.04 430.635 184.376 430.635C183.695 430.635 183.129 430.82 182.677 431.191C182.231 431.561 181.896 432.059 181.672 432.685C181.455 433.306 181.346 434 181.346 434.768C181.346 435.53 181.455 436.222 181.672 436.843C181.896 437.463 182.231 437.959 182.677 438.329C183.129 438.694 183.695 438.876 184.376 438.876ZM202.586 437.561L206.31 428.455H208.695L203.623 441H201.557L196.599 428.455H198.959L202.586 437.561ZM198.216 428.455V441H195.366V428.455H198.216ZM207.078 441V428.455H209.904V441H207.078ZM219.892 433.502V435.928H213.211V433.502H219.892ZM214.126 428.455V441H211.275V428.455H214.126ZM221.828 428.455V441H218.985V428.455H221.828ZM228.681 441.245C227.456 441.245 226.394 440.975 225.496 440.436C224.598 439.897 223.901 439.143 223.405 438.174C222.915 437.205 222.67 436.072 222.67 434.776C222.67 433.48 222.915 432.345 223.405 431.37C223.901 430.396 224.598 429.639 225.496 429.1C226.394 428.561 227.456 428.291 228.681 428.291C229.906 428.291 230.968 428.561 231.867 429.1C232.765 429.639 233.459 430.396 233.949 431.37C234.445 432.345 234.693 433.48 234.693 434.776C234.693 436.072 234.445 437.205 233.949 438.174C233.459 439.143 232.765 439.897 231.867 440.436C230.968 440.975 229.906 441.245 228.681 441.245ZM228.698 438.876C229.362 438.876 229.917 438.694 230.364 438.329C230.81 437.959 231.143 437.463 231.36 436.843C231.584 436.222 231.695 435.53 231.695 434.768C231.695 434 231.584 433.306 231.36 432.685C231.143 432.059 230.81 431.561 230.364 431.191C229.917 430.82 229.362 430.635 228.698 430.635C228.017 430.635 227.451 430.82 226.999 431.191C226.552 431.561 226.217 432.059 225.994 432.685C225.776 433.306 225.667 434 225.667 434.768C225.667 435.53 225.776 436.222 225.994 436.843C226.217 437.463 226.552 437.959 226.999 438.329C227.451 438.694 228.017 438.876 228.698 438.876ZM238.443 436.998L243.466 428.455H246.504V441H243.645V432.449L238.639 441H235.592V428.455H238.443V436.998ZM242.657 424.142H244.871C244.871 425.095 244.525 425.868 243.833 426.462C243.147 427.05 242.216 427.344 241.04 427.344C239.875 427.344 238.946 427.05 238.255 426.462C237.569 425.868 237.228 425.095 237.234 424.142H239.431C239.431 424.534 239.551 424.885 239.79 425.196C240.035 425.501 240.452 425.653 241.04 425.653C241.617 425.653 242.028 425.501 242.273 425.196C242.524 424.891 242.652 424.54 242.657 424.142Z" fill="white" fill-opacity="0.5"/>
<rect x="278" y="408" width="184" height="51" rx="25.5" fill="white"/>
<path d="M324.394 450.319C322.082 450.319 320.027 450.003 318.229 449.372C316.438 448.748 314.926 447.827 313.693 446.609C312.46 445.398 311.525 443.919 310.886 442.173C310.248 440.426 309.925 438.43 309.917 436.184C309.925 433.99 310.251 432.012 310.897 430.25C311.543 428.482 312.486 426.97 313.726 425.715C314.967 424.453 316.482 423.484 318.273 422.809C320.064 422.133 322.1 421.796 324.383 421.796C326.533 421.796 328.437 422.122 330.096 422.776C331.762 423.429 333.167 424.339 334.312 425.506C335.464 426.665 336.334 428.023 336.921 429.579C337.516 431.127 337.813 432.808 337.813 434.621C337.813 435.876 337.718 437.065 337.527 438.188C337.336 439.303 337.009 440.294 336.547 441.16C336.092 442.026 335.472 442.716 334.687 443.229C333.901 443.736 332.918 444.011 331.736 444.055C330.995 444.092 330.346 444.022 329.788 443.846C329.23 443.67 328.779 443.395 328.434 443.02C328.096 442.639 327.883 442.173 327.795 441.622H327.663C327.494 442.062 327.175 442.466 326.705 442.833C326.243 443.193 325.671 443.475 324.988 443.681C324.305 443.879 323.546 443.96 322.709 443.923C321.814 443.879 320.985 443.673 320.221 443.306C319.465 442.932 318.805 442.411 318.24 441.743C317.682 441.068 317.249 440.253 316.941 439.299C316.633 438.345 316.478 437.263 316.478 436.052C316.478 434.87 316.647 433.828 316.985 432.925C317.322 432.023 317.774 431.252 318.339 430.614C318.911 429.975 319.557 429.476 320.276 429.116C320.996 428.75 321.737 428.515 322.5 428.412C323.293 428.302 324.038 428.313 324.735 428.445C325.432 428.577 326.012 428.779 326.474 429.05C326.944 429.322 327.237 429.619 327.355 429.942H327.509V428.709H330.58V439.189C330.588 439.74 330.72 440.184 330.977 440.521C331.241 440.859 331.608 441.028 332.078 441.028C332.665 441.028 333.138 440.797 333.498 440.334C333.865 439.864 334.129 439.145 334.29 438.176C334.459 437.2 334.54 435.953 334.532 434.434C334.54 433.186 334.375 432.056 334.037 431.043C333.707 430.023 333.237 429.127 332.628 428.357C332.019 427.586 331.289 426.944 330.437 426.43C329.593 425.909 328.654 425.517 327.619 425.252C326.584 424.988 325.48 424.856 324.305 424.856C322.507 424.856 320.926 425.131 319.561 425.682C318.196 426.225 317.051 426.999 316.126 428.005C315.209 429.01 314.515 430.203 314.046 431.582C313.583 432.955 313.352 434.474 313.352 436.14C313.352 437.923 313.594 439.505 314.079 440.885C314.57 442.257 315.29 443.413 316.236 444.352C317.183 445.292 318.354 446.004 319.748 446.488C321.15 446.972 322.761 447.214 324.581 447.214C325.417 447.214 326.236 447.148 327.036 447.016C327.836 446.884 328.555 446.73 329.193 446.554C329.832 446.378 330.323 446.224 330.668 446.092L331.604 448.888C331.149 449.123 330.533 449.35 329.755 449.57C328.984 449.79 328.133 449.97 327.201 450.11C326.276 450.249 325.34 450.319 324.394 450.319ZM323.623 440.763C324.555 440.763 325.3 440.584 325.858 440.224C326.415 439.857 326.815 439.314 327.058 438.595C327.3 437.876 327.417 436.98 327.41 435.909C327.41 434.911 327.285 434.092 327.036 433.454C326.786 432.815 326.386 432.342 325.836 432.034C325.285 431.725 324.555 431.571 323.645 431.571C322.823 431.571 322.122 431.759 321.542 432.133C320.97 432.507 320.53 433.025 320.221 433.685C319.92 434.338 319.77 435.083 319.77 435.92C319.77 436.756 319.891 437.545 320.133 438.287C320.383 439.02 320.786 439.619 321.344 440.081C321.909 440.536 322.669 440.763 323.623 440.763ZM339.025 444V427.091H343.01V444H339.025ZM341.029 424.691C340.398 424.691 339.855 424.482 339.4 424.064C338.945 423.638 338.717 423.128 338.717 422.533C338.717 421.932 338.945 421.422 339.4 421.003C339.855 420.578 340.398 420.365 341.029 420.365C341.667 420.365 342.21 420.578 342.658 421.003C343.113 421.422 343.341 421.932 343.341 422.533C343.341 423.128 343.113 423.638 342.658 424.064C342.21 424.482 341.667 424.691 341.029 424.691ZM348.923 421.455V444H344.938V421.455H348.923ZM361.629 436.888V427.091H365.614V444H361.75V440.995H361.574C361.192 441.941 360.565 442.716 359.691 443.317C358.825 443.919 357.757 444.22 356.488 444.22C355.38 444.22 354.4 443.974 353.548 443.483C352.704 442.984 352.044 442.261 351.567 441.314C351.09 440.36 350.851 439.208 350.851 437.857V427.091H354.836V437.241C354.836 438.312 355.13 439.164 355.717 439.795C356.304 440.426 357.075 440.741 358.029 440.741C358.616 440.741 359.185 440.598 359.735 440.312C360.286 440.026 360.737 439.6 361.089 439.035C361.449 438.463 361.629 437.747 361.629 436.888ZM380.906 431.56L377.273 431.957C377.17 431.59 376.991 431.245 376.734 430.922C376.484 430.599 376.147 430.338 375.721 430.14C375.295 429.942 374.774 429.843 374.158 429.843C373.329 429.843 372.631 430.023 372.066 430.382C371.508 430.742 371.233 431.208 371.241 431.781C371.233 432.272 371.413 432.672 371.78 432.98C372.154 433.289 372.771 433.542 373.629 433.74L376.514 434.357C378.114 434.701 379.302 435.248 380.08 435.997C380.866 436.745 381.262 437.725 381.269 438.936C381.262 440 380.95 440.94 380.334 441.754C379.724 442.562 378.877 443.193 377.791 443.648C376.704 444.103 375.457 444.33 374.048 444.33C371.978 444.33 370.312 443.897 369.05 443.031C367.788 442.158 367.035 440.943 366.793 439.387L370.679 439.013C370.855 439.776 371.23 440.353 371.802 440.741C372.374 441.13 373.119 441.325 374.037 441.325C374.983 441.325 375.743 441.13 376.315 440.741C376.895 440.353 377.185 439.872 377.185 439.299C377.185 438.815 376.998 438.415 376.624 438.099C376.257 437.784 375.684 437.542 374.906 437.373L372.022 436.767C370.4 436.43 369.2 435.861 368.422 435.061C367.644 434.254 367.259 433.234 367.266 432.001C367.259 430.959 367.542 430.056 368.114 429.293C368.694 428.522 369.498 427.928 370.525 427.509C371.56 427.084 372.752 426.871 374.103 426.871C376.084 426.871 377.644 427.293 378.781 428.137C379.926 428.981 380.634 430.122 380.906 431.56ZM386.37 434.092V444H382.385V421.455H386.282V429.964H386.481C386.877 429.01 387.49 428.258 388.319 427.707C389.156 427.15 390.22 426.871 391.511 426.871C392.686 426.871 393.709 427.117 394.583 427.608C395.456 428.1 396.131 428.819 396.608 429.766C397.093 430.713 397.335 431.869 397.335 433.234V444H393.35V433.85C393.35 432.713 393.056 431.828 392.469 431.197C391.889 430.559 391.075 430.239 390.025 430.239C389.321 430.239 388.69 430.393 388.132 430.702C387.581 431.003 387.148 431.439 386.833 432.012C386.525 432.584 386.37 433.278 386.37 434.092ZM403.212 434.092V444H399.227V421.455H403.124V429.964H403.322C403.719 429.01 404.331 428.258 405.161 427.707C405.997 427.15 407.061 426.871 408.353 426.871C409.527 426.871 410.551 427.117 411.425 427.608C412.298 428.1 412.973 428.819 413.45 429.766C413.934 430.713 414.177 431.869 414.177 433.234V444H410.192V433.85C410.192 432.713 409.898 431.828 409.311 431.197C408.731 430.559 407.916 430.239 406.867 430.239C406.162 430.239 405.531 430.393 404.974 430.702C404.423 431.003 403.99 431.439 403.675 432.012C403.366 432.584 403.212 433.278 403.212 434.092ZM420.935 444.341C419.863 444.341 418.898 444.15 418.039 443.769C417.188 443.38 416.513 442.807 416.014 442.051C415.522 441.296 415.276 440.364 415.276 439.255C415.276 438.301 415.452 437.512 415.805 436.888C416.157 436.265 416.638 435.766 417.247 435.391C417.856 435.017 418.542 434.734 419.305 434.544C420.076 434.346 420.872 434.202 421.694 434.114C422.685 434.012 423.489 433.92 424.105 433.839C424.721 433.751 425.169 433.619 425.448 433.443C425.734 433.259 425.877 432.977 425.877 432.595V432.529C425.877 431.7 425.632 431.058 425.14 430.603C424.648 430.148 423.94 429.92 423.015 429.92C422.039 429.92 421.265 430.133 420.692 430.559C420.127 430.984 419.746 431.487 419.547 432.067L415.827 431.538C416.12 430.511 416.605 429.652 417.28 428.962C417.955 428.265 418.781 427.744 419.757 427.399C420.733 427.047 421.812 426.871 422.993 426.871C423.808 426.871 424.619 426.966 425.426 427.157C426.233 427.348 426.971 427.663 427.639 428.104C428.307 428.537 428.842 429.127 429.246 429.876C429.657 430.625 429.862 431.56 429.862 432.683V444H426.032V441.677H425.899C425.657 442.147 425.316 442.587 424.876 442.998C424.443 443.402 423.896 443.728 423.235 443.978C422.582 444.22 421.815 444.341 420.935 444.341ZM421.969 441.413C422.769 441.413 423.463 441.255 424.05 440.94C424.637 440.617 425.088 440.191 425.404 439.663C425.727 439.134 425.888 438.558 425.888 437.934V435.942C425.764 436.045 425.551 436.14 425.25 436.228C424.956 436.316 424.626 436.393 424.259 436.459C423.892 436.525 423.529 436.584 423.169 436.635C422.81 436.687 422.498 436.731 422.234 436.767C421.639 436.848 421.107 436.98 420.637 437.164C420.168 437.347 419.797 437.604 419.525 437.934C419.254 438.257 419.118 438.676 419.118 439.189C419.118 439.923 419.386 440.477 419.922 440.852C420.458 441.226 421.14 441.413 421.969 441.413Z" fill="black"/>
<defs>
<linearGradient id="paint0_linear_0_1" x1="364" y1="0" x2="364" y2="502" gradientUnits="userSpaceOnUse">
<stop stop-color="#FF6000"/>
<stop offset="1" stop-color="#6000FF" stop-opacity="0"/>
</linearGradient>
<linearGradient id="paint1_linear_0_1" x1="364" y1="0" x2="364" y2="502" gradientUnits="userSpaceOnUse">
<stop stop-color="white"/>
<stop offset="1" stop-color="white" stop-opacity="0.2"/>
</linearGradient>
</defs>
</svg>
