<svg width="282" height="146" viewBox="0 0 282 146" fill="none" xmlns="http://www.w3.org/2000/svg">
<path d="M1.91761 65.5455H4.52557V78.3636H4.6875L13.5682 65.5455H16.0057V83H13.3722V70.1989H13.2102L4.34659 83H1.91761V65.5455ZM25.3093 79.8466L29.5366 69.9091H31.7355L26.2554 83H24.3633L18.994 69.9091H21.1673L25.3093 79.8466ZM20.4599 69.9091V83H17.9628V69.9091H20.4599ZM30.227 83V69.9091H32.7071V83H30.227ZM42.2302 83V72.0824H39.0938C38.3495 72.0824 37.77 72.2557 37.3552 72.6023C36.9404 72.9489 36.733 73.4034 36.733 73.9659C36.733 74.5227 36.9234 74.9716 37.3041 75.3125C37.6904 75.6477 38.2302 75.8153 38.9234 75.8153H42.9717V77.8778H38.9234C37.9575 77.8778 37.1222 77.7187 36.4177 77.4006C35.7188 77.0767 35.1791 76.6193 34.7984 76.0284C34.4234 75.4375 34.2359 74.7386 34.2359 73.9318C34.2359 73.108 34.4291 72.3977 34.8154 71.8011C35.2075 71.1989 35.7671 70.733 36.4944 70.4034C37.2274 70.0739 38.0938 69.9091 39.0938 69.9091H44.6251V83H42.2302ZM33.6393 83L37.3296 76.3864H39.9376L36.2472 83H33.6393ZM58.7218 73.1648V75.3807H50.9831V73.1648H58.7218ZM65.3142 65.5455H67.9221V78.3636H68.0841L76.9647 65.5455H79.4022V83H76.7687V70.1989H76.6068L67.7432 83H65.3142V65.5455ZM80.3281 83L80.3195 80.7926H80.7883C81.1519 80.7926 81.4559 80.7159 81.7002 80.5625C81.9502 80.4034 82.1548 80.1364 82.3139 79.7614C82.473 79.3864 82.5951 78.8693 82.6803 78.2102C82.7656 77.5455 82.8281 76.7102 82.8678 75.7045L83.098 69.9091H92.2343V83H89.7372V72.108H85.4587L85.2542 76.5568C85.2031 77.6364 85.0923 78.5795 84.9218 79.3864C84.757 80.1932 84.5156 80.8665 84.1974 81.4062C83.8792 81.9403 83.4701 82.3409 82.9701 82.608C82.4701 82.8693 81.8622 83 81.1462 83H80.3281ZM95.8704 74.4091H99.6715C101.274 74.4091 102.507 74.8068 103.37 75.6023C104.234 76.3977 104.666 77.4233 104.666 78.679C104.666 79.4972 104.473 80.233 104.086 80.8864C103.7 81.5398 103.135 82.0568 102.39 82.4375C101.646 82.8125 100.74 83 99.6715 83H93.9528V69.9091H96.4499V80.8011H99.6715C100.404 80.8011 101.007 80.6108 101.478 80.2301C101.95 79.8438 102.186 79.3523 102.186 78.7557C102.186 78.125 101.95 77.6108 101.478 77.2131C101.007 76.8097 100.404 76.608 99.6715 76.608H95.8704V74.4091ZM113.65 83V72.0824H110.514C109.769 72.0824 109.19 72.2557 108.775 72.6023C108.36 72.9489 108.153 73.4034 108.153 73.9659C108.153 74.5227 108.343 74.9716 108.724 75.3125C109.11 75.6477 109.65 75.8153 110.343 75.8153H114.391V77.8778H110.343C109.377 77.8778 108.542 77.7187 107.837 77.4006C107.139 77.0767 106.599 76.6193 106.218 76.0284C105.843 75.4375 105.656 74.7386 105.656 73.9318C105.656 73.108 105.849 72.3977 106.235 71.8011C106.627 71.1989 107.187 70.733 107.914 70.4034C108.647 70.0739 109.514 69.9091 110.514 69.9091H116.045V83H113.65ZM105.059 83L108.749 76.3864H111.357L107.667 83H105.059ZM1.91761 112V94.5455H8.30966C9.5483 94.5455 10.5739 94.75 11.3864 95.1591C12.1989 95.5625 12.8068 96.1108 13.2102 96.804C13.6136 97.4915 13.8153 98.267 13.8153 99.1307C13.8153 99.858 13.6818 100.472 13.4148 100.972C13.1477 101.466 12.7898 101.864 12.3409 102.165C11.8977 102.46 11.4091 102.676 10.875 102.812V102.983C11.4545 103.011 12.0199 103.199 12.571 103.545C13.1278 103.886 13.5881 104.372 13.9517 105.003C14.3153 105.634 14.4972 106.401 14.4972 107.304C14.4972 108.196 14.2869 108.997 13.8665 109.707C13.4517 110.412 12.8097 110.972 11.9403 111.386C11.071 111.795 9.96023 112 8.60795 112H1.91761ZM4.55114 109.741H8.35227C9.61364 109.741 10.517 109.497 11.0625 109.009C11.608 108.52 11.8807 107.909 11.8807 107.176C11.8807 106.625 11.7415 106.119 11.4631 105.659C11.1847 105.199 10.7869 104.832 10.2699 104.56C9.75852 104.287 9.15057 104.151 8.44602 104.151H4.55114V109.741ZM4.55114 102.097H8.07955C8.67045 102.097 9.2017 101.983 9.6733 101.756C10.1506 101.528 10.5284 101.21 10.8068 100.801C11.0909 100.386 11.233 99.8977 11.233 99.3352C11.233 98.6136 10.9801 98.0085 10.4744 97.5199C9.96875 97.0312 9.19318 96.7869 8.14773 96.7869H4.55114V102.097ZM21.2504 112.264C20.0231 112.264 18.9521 111.983 18.0373 111.42C17.1226 110.858 16.4123 110.071 15.9066 109.06C15.401 108.048 15.1481 106.866 15.1481 105.514C15.1481 104.156 15.401 102.969 15.9066 101.952C16.4123 100.935 17.1226 100.145 18.0373 99.5824C18.9521 99.0199 20.0231 98.7386 21.2504 98.7386C22.4777 98.7386 23.5487 99.0199 24.4635 99.5824C25.3782 100.145 26.0885 100.935 26.5941 101.952C27.0998 102.969 27.3527 104.156 27.3527 105.514C27.3527 106.866 27.0998 108.048 26.5941 109.06C26.0885 110.071 25.3782 110.858 24.4635 111.42C23.5487 111.983 22.4777 112.264 21.2504 112.264ZM21.2589 110.125C22.0544 110.125 22.7135 109.915 23.2362 109.494C23.7589 109.074 24.1453 108.514 24.3953 107.815C24.651 107.116 24.7788 106.347 24.7788 105.506C24.7788 104.67 24.651 103.903 24.3953 103.205C24.1453 102.5 23.7589 101.935 23.2362 101.509C22.7135 101.082 22.0544 100.869 21.2589 100.869C20.4578 100.869 19.793 101.082 19.2646 101.509C18.7419 101.935 18.3527 102.5 18.097 103.205C17.847 103.903 17.722 104.67 17.722 105.506C17.722 106.347 17.847 107.116 18.097 107.815C18.3527 108.514 18.7419 109.074 19.2646 109.494C19.793 109.915 20.4578 110.125 21.2589 110.125ZM27.7416 108.54H30.3495C30.3836 109.074 30.6251 109.486 31.0739 109.776C31.5285 110.065 32.1166 110.21 32.8382 110.21C33.5711 110.21 34.1961 110.054 34.7132 109.741C35.2302 109.423 35.4887 108.932 35.4887 108.267C35.4887 107.869 35.3893 107.523 35.1904 107.227C34.9972 106.926 34.7217 106.693 34.3637 106.528C34.0114 106.364 33.5938 106.281 33.1109 106.281H30.9802V104.278H33.1109C33.8325 104.278 34.3722 104.114 34.7302 103.784C35.0882 103.455 35.2671 103.043 35.2671 102.548C35.2671 102.014 35.0739 101.585 34.6876 101.261C34.3069 100.932 33.7757 100.767 33.0938 100.767C32.4007 100.767 31.8239 100.923 31.3637 101.236C30.9035 101.543 30.662 101.94 30.6393 102.429H28.0654C28.0825 101.696 28.3041 101.054 28.7302 100.503C29.162 99.946 29.7416 99.5142 30.4688 99.2074C31.2018 98.8949 32.0342 98.7386 32.966 98.7386C33.9376 98.7386 34.7785 98.8949 35.4887 99.2074C36.1989 99.5199 36.7472 99.9517 37.1336 100.503C37.5257 101.054 37.7217 101.687 37.7217 102.403C37.7217 103.125 37.5058 103.716 37.0739 104.176C36.6478 104.631 36.091 104.957 35.4035 105.156V105.293C35.9092 105.327 36.358 105.48 36.7501 105.753C37.1421 106.026 37.4489 106.386 37.6705 106.835C37.8921 107.284 38.0029 107.793 38.0029 108.361C38.0029 109.162 37.7813 109.855 37.3382 110.44C36.9007 111.026 36.2927 111.477 35.5143 111.795C34.7416 112.108 33.858 112.264 32.8637 112.264C31.8978 112.264 31.0313 112.114 30.2643 111.812C29.5029 111.506 28.8978 111.074 28.4489 110.517C28.0058 109.96 27.77 109.301 27.7416 108.54ZM38.9543 116.909V98.9091H41.443V101.031H41.656C41.8037 100.759 42.0168 100.443 42.2952 100.085C42.5736 99.7273 42.96 99.4148 43.4543 99.1477C43.9486 98.875 44.602 98.7386 45.4145 98.7386C46.4714 98.7386 47.4145 99.0057 48.2441 99.5398C49.0736 100.074 49.7242 100.844 50.1958 101.849C50.6731 102.855 50.9117 104.065 50.9117 105.48C50.9117 106.895 50.6759 108.108 50.2043 109.119C49.7327 110.125 49.085 110.901 48.2611 111.446C47.4373 111.986 46.4969 112.256 45.4401 112.256C44.6447 112.256 43.9941 112.122 43.4884 111.855C42.9884 111.588 42.5964 111.276 42.3123 110.918C42.0282 110.56 41.8094 110.241 41.656 109.963H41.5026V116.909H38.9543ZM41.4515 105.455C41.4515 106.375 41.585 107.182 41.852 107.875C42.1191 108.568 42.5055 109.111 43.0111 109.503C43.5168 109.889 44.1361 110.082 44.8691 110.082C45.6305 110.082 46.2668 109.881 46.7782 109.477C47.2895 109.068 47.6759 108.514 47.9373 107.815C48.2043 107.116 48.3378 106.33 48.3378 105.455C48.3378 104.591 48.2072 103.815 47.9458 103.128C47.6901 102.44 47.3037 101.898 46.7867 101.5C46.2753 101.102 45.6361 100.903 44.8691 100.903C44.1305 100.903 43.5055 101.094 42.9941 101.474C42.4884 101.855 42.1049 102.386 41.8435 103.068C41.5822 103.75 41.4515 104.545 41.4515 105.455ZM55.8965 112.29C55.0669 112.29 54.3169 112.136 53.6465 111.83C52.976 111.517 52.4448 111.065 52.0527 110.474C51.6664 109.884 51.4732 109.159 51.4732 108.301C51.4732 107.562 51.6152 106.955 51.8993 106.477C52.1834 106 52.5669 105.622 53.0499 105.344C53.5328 105.065 54.0726 104.855 54.6692 104.713C55.2658 104.571 55.8737 104.463 56.4931 104.389C57.2772 104.298 57.9135 104.224 58.4022 104.168C58.8908 104.105 59.2459 104.006 59.4675 103.869C59.6891 103.733 59.7999 103.511 59.7999 103.205V103.145C59.7999 102.401 59.5897 101.824 59.1692 101.415C58.7544 101.006 58.1351 100.801 57.3112 100.801C56.4533 100.801 55.7772 100.991 55.2828 101.372C54.7942 101.747 54.4561 102.165 54.2686 102.625L51.8737 102.08C52.1578 101.284 52.5726 100.642 53.1181 100.153C53.6692 99.6591 54.3027 99.3011 55.0186 99.0795C55.7345 98.8523 56.4874 98.7386 57.2772 98.7386C57.7999 98.7386 58.3539 98.8011 58.9391 98.9261C59.53 99.0455 60.0811 99.267 60.5925 99.5909C61.1095 99.9148 61.5328 100.378 61.8624 100.98C62.1919 101.577 62.3567 102.352 62.3567 103.307V112H59.8681V110.21H59.7658C59.601 110.54 59.3539 110.864 59.0243 111.182C58.6948 111.5 58.2715 111.764 57.7544 111.974C57.2374 112.185 56.6181 112.29 55.8965 112.29ZM56.4505 110.244C57.155 110.244 57.7573 110.105 58.2573 109.827C58.763 109.548 59.1465 109.185 59.4078 108.736C59.6749 108.281 59.8084 107.795 59.8084 107.278V105.591C59.7175 105.682 59.5414 105.767 59.28 105.847C59.0243 105.92 58.7317 105.986 58.4022 106.043C58.0726 106.094 57.7516 106.142 57.4391 106.188C57.1266 106.227 56.8652 106.261 56.655 106.29C56.1607 106.352 55.709 106.457 55.2999 106.605C54.8965 106.753 54.5726 106.966 54.3283 107.244C54.0897 107.517 53.9703 107.881 53.9703 108.335C53.9703 108.966 54.2033 109.443 54.6692 109.767C55.1351 110.085 55.7289 110.244 56.4505 110.244ZM69.5851 112.264C68.318 112.264 67.2271 111.977 66.3124 111.403C65.4033 110.824 64.7044 110.026 64.2158 109.009C63.7271 107.991 63.4828 106.827 63.4828 105.514C63.4828 104.185 63.7328 103.011 64.2328 101.994C64.7328 100.972 65.4374 100.173 66.3464 99.5994C67.2555 99.0256 68.3266 98.7386 69.5595 98.7386C70.5538 98.7386 71.4402 98.9233 72.2186 99.2926C72.997 99.6562 73.6249 100.168 74.1021 100.827C74.5851 101.486 74.872 102.256 74.9629 103.136H72.4828C72.3464 102.523 72.0339 101.994 71.5453 101.551C71.0624 101.108 70.4146 100.886 69.6021 100.886C68.8919 100.886 68.2697 101.074 67.7357 101.449C67.2072 101.818 66.7953 102.347 66.4999 103.034C66.2044 103.716 66.0567 104.523 66.0567 105.455C66.0567 106.409 66.2016 107.233 66.4913 107.926C66.7811 108.619 67.1902 109.156 67.7186 109.537C68.2527 109.918 68.8805 110.108 69.6021 110.108C70.0851 110.108 70.5226 110.02 70.9146 109.844C71.3124 109.662 71.6447 109.403 71.9118 109.068C72.1845 108.733 72.3749 108.33 72.4828 107.858H74.9629C74.872 108.705 74.5964 109.46 74.1362 110.125C73.676 110.79 73.0595 111.312 72.2868 111.693C71.5197 112.074 70.6192 112.264 69.5851 112.264ZM75.0173 101.108V98.9091H86.0628V101.108H81.7929V112H79.3042V101.108H75.0173ZM99.4627 102.165V104.381H91.7241V102.165H99.4627ZM105.816 112V110.091L111.723 103.972C112.353 103.307 112.873 102.724 113.282 102.224C113.697 101.719 114.007 101.239 114.211 100.784C114.416 100.33 114.518 99.8466 114.518 99.3352C114.518 98.7557 114.382 98.2557 114.109 97.8352C113.836 97.4091 113.464 97.0824 112.993 96.8551C112.521 96.6222 111.99 96.5057 111.399 96.5057C110.774 96.5057 110.228 96.6335 109.762 96.8892C109.297 97.1449 108.939 97.5057 108.689 97.9716C108.439 98.4375 108.314 98.983 108.314 99.608H105.799C105.799 98.5455 106.044 97.6165 106.532 96.821C107.021 96.0256 107.691 95.4091 108.544 94.9716C109.396 94.5284 110.365 94.3068 111.45 94.3068C112.547 94.3068 113.512 94.5256 114.348 94.9631C115.189 95.3949 115.845 95.9858 116.316 96.7358C116.788 97.4801 117.024 98.321 117.024 99.2585C117.024 99.9062 116.902 100.54 116.657 101.159C116.419 101.778 116.001 102.469 115.405 103.23C114.808 103.986 113.978 104.903 112.916 105.983L109.447 109.614V109.741H117.305V112H105.816ZM124.932 112.29C123.585 112.284 122.435 111.929 121.48 111.224C120.526 110.52 119.796 109.494 119.29 108.148C118.784 106.801 118.531 105.179 118.531 103.281C118.531 101.389 118.784 99.7727 119.29 98.4318C119.801 97.0909 120.534 96.0682 121.489 95.3636C122.449 94.6591 123.597 94.3068 124.932 94.3068C126.267 94.3068 127.412 94.6619 128.367 95.3722C129.321 96.0767 130.051 97.0994 130.557 98.4403C131.068 99.7756 131.324 101.389 131.324 103.281C131.324 105.185 131.071 106.81 130.565 108.156C130.06 109.497 129.33 110.523 128.375 111.233C127.421 111.938 126.273 112.29 124.932 112.29ZM124.932 110.014C126.114 110.014 127.037 109.438 127.702 108.284C128.372 107.131 128.708 105.463 128.708 103.281C128.708 101.832 128.554 100.608 128.247 99.608C127.946 98.6023 127.511 97.8409 126.943 97.3239C126.381 96.8011 125.71 96.5398 124.932 96.5398C123.756 96.5398 122.833 97.1193 122.162 98.2784C121.492 99.4375 121.154 101.105 121.148 103.281C121.148 104.736 121.298 105.966 121.6 106.972C121.906 107.972 122.341 108.73 122.904 109.247C123.466 109.759 124.142 110.014 124.932 110.014ZM136.342 112L136.333 109.793H136.802C137.166 109.793 137.47 109.716 137.714 109.562C137.964 109.403 138.169 109.136 138.328 108.761C138.487 108.386 138.609 107.869 138.694 107.21C138.779 106.545 138.842 105.71 138.882 104.705L139.112 98.9091H148.248V112H145.751V101.108H141.473L141.268 105.557C141.217 106.636 141.106 107.58 140.936 108.386C140.771 109.193 140.529 109.866 140.211 110.406C139.893 110.94 139.484 111.341 138.984 111.608C138.484 111.869 137.876 112 137.16 112H136.342ZM155.609 112.264C154.319 112.264 153.208 111.989 152.276 111.438C151.35 110.881 150.634 110.099 150.128 109.094C149.628 108.082 149.378 106.898 149.378 105.54C149.378 104.199 149.628 103.017 150.128 101.994C150.634 100.972 151.339 100.173 152.242 99.5994C153.151 99.0256 154.214 98.7386 155.43 98.7386C156.168 98.7386 156.884 98.8608 157.577 99.1051C158.27 99.3494 158.893 99.733 159.444 100.256C159.995 100.778 160.43 101.457 160.748 102.293C161.066 103.122 161.225 104.131 161.225 105.318V106.222H150.819V104.312H158.728C158.728 103.642 158.592 103.048 158.319 102.531C158.046 102.009 157.663 101.597 157.168 101.295C156.68 100.994 156.106 100.844 155.447 100.844C154.731 100.844 154.106 101.02 153.572 101.372C153.043 101.719 152.634 102.173 152.344 102.736C152.06 103.293 151.918 103.898 151.918 104.551V106.043C151.918 106.918 152.072 107.662 152.378 108.276C152.691 108.889 153.126 109.358 153.682 109.682C154.239 110 154.89 110.159 155.634 110.159C156.117 110.159 156.557 110.091 156.955 109.955C157.353 109.812 157.697 109.602 157.986 109.324C158.276 109.045 158.498 108.702 158.651 108.293L161.063 108.727C160.87 109.437 160.523 110.06 160.023 110.594C159.529 111.122 158.907 111.534 158.157 111.83C157.413 112.119 156.563 112.264 155.609 112.264ZM161.218 101.108V98.9091H172.263V101.108H167.993V112H165.505V101.108H161.218ZM12.8011 123.545V125.812H4.55114V141H1.91761V123.545H12.8011ZM17.5004 141.264C16.2731 141.264 15.2021 140.983 14.2873 140.42C13.3726 139.858 12.6623 139.071 12.1566 138.06C11.651 137.048 11.3981 135.866 11.3981 134.514C11.3981 133.156 11.651 131.969 12.1566 130.952C12.6623 129.935 13.3726 129.145 14.2873 128.582C15.2021 128.02 16.2731 127.739 17.5004 127.739C18.7277 127.739 19.7987 128.02 20.7135 128.582C21.6282 129.145 22.3385 129.935 22.8441 130.952C23.3498 131.969 23.6027 133.156 23.6027 134.514C23.6027 135.866 23.3498 137.048 22.8441 138.06C22.3385 139.071 21.6282 139.858 20.7135 140.42C19.7987 140.983 18.7277 141.264 17.5004 141.264ZM17.5089 139.125C18.3044 139.125 18.9635 138.915 19.4862 138.494C20.0089 138.074 20.3953 137.514 20.6453 136.815C20.901 136.116 21.0288 135.347 21.0288 134.506C21.0288 133.67 20.901 132.903 20.6453 132.205C20.3953 131.5 20.0089 130.935 19.4862 130.509C18.9635 130.082 18.3044 129.869 17.5089 129.869C16.7078 129.869 16.043 130.082 15.5146 130.509C14.9919 130.935 14.6027 131.5 14.347 132.205C14.097 132.903 13.972 133.67 13.972 134.506C13.972 135.347 14.097 136.116 14.347 136.815C14.6027 137.514 14.9919 138.074 15.5146 138.494C16.043 138.915 16.7078 139.125 17.5089 139.125ZM24.7671 145.909V127.909H27.2558V130.031H27.4688C27.6166 129.759 27.8296 129.443 28.108 129.085C28.3864 128.727 28.7728 128.415 29.2671 128.148C29.7614 127.875 30.4149 127.739 31.2274 127.739C32.2842 127.739 33.2274 128.006 34.0569 128.54C34.8864 129.074 35.537 129.844 36.0086 130.849C36.4859 131.855 36.7245 133.065 36.7245 134.48C36.7245 135.895 36.4887 137.108 36.0171 138.119C35.5455 139.125 34.8978 139.901 34.0739 140.446C33.2501 140.986 32.3097 141.256 31.2529 141.256C30.4575 141.256 29.8069 141.122 29.3012 140.855C28.8012 140.588 28.4092 140.276 28.1251 139.918C27.841 139.56 27.6222 139.241 27.4688 138.963H27.3154V145.909H24.7671ZM27.2643 134.455C27.2643 135.375 27.3978 136.182 27.6649 136.875C27.9319 137.568 28.3183 138.111 28.8239 138.503C29.3296 138.889 29.9489 139.082 30.6819 139.082C31.4433 139.082 32.0796 138.881 32.591 138.477C33.1024 138.068 33.4887 137.514 33.7501 136.815C34.0171 136.116 34.1507 135.33 34.1507 134.455C34.1507 133.591 34.02 132.815 33.7586 132.128C33.5029 131.44 33.1166 130.898 32.5995 130.5C32.0882 130.102 31.4489 129.903 30.6819 129.903C29.9433 129.903 29.3183 130.094 28.8069 130.474C28.3012 130.855 27.9177 131.386 27.6563 132.068C27.395 132.75 27.2643 133.545 27.2643 134.455ZM43.4138 141.264C42.1866 141.264 41.1155 140.983 40.2008 140.42C39.286 139.858 38.5758 139.071 38.0701 138.06C37.5644 137.048 37.3116 135.866 37.3116 134.514C37.3116 133.156 37.5644 131.969 38.0701 130.952C38.5758 129.935 39.286 129.145 40.2008 128.582C41.1155 128.02 42.1866 127.739 43.4138 127.739C44.6411 127.739 45.7121 128.02 46.6269 128.582C47.5417 129.145 48.2519 129.935 48.7576 130.952C49.2633 131.969 49.5161 133.156 49.5161 134.514C49.5161 135.866 49.2633 137.048 48.7576 138.06C48.2519 139.071 47.5417 139.858 46.6269 140.42C45.7121 140.983 44.6411 141.264 43.4138 141.264ZM43.4224 139.125C44.2178 139.125 44.8769 138.915 45.3996 138.494C45.9224 138.074 46.3087 137.514 46.5587 136.815C46.8144 136.116 46.9422 135.347 46.9422 134.506C46.9422 133.67 46.8144 132.903 46.5587 132.205C46.3087 131.5 45.9224 130.935 45.3996 130.509C44.8769 130.082 44.2178 129.869 43.4224 129.869C42.6212 129.869 41.9564 130.082 41.428 130.509C40.9053 130.935 40.5161 131.5 40.2604 132.205C40.0104 132.903 39.8854 133.67 39.8854 134.506C39.8854 135.347 40.0104 136.116 40.2604 136.815C40.5161 137.514 40.9053 138.074 41.428 138.494C41.9564 138.915 42.6212 139.125 43.4224 139.125ZM49.4022 144.776V138.793H50.4675C50.7402 138.543 50.9703 138.244 51.1578 137.898C51.351 137.551 51.513 137.139 51.6436 136.662C51.78 136.185 51.8936 135.628 51.9845 134.991C52.0755 134.349 52.155 133.616 52.2232 132.793L52.6323 127.909H61.53V138.793H63.5414V144.776H61.0527V141H51.9249V144.776H49.4022ZM53.1948 138.793H59.0414V130.091H54.9164L54.6436 132.793C54.513 134.168 54.3482 135.361 54.1493 136.372C53.9505 137.378 53.6323 138.185 53.1948 138.793ZM76.7368 131.165V133.381H68.9981V131.165H76.7368ZM93.6843 141L87.8207 133.176H85.9627V141H83.3292V123.545H85.9627V130.918H86.8235L93.4201 123.545H96.6332L89.653 131.361L96.8974 141H93.6843ZM97.4524 145.909V127.909H99.9411V130.031H100.154C100.302 129.759 100.515 129.443 100.793 129.085C101.072 128.727 101.458 128.415 101.952 128.148C102.447 127.875 103.1 127.739 103.913 127.739C104.969 127.739 105.913 128.006 106.742 128.54C107.572 129.074 108.222 129.844 108.694 130.849C109.171 131.855 109.41 133.065 109.41 134.48C109.41 135.895 109.174 137.108 108.702 138.119C108.231 139.125 107.583 139.901 106.759 140.446C105.935 140.986 104.995 141.256 103.938 141.256C103.143 141.256 102.492 141.122 101.987 140.855C101.487 140.588 101.094 140.276 100.81 139.918C100.526 139.56 100.308 139.241 100.154 138.963H100.001V145.909H97.4524ZM99.9496 134.455C99.9496 135.375 100.083 136.182 100.35 136.875C100.617 137.568 101.004 138.111 101.509 138.503C102.015 138.889 102.634 139.082 103.367 139.082C104.129 139.082 104.765 138.881 105.276 138.477C105.788 138.068 106.174 137.514 106.435 136.815C106.702 136.116 106.836 135.33 106.836 134.455C106.836 133.591 106.705 132.815 106.444 132.128C106.188 131.44 105.802 130.898 105.285 130.5C104.773 130.102 104.134 129.903 103.367 129.903C102.629 129.903 102.004 130.094 101.492 130.474C100.987 130.855 100.603 131.386 100.342 132.068C100.08 132.75 99.9496 133.545 99.9496 134.455ZM114.395 141.29C113.565 141.29 112.815 141.136 112.145 140.83C111.474 140.517 110.943 140.065 110.551 139.474C110.164 138.884 109.971 138.159 109.971 137.301C109.971 136.562 110.113 135.955 110.397 135.477C110.682 135 111.065 134.622 111.548 134.344C112.031 134.065 112.571 133.855 113.167 133.713C113.764 133.571 114.372 133.463 114.991 133.389C115.775 133.298 116.412 133.224 116.9 133.168C117.389 133.105 117.744 133.006 117.966 132.869C118.187 132.733 118.298 132.511 118.298 132.205V132.145C118.298 131.401 118.088 130.824 117.667 130.415C117.253 130.006 116.633 129.801 115.809 129.801C114.951 129.801 114.275 129.991 113.781 130.372C113.292 130.747 112.954 131.165 112.767 131.625L110.372 131.08C110.656 130.284 111.071 129.642 111.616 129.153C112.167 128.659 112.801 128.301 113.517 128.08C114.233 127.852 114.986 127.739 115.775 127.739C116.298 127.739 116.852 127.801 117.437 127.926C118.028 128.045 118.579 128.267 119.091 128.591C119.608 128.915 120.031 129.378 120.361 129.98C120.69 130.577 120.855 131.352 120.855 132.307V141H118.366V139.21H118.264C118.099 139.54 117.852 139.864 117.522 140.182C117.193 140.5 116.77 140.764 116.253 140.974C115.736 141.185 115.116 141.29 114.395 141.29ZM114.949 139.244C115.653 139.244 116.255 139.105 116.755 138.827C117.261 138.548 117.645 138.185 117.906 137.736C118.173 137.281 118.307 136.795 118.307 136.278V134.591C118.216 134.682 118.039 134.767 117.778 134.847C117.522 134.92 117.23 134.986 116.9 135.043C116.571 135.094 116.25 135.142 115.937 135.188C115.625 135.227 115.363 135.261 115.153 135.29C114.659 135.352 114.207 135.457 113.798 135.605C113.395 135.753 113.071 135.966 112.826 136.244C112.588 136.517 112.468 136.881 112.468 137.335C112.468 137.966 112.701 138.443 113.167 138.767C113.633 139.085 114.227 139.244 114.949 139.244ZM128.083 141.264C126.816 141.264 125.725 140.977 124.81 140.403C123.901 139.824 123.203 139.026 122.714 138.009C122.225 136.991 121.981 135.827 121.981 134.514C121.981 133.185 122.231 132.011 122.731 130.994C123.231 129.972 123.935 129.173 124.845 128.599C125.754 128.026 126.825 127.739 128.058 127.739C129.052 127.739 129.938 127.923 130.717 128.293C131.495 128.656 132.123 129.168 132.6 129.827C133.083 130.486 133.37 131.256 133.461 132.136H130.981C130.845 131.523 130.532 130.994 130.043 130.551C129.56 130.108 128.913 129.886 128.1 129.886C127.39 129.886 126.768 130.074 126.234 130.449C125.705 130.818 125.293 131.347 124.998 132.034C124.703 132.716 124.555 133.523 124.555 134.455C124.555 135.409 124.7 136.233 124.989 136.926C125.279 137.619 125.688 138.156 126.217 138.537C126.751 138.918 127.379 139.108 128.1 139.108C128.583 139.108 129.021 139.02 129.413 138.844C129.81 138.662 130.143 138.403 130.41 138.068C130.683 137.733 130.873 137.33 130.981 136.858H133.461C133.37 137.705 133.095 138.46 132.634 139.125C132.174 139.79 131.558 140.312 130.785 140.693C130.018 141.074 129.117 141.264 128.083 141.264ZM143.378 133.355V135.562H136.287V133.355H143.378ZM137.003 127.909V141H134.506V127.909H137.003ZM145.16 127.909V141H142.671V127.909H145.16ZM152.403 141.264C151.176 141.264 150.105 140.983 149.19 140.42C148.275 139.858 147.565 139.071 147.059 138.06C146.553 137.048 146.301 135.866 146.301 134.514C146.301 133.156 146.553 131.969 147.059 130.952C147.565 129.935 148.275 129.145 149.19 128.582C150.105 128.02 151.176 127.739 152.403 127.739C153.63 127.739 154.701 128.02 155.616 128.582C156.531 129.145 157.241 129.935 157.747 130.952C158.252 131.969 158.505 133.156 158.505 134.514C158.505 135.866 158.252 137.048 157.747 138.06C157.241 139.071 156.531 139.858 155.616 140.42C154.701 140.983 153.63 141.264 152.403 141.264ZM152.411 139.125C153.207 139.125 153.866 138.915 154.389 138.494C154.911 138.074 155.298 137.514 155.548 136.815C155.803 136.116 155.931 135.347 155.931 134.506C155.931 133.67 155.803 132.903 155.548 132.205C155.298 131.5 154.911 130.935 154.389 130.509C153.866 130.082 153.207 129.869 152.411 129.869C151.61 129.869 150.946 130.082 150.417 130.509C149.894 130.935 149.505 131.5 149.249 132.205C148.999 132.903 148.874 133.67 148.874 134.506C148.874 135.347 148.999 136.116 149.249 136.815C149.505 137.514 149.894 138.074 150.417 138.494C150.946 138.915 151.61 139.125 152.411 139.125ZM158.391 144.776V138.793H159.457C159.729 138.543 159.959 138.244 160.147 137.898C160.34 137.551 160.502 137.139 160.633 136.662C160.769 136.185 160.883 135.628 160.974 134.991C161.065 134.349 161.144 133.616 161.212 132.793L161.621 127.909H170.519V138.793H172.53V144.776H170.042V141H160.914V144.776H158.391ZM162.184 138.793H168.03V130.091H163.905L163.633 132.793C163.502 134.168 163.337 135.361 163.138 136.372C162.94 137.378 162.621 138.185 162.184 138.793ZM177.151 141.29C176.321 141.29 175.571 141.136 174.901 140.83C174.23 140.517 173.699 140.065 173.307 139.474C172.921 138.884 172.728 138.159 172.728 137.301C172.728 136.562 172.87 135.955 173.154 135.477C173.438 135 173.821 134.622 174.304 134.344C174.787 134.065 175.327 133.855 175.924 133.713C176.52 133.571 177.128 133.463 177.747 133.389C178.532 133.298 179.168 133.224 179.657 133.168C180.145 133.105 180.5 133.006 180.722 132.869C180.943 132.733 181.054 132.511 181.054 132.205V132.145C181.054 131.401 180.844 130.824 180.424 130.415C180.009 130.006 179.389 129.801 178.566 129.801C177.708 129.801 177.032 129.991 176.537 130.372C176.049 130.747 175.711 131.165 175.523 131.625L173.128 131.08C173.412 130.284 173.827 129.642 174.372 129.153C174.924 128.659 175.557 128.301 176.273 128.08C176.989 127.852 177.742 127.739 178.532 127.739C179.054 127.739 179.608 127.801 180.193 127.926C180.784 128.045 181.336 128.267 181.847 128.591C182.364 128.915 182.787 129.378 183.117 129.98C183.446 130.577 183.611 131.352 183.611 132.307V141H181.122V139.21H181.02C180.855 139.54 180.608 139.864 180.279 140.182C179.949 140.5 179.526 140.764 179.009 140.974C178.492 141.185 177.872 141.29 177.151 141.29ZM177.705 139.244C178.409 139.244 179.012 139.105 179.512 138.827C180.017 138.548 180.401 138.185 180.662 137.736C180.929 137.281 181.063 136.795 181.063 136.278V134.591C180.972 134.682 180.796 134.767 180.534 134.847C180.279 134.92 179.986 134.986 179.657 135.043C179.327 135.094 179.006 135.142 178.693 135.188C178.381 135.227 178.12 135.261 177.909 135.29C177.415 135.352 176.963 135.457 176.554 135.605C176.151 135.753 175.827 135.966 175.583 136.244C175.344 136.517 175.225 136.881 175.225 137.335C175.225 137.966 175.458 138.443 175.924 138.767C176.389 139.085 176.983 139.244 177.705 139.244ZM185.325 145.909V127.909H187.814V130.031H188.027C188.175 129.759 188.388 129.443 188.666 129.085C188.945 128.727 189.331 128.415 189.825 128.148C190.32 127.875 190.973 127.739 191.785 127.739C192.842 127.739 193.785 128.006 194.615 128.54C195.445 129.074 196.095 129.844 196.567 130.849C197.044 131.855 197.283 133.065 197.283 134.48C197.283 135.895 197.047 137.108 196.575 138.119C196.104 139.125 195.456 139.901 194.632 140.446C193.808 140.986 192.868 141.256 191.811 141.256C191.016 141.256 190.365 141.122 189.859 140.855C189.359 140.588 188.967 140.276 188.683 139.918C188.399 139.56 188.18 139.241 188.027 138.963H187.874V145.909H185.325ZM187.822 134.455C187.822 135.375 187.956 136.182 188.223 136.875C188.49 137.568 188.876 138.111 189.382 138.503C189.888 138.889 190.507 139.082 191.24 139.082C192.001 139.082 192.638 138.881 193.149 138.477C193.66 138.068 194.047 137.514 194.308 136.815C194.575 136.116 194.709 135.33 194.709 134.455C194.709 133.591 194.578 132.815 194.317 132.128C194.061 131.44 193.675 130.898 193.158 130.5C192.646 130.102 192.007 129.903 191.24 129.903C190.501 129.903 189.876 130.094 189.365 130.474C188.859 130.855 188.476 131.386 188.214 132.068C187.953 132.75 187.822 133.545 187.822 134.455ZM201.773 138.614L201.645 139.543C201.56 140.224 201.415 140.935 201.211 141.673C201.012 142.418 200.804 143.108 200.588 143.744C200.378 144.381 200.205 144.886 200.069 145.261H198.262C198.336 144.909 198.438 144.432 198.569 143.83C198.699 143.233 198.827 142.565 198.952 141.827C199.077 141.088 199.171 140.335 199.233 139.568L199.319 138.614H201.773ZM208.287 141V123.545H214.508C215.866 123.545 216.991 123.793 217.883 124.287C218.775 124.781 219.443 125.457 219.886 126.315C220.329 127.168 220.551 128.128 220.551 129.196C220.551 130.27 220.326 131.236 219.878 132.094C219.434 132.946 218.764 133.622 217.866 134.122C216.974 134.616 215.852 134.864 214.5 134.864H210.221V132.631H214.261C215.119 132.631 215.815 132.483 216.349 132.188C216.883 131.886 217.275 131.477 217.525 130.96C217.775 130.443 217.9 129.855 217.9 129.196C217.9 128.537 217.775 127.952 217.525 127.44C217.275 126.929 216.88 126.528 216.341 126.239C215.807 125.949 215.102 125.804 214.227 125.804H210.92V141H208.287ZM227.104 141.264C225.877 141.264 224.806 140.983 223.891 140.42C222.976 139.858 222.266 139.071 221.76 138.06C221.254 137.048 221.002 135.866 221.002 134.514C221.002 133.156 221.254 131.969 221.76 130.952C222.266 129.935 222.976 129.145 223.891 128.582C224.806 128.02 225.877 127.739 227.104 127.739C228.331 127.739 229.402 128.02 230.317 128.582C231.232 129.145 231.942 129.935 232.448 130.952C232.953 131.969 233.206 133.156 233.206 134.514C233.206 135.866 232.953 137.048 232.448 138.06C231.942 139.071 231.232 139.858 230.317 140.42C229.402 140.983 228.331 141.264 227.104 141.264ZM227.112 139.125C227.908 139.125 228.567 138.915 229.09 138.494C229.612 138.074 229.999 137.514 230.249 136.815C230.504 136.116 230.632 135.347 230.632 134.506C230.632 133.67 230.504 132.903 230.249 132.205C229.999 131.5 229.612 130.935 229.09 130.509C228.567 130.082 227.908 129.869 227.112 129.869C226.311 129.869 225.646 130.082 225.118 130.509C224.595 130.935 224.206 131.5 223.95 132.205C223.7 132.903 223.575 133.67 223.575 134.506C223.575 135.347 223.7 136.116 223.95 136.815C224.206 137.514 224.595 138.074 225.118 138.494C225.646 138.915 226.311 139.125 227.112 139.125ZM239.885 141.264C238.618 141.264 237.527 140.977 236.612 140.403C235.703 139.824 235.004 139.026 234.515 138.009C234.027 136.991 233.783 135.827 233.783 134.514C233.783 133.185 234.033 132.011 234.533 130.994C235.033 129.972 235.737 129.173 236.646 128.599C237.555 128.026 238.626 127.739 239.859 127.739C240.854 127.739 241.74 127.923 242.518 128.293C243.297 128.656 243.925 129.168 244.402 129.827C244.885 130.486 245.172 131.256 245.263 132.136H242.783C242.646 131.523 242.334 130.994 241.845 130.551C241.362 130.108 240.714 129.886 239.902 129.886C239.192 129.886 238.569 130.074 238.035 130.449C237.507 130.818 237.095 131.347 236.8 132.034C236.504 132.716 236.356 133.523 236.356 134.455C236.356 135.409 236.501 136.233 236.791 136.926C237.081 137.619 237.49 138.156 238.018 138.537C238.552 138.918 239.18 139.108 239.902 139.108C240.385 139.108 240.822 139.02 241.214 138.844C241.612 138.662 241.944 138.403 242.211 138.068C242.484 137.733 242.675 137.33 242.783 136.858H245.263C245.172 137.705 244.896 138.46 244.436 139.125C243.976 139.79 243.359 140.312 242.586 140.693C241.819 141.074 240.919 141.264 239.885 141.264ZM251.822 141.264C250.555 141.264 249.464 140.977 248.549 140.403C247.64 139.824 246.941 139.026 246.453 138.009C245.964 136.991 245.72 135.827 245.72 134.514C245.72 133.185 245.97 132.011 246.47 130.994C246.97 129.972 247.674 129.173 248.583 128.599C249.492 128.026 250.563 127.739 251.796 127.739C252.791 127.739 253.677 127.923 254.455 128.293C255.234 128.656 255.862 129.168 256.339 129.827C256.822 130.486 257.109 131.256 257.2 132.136H254.72C254.583 131.523 254.271 130.994 253.782 130.551C253.299 130.108 252.652 129.886 251.839 129.886C251.129 129.886 250.507 130.074 249.973 130.449C249.444 130.818 249.032 131.347 248.737 132.034C248.441 132.716 248.294 133.523 248.294 134.455C248.294 135.409 248.438 136.233 248.728 136.926C249.018 137.619 249.427 138.156 249.955 138.537C250.49 138.918 251.117 139.108 251.839 139.108C252.322 139.108 252.759 139.02 253.152 138.844C253.549 138.662 253.882 138.403 254.149 138.068C254.421 137.733 254.612 137.33 254.72 136.858H257.2C257.109 137.705 256.833 138.46 256.373 139.125C255.913 139.79 255.296 140.312 254.524 140.693C253.757 141.074 252.856 141.264 251.822 141.264ZM260.742 137.429L266.512 127.909H269.256V141H266.759V131.472L261.015 141H258.245V127.909H260.742V137.429ZM278.809 141V130.082H275.673C274.929 130.082 274.349 130.256 273.934 130.602C273.519 130.949 273.312 131.403 273.312 131.966C273.312 132.523 273.502 132.972 273.883 133.312C274.269 133.648 274.809 133.815 275.502 133.815H279.551V135.878H275.502C274.537 135.878 273.701 135.719 272.997 135.401C272.298 135.077 271.758 134.619 271.377 134.028C271.002 133.437 270.815 132.739 270.815 131.932C270.815 131.108 271.008 130.398 271.394 129.801C271.787 129.199 272.346 128.733 273.073 128.403C273.806 128.074 274.673 127.909 275.673 127.909H281.204V141H278.809ZM270.218 141L273.909 134.386H276.517L272.826 141H270.218Z" fill="white"/>
<path d="M123.17 75.7557C123.17 73.6193 123.451 71.6534 124.014 69.858C124.576 68.0625 125.397 66.4062 126.477 64.8892H128.812C128.391 65.4517 127.999 66.142 127.636 66.9602C127.272 67.7784 126.954 68.6761 126.681 69.6534C126.408 70.625 126.195 71.6335 126.042 72.679C125.889 73.7187 125.812 74.7443 125.812 75.7557C125.812 77.108 125.945 78.4773 126.212 79.8636C126.48 81.25 126.84 82.5369 127.295 83.7244C127.749 84.9119 128.255 85.8807 128.812 86.6307H126.477C125.397 85.1136 124.576 83.4574 124.014 81.6619C123.451 79.8665 123.17 77.8977 123.17 75.7557ZM140.327 87.7472C138.566 87.7472 137.003 87.5057 135.64 87.0227C134.282 86.5455 133.137 85.8409 132.205 84.9091C131.273 83.983 130.566 82.8466 130.083 81.5C129.6 80.1534 129.358 78.6165 129.358 76.8892C129.358 75.2074 129.603 73.696 130.091 72.3551C130.58 71.0142 131.29 69.8722 132.222 68.929C133.16 67.9801 134.299 67.2557 135.64 66.7557C136.981 66.2557 138.503 66.0057 140.208 66.0057C141.839 66.0057 143.276 66.2614 144.52 66.7727C145.765 67.2841 146.81 67.9858 147.657 68.8778C148.509 69.7699 149.151 70.7926 149.583 71.946C150.015 73.0994 150.231 74.3182 150.231 75.6023C150.231 76.5 150.174 77.3778 150.06 78.2358C149.947 79.0881 149.736 79.8608 149.429 80.554C149.128 81.2415 148.691 81.7926 148.117 82.2074C147.549 82.6165 146.81 82.8295 145.901 82.8466C145.418 82.8636 144.949 82.8068 144.495 82.6761C144.04 82.5455 143.654 82.3352 143.336 82.0455C143.018 81.75 142.824 81.375 142.756 80.9205H142.654C142.518 81.2557 142.29 81.5682 141.972 81.858C141.654 82.142 141.248 82.3693 140.753 82.5398C140.265 82.7045 139.697 82.7727 139.049 82.7443C138.333 82.7159 137.688 82.554 137.114 82.2585C136.54 81.9631 136.049 81.554 135.64 81.0312C135.236 80.5085 134.927 79.8892 134.711 79.1733C134.495 78.4574 134.387 77.6619 134.387 76.7869C134.387 75.946 134.509 75.1932 134.753 74.5284C134.998 73.858 135.33 73.2812 135.751 72.7983C136.177 72.3097 136.665 71.9233 137.216 71.6392C137.768 71.3551 138.35 71.1761 138.964 71.1023C139.56 71.0341 140.108 71.0511 140.608 71.1534C141.108 71.2557 141.523 71.4119 141.853 71.6222C142.188 71.8324 142.398 72.0625 142.483 72.3125H142.594V71.358H144.691V79.267C144.691 79.7159 144.807 80.0966 145.04 80.4091C145.279 80.7216 145.617 80.8778 146.054 80.8778C146.572 80.8778 146.975 80.6875 147.265 80.3068C147.56 79.9261 147.768 79.3409 147.887 78.5511C148.012 77.7614 148.074 76.75 148.074 75.517C148.074 74.6534 147.958 73.8409 147.725 73.0795C147.498 72.3125 147.16 71.6193 146.711 71C146.268 70.375 145.722 69.8381 145.074 69.3892C144.427 68.9403 143.688 68.5937 142.858 68.3494C142.035 68.1051 141.123 67.983 140.123 67.983C138.765 67.983 137.557 68.1932 136.501 68.6136C135.444 69.0284 134.552 69.6278 133.824 70.4119C133.103 71.196 132.554 72.1364 132.179 73.233C131.81 74.3239 131.626 75.5483 131.626 76.9062C131.626 78.321 131.816 79.5767 132.197 80.6733C132.577 81.7642 133.14 82.6847 133.884 83.4347C134.628 84.1847 135.549 84.7528 136.645 85.1392C137.742 85.5313 139.006 85.7273 140.438 85.7273C141.074 85.7273 141.699 85.6705 142.313 85.5568C142.927 85.4489 143.472 85.3239 143.949 85.1818C144.432 85.0455 144.793 84.9347 145.032 84.8494L145.628 86.7159C145.276 86.8807 144.807 87.0426 144.222 87.2017C143.643 87.3608 143.012 87.4915 142.33 87.5938C141.654 87.696 140.986 87.7472 140.327 87.7472ZM139.543 80.6562C140.282 80.6562 140.876 80.5085 141.324 80.2131C141.779 79.9176 142.106 79.4773 142.304 78.892C142.509 78.3011 142.611 77.5625 142.611 76.6761C142.606 75.8125 142.495 75.125 142.279 74.6136C142.069 74.0966 141.739 73.7273 141.29 73.5057C140.847 73.2784 140.276 73.1648 139.577 73.1648C138.935 73.1648 138.387 73.321 137.932 73.6335C137.483 73.946 137.14 74.3693 136.901 74.9034C136.668 75.4375 136.549 76.0312 136.543 76.6847C136.549 77.3722 136.645 78.0199 136.833 78.6278C137.026 79.2301 137.339 79.7188 137.77 80.0938C138.208 80.4688 138.799 80.6562 139.543 80.6562ZM151.365 83V69.9091H153.914V83H151.365ZM152.652 67.8892C152.209 67.8892 151.828 67.7415 151.51 67.446C151.198 67.1449 151.041 66.7869 151.041 66.3722C151.041 65.9517 151.198 65.5937 151.51 65.2983C151.828 64.9972 152.209 64.8466 152.652 64.8466C153.095 64.8466 153.473 64.9972 153.786 65.2983C154.104 65.5937 154.263 65.9517 154.263 66.3722C154.263 66.7869 154.104 67.1449 153.786 67.446C153.473 67.7415 153.095 67.8892 152.652 67.8892ZM158.21 65.5455V83H155.662V65.5455H158.21ZM168.251 77.571V69.9091H170.808V83H168.302V80.733H168.166C167.865 81.4318 167.382 82.0142 166.717 82.4801C166.058 82.9403 165.237 83.1705 164.254 83.1705C163.413 83.1705 162.669 82.9858 162.021 82.6165C161.379 82.2415 160.873 81.6875 160.504 80.9545C160.14 80.2216 159.958 79.3153 159.958 78.2358V69.9091H162.507V77.929C162.507 78.821 162.754 79.5312 163.248 80.0597C163.742 80.5881 164.385 80.8523 165.174 80.8523C165.652 80.8523 166.126 80.733 166.598 80.4943C167.075 80.2557 167.47 79.8949 167.782 79.4119C168.1 78.929 168.257 78.3153 168.251 77.571ZM182.361 73.1051L180.052 73.5142C179.955 73.2187 179.802 72.9375 179.592 72.6705C179.387 72.4034 179.109 72.1847 178.756 72.0142C178.404 71.8437 177.964 71.7585 177.435 71.7585C176.714 71.7585 176.111 71.9205 175.629 72.2443C175.146 72.5625 174.904 72.9744 174.904 73.4801C174.904 73.9176 175.066 74.2699 175.39 74.5369C175.714 74.804 176.236 75.0227 176.958 75.1932L179.038 75.6705C180.242 75.9489 181.14 76.3778 181.731 76.9574C182.322 77.5369 182.617 78.2898 182.617 79.2159C182.617 80 182.39 80.6989 181.935 81.3125C181.486 81.9205 180.859 82.3977 180.052 82.7443C179.251 83.0909 178.322 83.2642 177.265 83.2642C175.799 83.2642 174.603 82.9517 173.677 82.3267C172.751 81.696 172.182 80.8011 171.972 79.642L174.435 79.267C174.589 79.9091 174.904 80.3949 175.381 80.7244C175.859 81.0483 176.481 81.2102 177.248 81.2102C178.083 81.2102 178.751 81.0369 179.251 80.6903C179.751 80.3381 180.001 79.9091 180.001 79.4034C180.001 78.9943 179.847 78.6506 179.54 78.3722C179.239 78.0937 178.776 77.8835 178.151 77.7415L175.935 77.2557C174.714 76.9773 173.81 76.5341 173.225 75.9261C172.646 75.3182 172.356 74.5483 172.356 73.6165C172.356 72.8437 172.572 72.1676 173.004 71.5881C173.435 71.0085 174.032 70.5568 174.793 70.233C175.555 69.9034 176.427 69.7386 177.41 69.7386C178.825 69.7386 179.938 70.0455 180.751 70.6591C181.563 71.267 182.1 72.0824 182.361 73.1051ZM186.287 75.2273V83H183.739V65.5455H186.253V72.0398H186.415C186.722 71.3352 187.191 70.7756 187.821 70.3608C188.452 69.946 189.276 69.7386 190.293 69.7386C191.191 69.7386 191.975 69.9233 192.645 70.2926C193.321 70.6619 193.844 71.2131 194.213 71.946C194.588 72.6733 194.776 73.5824 194.776 74.6733V83H192.228V74.9801C192.228 74.0199 191.98 73.2756 191.486 72.7472C190.992 72.2131 190.304 71.946 189.424 71.946C188.821 71.946 188.282 72.0739 187.804 72.3295C187.333 72.5852 186.961 72.9602 186.688 73.4545C186.421 73.9432 186.287 74.5341 186.287 75.2273ZM199.045 75.2273V83H196.497V65.5455H199.011V72.0398H199.173C199.479 71.3352 199.948 70.7756 200.579 70.3608C201.21 69.946 202.033 69.7386 203.05 69.7386C203.948 69.7386 204.732 69.9233 205.403 70.2926C206.079 70.6619 206.602 71.2131 206.971 71.946C207.346 72.6733 207.533 73.5824 207.533 74.6733V83H204.985V74.9801C204.985 74.0199 204.738 73.2756 204.244 72.7472C203.749 72.2131 203.062 71.946 202.181 71.946C201.579 71.946 201.039 72.0739 200.562 72.3295C200.09 72.5852 199.718 72.9602 199.445 73.4545C199.178 73.9432 199.045 74.5341 199.045 75.2273ZM213.064 83.2898C212.234 83.2898 211.484 83.1364 210.814 82.8295C210.143 82.517 209.612 82.0653 209.22 81.4744C208.834 80.8835 208.64 80.1591 208.64 79.3011C208.64 78.5625 208.782 77.9545 209.067 77.4773C209.351 77 209.734 76.6222 210.217 76.3438C210.7 76.0653 211.24 75.8551 211.836 75.7131C212.433 75.571 213.041 75.4631 213.66 75.3892C214.444 75.2983 215.081 75.2244 215.569 75.1676C216.058 75.1051 216.413 75.0057 216.635 74.8693C216.856 74.733 216.967 74.5114 216.967 74.2045V74.1449C216.967 73.4006 216.757 72.8239 216.336 72.4148C215.922 72.0057 215.302 71.8011 214.478 71.8011C213.62 71.8011 212.944 71.9915 212.45 72.3722C211.961 72.7472 211.623 73.1648 211.436 73.625L209.041 73.0795C209.325 72.2841 209.74 71.642 210.285 71.1534C210.836 70.6591 211.47 70.3011 212.186 70.0795C212.902 69.8523 213.655 69.7386 214.444 69.7386C214.967 69.7386 215.521 69.8011 216.106 69.9261C216.697 70.0455 217.248 70.267 217.76 70.5909C218.277 70.9148 218.7 71.3778 219.03 71.9801C219.359 72.5767 219.524 73.3523 219.524 74.3068V83H217.035V81.2102H216.933C216.768 81.5398 216.521 81.8636 216.192 82.1818C215.862 82.5 215.439 82.7642 214.922 82.9744C214.405 83.1847 213.785 83.2898 213.064 83.2898ZM213.618 81.2443C214.322 81.2443 214.924 81.1051 215.424 80.8267C215.93 80.5483 216.314 80.1847 216.575 79.7358C216.842 79.2812 216.976 78.7955 216.976 78.2784V76.5909C216.885 76.6818 216.709 76.767 216.447 76.8466C216.192 76.9205 215.899 76.9858 215.569 77.0426C215.24 77.0937 214.919 77.142 214.606 77.1875C214.294 77.2273 214.032 77.2614 213.822 77.2898C213.328 77.3523 212.876 77.4574 212.467 77.6051C212.064 77.7528 211.74 77.9659 211.495 78.2443C211.257 78.517 211.138 78.8807 211.138 79.3352C211.138 79.9659 211.37 80.4432 211.836 80.767C212.302 81.0852 212.896 81.2443 213.618 81.2443ZM233.623 73.1648V75.3807H225.884V73.1648H233.623ZM245.866 83H240.215V65.5455H246.045C247.755 65.5455 249.224 65.8949 250.451 66.5938C251.678 67.2869 252.619 68.2841 253.272 69.5852C253.931 70.8807 254.261 72.4347 254.261 74.2472C254.261 76.0653 253.928 77.6278 253.263 78.9347C252.604 80.2415 251.65 81.2472 250.4 81.9517C249.15 82.6506 247.638 83 245.866 83ZM242.849 80.6989H245.721C247.05 80.6989 248.155 80.4489 249.036 79.9489C249.917 79.4432 250.576 78.7131 251.013 77.7585C251.451 76.7983 251.67 75.6278 251.67 74.2472C251.67 72.8778 251.451 71.7159 251.013 70.7614C250.582 69.8068 249.937 69.0824 249.079 68.5881C248.221 68.0937 247.155 67.8466 245.883 67.8466H242.849V80.6989ZM265.375 70.1307C265.284 69.3239 264.909 68.6989 264.25 68.2557C263.591 67.8068 262.762 67.5824 261.762 67.5824C261.046 67.5824 260.426 67.696 259.904 67.9233C259.381 68.1449 258.975 68.4517 258.685 68.8438C258.401 69.2301 258.259 69.6705 258.259 70.1648C258.259 70.5795 258.355 70.9375 258.549 71.2386C258.747 71.5398 259.006 71.7926 259.324 71.9972C259.648 72.196 259.995 72.3636 260.364 72.5C260.733 72.6307 261.088 72.7386 261.429 72.8239L263.134 73.267C263.691 73.4034 264.262 73.5881 264.847 73.821C265.432 74.054 265.975 74.3608 266.475 74.7415C266.975 75.1222 267.378 75.5938 267.685 76.1562C267.997 76.7188 268.154 77.392 268.154 78.1761C268.154 79.1648 267.898 80.0426 267.387 80.8097C266.881 81.5767 266.145 82.1818 265.179 82.625C264.219 83.0682 263.057 83.2898 261.694 83.2898C260.387 83.2898 259.256 83.0824 258.301 82.6676C257.347 82.2528 256.6 81.6648 256.06 80.9034C255.52 80.1364 255.222 79.2273 255.165 78.1761H257.807C257.858 78.8068 258.063 79.3324 258.421 79.7528C258.784 80.1676 259.247 80.4773 259.81 80.6818C260.378 80.8807 261 80.9801 261.676 80.9801C262.421 80.9801 263.083 80.8636 263.662 80.6307C264.247 80.392 264.708 80.0625 265.043 79.642C265.378 79.2159 265.546 78.7187 265.546 78.1506C265.546 77.6335 265.398 77.2102 265.103 76.8807C264.813 76.5511 264.418 76.2784 263.918 76.0625C263.424 75.8466 262.864 75.6562 262.239 75.4915L260.176 74.929C258.779 74.5483 257.671 73.9886 256.853 73.25C256.04 72.5114 255.634 71.5341 255.634 70.3182C255.634 69.3125 255.907 68.4347 256.452 67.6847C256.997 66.9347 257.736 66.3523 258.668 65.9375C259.6 65.517 260.651 65.3068 261.821 65.3068C263.003 65.3068 264.046 65.5142 264.949 65.929C265.858 66.3438 266.574 66.9148 267.097 67.642C267.62 68.3636 267.892 69.1932 267.915 70.1307H265.375ZM274.317 74.2727C274.317 76.4148 274.036 78.3835 273.473 80.179C272.911 81.9744 272.089 83.6307 271.01 85.1477H268.675C269.095 84.5852 269.487 83.8949 269.851 83.0767C270.214 82.2585 270.533 81.3636 270.805 80.392C271.078 79.4148 271.291 78.4034 271.445 77.358C271.598 76.3125 271.675 75.2841 271.675 74.2727C271.675 72.9261 271.541 71.5597 271.274 70.1733C271.007 68.7869 270.646 67.5 270.192 66.3125C269.737 65.125 269.232 64.1562 268.675 63.4062H271.01C272.089 64.9233 272.911 66.5795 273.473 68.375C274.036 70.1705 274.317 72.1364 274.317 74.2727Z" fill="white" fill-opacity="0.5"/>
<path d="M0 6C0 2.68629 2.68629 0 6 0H124C127.314 0 130 2.68629 130 6V28C130 31.3137 127.314 34 124 34H6C2.68629 34 0 31.3137 0 28V6Z" fill="white" fill-opacity="0.2"/>
<path d="M22.13 24V10.9091H30.5483V12.897H24.5015V15.9652H27.0263C28.0277 15.9652 28.8864 16.1293 29.6023 16.4574C30.3225 16.7812 30.8743 17.2393 31.2579 17.8317C31.6414 18.424 31.8331 19.1207 31.8331 19.9219C31.8331 20.7273 31.6414 21.4368 31.2579 22.0504C30.8743 22.6598 30.3225 23.1371 29.6023 23.4822C28.8864 23.8274 28.0277 24 27.0263 24H22.13ZM24.5015 22.0568H27.0263C27.5547 22.0568 28.0022 21.9567 28.3687 21.7564C28.7351 21.5561 29.0121 21.2919 29.1996 20.9638C29.3914 20.6357 29.4873 20.2798 29.4873 19.8963C29.4873 19.3423 29.2742 18.8714 28.8481 18.4837C28.4262 18.0916 27.8189 17.8956 27.0263 17.8956H24.5015V22.0568ZM34.7759 20.8679L38.707 14.1818H41.0849V24H38.8476V17.3075L34.9293 24H32.5451V14.1818H34.7759V20.8679ZM46.4838 24.1918C45.525 24.1918 44.694 23.9808 43.9909 23.5589C43.2878 23.1371 42.7423 22.5469 42.3545 21.7884C41.971 21.0298 41.7792 20.1435 41.7792 19.1293C41.7792 18.1151 41.971 17.2266 42.3545 16.4638C42.7423 15.701 43.2878 15.1087 43.9909 14.6868C44.694 14.2649 45.525 14.054 46.4838 14.054C47.4426 14.054 48.2736 14.2649 48.9767 14.6868C49.6798 15.1087 50.2231 15.701 50.6066 16.4638C50.9944 17.2266 51.1883 18.1151 51.1883 19.1293C51.1883 20.1435 50.9944 21.0298 50.6066 21.7884C50.2231 22.5469 49.6798 23.1371 48.9767 23.5589C48.2736 23.9808 47.4426 24.1918 46.4838 24.1918ZM46.4966 22.3381C47.0164 22.3381 47.4511 22.1953 47.8005 21.9098C48.15 21.62 48.4099 21.2322 48.5804 20.7464C48.7551 20.2607 48.8424 19.7195 48.8424 19.1229C48.8424 18.522 48.7551 17.9787 48.5804 17.4929C48.4099 17.0028 48.15 16.6129 47.8005 16.3232C47.4511 16.0334 47.0164 15.8885 46.4966 15.8885C45.9639 15.8885 45.5207 16.0334 45.167 16.3232C44.8176 16.6129 44.5555 17.0028 44.3808 17.4929C44.2103 17.9787 44.1251 18.522 44.1251 19.1229C44.1251 19.7195 44.2103 20.2607 44.3808 20.7464C44.5555 21.2322 44.8176 21.62 45.167 21.9098C45.5207 22.1953 45.9639 22.3381 46.4966 22.3381ZM58.3866 14.1818V16.0803H54.1551V24H51.8923V14.1818H58.3866ZM58.9819 27.6818V14.1818H61.2575V15.8054H61.3917C61.511 15.5668 61.6793 15.3132 61.8967 15.0447C62.114 14.772 62.408 14.5398 62.7788 14.348C63.1495 14.152 63.6225 14.054 64.1978 14.054C64.9563 14.054 65.6403 14.2479 66.2496 14.6357C66.8633 15.0192 67.3491 15.5881 67.707 16.3423C68.0692 17.0923 68.2504 18.0128 68.2504 19.1037C68.2504 20.1818 68.0735 21.098 67.7198 21.8523C67.3661 22.6065 66.8846 23.1818 66.2752 23.5781C65.6658 23.9744 64.9755 24.1726 64.2042 24.1726C63.6417 24.1726 63.1751 24.0788 62.8043 23.8913C62.4336 23.7038 62.1353 23.478 61.9094 23.2138C61.6879 22.9453 61.5153 22.6918 61.3917 22.4531H61.2958V27.6818H58.9819ZM61.2511 19.0909C61.2511 19.7259 61.3406 20.282 61.5195 20.7592C61.7028 21.2365 61.9648 21.6094 62.3058 21.8778C62.6509 22.142 63.0685 22.2741 63.5586 22.2741C64.07 22.2741 64.4982 22.1378 64.8434 21.8651C65.1886 21.5881 65.4485 21.2109 65.6232 20.7337C65.8022 20.2521 65.8917 19.7045 65.8917 19.0909C65.8917 18.4815 65.8043 17.9403 65.6296 17.4673C65.4549 16.9943 65.195 16.6236 64.8498 16.3551C64.5046 16.0866 64.0742 15.9524 63.5586 15.9524C63.0643 15.9524 62.6445 16.0824 62.2994 16.3423C61.9542 16.6023 61.6921 16.9666 61.5131 17.4354C61.3384 17.9041 61.2511 18.456 61.2511 19.0909ZM71.7972 24.1982C71.175 24.1982 70.6147 24.0874 70.1161 23.8658C69.6218 23.6399 69.2297 23.3075 68.9399 22.8686C68.6544 22.4297 68.5117 21.8885 68.5117 21.245C68.5117 20.6911 68.6139 20.233 68.8185 19.8707C69.023 19.5085 69.3022 19.2188 69.6558 19.0014C70.0095 18.7841 70.408 18.62 70.8512 18.5092C71.2986 18.3942 71.761 18.3111 72.2382 18.2599C72.8135 18.2003 73.2801 18.147 73.6381 18.1001C73.996 18.049 74.256 17.9723 74.4179 17.87C74.5841 17.7635 74.6672 17.5994 74.6672 17.3778V17.3395C74.6672 16.858 74.5245 16.4851 74.2389 16.2209C73.9534 15.9567 73.5422 15.8246 73.0053 15.8246C72.4385 15.8246 71.9889 15.9482 71.6566 16.1953C71.3284 16.4425 71.1068 16.7344 70.9918 17.071L68.8313 16.7642C69.0017 16.1676 69.283 15.669 69.675 15.2685C70.0671 14.8636 70.5465 14.5611 71.1132 14.3608C71.68 14.1562 72.3064 14.054 72.9925 14.054C73.4655 14.054 73.9364 14.1094 74.4051 14.2202C74.8739 14.331 75.3022 14.5142 75.6899 14.7699C76.0777 15.0213 76.3888 15.3643 76.6232 15.799C76.8618 16.2337 76.9811 16.777 76.9811 17.429V24H74.7567V22.6513H74.68C74.5394 22.924 74.3412 23.1797 74.0855 23.4183C73.8341 23.6527 73.5166 23.8423 73.1331 23.9872C72.7539 24.1278 72.3085 24.1982 71.7972 24.1982ZM72.398 22.4979C72.8625 22.4979 73.2652 22.4062 73.6061 22.223C73.947 22.0355 74.2091 21.7884 74.3923 21.4815C74.5798 21.1747 74.6736 20.8402 74.6736 20.478V19.321C74.6012 19.3807 74.4776 19.4361 74.3029 19.4872C74.1324 19.5384 73.9406 19.5831 73.7276 19.6214C73.5145 19.6598 73.3036 19.6939 73.0948 19.7237C72.886 19.7536 72.7048 19.7791 72.5514 19.8004C72.2063 19.8473 71.8973 19.924 71.6246 20.0305C71.3519 20.1371 71.1367 20.2862 70.979 20.478C70.8213 20.6655 70.7425 20.9084 70.7425 21.2067C70.7425 21.6328 70.898 21.9545 71.2091 22.1719C71.5202 22.3892 71.9165 22.4979 72.398 22.4979ZM82.5031 27.3366V10.9091H84.8234V27.3366H82.5031ZM82.5031 24.1918C81.7829 24.1918 81.1245 24.0703 80.5279 23.8274C79.9313 23.5845 79.4157 23.2393 78.9811 22.7919C78.5507 22.3445 78.2161 21.8118 77.9775 21.1939C77.7431 20.5717 77.6259 19.8835 77.6259 19.1293C77.6259 18.375 77.7431 17.6868 77.9775 17.0646C78.2161 16.4425 78.5507 15.9077 78.9811 15.4602C79.4157 15.0085 79.9313 14.6612 80.5279 14.4183C81.1245 14.1754 81.7829 14.054 82.5031 14.054H82.9953V24.1918H82.5031ZM82.5031 22.3253H82.7907V15.9205H82.5031C82.094 15.9205 81.7318 16.0057 81.4164 16.1761C81.1054 16.3423 80.8433 16.5746 80.6302 16.8729C80.4214 17.1669 80.2616 17.5078 80.1508 17.8956C80.0443 18.2791 79.991 18.6903 79.991 19.1293C79.991 19.7131 80.0869 20.2479 80.2786 20.7337C80.4704 21.2152 80.7517 21.6009 81.1224 21.8906C81.4974 22.1804 81.9576 22.3253 82.5031 22.3253ZM84.8234 24.1918H84.3312V14.054H84.8234C85.5436 14.054 86.2019 14.1754 86.7985 14.4183C87.3951 14.6612 87.9086 15.0085 88.339 15.4602C88.7737 15.9077 89.1082 16.4425 89.3426 17.0646C89.5812 17.6868 89.7005 18.375 89.7005 19.1293C89.7005 19.8835 89.5812 20.5717 89.3426 21.1939C89.1082 21.8118 88.7737 22.3445 88.339 22.7919C87.9086 23.2393 87.3951 23.5845 86.7985 23.8274C86.2019 24.0703 85.5436 24.1918 84.8234 24.1918ZM84.8234 22.3253C85.2367 22.3253 85.599 22.2422 85.91 22.076C86.2211 21.9098 86.4811 21.6797 86.6899 21.3857C86.9029 21.0916 87.0627 20.7528 87.1693 20.3693C87.2758 19.9815 87.3291 19.5682 87.3291 19.1293C87.3291 18.5455 87.2353 18.0107 87.0478 17.5249C86.8603 17.0391 86.5791 16.6513 86.2041 16.3615C85.8333 16.0675 85.3731 15.9205 84.8234 15.9205H84.5357V22.3253H84.8234ZM92.6241 20.8679L96.5552 14.1818H98.9331V24H96.6959V17.3075L92.7775 24H90.3933V14.1818H92.6241V20.8679ZM105.853 24V16.0611H103.757C103.224 16.0611 102.815 16.1847 102.529 16.4318C102.244 16.679 102.103 16.9858 102.108 17.3523C102.103 17.7188 102.238 18.0213 102.51 18.2599C102.783 18.4986 103.173 18.6179 103.68 18.6179H106.582V20.3054H103.68C102.896 20.3054 102.218 20.1818 101.647 19.9347C101.076 19.6875 100.637 19.3381 100.331 18.8864C100.024 18.4347 99.8703 17.9062 99.8703 17.3011C99.8703 16.6705 100.026 16.1229 100.337 15.6584C100.652 15.1896 101.1 14.8274 101.679 14.5717C102.263 14.3118 102.956 14.1818 103.757 14.1818H108.02V24H105.853ZM99.5124 24L102.255 18.9631H104.537L101.788 24H99.5124Z" fill="white"/>
</svg>
