<svg width="148" height="148" viewBox="0 0 148 148" fill="none" xmlns="http://www.w3.org/2000/svg">
<circle cx="74" cy="74" r="73" fill="#FBF4E6"/>
<path d="M73.9448 0.444824C33.3521 0.444824 0.444824 33.3521 0.444824 73.9448C0.444824 114.538 33.3521 147.445 73.9448 147.445C114.538 147.445 147.445 114.538 147.445 73.9448C147.445 33.3514 114.538 0.444824 73.9448 0.444824ZM87.5435 32.4209L96.6039 32.4209V71.5859H87.5435V32.4209ZM49.5474 32.4209H58.6079L58.6079 71.5859H49.5474L49.5474 32.4209ZM124.245 86.8112C121.498 97.5573 115.28 107.278 106.602 114.307C97.4034 121.759 85.8058 125.863 73.9448 125.863C62.0838 125.863 50.4856 121.759 41.2872 114.307C32.6095 107.278 26.3912 97.5573 23.6447 86.8112C20.4579 86.1782 17.8987 83.752 17.1623 80.4723C16.9127 79.3615 17.6109 78.2584 18.7224 78.0087C19.8332 77.7591 20.9364 78.4581 21.186 79.5695C21.6138 81.4729 23.3438 82.8555 25.3005 82.8555C27.2573 82.8555 28.9866 81.4729 29.4144 79.5695C29.664 78.4581 30.7672 77.7598 31.878 78.0087C32.9895 78.2584 33.6877 79.3615 33.4381 80.4723C32.7717 83.4407 30.6105 85.7088 27.8439 86.5831C30.4697 96.1587 36.1062 104.803 43.8832 111.103C52.3501 117.961 63.0261 121.738 73.9448 121.738C84.8635 121.738 95.5395 117.961 104.006 111.103C111.783 104.803 117.42 96.1587 120.046 86.5831C117.279 85.7088 115.118 83.4407 114.452 80.4723C114.202 79.3615 114.9 78.2584 116.012 78.0087C117.122 77.7591 118.226 78.4581 118.475 79.5695C118.903 81.4729 120.633 82.8555 122.589 82.8555C124.545 82.8555 126.276 81.4729 126.703 79.5695C126.953 78.4574 128.056 77.7612 129.167 78.0087C130.279 78.2584 130.977 79.3615 130.727 80.4723C129.991 83.752 127.431 86.1782 124.245 86.8112Z" fill="#404CD6"/>
</svg>
