<svg width="1544" height="94" viewBox="0 0 1544 94" fill="none" xmlns="http://www.w3.org/2000/svg">
<rect x="768" width="776" height="94" rx="25" fill="url(#paint0_linear_11_7)" fill-opacity="0.2"/>
<path d="M832.388 60.5753C830.189 60.5668 828.297 60.0256 826.712 58.9517C825.135 57.8778 823.92 56.3224 823.068 54.2855C822.224 52.2486 821.807 49.7983 821.815 46.9347C821.815 44.0795 822.237 41.6463 823.081 39.6349C823.933 37.6236 825.148 36.0937 826.724 35.0455C828.31 33.9886 830.197 33.4602 832.388 33.4602C834.578 33.4602 836.462 33.9886 838.038 35.0455C839.624 36.1023 840.842 37.6364 841.695 39.6477C842.547 41.6506 842.969 44.0795 842.96 46.9347C842.96 49.8068 842.534 52.2614 841.682 54.2983C840.838 56.3352 839.628 57.8906 838.051 58.9645C836.474 60.0384 834.587 60.5753 832.388 60.5753ZM832.388 55.9858C833.888 55.9858 835.085 55.2315 835.98 53.723C836.875 52.2145 837.318 49.9517 837.31 46.9347C837.31 44.9489 837.105 43.2955 836.696 41.9744C836.295 40.6534 835.724 39.6605 834.983 38.9957C834.25 38.331 833.385 37.9986 832.388 37.9986C830.896 37.9986 829.703 38.7443 828.808 40.2358C827.913 41.7273 827.462 43.9602 827.453 46.9347C827.453 48.946 827.653 50.625 828.054 51.9716C828.463 53.3097 829.038 54.3153 829.78 54.9886C830.521 55.6534 831.391 55.9858 832.388 55.9858ZM849.087 60.3324C848.243 60.3324 847.519 60.0341 846.914 59.4375C846.317 58.8324 846.019 58.108 846.019 57.2642C846.019 56.429 846.317 55.7131 846.914 55.1165C847.519 54.5199 848.243 54.2216 849.087 54.2216C849.905 54.2216 850.621 54.5199 851.235 55.1165C851.848 55.7131 852.155 56.429 852.155 57.2642C852.155 57.8267 852.01 58.3423 851.721 58.8111C851.439 59.2713 851.069 59.642 850.608 59.9233C850.148 60.196 849.641 60.3324 849.087 60.3324ZM856.575 60V56.0114L865.895 47.3821C866.688 46.6151 867.352 45.9247 867.889 45.3111C868.435 44.6974 868.848 44.0966 869.129 43.5085C869.411 42.9119 869.551 42.2685 869.551 41.5781C869.551 40.8111 869.376 40.1506 869.027 39.5966C868.678 39.0341 868.2 38.6037 867.595 38.3054C866.99 37.9986 866.304 37.8452 865.537 37.8452C864.736 37.8452 864.037 38.0071 863.44 38.331C862.844 38.6548 862.384 39.1193 862.06 39.7244C861.736 40.3295 861.574 41.0497 861.574 41.8849H856.32C856.32 40.1719 856.707 38.6847 857.483 37.4233C858.259 36.1619 859.345 35.1861 860.743 34.4957C862.141 33.8054 863.751 33.4602 865.575 33.4602C867.45 33.4602 869.082 33.7926 870.472 34.4574C871.869 35.1136 872.956 36.0256 873.732 37.1932C874.507 38.3608 874.895 39.6989 874.895 41.2074C874.895 42.196 874.699 43.1719 874.307 44.1349C873.923 45.098 873.237 46.1676 872.249 47.3438C871.26 48.5114 869.866 49.9134 868.068 51.5497L864.246 55.2955V55.4744H875.24V60H856.575ZM905.11 33.8182V38.3821H893.272V60H887.737V33.8182H905.11ZM924.877 33.1534L926.539 36.7074C925.985 37.1676 925.372 37.5085 924.699 37.7301C924.025 37.9432 923.22 38.0838 922.282 38.152C921.353 38.2202 920.22 38.267 918.882 38.2926C917.365 38.3097 916.129 38.5526 915.174 39.0213C914.22 39.4901 913.495 40.2273 913.001 41.233C912.507 42.2301 912.183 43.5341 912.029 45.1449H912.221C912.809 43.9432 913.636 43.0142 914.701 42.358C915.775 41.7017 917.1 41.3736 918.677 41.3736C920.348 41.3736 921.809 41.7401 923.062 42.473C924.324 43.206 925.304 44.2585 926.002 45.6307C926.701 47.0028 927.051 48.6477 927.051 50.5653C927.051 52.5597 926.659 54.294 925.875 55.7685C925.099 57.2344 923.995 58.3722 922.564 59.1818C921.132 59.983 919.427 60.3835 917.45 60.3835C915.464 60.3835 913.751 59.9659 912.311 59.1307C910.879 58.2955 909.771 57.0639 908.987 55.4361C908.211 53.8082 907.824 51.8054 907.824 49.4276V47.8168C907.824 43.0866 908.744 39.5795 910.585 37.2955C912.426 35.0114 915.132 33.8523 918.703 33.8182C919.674 33.8011 920.552 33.7969 921.336 33.8054C922.12 33.8139 922.806 33.7756 923.395 33.6903C923.991 33.6051 924.485 33.4261 924.877 33.1534ZM917.475 56.1648C918.311 56.1648 919.027 55.9474 919.623 55.5128C920.228 55.0781 920.693 54.456 921.017 53.6463C921.349 52.8366 921.515 51.8693 921.515 50.7443C921.515 49.6278 921.349 48.6818 921.017 47.9062C920.693 47.1222 920.228 46.5256 919.623 46.1165C919.018 45.7074 918.294 45.5028 917.45 45.5028C916.819 45.5028 916.252 45.6179 915.75 45.848C915.247 46.0781 914.816 46.419 914.458 46.8707C914.109 47.3139 913.836 47.8636 913.64 48.5199C913.453 49.1676 913.359 49.9091 913.359 50.7443C913.359 52.4233 913.721 53.7486 914.446 54.7202C915.179 55.6832 916.189 56.1648 917.475 56.1648Z" fill="black"/>
<path d="M950.634 32.5909L942.197 63.9375H939.435L947.873 32.5909H950.634ZM973.489 33.8182V60H970.319V37.142H970.165L963.773 41.3864V38.1648L970.319 33.8182H973.489ZM1007.41 33.8182V36.6307H994.775V60H991.604V33.8182H1007.41ZM1026.48 33L1028.01 34.8409C1027.41 35.4205 1026.72 35.8253 1025.94 36.0554C1025.15 36.2855 1024.27 36.4261 1023.28 36.4773C1022.29 36.5284 1021.19 36.5795 1019.98 36.6307C1018.62 36.6818 1017.49 37.0142 1016.59 37.6278C1015.7 38.2415 1015.01 39.1278 1014.52 40.2869C1014.04 41.446 1013.73 42.8693 1013.59 44.5568H1013.85C1014.51 43.3295 1015.43 42.4261 1016.61 41.8466C1017.78 41.267 1019.04 40.9773 1020.39 40.9773C1021.92 40.9773 1023.31 41.3352 1024.53 42.0511C1025.76 42.767 1026.73 43.8281 1027.45 45.2344C1028.16 46.6406 1028.52 48.375 1028.52 50.4375C1028.52 52.4915 1028.15 54.2642 1027.42 55.7557C1026.7 57.2472 1025.68 58.3977 1024.37 59.2074C1023.06 60.0085 1021.53 60.4091 1019.78 60.4091C1018.02 60.4091 1016.48 59.9957 1015.16 59.169C1013.84 58.3338 1012.81 57.098 1012.08 55.4616C1011.35 53.8168 1010.98 51.7841 1010.98 49.3636V47.267C1010.98 42.8949 1011.72 39.5795 1013.21 37.321C1014.7 35.0625 1016.94 33.8949 1019.93 33.8182C1020.99 33.7841 1021.93 33.7756 1022.76 33.7926C1023.58 33.8097 1024.3 33.7713 1024.92 33.6776C1025.53 33.5838 1026.05 33.358 1026.48 33ZM1019.78 57.6989C1020.96 57.6989 1021.98 57.4006 1022.83 56.804C1023.69 56.2074 1024.35 55.3679 1024.81 54.2855C1025.27 53.1946 1025.5 51.9119 1025.5 50.4375C1025.5 49.0057 1025.27 47.7869 1024.8 46.7812C1024.34 45.7756 1023.68 45.0085 1022.82 44.4801C1021.96 43.9517 1020.93 43.6875 1019.73 43.6875C1018.85 43.6875 1018.06 43.8366 1017.36 44.1349C1016.66 44.4332 1016.07 44.8722 1015.57 45.4517C1015.08 46.0312 1014.69 46.7386 1014.42 47.5739C1014.16 48.4091 1014.02 49.3636 1014 50.4375C1014 52.6364 1014.51 54.3963 1015.55 55.7173C1016.58 57.0384 1017.99 57.6989 1019.78 57.6989Z" fill="black" fill-opacity="0.5"/>
<path d="M22.7557 33.8182V60H19.5852V36.6307H6.39205V60H3.22159V33.8182H22.7557ZM36.7191 60.4091C34.9464 60.4091 33.391 59.9872 32.0529 59.1435C30.7234 58.2997 29.6836 57.1193 28.9336 55.6023C28.1921 54.0852 27.8214 52.3125 27.8214 50.2841C27.8214 48.2386 28.1921 46.4531 28.9336 44.9276C29.6836 43.402 30.7234 42.2173 32.0529 41.3736C33.391 40.5298 34.9464 40.108 36.7191 40.108C38.4918 40.108 40.043 40.5298 41.3725 41.3736C42.7106 42.2173 43.7504 43.402 44.4918 44.9276C45.2418 46.4531 45.6168 48.2386 45.6168 50.2841C45.6168 52.3125 45.2418 54.0852 44.4918 55.6023C43.7504 57.1193 42.7106 58.2997 41.3725 59.1435C40.043 59.9872 38.4918 60.4091 36.7191 60.4091ZM36.7191 57.6989C38.0657 57.6989 39.1737 57.3537 40.043 56.6634C40.9123 55.973 41.5558 55.0653 41.9734 53.9403C42.391 52.8153 42.5998 51.5966 42.5998 50.2841C42.5998 48.9716 42.391 47.7486 41.9734 46.6151C41.5558 45.4815 40.9123 44.5653 40.043 43.8665C39.1737 43.1676 38.0657 42.8182 36.7191 42.8182C35.3725 42.8182 34.2646 43.1676 33.3952 43.8665C32.5259 44.5653 31.8825 45.4815 31.4648 46.6151C31.0472 47.7486 30.8384 48.9716 30.8384 50.2841C30.8384 51.5966 31.0472 52.8153 31.4648 53.9403C31.8825 55.0653 32.5259 55.973 33.3952 56.6634C34.2646 57.3537 35.3725 57.6989 36.7191 57.6989ZM58.1996 60.4091C56.3587 60.4091 54.7734 59.9744 53.4439 59.1051C52.1143 58.2358 51.0916 57.0384 50.3757 55.5128C49.6598 53.9872 49.3018 52.2443 49.3018 50.2841C49.3018 48.2898 49.6683 46.5298 50.4013 45.0043C51.1428 43.4702 52.174 42.2727 53.495 41.4119C54.8246 40.5426 56.3757 40.108 58.1484 40.108C59.5291 40.108 60.7734 40.3636 61.8814 40.875C62.9893 41.3864 63.897 42.1023 64.6044 43.0227C65.3118 43.9432 65.7507 45.017 65.9212 46.2443H62.9041C62.674 45.3494 62.1626 44.5568 61.37 43.8665C60.5859 43.1676 59.5291 42.8182 58.1996 42.8182C57.0234 42.8182 55.9922 43.125 55.1058 43.7386C54.228 44.3437 53.5419 45.2003 53.0476 46.3082C52.5618 47.4077 52.3189 48.6989 52.3189 50.1818C52.3189 51.6989 52.5575 53.0199 53.0348 54.1449C53.5206 55.2699 54.2024 56.1435 55.0803 56.7656C55.9666 57.3878 57.0064 57.6989 58.1996 57.6989C58.9837 57.6989 59.6953 57.5625 60.3345 57.2898C60.9737 57.017 61.5149 56.625 61.9581 56.1136C62.4013 55.6023 62.7166 54.9886 62.9041 54.2727H65.9212C65.7507 55.4318 65.3288 56.4759 64.6555 57.4048C63.9908 58.3253 63.1087 59.0582 62.0092 59.6037C60.9183 60.1406 59.6484 60.4091 58.1996 60.4091ZM68.593 60V57.1875H69.3089C69.897 57.1875 70.3871 57.0724 70.7791 56.8423C71.1712 56.6037 71.4865 56.1903 71.7251 55.6023C71.9723 55.0057 72.1598 54.179 72.2876 53.1222C72.424 52.0568 72.522 50.7017 72.5817 49.0568L72.9396 40.3636H86.0305V60H83.0135V43.1761H75.8033L75.4964 50.1818C75.4283 51.7926 75.2834 53.2116 75.0618 54.4389C74.8487 55.6577 74.5206 56.6804 74.0774 57.5071C73.6428 58.3338 73.0632 58.956 72.3388 59.3736C71.6143 59.7912 70.7067 60 69.6158 60H68.593ZM99.799 60.4091C97.907 60.4091 96.2749 59.9915 94.9027 59.1562C93.5391 58.3125 92.4865 57.1364 91.745 55.6278C91.0121 54.1108 90.6456 52.3466 90.6456 50.3352C90.6456 48.3239 91.0121 46.5511 91.745 45.017C92.4865 43.4744 93.5178 42.2727 94.8388 41.4119C96.1683 40.5426 97.7195 40.108 99.4922 40.108C100.515 40.108 101.525 40.2784 102.522 40.6193C103.519 40.9602 104.427 41.5142 105.245 42.2812C106.063 43.0398 106.715 44.0455 107.201 45.2983C107.687 46.5511 107.93 48.0937 107.93 49.9261V51.2045H92.7933V48.5966H104.862C104.862 47.4886 104.64 46.5 104.197 45.6307C103.762 44.7614 103.14 44.0753 102.33 43.5724C101.529 43.0696 100.583 42.8182 99.4922 42.8182C98.2905 42.8182 97.2507 43.1165 96.3729 43.7131C95.5036 44.3011 94.8345 45.0682 94.3658 46.0142C93.897 46.9602 93.6626 47.9744 93.6626 49.0568V50.7955C93.6626 52.2784 93.9183 53.5355 94.4297 54.5668C94.9496 55.5895 95.6697 56.3693 96.5902 56.9062C97.5107 57.4347 98.5803 57.6989 99.799 57.6989C100.592 57.6989 101.308 57.5881 101.947 57.3665C102.594 57.1364 103.153 56.7955 103.621 56.3438C104.09 55.8835 104.452 55.3125 104.708 54.6307L107.623 55.4489C107.316 56.4375 106.8 57.3068 106.076 58.0568C105.352 58.7983 104.457 59.3778 103.391 59.7955C102.326 60.2045 101.129 60.4091 99.799 60.4091ZM110.423 65.625V57.1875H112.059C112.46 56.7699 112.805 56.3182 113.094 55.8324C113.384 55.3466 113.636 54.7713 113.849 54.1065C114.07 53.4332 114.258 52.6151 114.411 51.652C114.565 50.6804 114.701 49.5085 114.82 48.1364L115.485 40.3636H127.962V57.1875H130.979V65.625H127.962V60H113.44V65.625H110.423ZM115.485 57.1875H124.945V43.1761H118.298L117.786 48.1364C117.573 50.1903 117.309 51.9844 116.994 53.5185C116.678 55.0526 116.175 56.2756 115.485 57.1875ZM148.126 48.8011V51.6136H137.285V48.8011H148.126ZM138.001 40.3636V60H134.984V40.3636H138.001ZM150.427 40.3636V60H147.41V40.3636H150.427ZM164.17 60.4091C162.278 60.4091 160.646 59.9915 159.274 59.1562C157.91 58.3125 156.858 57.1364 156.116 55.6278C155.383 54.1108 155.017 52.3466 155.017 50.3352C155.017 48.3239 155.383 46.5511 156.116 45.017C156.858 43.4744 157.889 42.2727 159.21 41.4119C160.539 40.5426 162.091 40.108 163.863 40.108C164.886 40.108 165.896 40.2784 166.893 40.6193C167.89 40.9602 168.798 41.5142 169.616 42.2812C170.434 43.0398 171.086 44.0455 171.572 45.2983C172.058 46.5511 172.301 48.0937 172.301 49.9261V51.2045H157.164V48.5966H169.233C169.233 47.4886 169.011 46.5 168.568 45.6307C168.133 44.7614 167.511 44.0753 166.701 43.5724C165.9 43.0696 164.954 42.8182 163.863 42.8182C162.662 42.8182 161.622 43.1165 160.744 43.7131C159.875 44.3011 159.206 45.0682 158.737 46.0142C158.268 46.9602 158.034 47.9744 158.034 49.0568V50.7955C158.034 52.2784 158.289 53.5355 158.801 54.5668C159.321 55.5895 160.041 56.3693 160.961 56.9062C161.882 57.4347 162.951 57.6989 164.17 57.6989C164.963 57.6989 165.679 57.5881 166.318 57.3665C166.966 57.1364 167.524 56.7955 167.993 56.3438C168.461 55.8835 168.824 55.3125 169.079 54.6307L171.994 55.4489C171.687 56.4375 171.172 57.3068 170.447 58.0568C169.723 58.7983 168.828 59.3778 167.762 59.7955C166.697 60.2045 165.5 60.4091 164.17 60.4091ZM190.032 55.5511L199.493 40.3636H202.97V60H199.953V44.8125L190.544 60H187.015V40.3636H190.032V55.5511ZM207.268 54.9886H210.49C210.558 55.875 210.959 56.5483 211.692 57.0085C212.433 57.4688 213.396 57.6989 214.581 57.6989C215.791 57.6989 216.827 57.4517 217.688 56.9574C218.548 56.4545 218.979 55.6449 218.979 54.5284C218.979 53.8722 218.817 53.3011 218.493 52.8153C218.169 52.321 217.713 51.9375 217.125 51.6648C216.537 51.392 215.842 51.2557 215.041 51.2557H211.666V48.5455H215.041C216.243 48.5455 217.129 48.2727 217.7 47.7273C218.28 47.1818 218.57 46.5 218.57 45.6818C218.57 44.804 218.259 44.1009 217.636 43.5724C217.014 43.0355 216.132 42.767 214.99 42.767C213.839 42.767 212.881 43.027 212.114 43.5469C211.347 44.0582 210.942 44.7187 210.899 45.5284H207.729C207.763 44.4716 208.087 43.5384 208.7 42.7287C209.314 41.9105 210.149 41.2713 211.206 40.8111C212.263 40.3423 213.473 40.108 214.837 40.108C216.217 40.108 217.415 40.3509 218.429 40.8366C219.452 41.3139 220.24 41.9659 220.794 42.7926C221.357 43.6108 221.638 44.5398 221.638 45.5795C221.638 46.6875 221.327 47.5824 220.705 48.2642C220.082 48.946 219.303 49.4318 218.365 49.7216V49.9261C219.107 49.9773 219.75 50.2159 220.295 50.642C220.849 51.0597 221.28 51.6094 221.587 52.2912C221.893 52.9645 222.047 53.7102 222.047 54.5284C222.047 55.7216 221.727 56.7614 221.088 57.6477C220.449 58.5256 219.571 59.2074 218.455 59.6932C217.338 60.1705 216.064 60.4091 214.632 60.4091C213.243 60.4091 211.999 60.1832 210.899 59.7315C209.8 59.2713 208.926 58.6364 208.278 57.8267C207.639 57.0085 207.303 56.0625 207.268 54.9886ZM237.023 55.9091L243.876 40.3636H246.739L238.251 60H235.796L227.461 40.3636H230.273L237.023 55.9091ZM229.302 40.3636V60H226.285V40.3636H229.302ZM244.745 60V40.3636H247.762V60H244.745ZM261.518 60.4091C259.626 60.4091 257.994 59.9915 256.621 59.1562C255.258 58.3125 254.205 57.1364 253.464 55.6278C252.731 54.1108 252.364 52.3466 252.364 50.3352C252.364 48.3239 252.731 46.5511 253.464 45.017C254.205 43.4744 255.237 42.2727 256.558 41.4119C257.887 40.5426 259.438 40.108 261.211 40.108C262.234 40.108 263.244 40.2784 264.241 40.6193C265.238 40.9602 266.146 41.5142 266.964 42.2812C267.782 43.0398 268.434 44.0455 268.92 45.2983C269.406 46.5511 269.648 48.0937 269.648 49.9261V51.2045H254.512V48.5966H266.58C266.58 47.4886 266.359 46.5 265.915 45.6307C265.481 44.7614 264.859 44.0753 264.049 43.5724C263.248 43.0696 262.302 42.8182 261.211 42.8182C260.009 42.8182 258.969 43.1165 258.092 43.7131C257.222 44.3011 256.553 45.0682 256.085 46.0142C255.616 46.9602 255.381 47.9744 255.381 49.0568V50.7955C255.381 52.2784 255.637 53.5355 256.148 54.5668C256.668 55.5895 257.388 56.3693 258.309 56.9062C259.229 57.4347 260.299 57.6989 261.518 57.6989C262.31 57.6989 263.026 57.5881 263.665 57.3665C264.313 57.1364 264.871 56.7955 265.34 56.3438C265.809 55.8835 266.171 55.3125 266.427 54.6307L269.342 55.4489C269.035 56.4375 268.519 57.3068 267.795 58.0568C267.07 58.7983 266.175 59.3778 265.11 59.7955C264.045 60.2045 262.847 60.4091 261.518 60.4091ZM287.38 48.8011V51.6136H276.539V48.8011H287.38ZM277.255 40.3636V60H274.238V40.3636H277.255ZM289.681 40.3636V60H286.664V40.3636H289.681ZM303.424 60.4091C301.532 60.4091 299.9 59.9915 298.528 59.1562C297.164 58.3125 296.112 57.1364 295.37 55.6278C294.637 54.1108 294.271 52.3466 294.271 50.3352C294.271 48.3239 294.637 46.5511 295.37 45.017C296.112 43.4744 297.143 42.2727 298.464 41.4119C299.793 40.5426 301.344 40.108 303.117 40.108C304.14 40.108 305.15 40.2784 306.147 40.6193C307.144 40.9602 308.052 41.5142 308.87 42.2812C309.688 43.0398 310.34 44.0455 310.826 45.2983C311.312 46.5511 311.555 48.0937 311.555 49.9261V51.2045H296.418V48.5966H308.487C308.487 47.4886 308.265 46.5 307.822 45.6307C307.387 44.7614 306.765 44.0753 305.955 43.5724C305.154 43.0696 304.208 42.8182 303.117 42.8182C301.915 42.8182 300.876 43.1165 299.998 43.7131C299.129 44.3011 298.46 45.0682 297.991 46.0142C297.522 46.9602 297.288 47.9744 297.288 49.0568V50.7955C297.288 52.2784 297.543 53.5355 298.055 54.5668C298.575 55.5895 299.295 56.3693 300.215 56.9062C301.136 57.4347 302.205 57.6989 303.424 57.6989C304.217 57.6989 304.933 57.5881 305.572 57.3665C306.219 57.1364 306.778 56.7955 307.246 56.3438C307.715 55.8835 308.077 55.3125 308.333 54.6307L311.248 55.4489C310.941 56.4375 310.425 57.3068 309.701 58.0568C308.977 58.7983 308.082 59.3778 307.016 59.7955C305.951 60.2045 304.754 60.4091 303.424 60.4091ZM329.286 48.8011V51.6136H318.445V48.8011H329.286ZM319.161 40.3636V60H316.144V40.3636H319.161ZM331.587 40.3636V60H328.57V40.3636H331.587ZM340.114 55.5511L349.575 40.3636H353.052V60H350.035V44.8125L340.626 60H337.097V40.3636H340.114V55.5511ZM366.811 60.4091C364.919 60.4091 363.287 59.9915 361.914 59.1562C360.551 58.3125 359.498 57.1364 358.757 55.6278C358.024 54.1108 357.657 52.3466 357.657 50.3352C357.657 48.3239 358.024 46.5511 358.757 45.017C359.498 43.4744 360.529 42.2727 361.85 41.4119C363.18 40.5426 364.731 40.108 366.504 40.108C367.527 40.108 368.537 40.2784 369.534 40.6193C370.531 40.9602 371.439 41.5142 372.257 42.2812C373.075 43.0398 373.727 44.0455 374.213 45.2983C374.699 46.5511 374.941 48.0937 374.941 49.9261V51.2045H359.805V48.5966H371.873C371.873 47.4886 371.652 46.5 371.208 45.6307C370.774 44.7614 370.152 44.0753 369.342 43.5724C368.541 43.0696 367.595 42.8182 366.504 42.8182C365.302 42.8182 364.262 43.1165 363.385 43.7131C362.515 44.3011 361.846 45.0682 361.377 46.0142C360.909 46.9602 360.674 47.9744 360.674 49.0568V50.7955C360.674 52.2784 360.93 53.5355 361.441 54.5668C361.961 55.5895 362.681 56.3693 363.602 56.9062C364.522 57.4347 365.592 57.6989 366.811 57.6989C367.603 57.6989 368.319 57.5881 368.958 57.3665C369.606 57.1364 370.164 56.7955 370.633 56.3438C371.102 55.8835 371.464 55.3125 371.72 54.6307L374.635 55.4489C374.328 56.4375 373.812 57.3068 373.088 58.0568C372.363 58.7983 371.468 59.3778 370.403 59.7955C369.338 60.2045 368.14 60.4091 366.811 60.4091ZM381.73 60.2045C381.099 60.2045 380.558 59.9787 380.106 59.527C379.654 59.0753 379.429 58.5341 379.429 57.9034C379.429 57.2727 379.654 56.7315 380.106 56.2798C380.558 55.8281 381.099 55.6023 381.73 55.6023C382.36 55.6023 382.902 55.8281 383.353 56.2798C383.805 56.7315 384.031 57.2727 384.031 57.9034C384.031 58.321 383.924 58.7045 383.711 59.054C383.507 59.4034 383.23 59.6847 382.88 59.8977C382.539 60.1023 382.156 60.2045 381.73 60.2045ZM381.73 45.6307C381.099 45.6307 380.558 45.4048 380.106 44.9531C379.654 44.5014 379.429 43.9602 379.429 43.3295C379.429 42.6989 379.654 42.1577 380.106 41.706C380.558 41.2543 381.099 41.0284 381.73 41.0284C382.36 41.0284 382.902 41.2543 383.353 41.706C383.805 42.1577 384.031 42.6989 384.031 43.3295C384.031 43.7472 383.924 44.1307 383.711 44.4801C383.507 44.8295 383.23 45.1108 382.88 45.3239C382.539 45.5284 382.156 45.6307 381.73 45.6307Z" fill="black" fill-opacity="0.5"/>
<path d="M399.519 60V57.6989L408.161 48.2386C409.175 47.1307 410.01 46.1676 410.667 45.3494C411.323 44.5227 411.809 43.7472 412.124 43.0227C412.448 42.2898 412.61 41.5227 412.61 40.7216C412.61 39.8011 412.388 39.0043 411.945 38.331C411.51 37.6577 410.914 37.1378 410.155 36.7713C409.397 36.4048 408.544 36.2216 407.598 36.2216C406.593 36.2216 405.715 36.4304 404.965 36.848C404.223 37.2571 403.648 37.8324 403.239 38.5739C402.838 39.3153 402.638 40.1847 402.638 41.1818H399.621C399.621 39.6477 399.975 38.3011 400.682 37.142C401.39 35.983 402.353 35.0795 403.571 34.4318C404.799 33.7841 406.175 33.4602 407.701 33.4602C409.235 33.4602 410.594 33.7841 411.779 34.4318C412.963 35.0795 413.892 35.9531 414.566 37.0526C415.239 38.152 415.576 39.375 415.576 40.7216C415.576 41.6847 415.401 42.6264 415.051 43.5469C414.711 44.4588 414.114 45.4773 413.262 46.6023C412.418 47.7187 411.246 49.0824 409.746 50.6932L403.865 56.983V57.1875H416.036V60H399.519ZM420.14 54.6307V52.0227L431.645 33.8182H433.537V37.858H432.259L423.566 51.6136V51.8182H439.06V54.6307H420.14ZM432.463 60V53.8381V52.6236V33.8182H435.48V60H432.463ZM444.87 60.2045C444.24 60.2045 443.699 59.9787 443.247 59.527C442.795 59.0753 442.569 58.5341 442.569 57.9034C442.569 57.2727 442.795 56.7315 443.247 56.2798C443.699 55.8281 444.24 55.6023 444.87 55.6023C445.501 55.6023 446.042 55.8281 446.494 56.2798C446.946 56.7315 447.172 57.2727 447.172 57.9034C447.172 58.321 447.065 58.7045 446.852 59.054C446.647 59.4034 446.37 59.6847 446.021 59.8977C445.68 60.1023 445.297 60.2045 444.87 60.2045ZM460.16 60.358C458.234 60.358 456.593 59.8338 455.238 58.7855C453.883 57.7287 452.848 56.1989 452.132 54.196C451.416 52.1847 451.058 49.7557 451.058 46.9091C451.058 44.0795 451.416 41.6634 452.132 39.6605C452.856 37.6491 453.896 36.1151 455.251 35.0582C456.615 33.9929 458.251 33.4602 460.16 33.4602C462.069 33.4602 463.701 33.9929 465.056 35.0582C466.42 36.1151 467.46 37.6491 468.176 39.6605C468.9 41.6634 469.262 44.0795 469.262 46.9091C469.262 49.7557 468.904 52.1847 468.189 54.196C467.473 56.1989 466.437 57.7287 465.082 58.7855C463.727 59.8338 462.086 60.358 460.16 60.358ZM460.16 57.5455C462.069 57.5455 463.552 56.625 464.609 54.7841C465.666 52.9432 466.194 50.3182 466.194 46.9091C466.194 44.642 465.951 42.7116 465.466 41.1179C464.988 39.5241 464.298 38.3097 463.395 37.4744C462.5 36.6392 461.422 36.2216 460.16 36.2216C458.268 36.2216 456.789 37.1548 455.724 39.0213C454.659 40.8793 454.126 43.5085 454.126 46.9091C454.126 49.1761 454.365 51.1023 454.842 52.6875C455.319 54.2727 456.005 55.4787 456.9 56.3054C457.804 57.1321 458.89 57.5455 460.16 57.5455ZM473.507 54.6307V52.0227L485.012 33.8182H486.904V37.858H485.626L476.933 51.6136V51.8182H492.427V54.6307H473.507ZM485.831 60V53.8381V52.6236V33.8182H488.848V60H485.831ZM498.238 60.2045C497.607 60.2045 497.066 59.9787 496.614 59.527C496.162 59.0753 495.936 58.5341 495.936 57.9034C495.936 57.2727 496.162 56.7315 496.614 56.2798C497.066 55.8281 497.607 55.6023 498.238 55.6023C498.868 55.6023 499.409 55.8281 499.861 56.2798C500.313 56.7315 500.539 57.2727 500.539 57.9034C500.539 58.321 500.432 58.7045 500.219 59.054C500.015 59.4034 499.738 59.6847 499.388 59.8977C499.047 60.1023 498.664 60.2045 498.238 60.2045ZM505.902 60V57.6989L514.544 48.2386C515.558 47.1307 516.393 46.1676 517.049 45.3494C517.706 44.5227 518.191 43.7472 518.507 43.0227C518.831 42.2898 518.993 41.5227 518.993 40.7216C518.993 39.8011 518.771 39.0043 518.328 38.331C517.893 37.6577 517.297 37.1378 516.538 36.7713C515.779 36.4048 514.927 36.2216 513.981 36.2216C512.975 36.2216 512.098 36.4304 511.348 36.848C510.606 37.2571 510.031 37.8324 509.622 38.5739C509.221 39.3153 509.021 40.1847 509.021 41.1818H506.004C506.004 39.6477 506.358 38.3011 507.065 37.142C507.772 35.983 508.735 35.0795 509.954 34.4318C511.181 33.7841 512.558 33.4602 514.083 33.4602C515.618 33.4602 516.977 33.7841 518.162 34.4318C519.346 35.0795 520.275 35.9531 520.949 37.0526C521.622 38.152 521.958 39.375 521.958 40.7216C521.958 41.6847 521.784 42.6264 521.434 43.5469C521.093 44.4588 520.497 45.4773 519.645 46.6023C518.801 47.7187 517.629 49.0824 516.129 50.6932L510.248 56.983V57.1875H522.419V60H505.902ZM536.238 60.358C534.312 60.358 532.672 59.8338 531.316 58.7855C529.961 57.7287 528.926 56.1989 528.21 54.196C527.494 52.1847 527.136 49.7557 527.136 46.9091C527.136 44.0795 527.494 41.6634 528.21 39.6605C528.934 37.6491 529.974 36.1151 531.329 35.0582C532.693 33.9929 534.329 33.4602 536.238 33.4602C538.147 33.4602 539.779 33.9929 541.135 35.0582C542.498 36.1151 543.538 37.6491 544.254 39.6605C544.978 41.6634 545.341 44.0795 545.341 46.9091C545.341 49.7557 544.983 52.1847 544.267 54.196C543.551 56.1989 542.515 57.7287 541.16 58.7855C539.805 59.8338 538.164 60.358 536.238 60.358ZM536.238 57.5455C538.147 57.5455 539.63 56.625 540.687 54.7841C541.744 52.9432 542.272 50.3182 542.272 46.9091C542.272 44.642 542.029 42.7116 541.544 41.1179C541.066 39.5241 540.376 38.3097 539.473 37.4744C538.578 36.6392 537.5 36.2216 536.238 36.2216C534.346 36.2216 532.868 37.1548 531.802 39.0213C530.737 40.8793 530.204 43.5085 530.204 46.9091C530.204 49.1761 530.443 51.1023 530.92 52.6875C531.397 54.2727 532.083 55.4787 532.978 56.3054C533.882 57.1321 534.968 57.5455 536.238 57.5455ZM550.199 60V57.6989L558.841 48.2386C559.855 47.1307 560.69 46.1676 561.346 45.3494C562.002 44.5227 562.488 43.7472 562.804 43.0227C563.127 42.2898 563.289 41.5227 563.289 40.7216C563.289 39.8011 563.068 39.0043 562.625 38.331C562.19 37.6577 561.593 37.1378 560.835 36.7713C560.076 36.4048 559.224 36.2216 558.278 36.2216C557.272 36.2216 556.395 36.4304 555.645 36.848C554.903 37.2571 554.328 37.8324 553.919 38.5739C553.518 39.3153 553.318 40.1847 553.318 41.1818H550.301C550.301 39.6477 550.654 38.3011 551.362 37.142C552.069 35.983 553.032 35.0795 554.251 34.4318C555.478 33.7841 556.855 33.4602 558.38 33.4602C559.914 33.4602 561.274 33.7841 562.458 34.4318C563.643 35.0795 564.572 35.9531 565.245 37.0526C565.919 38.152 566.255 39.375 566.255 40.7216C566.255 41.6847 566.081 42.6264 565.731 43.5469C565.39 44.4588 564.794 45.4773 563.941 46.6023C563.098 47.7187 561.926 49.0824 560.426 50.6932L554.545 56.983V57.1875H566.716V60H550.199ZM570.819 54.6307V52.0227L582.325 33.8182H584.217V37.858H582.939L574.245 51.6136V51.8182H589.74V54.6307H570.819ZM583.143 60V53.8381V52.6236V33.8182H586.16V60H583.143ZM604.707 60V40.3636H612.735C614.849 40.3636 616.528 40.8409 617.772 41.7955C619.016 42.75 619.638 44.0114 619.638 45.5795C619.638 46.7727 619.285 47.6974 618.577 48.3537C617.87 49.0014 616.962 49.4403 615.854 49.6705C616.579 49.7727 617.282 50.0284 617.964 50.4375C618.654 50.8466 619.225 51.4091 619.677 52.125C620.129 52.8324 620.354 53.7017 620.354 54.733C620.354 55.7386 620.099 56.6378 619.587 57.4304C619.076 58.223 618.343 58.8494 617.388 59.3097C616.434 59.7699 615.292 60 613.962 60H604.707ZM607.57 57.2386H613.962C615.002 57.2386 615.816 56.9915 616.404 56.4972C616.992 56.0028 617.286 55.3295 617.286 54.4773C617.286 53.4631 616.992 52.6662 616.404 52.0866C615.816 51.4986 615.002 51.2045 613.962 51.2045H607.57V57.2386ZM607.57 48.5966H612.735C613.545 48.5966 614.239 48.4858 614.819 48.2642C615.398 48.0341 615.842 47.7102 616.148 47.2926C616.464 46.8665 616.621 46.3636 616.621 45.7841C616.621 44.9574 616.276 44.3097 615.586 43.8409C614.896 43.3636 613.945 43.125 612.735 43.125H607.57V48.5966ZM644.2 33.8182V60H641.029V37.142H640.876L634.484 41.3864V38.1648L641.029 33.8182H644.2ZM659.912 60.358C658.412 60.358 657.061 60.0597 655.859 59.4631C654.657 58.8665 653.694 58.0483 652.97 57.0085C652.245 55.9688 651.849 54.7841 651.781 53.4545H654.849C654.968 54.6392 655.505 55.6193 656.46 56.3949C657.423 57.1619 658.574 57.5455 659.912 57.5455C660.985 57.5455 661.94 57.294 662.775 56.7912C663.619 56.2884 664.279 55.598 664.757 54.7202C665.243 53.8338 665.485 52.8324 665.485 51.7159C665.485 50.5739 665.234 49.5554 664.731 48.6605C664.237 47.7571 663.555 47.0455 662.686 46.5256C661.816 46.0057 660.824 45.7415 659.707 45.733C658.906 45.7244 658.083 45.848 657.24 46.1037C656.396 46.3509 655.701 46.6705 655.156 47.0625L652.19 46.7045L653.775 33.8182H667.377V36.6307H656.434L655.514 44.3523H655.667C656.204 43.9261 656.877 43.5724 657.687 43.2912C658.497 43.0099 659.341 42.8693 660.218 42.8693C661.821 42.8693 663.248 43.2528 664.501 44.0199C665.762 44.7784 666.751 45.8182 667.467 47.1392C668.191 48.4602 668.554 49.9687 668.554 51.6648C668.554 53.3352 668.179 54.8267 667.429 56.1392C666.687 57.4432 665.664 58.4744 664.36 59.233C663.056 59.983 661.574 60.358 659.912 60.358ZM675.882 56.6506C675.251 56.6506 674.71 56.4247 674.259 55.973C673.807 55.5213 673.581 54.9801 673.581 54.3494C673.581 53.7187 673.807 53.1776 674.259 52.7259C674.71 52.2741 675.251 52.0483 675.882 52.0483C676.513 52.0483 677.054 52.2741 677.506 52.7259C677.957 53.1776 678.183 53.7187 678.183 54.3494C678.183 54.767 678.077 55.1506 677.864 55.5C677.659 55.8494 677.382 56.1307 677.033 56.3438C676.692 56.5483 676.308 56.6506 675.882 56.6506ZM675.882 43.4062C675.251 43.4062 674.71 43.1804 674.259 42.7287C673.807 42.277 673.581 41.7358 673.581 41.1051C673.581 40.4744 673.807 39.9332 674.259 39.4815C674.71 39.0298 675.251 38.804 675.882 38.804C676.513 38.804 677.054 39.0298 677.506 39.4815C677.957 39.9332 678.183 40.4744 678.183 41.1051C678.183 41.5227 678.077 41.9062 677.864 42.2557C677.659 42.6051 677.382 42.8864 677.033 43.0994C676.692 43.304 676.308 43.4062 675.882 43.4062ZM692.393 60.358C690.705 60.358 689.201 60.0682 687.88 59.4886C686.567 58.9091 685.523 58.1037 684.748 57.0724C683.981 56.0327 683.563 54.8267 683.495 53.4545H686.717C686.785 54.2983 687.075 55.027 687.586 55.6406C688.097 56.2457 688.766 56.7145 689.593 57.0469C690.42 57.3793 691.336 57.5455 692.342 57.5455C693.467 57.5455 694.464 57.3494 695.333 56.9574C696.202 56.5653 696.884 56.0199 697.379 55.321C697.873 54.6222 698.12 53.8125 698.12 52.892C698.12 51.929 697.881 51.081 697.404 50.348C696.927 49.6065 696.228 49.027 695.308 48.6094C694.387 48.1918 693.262 47.983 691.933 47.983H689.836V45.1705H691.933C692.972 45.1705 693.884 44.983 694.668 44.608C695.461 44.233 696.079 43.7045 696.522 43.0227C696.974 42.3409 697.2 41.5398 697.2 40.6193C697.2 39.733 697.004 38.9616 696.612 38.3054C696.219 37.6491 695.665 37.1378 694.95 36.7713C694.242 36.4048 693.407 36.2216 692.444 36.2216C691.54 36.2216 690.688 36.3878 689.887 36.7202C689.094 37.044 688.447 37.517 687.944 38.1392C687.441 38.7528 687.168 39.4943 687.126 40.3636H684.058C684.109 38.9915 684.522 37.7898 685.298 36.7585C686.073 35.7187 687.087 34.9091 688.34 34.3295C689.602 33.75 690.987 33.4602 692.495 33.4602C694.114 33.4602 695.504 33.7884 696.663 34.4446C697.822 35.0923 698.712 35.9489 699.335 37.0142C699.957 38.0795 700.268 39.2301 700.268 40.4659C700.268 41.9403 699.88 43.1974 699.104 44.2372C698.337 45.277 697.293 45.9972 695.972 46.3977V46.6023C697.626 46.875 698.917 47.5781 699.846 48.7116C700.775 49.8366 701.239 51.2301 701.239 52.892C701.239 54.3153 700.852 55.5938 700.076 56.7273C699.309 57.8523 698.261 58.7386 696.931 59.3864C695.602 60.0341 694.089 60.358 692.393 60.358ZM715.673 33.8182V60H712.502V37.142H712.349L705.957 41.3864V38.1648L712.502 33.8182H715.673Z" fill="black"/>
<rect x="1072" y="38" width="401" height="18" rx="9" fill="black" fill-opacity="0.2"/>
<rect x="1072" y="38" width="80.2" height="18" rx="9" fill="black"/>
<defs>
<linearGradient id="paint0_linear_11_7" x1="768" y1="47" x2="1544" y2="47" gradientUnits="userSpaceOnUse">
<stop stop-opacity="0.5"/>
<stop offset="1" stop-color="#666666" stop-opacity="0.5"/>
</linearGradient>
</defs>
</svg>
