<svg width="100" height="100" viewBox="0 0 100 100" fill="none" xmlns="http://www.w3.org/2000/svg">
<rect width="100" height="100" rx="50" fill="white" fill-opacity="0.1"/>
<path d="M65.909 46.8182V53.1818H62.7272V56.3636H59.5454V59.5455H56.3636V62.7273H53.1818V65.9091H46.8181V62.7273H43.6363V59.5455H40.4545V56.3636H37.2727V53.1818H34.0909V46.8182H40.4545V50H43.6363V53.1818H46.8181V34.0909H53.1818V53.1818H56.3636V50H59.5454V46.8182H65.909ZM81.8181 37.2727V62.7273H78.6363V69.0909H75.4545V72.2727H72.2727V75.4545H69.0909V78.6364H62.7272V81.8182H37.2727V78.6364H30.909V75.4545H27.7272V72.2727H24.5454V69.0909H21.3636V62.7273H18.1818V37.2727H21.3636V30.9091H24.5454V27.7273H27.7272V24.5455H30.909V21.3636H37.2727V18.1818H62.7272V21.3636H69.0909V24.5455H72.2727V27.7273H75.4545V30.9091H78.6363V37.2727H81.8181ZM69.0909 34.0909V30.9091H65.909V27.7273H59.5454V24.5455H40.4545V27.7273H34.0909V30.9091H30.909V34.0909H27.7272V40.4545H24.5454V59.5455H27.7272V65.9091H30.909V69.0909H34.0909V72.2727H40.4545V75.4545H59.5454V72.2727H65.909V69.0909H69.0909V65.9091H72.2727V59.5455H75.4545V40.4545H72.2727V34.0909H69.0909Z" fill="white" fill-opacity="0.8"/>
</svg>
