<svg width="34" height="34" viewBox="0 0 34 34" fill="none" xmlns="http://www.w3.org/2000/svg">
<rect width="34" height="34" rx="17" fill="white" fill-opacity="0.1"/>
<path d="M22 16V18H21V19H20V20H19V21H18V22H16V21H15V20H14V19H13V18H12V16H14V17H15V18H16V12H18V18H19V17H20V16H22ZM27 13V21H26V23H25V24H24V25H23V26H21V27H13V26H11V25H10V24H9V23H8V21H7V13H8V11H9V10H10V9H11V8H13V7H21V8H23V9H24V10H25V11H26V13H27ZM23 12V11H22V10H20V9H14V10H12V11H11V12H10V14H9V20H10V22H11V23H12V24H14V25H20V24H22V23H23V22H24V20H25V14H24V12H23Z" fill="white" fill-opacity="0.8"/>
</svg>
