<svg width="113" height="40" viewBox="0 0 113 40" fill="none" xmlns="http://www.w3.org/2000/svg">
<g filter="url(#filter0_b_20_2)">
<rect width="113" height="40" rx="20" fill="white" fill-opacity="0.06"/>
<rect x="0.5" y="0.5" width="112" height="39" rx="19.5" stroke="url(#paint0_linear_20_2)"/>
<path d="M28.1364 26.1591C27.3864 26.1591 26.7178 26.0303 26.1307 25.7727C25.5473 25.5152 25.0833 25.1572 24.7386 24.6989C24.3977 24.2367 24.2121 23.7008 24.1818 23.0909H25.6136C25.6439 23.4659 25.7727 23.7898 26 24.0625C26.2273 24.3314 26.5246 24.5398 26.892 24.6875C27.2595 24.8352 27.6667 24.9091 28.1136 24.9091C28.6136 24.9091 29.0568 24.822 29.4432 24.6477C29.8295 24.4735 30.1326 24.2311 30.3523 23.9205C30.572 23.6098 30.6818 23.25 30.6818 22.8409C30.6818 22.4129 30.5758 22.036 30.3636 21.7102C30.1515 21.3807 29.8409 21.1231 29.4318 20.9375C29.0227 20.7519 28.5227 20.6591 27.9318 20.6591H27V19.4091H27.9318C28.3939 19.4091 28.7992 19.3258 29.1477 19.1591C29.5 18.9924 29.7746 18.7576 29.9716 18.4545C30.1723 18.1515 30.2727 17.7955 30.2727 17.3864C30.2727 16.9924 30.1856 16.6496 30.0114 16.358C29.8371 16.0663 29.5909 15.839 29.2727 15.6761C28.9583 15.5133 28.5871 15.4318 28.1591 15.4318C27.7576 15.4318 27.3788 15.5057 27.0227 15.6534C26.6705 15.7973 26.3826 16.0076 26.1591 16.2841C25.9356 16.5568 25.8144 16.8864 25.7955 17.2727H24.4318C24.4545 16.6629 24.6383 16.1288 24.983 15.6705C25.3277 15.2083 25.7784 14.8485 26.3352 14.5909C26.8958 14.3333 27.5114 14.2045 28.1818 14.2045C28.9015 14.2045 29.5189 14.3504 30.0341 14.642C30.5492 14.9299 30.9451 15.3106 31.2216 15.7841C31.4981 16.2576 31.6364 16.7689 31.6364 17.3182C31.6364 17.9735 31.464 18.5322 31.1193 18.9943C30.7784 19.4564 30.3144 19.7765 29.7273 19.9545V20.0455C30.4621 20.1667 31.036 20.4792 31.4489 20.983C31.8617 21.483 32.0682 22.1023 32.0682 22.8409C32.0682 23.4735 31.8958 24.0417 31.5511 24.5455C31.2102 25.0455 30.7443 25.4394 30.1534 25.7273C29.5625 26.0152 28.8902 26.1591 28.1364 26.1591ZM34.4148 26V17.2727H37.983C38.9223 17.2727 39.6686 17.4848 40.2216 17.9091C40.7746 18.3333 41.0511 18.8939 41.0511 19.5909C41.0511 20.1212 40.8939 20.5322 40.5795 20.8239C40.2652 21.1117 39.8617 21.3068 39.3693 21.4091C39.6913 21.4545 40.0038 21.5682 40.3068 21.75C40.6136 21.9318 40.8674 22.1818 41.0682 22.5C41.2689 22.8144 41.3693 23.2008 41.3693 23.6591C41.3693 24.1061 41.2557 24.5057 41.0284 24.858C40.8011 25.2102 40.4754 25.4886 40.0511 25.6932C39.6269 25.8977 39.1193 26 38.5284 26H34.4148ZM35.6875 24.7727H38.5284C38.9905 24.7727 39.3523 24.6629 39.6136 24.4432C39.875 24.2235 40.0057 23.9242 40.0057 23.5455C40.0057 23.0947 39.875 22.7405 39.6136 22.483C39.3523 22.2216 38.9905 22.0909 38.5284 22.0909H35.6875V24.7727ZM35.6875 20.9318H37.983C38.3428 20.9318 38.6515 20.8826 38.9091 20.7841C39.1667 20.6818 39.3636 20.5379 39.5 20.3523C39.6402 20.1629 39.7102 19.9394 39.7102 19.6818C39.7102 19.3144 39.5568 19.0265 39.25 18.8182C38.9432 18.6061 38.5208 18.5 37.983 18.5H35.6875V20.9318ZM44.2628 29.2727C44.0355 29.2727 43.8329 29.2538 43.6548 29.2159C43.4768 29.1818 43.3537 29.1477 43.2855 29.1136L43.6264 27.9318C43.9522 28.0152 44.2401 28.0455 44.4901 28.0227C44.7401 28 44.9616 27.8883 45.1548 27.6875C45.3518 27.4905 45.5317 27.1705 45.6946 26.7273L45.9446 26.0455L42.7173 17.2727H44.1719L46.581 24.2273H46.6719L49.081 17.2727H50.5355L46.831 27.2727C46.6643 27.7235 46.4579 28.0966 46.2116 28.392C45.9654 28.6913 45.6795 28.9129 45.3537 29.0568C45.0317 29.2008 44.6681 29.2727 44.2628 29.2727ZM52.3054 26V17.2727H53.6463V21.0682H54.5327L57.669 17.2727H59.3963L55.8736 21.4773L59.4418 26H57.7145L54.8509 22.3182H53.6463V26H52.3054Z" fill="white" fill-opacity="0.8"/>
<path d="M81.8182 11.8182H83.6364V12.7273H84.5455V13.6364H85.4546V14.5455H86.3637V15.4545H87.2728V17.2727H88.1819V22.7273H87.2728V24.5455H86.3637V25.4545H85.4546V26.3636H84.5455V27.2727H83.6364V28.1818H81.8182V26.3636H82.7273V25.4545H83.6364V24.5455H84.5455V23.6364H85.4546V21.8182H86.3637V18.1818H85.4546V16.3636H84.5455V15.4545H83.6364V14.5455H82.7273V13.6364H81.8182V11.8182ZM82.7273 16.3636V17.2727H83.6364V19.0909H84.5455V20.9091H83.6364V22.7273H82.7273V23.6364H81.8182V16.3636H82.7273ZM71.8182 17.2727H75.4546V16.3636H76.3637V15.4545H77.2728V14.5455H78.1819V13.6364H79.091V12.7273H80.0001V27.2727H79.091V26.3636H78.1819V25.4545H77.2728V24.5455H76.3637V23.6364H75.4546V22.7273H71.8182V17.2727ZM73.6364 19.0909V20.9091H76.3637V21.8182H77.2728V22.7273H78.1819V17.2727H77.2728V18.1818H76.3637V19.0909H73.6364Z" fill="white" fill-opacity="0.8"/>
</g>
<defs>
<filter id="filter0_b_20_2" x="-12" y="-12" width="137" height="64" filterUnits="userSpaceOnUse" color-interpolation-filters="sRGB">
<feFlood flood-opacity="0" result="BackgroundImageFix"/>
<feGaussianBlur in="BackgroundImageFix" stdDeviation="6"/>
<feComposite in2="SourceAlpha" operator="in" result="effect1_backgroundBlur_20_2"/>
<feBlend mode="normal" in="SourceGraphic" in2="effect1_backgroundBlur_20_2" result="shape"/>
</filter>
<linearGradient id="paint0_linear_20_2" x1="-0.5" y1="20" x2="112.5" y2="20" gradientUnits="userSpaceOnUse">
<stop stop-color="white" stop-opacity="0.5"/>
<stop offset="1" stop-color="white" stop-opacity="0"/>
</linearGradient>
</defs>
</svg>
