<svg width="86" height="34" viewBox="0 0 86 34" fill="none" xmlns="http://www.w3.org/2000/svg">
<rect width="86" height="34" rx="17" fill="white" fill-opacity="0.1"/>
<path d="M18.8523 21.1193C18.2898 21.1193 17.7884 21.0227 17.348 20.8295C16.9105 20.6364 16.5625 20.3679 16.304 20.0241C16.0483 19.6776 15.9091 19.2756 15.8864 18.8182H16.9602C16.983 19.0994 17.0795 19.3423 17.25 19.5469C17.4205 19.7486 17.6435 19.9048 17.919 20.0156C18.1946 20.1264 18.5 20.1818 18.8352 20.1818C19.2102 20.1818 19.5426 20.1165 19.8324 19.9858C20.1222 19.8551 20.3494 19.6733 20.5142 19.4403C20.679 19.2074 20.7614 18.9375 20.7614 18.6307C20.7614 18.3097 20.6818 18.027 20.5227 17.7827C20.3636 17.5355 20.1307 17.3423 19.8239 17.2031C19.517 17.0639 19.142 16.9943 18.6989 16.9943H18V16.0568H18.6989C19.0455 16.0568 19.3494 15.9943 19.6108 15.8693C19.875 15.7443 20.081 15.5682 20.2287 15.3409C20.3793 15.1136 20.4545 14.8466 20.4545 14.5398C20.4545 14.2443 20.3892 13.9872 20.2585 13.7685C20.1278 13.5497 19.9432 13.3793 19.7045 13.2571C19.4688 13.1349 19.1903 13.0739 18.8693 13.0739C18.5682 13.0739 18.2841 13.1293 18.017 13.2401C17.7528 13.348 17.5369 13.5057 17.3693 13.7131C17.2017 13.9176 17.1108 14.1648 17.0966 14.4545H16.0739C16.0909 13.9972 16.2287 13.5966 16.4872 13.2528C16.7457 12.9062 17.0838 12.6364 17.5014 12.4432C17.9219 12.25 18.3835 12.1534 18.8864 12.1534C19.4261 12.1534 19.8892 12.2628 20.2756 12.4815C20.6619 12.6974 20.9588 12.983 21.1662 13.3381C21.3736 13.6932 21.4773 14.0767 21.4773 14.4886C21.4773 14.9801 21.348 15.3991 21.0895 15.7457C20.8338 16.0923 20.4858 16.3324 20.0455 16.4659V16.5341C20.5966 16.625 21.027 16.8594 21.3366 17.2372C21.6463 17.6122 21.8011 18.0767 21.8011 18.6307C21.8011 19.1051 21.6719 19.5312 21.4134 19.9091C21.1577 20.2841 20.8082 20.5795 20.3651 20.7955C19.9219 21.0114 19.4176 21.1193 18.8523 21.1193ZM23.5611 21V14.4545H26.2372C26.9418 14.4545 27.5014 14.6136 27.9162 14.9318C28.331 15.25 28.5384 15.6705 28.5384 16.1932C28.5384 16.5909 28.4205 16.8991 28.1847 17.1179C27.9489 17.3338 27.6463 17.4801 27.277 17.5568C27.5185 17.5909 27.7528 17.6761 27.9801 17.8125C28.2102 17.9489 28.4006 18.1364 28.5511 18.375C28.7017 18.6108 28.777 18.9006 28.777 19.2443C28.777 19.5795 28.6918 19.8793 28.5213 20.1435C28.3509 20.4077 28.1065 20.6165 27.7884 20.7699C27.4702 20.9233 27.0895 21 26.6463 21H23.5611ZM24.5156 20.0795H26.6463C26.9929 20.0795 27.2642 19.9972 27.4602 19.8324C27.6563 19.6676 27.7543 19.4432 27.7543 19.1591C27.7543 18.821 27.6563 18.5554 27.4602 18.3622C27.2642 18.1662 26.9929 18.0682 26.6463 18.0682H24.5156V20.0795ZM24.5156 17.1989H26.2372C26.5071 17.1989 26.7386 17.1619 26.9318 17.0881C27.125 17.0114 27.2727 16.9034 27.375 16.7642C27.4801 16.6222 27.5327 16.4545 27.5327 16.2614C27.5327 15.9858 27.4176 15.7699 27.1875 15.6136C26.9574 15.4545 26.6406 15.375 26.2372 15.375H24.5156V17.1989ZM30.9471 23.4545C30.7766 23.4545 30.6246 23.4403 30.4911 23.4119C30.3576 23.3864 30.2653 23.3608 30.2141 23.3352L30.4698 22.4489C30.7141 22.5114 30.93 22.5341 31.1175 22.517C31.305 22.5 31.4712 22.4162 31.6161 22.2656C31.7638 22.1179 31.8988 21.8778 32.021 21.5455L32.2085 21.0341L29.788 14.4545H30.8789L32.6857 19.6705H32.7539L34.5607 14.4545H35.6516L32.8732 21.9545C32.7482 22.2926 32.5934 22.5724 32.4087 22.794C32.2241 23.0185 32.0096 23.1847 31.7653 23.2926C31.5238 23.4006 31.2511 23.4545 30.9471 23.4545ZM36.979 21V14.4545H37.9847V17.3011H38.6495L41.0018 14.4545H42.2972L39.6552 17.608L42.3313 21H41.0359L38.8881 18.2386H37.9847V21H36.979Z" fill="white"/>
<path d="M65 8H67V9H68V10H69V11H70V12H71V14H72V20H71V22H70V23H69V24H68V25H67V26H65V24H66V23H67V22H68V21H69V19H70V15H69V13H68V12H67V11H66V10H65V8ZM66 13V14H67V16H68V18H67V20H66V21H65V13H66ZM54 14H58V13H59V12H60V11H61V10H62V9H63V25H62V24H61V23H60V22H59V21H58V20H54V14ZM56 16V18H59V19H60V20H61V14H60V15H59V16H56Z" fill="white"/>
</svg>
