<svg width="1385" height="141" viewBox="0 0 1385 141" fill="none" xmlns="http://www.w3.org/2000/svg">
<rect x="383" width="219" height="141" rx="40" fill="white" fill-opacity="0.1"/>
<rect x="385.5" y="2.5" width="214" height="136" rx="37.5" stroke="url(#paint0_linear_0_1)" stroke-opacity="0.3" stroke-width="5"/>
<path d="M0.28 46H7.24V69.12H35.88V46H42.84V102H35.88V75.6H7.24V102H0.28V46ZM81.3856 83.04L71.8656 83.52C64.0256 83.9467 60.1056 86.3733 60.1056 90.8C60.1056 92.8267 60.8523 94.4267 62.3456 95.6C63.8923 96.72 65.919 97.28 68.4256 97.28C70.2923 97.28 71.999 96.96 73.5456 96.32C75.1456 95.68 76.5056 94.8 77.6256 93.68C78.799 92.56 79.7056 91.2533 80.3456 89.76C81.039 88.2667 81.3856 86.6667 81.3856 84.96V83.04ZM53.5456 91.2C53.5456 87.36 55.039 84.2933 58.0256 82C61.0656 79.6533 65.519 78.3467 71.3856 78.08L81.3856 77.6V77.04C81.3856 73.7867 80.4523 71.2533 78.5856 69.44C76.7723 67.6267 74.2656 66.72 71.0656 66.72C65.9456 66.72 62.2923 68.96 60.1056 73.44L54.6656 70.72C56.2123 67.52 58.399 65.0933 61.2256 63.44C64.0523 61.7333 67.359 60.88 71.1456 60.88C73.6523 60.88 75.919 61.2533 77.9456 62C80.0256 62.7467 81.7856 63.7867 83.2256 65.12C84.6656 66.4533 85.7856 68.08 86.5856 70C87.3856 71.8667 87.7856 73.9733 87.7856 76.32V102H81.3856V95.6C79.9456 98.0533 78.0256 99.92 75.6256 101.2C73.279 102.48 70.5323 103.12 67.3856 103.12C65.3056 103.12 63.4123 102.827 61.7056 102.24C59.999 101.707 58.5323 100.933 57.3056 99.92C56.1323 98.8533 55.199 97.6 54.5056 96.16C53.8656 94.6667 53.5456 93.0133 53.5456 91.2ZM113.949 78.32H120.429V62H126.909V78.32H133.389L144.189 62H151.389L138.669 81.04L152.269 102H144.909L133.469 84.24H126.909V102H120.429V84.24H113.869L102.429 102H95.0688L108.669 81.04L95.9488 62H103.149L113.949 78.32ZM181.139 88.64L194.019 62H202.179V102H195.939V71.12L183.539 96.48H178.579L166.179 71.12V102H159.939V62H168.259L181.139 88.64ZM220.794 62V92.4L241.834 62H248.394V102H241.914V71.6L220.874 102H214.314V62H220.794ZM290.004 62V67.92H276.244V102H269.844V67.92H256.084V62H290.004ZM301.06 78.08H326.9C326.847 76.48 326.473 74.9867 325.78 73.6C325.14 72.2133 324.26 71.04 323.14 70.08C322.073 69.0667 320.793 68.2933 319.3 67.76C317.807 67.1733 316.18 66.88 314.42 66.88C310.9 66.88 307.967 67.92 305.62 70C303.327 72.0267 301.807 74.72 301.06 78.08ZM314.82 103.12C311.727 103.12 308.9 102.613 306.34 101.6C303.833 100.533 301.673 99.0667 299.86 97.2C298.047 95.3333 296.633 93.12 295.62 90.56C294.607 88 294.1 85.2 294.1 82.16C294.1 79.0667 294.607 76.24 295.62 73.68C296.633 71.0667 298.047 68.8267 299.86 66.96C301.727 65.04 303.913 63.5467 306.42 62.48C308.927 61.4133 311.647 60.88 314.58 60.88C317.407 60.88 319.967 61.36 322.26 62.32C324.607 63.2267 326.607 64.5333 328.26 66.24C329.913 67.9467 331.193 70 332.1 72.4C333.06 74.7467 333.54 77.36 333.54 80.24C333.54 81.36 333.46 82.5333 333.3 83.76H300.74C301.06 87.76 302.5 90.9867 305.06 93.44C307.62 95.84 310.9 97.04 314.9 97.04C319.967 97.04 323.913 94.8533 326.74 90.48L331.86 94.32C327.807 100.187 322.127 103.12 314.82 103.12ZM678.064 96V68H661.904V72.56C661.904 75.5467 661.824 78.2133 661.664 80.56C661.557 82.9067 661.37 85.04 661.104 86.96C660.837 88.8267 660.49 90.5067 660.064 92C659.69 93.44 659.21 94.7733 658.624 96H678.064ZM647.584 112.4V96H651.744C652.384 95.04 652.944 93.8933 653.424 92.56C653.904 91.1733 654.304 89.44 654.624 87.36C654.944 85.28 655.157 82.7733 655.264 79.84C655.424 76.8533 655.504 73.28 655.504 69.12V62H684.544V96H691.104V112.4H684.704V102H653.984V112.4H647.584ZM695.233 95.92H696.193C697.579 95.92 698.726 95.6267 699.633 95.04C700.539 94.4533 701.233 93.44 701.713 92C702.246 90.5067 702.619 88.5333 702.833 86.08C703.046 83.5733 703.153 80.4533 703.153 76.72V62H732.193V102H725.713V68H709.553V78.32C709.553 82.6933 709.313 86.4 708.833 89.44C708.406 92.48 707.686 94.96 706.673 96.88C705.713 98.7467 704.406 100.107 702.753 100.96C701.153 101.76 699.179 102.16 696.833 102.16H695.233V95.92ZM766.154 67.84H755.834C753.274 67.84 751.274 68.5333 749.834 69.92C748.394 71.2533 747.674 72.9867 747.674 75.12C747.674 77.2533 748.394 78.9867 749.834 80.32C751.274 81.6533 753.274 82.32 755.834 82.32H766.154V67.84ZM755.194 62H772.554V102H766.154V88.16H756.794L747.674 102H740.234L749.914 87.36C747.194 86.4533 745.061 84.9333 743.514 82.8C742.021 80.6667 741.274 78.1067 741.274 75.12C741.274 73.2 741.594 71.44 742.234 69.84C742.928 68.1867 743.888 66.8 745.114 65.68C746.341 64.5067 747.808 63.6 749.514 62.96C751.221 62.32 753.114 62 755.194 62ZM811.566 96.4H824.046C825.913 96.4 827.46 95.8667 828.686 94.8C829.966 93.7333 830.606 92.1867 830.606 90.16C830.606 88.1867 829.966 86.6667 828.686 85.6C827.46 84.48 825.913 83.92 824.046 83.92H811.566V96.4ZM811.566 78.48H823.406C825.166 78.48 826.553 77.9733 827.566 76.96C828.58 75.9467 829.086 74.64 829.086 73.04C829.086 71.4933 828.58 70.2133 827.566 69.2C826.553 68.1333 825.166 67.6 823.406 67.6H811.566V78.48ZM805.486 102V62H823.566C827.086 62 829.913 62.96 832.046 64.88C834.18 66.8 835.246 69.3333 835.246 72.48C835.246 74.5067 834.74 76.24 833.726 77.68C832.766 79.0667 831.433 80.1333 829.726 80.88C831.966 81.52 833.7 82.72 834.926 84.48C836.206 86.1867 836.846 88.32 836.846 90.88C836.846 94.24 835.7 96.9333 833.406 98.96C831.113 100.987 828.046 102 824.206 102H805.486ZM858.835 84.32H852.435V102H845.955V62H852.435V78.4H858.755L872.115 62H879.715L864.115 80.96L880.035 102H872.115L858.835 84.32ZM883.592 95.92H884.552C885.939 95.92 887.085 95.6267 887.992 95.04C888.899 94.4533 889.592 93.44 890.072 92C890.605 90.5067 890.979 88.5333 891.192 86.08C891.405 83.5733 891.512 80.4533 891.512 76.72V62H920.552V102H914.072V68H897.912V78.32C897.912 82.6933 897.672 86.4 897.192 89.44C896.765 92.48 896.045 94.96 895.032 96.88C894.072 98.7467 892.765 100.107 891.112 100.96C889.512 101.76 887.539 102.16 885.192 102.16H883.592V95.92ZM930.434 97.44C930.434 96.0533 930.887 94.9067 931.794 94C932.754 93.04 933.927 92.56 935.314 92.56C936.7 92.56 937.847 93.04 938.754 94C939.714 94.9067 940.194 96.0533 940.194 97.44C940.194 98.8267 939.714 100 938.754 100.96C937.847 101.867 936.7 102.32 935.314 102.32C933.927 102.32 932.754 101.867 931.794 100.96C930.887 100 930.434 98.8267 930.434 97.44ZM946.416 114.88L971.456 40.88L977.296 42.56L952.256 116.56L946.416 114.88ZM1003.8 103.12C1000.76 103.12 997.989 102.587 995.483 101.52C992.976 100.453 990.789 98.9867 988.923 97.12C987.109 95.2 985.696 92.96 984.683 90.4C983.669 87.7867 983.163 84.9867 983.163 82C983.163 79.0133 983.669 76.24 984.683 73.68C985.696 71.0667 987.109 68.8267 988.923 66.96C990.789 65.04 992.976 63.5467 995.483 62.48C997.989 61.4133 1000.76 60.88 1003.8 60.88C1006.84 60.88 1009.62 61.4133 1012.12 62.48C1014.63 63.5467 1016.79 65.04 1018.6 66.96C1020.47 68.8267 1021.91 71.0667 1022.92 73.68C1023.94 76.24 1024.44 79.0133 1024.44 82C1024.44 84.9867 1023.94 87.7867 1022.92 90.4C1021.91 92.96 1020.47 95.2 1018.6 97.12C1016.79 98.9867 1014.63 100.453 1012.12 101.52C1009.62 102.587 1006.84 103.12 1003.8 103.12ZM1003.8 97.04C1005.88 97.04 1007.78 96.6667 1009.48 95.92C1011.24 95.1733 1012.74 94.1333 1013.96 92.8C1015.19 91.4133 1016.15 89.8133 1016.84 88C1017.54 86.1333 1017.88 84.1333 1017.88 82C1017.88 79.8133 1017.54 77.8133 1016.84 76C1016.15 74.1867 1015.19 72.6133 1013.96 71.28C1012.74 69.8933 1011.24 68.8267 1009.48 68.08C1007.78 67.3333 1005.88 66.96 1003.8 66.96C1001.72 66.96 999.803 67.3333 998.043 68.08C996.336 68.8267 994.869 69.8933 993.643 71.28C992.416 72.6133 991.456 74.1867 990.763 76C990.069 77.8133 989.723 79.8133 989.723 82C989.723 84.1333 990.069 86.1333 990.763 88C991.456 89.8133 992.416 91.4133 993.643 92.8C994.869 94.1333 996.336 95.1733 998.043 95.92C999.803 96.6667 1001.72 97.04 1003.8 97.04ZM1062.66 62V67.92H1048.9V102H1042.5V67.92H1028.74V62H1062.66ZM1083.21 84.32H1076.81V102H1070.33V62H1076.81V78.4H1083.13L1096.49 62H1104.09L1088.49 80.96L1104.41 102H1096.49L1083.21 84.32ZM1107.97 95.92H1108.93C1110.31 95.92 1111.46 95.6267 1112.37 95.04C1113.27 94.4533 1113.97 93.44 1114.45 92C1114.98 90.5067 1115.35 88.5333 1115.57 86.08C1115.78 83.5733 1115.89 80.4533 1115.89 76.72V62H1144.93V102H1138.45V68H1122.29V78.32C1122.29 82.6933 1122.05 86.4 1121.57 89.44C1121.14 92.48 1120.42 94.96 1119.41 96.88C1118.45 98.7467 1117.14 100.107 1115.49 100.96C1113.89 101.76 1111.91 102.16 1109.57 102.16H1107.97V95.92ZM1154.81 97.44C1154.81 96.0533 1155.26 94.9067 1156.17 94C1157.13 93.04 1158.3 92.56 1159.69 92.56C1161.08 92.56 1162.22 93.04 1163.13 94C1164.09 94.9067 1164.57 96.0533 1164.57 97.44C1164.57 98.8267 1164.09 100 1163.13 100.96C1162.22 101.867 1161.08 102.32 1159.69 102.32C1158.3 102.32 1157.13 101.867 1156.17 100.96C1155.26 100 1154.81 98.8267 1154.81 97.44ZM1207.81 103.12C1199.49 103.12 1193.76 99.4667 1190.61 92.16L1196.21 89.76C1198.35 94.9333 1202.21 97.52 1207.81 97.52C1210.75 97.52 1213.09 96.9067 1214.85 95.68C1216.67 94.4 1217.57 92.6933 1217.57 90.56C1217.57 88.5333 1216.83 86.96 1215.33 85.84C1213.84 84.6667 1211.89 84.08 1209.49 84.08H1201.01V78.4H1209.49C1211.68 78.4 1213.41 77.92 1214.69 76.96C1216.03 75.9467 1216.69 74.5867 1216.69 72.88C1216.69 71.0133 1215.89 69.4933 1214.29 68.32C1212.75 67.0933 1210.61 66.48 1207.89 66.48C1202.83 66.48 1199.28 68.8 1197.25 73.44L1191.73 70.96C1193.28 67.6 1195.44 65.0933 1198.21 63.44C1200.99 61.7333 1204.29 60.88 1208.13 60.88C1212.61 60.88 1216.16 61.9467 1218.77 64.08C1221.39 66.16 1222.69 68.9333 1222.69 72.4C1222.69 76.6667 1220.67 79.6 1216.61 81.2C1218.85 81.8933 1220.59 83.0933 1221.81 84.8C1223.04 86.4533 1223.65 88.48 1223.65 90.88C1223.65 92.7467 1223.25 94.4533 1222.45 96C1221.71 97.4933 1220.64 98.7733 1219.25 99.84C1217.87 100.907 1216.19 101.707 1214.21 102.24C1212.29 102.827 1210.16 103.12 1207.81 103.12ZM1238.83 96.4H1251.31C1253.18 96.4 1254.73 95.8667 1255.95 94.8C1257.23 93.7333 1257.87 92.1867 1257.87 90.16C1257.87 88.1867 1257.23 86.6667 1255.95 85.6C1254.73 84.48 1253.18 83.92 1251.31 83.92H1238.83V96.4ZM1238.83 78.48H1250.67C1252.43 78.48 1253.82 77.9733 1254.83 76.96C1255.85 75.9467 1256.35 74.64 1256.35 73.04C1256.35 71.4933 1255.85 70.2133 1254.83 69.2C1253.82 68.1333 1252.43 67.6 1250.67 67.6H1238.83V78.48ZM1232.75 102V62H1250.83C1254.35 62 1257.18 62.96 1259.31 64.88C1261.45 66.8 1262.51 69.3333 1262.51 72.48C1262.51 74.5067 1262.01 76.24 1260.99 77.68C1260.03 79.0667 1258.7 80.1333 1256.99 80.88C1259.23 81.52 1260.97 82.72 1262.19 84.48C1263.47 86.1867 1264.11 88.32 1264.11 90.88C1264.11 94.24 1262.97 96.9333 1260.67 98.96C1258.38 100.987 1255.31 102 1251.47 102H1232.75ZM1276.53 118L1283.09 101.28L1267.41 62H1274.29L1286.37 93.12L1297.89 62H1304.69L1283.25 118H1276.53ZM1325.32 84.32H1318.92V102H1312.44V62H1318.92V78.4H1325.24L1338.6 62H1346.2L1330.6 80.96L1346.52 102H1338.6L1325.32 84.32ZM1378.34 83.04L1368.82 83.52C1360.98 83.9467 1357.06 86.3733 1357.06 90.8C1357.06 92.8267 1357.81 94.4267 1359.3 95.6C1360.85 96.72 1362.87 97.28 1365.38 97.28C1367.25 97.28 1368.95 96.96 1370.5 96.32C1372.1 95.68 1373.46 94.8 1374.58 93.68C1375.75 92.56 1376.66 91.2533 1377.3 89.76C1377.99 88.2667 1378.34 86.6667 1378.34 84.96V83.04ZM1350.5 91.2C1350.5 87.36 1351.99 84.2933 1354.98 82C1358.02 79.6533 1362.47 78.3467 1368.34 78.08L1378.34 77.6V77.04C1378.34 73.7867 1377.41 71.2533 1375.54 69.44C1373.73 67.6267 1371.22 66.72 1368.02 66.72C1362.9 66.72 1359.25 68.96 1357.06 73.44L1351.62 70.72C1353.17 67.52 1355.35 65.0933 1358.18 63.44C1361.01 61.7333 1364.31 60.88 1368.1 60.88C1370.61 60.88 1372.87 61.2533 1374.9 62C1376.98 62.7467 1378.74 63.7867 1380.18 65.12C1381.62 66.4533 1382.74 68.08 1383.54 70C1384.34 71.8667 1384.74 73.9733 1384.74 76.32V102H1378.34V95.6C1376.9 98.0533 1374.98 99.92 1372.58 101.2C1370.23 102.48 1367.49 103.12 1364.34 103.12C1362.26 103.12 1360.37 102.827 1358.66 102.24C1356.95 101.707 1355.49 100.933 1354.26 99.92C1353.09 98.8533 1352.15 97.6 1351.46 96.16C1350.82 94.6667 1350.5 93.0133 1350.5 91.2Z" fill="white" fill-opacity="0.7"/>
<g filter="url(#filter0_d_0_1)">
<path d="M458.328 81.04H477.928L468.168 53.28L458.328 81.04ZM472.008 46L492.568 102H485.288L480.008 87.12H456.248L450.968 102H443.768L464.328 46H472.008ZM500.736 102V44.24H507.216V102H500.736ZM528.128 86.96C528.128 93.1467 531.008 96.24 536.768 96.24H539.728V102.48H536.048C526.448 102.48 521.648 97.4933 521.648 87.52V68H514.608V62H521.648V50.8H528.128V62H539.568V68H528.128V86.96Z" fill="white"/>
</g>
<defs>
<filter id="filter0_d_0_1" x="425.768" y="26.24" width="131.961" height="94.24" filterUnits="userSpaceOnUse" color-interpolation-filters="sRGB">
<feFlood flood-opacity="0" result="BackgroundImageFix"/>
<feColorMatrix in="SourceAlpha" type="matrix" values="0 0 0 0 0 0 0 0 0 0 0 0 0 0 0 0 0 0 127 0" result="hardAlpha"/>
<feOffset/>
<feGaussianBlur stdDeviation="9"/>
<feComposite in2="hardAlpha" operator="out"/>
<feColorMatrix type="matrix" values="0 0 0 0 1 0 0 0 0 1 0 0 0 0 1 0 0 0 0.5 0"/>
<feBlend mode="normal" in2="BackgroundImageFix" result="effect1_dropShadow_0_1"/>
<feBlend mode="normal" in="SourceGraphic" in2="effect1_dropShadow_0_1" result="shape"/>
</filter>
<linearGradient id="paint0_linear_0_1" x1="383" y1="0" x2="602" y2="141" gradientUnits="userSpaceOnUse">
<stop stop-color="white"/>
<stop offset="1" stop-color="#999999"/>
</linearGradient>
</defs>
</svg>
