<svg width="1850" height="350" viewBox="0 0 1850 350" fill="none" xmlns="http://www.w3.org/2000/svg">
<rect width="1850" height="350" rx="55" fill="white" fill-opacity="0.1"/>
<rect x="2" y="2" width="1846" height="346" rx="53" stroke="url(#paint0_linear_0_1)" stroke-opacity="0.3" stroke-width="4"/>
<path d="M162.312 167.216C158.208 167.216 154.459 166.532 151.064 165.164C147.669 163.745 144.756 161.795 142.324 159.312C139.892 156.829 137.992 153.891 136.624 150.496C135.256 147.101 134.572 143.403 134.572 139.4C134.572 135.397 135.256 131.699 136.624 128.304C137.992 124.909 139.892 121.971 142.324 119.488C144.756 117.005 147.669 115.08 151.064 113.712C154.459 112.293 158.208 111.584 162.312 111.584C167.987 111.584 172.927 112.901 177.132 115.536C181.337 118.171 184.453 121.869 186.48 126.632L176.98 131.572C175.764 128.431 173.889 126.024 171.356 124.352C168.873 122.629 165.884 121.768 162.388 121.768C159.905 121.768 157.625 122.199 155.548 123.06C153.521 123.921 151.773 125.137 150.304 126.708C148.835 128.279 147.695 130.153 146.884 132.332C146.073 134.46 145.668 136.816 145.668 139.4C145.668 141.984 146.073 144.365 146.884 146.544C147.695 148.672 148.835 150.521 150.304 152.092C151.773 153.663 153.521 154.879 155.548 155.74C157.625 156.601 159.905 157.032 162.388 157.032C165.884 157.032 168.899 156.171 171.432 154.448C173.965 152.725 175.84 150.268 177.056 147.076L186.632 151.788C184.656 156.652 181.54 160.452 177.284 163.188C173.028 165.873 168.037 167.216 162.312 167.216ZM207.514 150.648H203.182V166H193.302V128H203.182V141.984H207.742L217.926 128H228.794L215.342 146.088L229.174 166H218.002L207.514 150.648ZM250.806 167.064C247.867 167.064 245.156 166.557 242.674 165.544C240.191 164.531 238.038 163.137 236.214 161.364C234.44 159.591 233.047 157.488 232.034 155.056C231.071 152.573 230.59 149.888 230.59 147C230.59 144.112 231.071 141.452 232.034 139.02C233.047 136.537 234.44 134.409 236.214 132.636C238.038 130.863 240.191 129.469 242.674 128.456C245.156 127.443 247.867 126.936 250.806 126.936C253.795 126.936 256.506 127.443 258.938 128.456C261.42 129.469 263.548 130.863 265.322 132.636C267.146 134.409 268.539 136.537 269.502 139.02C270.515 141.452 271.022 144.112 271.022 147C271.022 149.888 270.515 152.573 269.502 155.056C268.539 157.488 267.146 159.591 265.322 161.364C263.548 163.137 261.42 164.531 258.938 165.544C256.506 166.557 253.795 167.064 250.806 167.064ZM250.806 157.944C252.275 157.944 253.618 157.691 254.834 157.184C256.1 156.627 257.19 155.867 258.102 154.904C259.014 153.891 259.723 152.725 260.23 151.408C260.736 150.04 260.99 148.571 260.99 147C260.99 145.379 260.736 143.909 260.23 142.592C259.723 141.275 259.014 140.135 258.102 139.172C257.19 138.159 256.1 137.399 254.834 136.892C253.618 136.335 252.275 136.056 250.806 136.056C249.336 136.056 247.968 136.335 246.702 136.892C245.486 137.399 244.422 138.159 243.51 139.172C242.598 140.135 241.888 141.275 241.382 142.592C240.875 143.909 240.622 145.379 240.622 147C240.622 148.571 240.875 150.04 241.382 151.408C241.888 152.725 242.598 153.891 243.51 154.904C244.422 155.867 245.486 156.627 246.702 157.184C247.968 157.691 249.336 157.944 250.806 157.944ZM298.269 157.944C299.688 157.944 301.005 157.691 302.221 157.184C303.437 156.627 304.476 155.867 305.337 154.904C306.249 153.891 306.958 152.725 307.465 151.408C307.972 150.04 308.225 148.571 308.225 147C308.225 145.379 307.972 143.909 307.465 142.592C306.958 141.275 306.249 140.135 305.337 139.172C304.476 138.159 303.437 137.399 302.221 136.892C301.005 136.335 299.688 136.056 298.269 136.056C296.8 136.056 295.432 136.335 294.165 136.892C292.949 137.399 291.885 138.159 290.973 139.172C290.112 140.135 289.428 141.275 288.921 142.592C288.414 143.909 288.161 145.379 288.161 147C288.161 148.571 288.414 150.04 288.921 151.408C289.428 152.725 290.112 153.891 290.973 154.904C291.885 155.867 292.949 156.627 294.165 157.184C295.432 157.691 296.8 157.944 298.269 157.944ZM300.625 167.064C297.99 167.064 295.609 166.532 293.481 165.468C291.404 164.404 289.63 162.884 288.161 160.908V181.2H278.281V128H288.161V133.092C289.63 131.116 291.404 129.596 293.481 128.532C295.558 127.468 297.914 126.936 300.549 126.936C303.082 126.936 305.413 127.443 307.541 128.456C309.72 129.419 311.594 130.787 313.165 132.56C314.786 134.283 316.028 136.385 316.889 138.868C317.801 141.3 318.257 144.011 318.257 147C318.257 149.939 317.801 152.649 316.889 155.132C316.028 157.615 314.812 159.743 313.241 161.516C311.67 163.239 309.796 164.607 307.617 165.62C305.489 166.583 303.158 167.064 300.625 167.064ZM343.95 167.064C341.012 167.064 338.301 166.557 335.818 165.544C333.336 164.531 331.182 163.137 329.358 161.364C327.585 159.591 326.192 157.488 325.178 155.056C324.216 152.573 323.734 149.888 323.734 147C323.734 144.112 324.216 141.452 325.178 139.02C326.192 136.537 327.585 134.409 329.358 132.636C331.182 130.863 333.336 129.469 335.818 128.456C338.301 127.443 341.012 126.936 343.95 126.936C346.94 126.936 349.65 127.443 352.082 128.456C354.565 129.469 356.693 130.863 358.466 132.636C360.29 134.409 361.684 136.537 362.646 139.02C363.66 141.452 364.166 144.112 364.166 147C364.166 149.888 363.66 152.573 362.646 155.056C361.684 157.488 360.29 159.591 358.466 161.364C356.693 163.137 354.565 164.531 352.082 165.544C349.65 166.557 346.94 167.064 343.95 167.064ZM343.95 157.944C345.42 157.944 346.762 157.691 347.978 157.184C349.245 156.627 350.334 155.867 351.246 154.904C352.158 153.891 352.868 152.725 353.374 151.408C353.881 150.04 354.134 148.571 354.134 147C354.134 145.379 353.881 143.909 353.374 142.592C352.868 141.275 352.158 140.135 351.246 139.172C350.334 138.159 349.245 137.399 347.978 136.892C346.762 136.335 345.42 136.056 343.95 136.056C342.481 136.056 341.113 136.335 339.846 136.892C338.63 137.399 337.566 138.159 336.654 139.172C335.742 140.135 335.033 141.275 334.526 142.592C334.02 143.909 333.766 145.379 333.766 147C333.766 148.571 334.02 150.04 334.526 151.408C335.033 152.725 335.742 153.891 336.654 154.904C337.566 155.867 338.63 156.627 339.846 157.184C341.113 157.691 342.481 157.944 343.95 157.944ZM389.344 147C389.344 144.061 389.85 141.376 390.864 138.944C391.877 136.461 393.27 134.333 395.044 132.56C396.817 130.787 398.945 129.419 401.428 128.456C403.961 127.443 406.697 126.936 409.636 126.936C413.79 126.936 417.413 127.899 420.504 129.824C423.594 131.749 425.874 134.46 427.344 137.956L418.832 142.288C417.97 140.261 416.754 138.716 415.184 137.652C413.613 136.588 411.764 136.056 409.636 136.056C408.116 136.056 406.722 136.335 405.456 136.892C404.189 137.399 403.1 138.159 402.188 139.172C401.326 140.135 400.642 141.275 400.136 142.592C399.629 143.909 399.376 145.379 399.376 147C399.376 148.571 399.629 150.04 400.136 151.408C400.642 152.725 401.326 153.891 402.188 154.904C403.1 155.867 404.164 156.627 405.38 157.184C406.646 157.691 408.04 157.944 409.56 157.944C411.688 157.944 413.562 157.412 415.184 156.348C416.805 155.233 418.021 153.612 418.832 151.484L427.42 155.588C426.001 159.236 423.721 162.073 420.58 164.1C417.489 166.076 413.816 167.064 409.56 167.064C406.621 167.064 403.91 166.583 401.428 165.62C398.945 164.607 396.817 163.213 395.044 161.44C393.27 159.667 391.877 157.564 390.864 155.132C389.85 152.649 389.344 149.939 389.344 147ZM457.47 149.204L449.87 149.508C447.185 149.609 445.133 150.065 443.714 150.876C442.346 151.687 441.662 152.903 441.662 154.524C441.662 155.943 442.194 157.057 443.258 157.868C444.373 158.679 445.893 159.084 447.818 159.084C450.706 159.084 453.037 158.197 454.81 156.424C456.584 154.651 457.47 152.295 457.47 149.356V149.204ZM432.086 155.36C432.086 151.509 433.581 148.495 436.57 146.316C439.56 144.087 443.816 142.871 449.338 142.668L457.47 142.364V141.984C457.47 139.856 456.761 138.159 455.342 136.892C453.974 135.575 452.074 134.916 449.642 134.916C445.741 134.916 442.853 136.74 440.978 140.388L433.226 136.588C434.797 133.396 437.001 130.989 439.838 129.368C442.726 127.747 446.146 126.936 450.098 126.936C455.317 126.936 459.421 128.329 462.41 131.116C465.4 133.903 466.894 137.728 466.894 142.592V166H457.47V161.288C454.684 165.139 450.656 167.064 445.386 167.064C443.36 167.064 441.536 166.785 439.914 166.228C438.293 165.671 436.9 164.885 435.734 163.872C434.569 162.808 433.657 161.567 432.998 160.148C432.39 158.679 432.086 157.083 432.086 155.36ZM485.583 128V151.56L500.859 128H510.663V166H500.783V142.44L485.507 166H475.703V128H485.583ZM493.107 123.136C489.003 123.136 485.659 122.148 483.075 120.172C480.541 118.145 479.021 115.359 478.515 111.812L486.495 110.292C486.697 112.116 487.356 113.535 488.471 114.548C489.636 115.511 491.181 115.992 493.107 115.992C495.032 115.992 496.577 115.511 497.743 114.548C498.908 113.535 499.617 112.116 499.871 110.292L507.851 111.812C507.344 115.359 505.773 118.145 503.139 120.172C500.555 122.148 497.211 123.136 493.107 123.136ZM549.505 128V136.968H538.029V166H528.149V136.968H516.673V128H549.505ZM594.842 158.02C596.311 158.02 597.654 157.767 598.87 157.26C600.086 156.753 601.124 156.044 601.986 155.132C602.847 154.22 603.531 153.131 604.038 151.864C604.544 150.597 604.798 149.179 604.798 147.608C604.798 146.037 604.544 144.619 604.038 143.352C603.531 142.085 602.847 140.996 601.986 140.084C601.124 139.172 600.086 138.488 598.87 138.032C597.654 137.525 596.311 137.272 594.842 137.272C591.903 137.272 589.496 138.209 587.622 140.084C585.798 141.959 584.886 144.467 584.886 147.608C584.886 150.749 585.798 153.283 587.622 155.208C589.496 157.083 591.903 158.02 594.842 158.02ZM594.766 167.064C591.624 167.064 588.787 166.532 586.254 165.468C583.72 164.404 581.542 162.859 579.718 160.832C577.944 158.755 576.551 156.221 575.538 153.232C574.575 150.192 574.094 146.747 574.094 142.896V140.616C574.094 135.904 574.55 131.825 575.462 128.38C576.424 124.935 577.894 122.047 579.87 119.716C581.846 117.335 584.379 115.511 587.47 114.244C590.56 112.927 594.259 112.091 598.566 111.736L611.258 110.748L611.714 120.4L599.022 121.236C596.336 121.388 594.031 121.768 592.106 122.376C590.18 122.984 588.559 123.845 587.242 124.96C585.975 126.024 585.012 127.392 584.354 129.064C583.695 130.685 583.315 132.611 583.214 134.84C586.254 130.584 590.687 128.456 596.514 128.456C599.199 128.456 601.656 128.912 603.886 129.824C606.166 130.736 608.091 132.028 609.662 133.7C611.283 135.372 612.524 137.373 613.386 139.704C614.298 142.035 614.754 144.619 614.754 147.456C614.754 150.395 614.272 153.08 613.31 155.512C612.347 157.893 610.979 159.945 609.206 161.668C607.483 163.391 605.38 164.733 602.898 165.696C600.466 166.608 597.755 167.064 594.766 167.064ZM625.675 181.2L631.907 165.164L617.011 128H627.575L636.923 153.156L645.891 128H656.379L635.631 181.2H625.675ZM684.7 157.032V136.968H673.148V139.78C673.148 142.161 673.098 144.213 672.996 145.936C672.895 147.659 672.743 149.179 672.54 150.496C672.388 151.813 672.16 152.979 671.856 153.992C671.552 155.005 671.198 156.019 670.792 157.032H684.7ZM656.96 175.424V157.032H660.608C661.064 156.272 661.495 155.411 661.9 154.448C662.306 153.485 662.635 152.244 662.888 150.724C663.142 149.204 663.344 147.304 663.496 145.024C663.648 142.744 663.724 139.907 663.724 136.512V128H694.58V157.032H700.508V175.424H690.78V166H666.688V175.424H656.96ZM714.507 142.744H733.431C733.076 140.413 732.088 138.564 730.467 137.196C728.845 135.828 726.793 135.144 724.311 135.144C721.879 135.144 719.801 135.828 718.079 137.196C716.356 138.513 715.165 140.363 714.507 142.744ZM724.919 167.064C721.929 167.064 719.168 166.583 716.635 165.62C714.152 164.607 711.999 163.213 710.175 161.44C708.401 159.667 707.008 157.539 705.995 155.056C705.032 152.573 704.551 149.863 704.551 146.924C704.551 143.935 705.057 141.224 706.071 138.792C707.084 136.309 708.477 134.207 710.251 132.484C712.024 130.711 714.127 129.343 716.559 128.38C718.991 127.417 721.651 126.936 724.539 126.936C727.376 126.936 729.935 127.392 732.215 128.304C734.545 129.216 736.521 130.508 738.143 132.18C739.764 133.852 741.031 135.853 741.943 138.184C742.855 140.464 743.311 142.997 743.311 145.784C743.311 146.341 743.285 146.949 743.235 147.608C743.184 148.267 743.108 148.976 743.007 149.736H714.279C714.785 152.472 715.976 154.625 717.851 156.196C719.725 157.767 722.107 158.552 724.995 158.552C727.123 158.552 728.997 158.121 730.619 157.26C732.291 156.348 733.633 155.005 734.647 153.232L741.563 158.704C739.637 161.44 737.256 163.517 734.419 164.936C731.632 166.355 728.465 167.064 724.919 167.064ZM778.989 128V136.968H767.513V166H757.633V136.968H746.157V128H778.989ZM822.958 167.064C820.019 167.064 817.309 166.557 814.826 165.544C812.343 164.531 810.19 163.137 808.366 161.364C806.593 159.591 805.199 157.488 804.186 155.056C803.223 152.573 802.742 149.888 802.742 147C802.742 144.112 803.223 141.452 804.186 139.02C805.199 136.537 806.593 134.409 808.366 132.636C810.19 130.863 812.343 129.469 814.826 128.456C817.309 127.443 820.019 126.936 822.958 126.936C825.947 126.936 828.658 127.443 831.09 128.456C833.573 129.469 835.701 130.863 837.474 132.636C839.298 134.409 840.691 136.537 841.654 139.02C842.667 141.452 843.174 144.112 843.174 147C843.174 149.888 842.667 152.573 841.654 155.056C840.691 157.488 839.298 159.591 837.474 161.364C835.701 163.137 833.573 164.531 831.09 165.544C828.658 166.557 825.947 167.064 822.958 167.064ZM822.958 157.944C824.427 157.944 825.77 157.691 826.986 157.184C828.253 156.627 829.342 155.867 830.254 154.904C831.166 153.891 831.875 152.725 832.382 151.408C832.889 150.04 833.142 148.571 833.142 147C833.142 145.379 832.889 143.909 832.382 142.592C831.875 141.275 831.166 140.135 830.254 139.172C829.342 138.159 828.253 137.399 826.986 136.892C825.77 136.335 824.427 136.056 822.958 136.056C821.489 136.056 820.121 136.335 818.854 136.892C817.638 137.399 816.574 138.159 815.662 139.172C814.75 140.135 814.041 141.275 813.534 142.592C813.027 143.909 812.774 145.379 812.774 147C812.774 148.571 813.027 150.04 813.534 151.408C814.041 152.725 814.75 153.891 815.662 154.904C816.574 155.867 817.638 156.627 818.854 157.184C820.121 157.691 821.489 157.944 822.958 157.944ZM870.193 158.02C871.663 158.02 873.005 157.767 874.221 157.26C875.437 156.753 876.476 156.044 877.337 155.132C878.199 154.22 878.883 153.131 879.389 151.864C879.896 150.597 880.149 149.179 880.149 147.608C880.149 146.037 879.896 144.619 879.389 143.352C878.883 142.085 878.199 140.996 877.337 140.084C876.476 139.172 875.437 138.488 874.221 138.032C873.005 137.525 871.663 137.272 870.193 137.272C867.255 137.272 864.848 138.209 862.973 140.084C861.149 141.959 860.237 144.467 860.237 147.608C860.237 150.749 861.149 153.283 862.973 155.208C864.848 157.083 867.255 158.02 870.193 158.02ZM870.117 167.064C866.976 167.064 864.139 166.532 861.605 165.468C859.072 164.404 856.893 162.859 855.069 160.832C853.296 158.755 851.903 156.221 850.889 153.232C849.927 150.192 849.445 146.747 849.445 142.896V140.616C849.445 135.904 849.901 131.825 850.813 128.38C851.776 124.935 853.245 122.047 855.221 119.716C857.197 117.335 859.731 115.511 862.821 114.244C865.912 112.927 869.611 112.091 873.917 111.736L886.609 110.748L887.065 120.4L874.373 121.236C871.688 121.388 869.383 121.768 867.457 122.376C865.532 122.984 863.911 123.845 862.593 124.96C861.327 126.024 860.364 127.392 859.705 129.064C859.047 130.685 858.667 132.611 858.565 134.84C861.605 130.584 866.039 128.456 871.865 128.456C874.551 128.456 877.008 128.912 879.237 129.824C881.517 130.736 883.443 132.028 885.013 133.7C886.635 135.372 887.876 137.373 888.737 139.704C889.649 142.035 890.105 144.619 890.105 147.456C890.105 150.395 889.624 153.08 888.661 155.512C887.699 157.893 886.331 159.945 884.557 161.668C882.835 163.391 880.732 164.733 878.249 165.696C875.817 166.608 873.107 167.064 870.117 167.064ZM932.071 128V166H922.191V150.42H907.295V166H897.415V128H907.295V141.452H922.191V128H932.071ZM959.521 167.064C956.582 167.064 953.871 166.557 951.389 165.544C948.906 164.531 946.753 163.137 944.929 161.364C943.155 159.591 941.762 157.488 940.749 155.056C939.786 152.573 939.305 149.888 939.305 147C939.305 144.112 939.786 141.452 940.749 139.02C941.762 136.537 943.155 134.409 944.929 132.636C946.753 130.863 948.906 129.469 951.389 128.456C953.871 127.443 956.582 126.936 959.521 126.936C962.51 126.936 965.221 127.443 967.653 128.456C970.135 129.469 972.263 130.863 974.037 132.636C975.861 134.409 977.254 136.537 978.217 139.02C979.23 141.452 979.737 144.112 979.737 147C979.737 149.888 979.23 152.573 978.217 155.056C977.254 157.488 975.861 159.591 974.037 161.364C972.263 163.137 970.135 164.531 967.653 165.544C965.221 166.557 962.51 167.064 959.521 167.064ZM959.521 157.944C960.99 157.944 962.333 157.691 963.549 157.184C964.815 156.627 965.905 155.867 966.817 154.904C967.729 153.891 968.438 152.725 968.945 151.408C969.451 150.04 969.705 148.571 969.705 147C969.705 145.379 969.451 143.909 968.945 142.592C968.438 141.275 967.729 140.135 966.817 139.172C965.905 138.159 964.815 137.399 963.549 136.892C962.333 136.335 960.99 136.056 959.521 136.056C958.051 136.056 956.683 136.335 955.417 136.892C954.201 137.399 953.137 138.159 952.225 139.172C951.313 140.135 950.603 141.275 950.097 142.592C949.59 143.909 949.337 145.379 949.337 147C949.337 148.571 949.59 150.04 950.097 151.408C950.603 152.725 951.313 153.891 952.225 154.904C953.137 155.867 954.201 156.627 955.417 157.184C956.683 157.691 958.051 157.944 959.521 157.944ZM996.192 158.552H1005.84C1007.26 158.552 1008.35 158.147 1009.11 157.336C1009.87 156.475 1010.25 155.461 1010.25 154.296C1010.25 153.131 1009.87 152.143 1009.11 151.332C1008.35 150.521 1007.26 150.116 1005.84 150.116H996.192V158.552ZM996.192 142.82H1004.78C1006.1 142.82 1007.09 142.44 1007.74 141.68C1008.45 140.92 1008.81 140.059 1008.81 139.096C1008.81 138.133 1008.45 137.297 1007.74 136.588C1007.09 135.828 1006.1 135.448 1004.78 135.448H996.192V142.82ZM987.072 166V128H1006.38C1009.92 128 1012.73 128.861 1014.81 130.584C1016.94 132.307 1018 134.612 1018 137.5C1018 139.425 1017.5 141.123 1016.48 142.592C1015.52 144.011 1014.15 145.075 1012.38 145.784C1014.66 146.544 1016.41 147.735 1017.62 149.356C1018.89 150.977 1019.52 152.928 1019.52 155.208C1019.52 156.829 1019.22 158.299 1018.61 159.616C1018 160.933 1017.14 162.073 1016.03 163.036C1014.96 163.999 1013.65 164.733 1012.08 165.24C1010.56 165.747 1008.86 166 1006.98 166H987.072ZM1023.07 157.032H1023.53C1024.79 157.032 1025.83 156.829 1026.64 156.424C1027.45 155.968 1028.09 155.208 1028.54 154.144C1029.05 153.029 1029.38 151.509 1029.53 149.584C1029.73 147.608 1029.83 145.1 1029.83 142.06V128H1060.23V166H1050.35V136.968H1039.11V143.504C1039.11 147.507 1038.88 150.952 1038.42 153.84C1038.02 156.728 1037.26 159.109 1036.14 160.984C1035.03 162.808 1033.51 164.151 1031.58 165.012C1029.66 165.873 1027.2 166.304 1024.21 166.304H1023.07V157.032ZM1077.29 142.744H1096.21C1095.86 140.413 1094.87 138.564 1093.25 137.196C1091.63 135.828 1089.57 135.144 1087.09 135.144C1084.66 135.144 1082.58 135.828 1080.86 137.196C1079.14 138.513 1077.95 140.363 1077.29 142.744ZM1087.7 167.064C1084.71 167.064 1081.95 166.583 1079.42 165.62C1076.93 164.607 1074.78 163.213 1072.96 161.44C1071.18 159.667 1069.79 157.539 1068.78 155.056C1067.81 152.573 1067.33 149.863 1067.33 146.924C1067.33 143.935 1067.84 141.224 1068.85 138.792C1069.87 136.309 1071.26 134.207 1073.03 132.484C1074.81 130.711 1076.91 129.343 1079.34 128.38C1081.77 127.417 1084.43 126.936 1087.32 126.936C1090.16 126.936 1092.72 127.392 1095 128.304C1097.33 129.216 1099.3 130.508 1100.92 132.18C1102.55 133.852 1103.81 135.853 1104.72 138.184C1105.64 140.464 1106.09 142.997 1106.09 145.784C1106.09 146.341 1106.07 146.949 1106.02 147.608C1105.97 148.267 1105.89 148.976 1105.79 149.736H1077.06C1077.57 152.472 1078.76 154.625 1080.63 156.196C1082.51 157.767 1084.89 158.552 1087.78 158.552C1089.9 158.552 1091.78 158.121 1093.4 157.26C1095.07 156.348 1096.41 155.005 1097.43 153.232L1104.34 158.704C1102.42 161.44 1100.04 163.517 1097.2 164.936C1094.41 166.355 1091.25 167.064 1087.7 167.064ZM1147.83 128V166H1137.95V150.42H1123.05V166H1113.17V128H1123.05V141.452H1137.95V128H1147.83ZM1154.53 160.376C1154.53 158.552 1155.11 157.057 1156.27 155.892C1157.49 154.727 1158.99 154.144 1160.76 154.144C1162.53 154.144 1164 154.727 1165.17 155.892C1166.38 157.057 1166.99 158.552 1166.99 160.376C1166.99 162.2 1166.38 163.695 1165.17 164.86C1164 166.025 1162.53 166.608 1160.76 166.608C1158.99 166.608 1157.49 166.025 1156.27 164.86C1155.11 163.695 1154.53 162.2 1154.53 160.376Z" fill="white"/>
<path d="M150.328 251.024C141.923 251.024 135.949 247.248 132.408 239.696L137.272 237.2C138.595 240.187 140.323 242.384 142.456 243.792C144.589 245.2 147.213 245.904 150.328 245.904C153.784 245.904 156.515 245.136 158.52 243.6C160.525 242.021 161.528 239.952 161.528 237.392C161.528 235.045 160.675 233.168 158.968 231.76C157.304 230.309 155.128 229.584 152.44 229.584H143.096V224.336H152.184C154.744 224.336 156.792 223.696 158.328 222.416C159.907 221.093 160.696 219.344 160.696 217.168C160.696 214.821 159.757 212.923 157.88 211.472C156.003 210.021 153.485 209.296 150.328 209.296C147.555 209.296 145.187 209.915 143.224 211.152C141.304 212.389 139.747 214.309 138.552 216.912L133.624 214.544C135.331 211.003 137.592 208.4 140.408 206.736C143.267 205.029 146.616 204.176 150.456 204.176C152.845 204.176 155 204.496 156.92 205.136C158.883 205.733 160.547 206.587 161.912 207.696C163.277 208.805 164.323 210.128 165.048 211.664C165.773 213.157 166.136 214.8 166.136 216.592C166.136 218.981 165.496 221.051 164.216 222.8C162.979 224.549 161.208 225.851 158.904 226.704C164.28 228.667 166.968 232.272 166.968 237.52C166.968 239.525 166.563 241.36 165.752 243.024C164.984 244.688 163.875 246.117 162.424 247.312C160.973 248.464 159.224 249.36 157.176 250C155.128 250.683 152.845 251.024 150.328 251.024ZM194.959 234.832L187.343 235.216C181.071 235.557 177.935 237.499 177.935 241.04C177.935 242.661 178.532 243.941 179.727 244.88C180.964 245.776 182.585 246.224 184.591 246.224C186.084 246.224 187.449 245.968 188.687 245.456C189.967 244.944 191.055 244.24 191.951 243.344C192.889 242.448 193.615 241.403 194.127 240.208C194.681 239.013 194.959 237.733 194.959 236.368V234.832ZM172.687 241.36C172.687 238.288 173.881 235.835 176.271 234C178.703 232.123 182.265 231.077 186.958 230.864L194.959 230.48V230.032C194.959 227.429 194.212 225.403 192.719 223.952C191.268 222.501 189.263 221.776 186.703 221.776C182.607 221.776 179.684 223.568 177.935 227.152L173.583 224.976C174.82 222.416 176.569 220.475 178.831 219.152C181.092 217.787 183.737 217.104 186.767 217.104C188.772 217.104 190.585 217.403 192.207 218C193.871 218.597 195.279 219.429 196.431 220.496C197.583 221.563 198.479 222.864 199.119 224.4C199.759 225.893 200.079 227.579 200.079 229.456V250H194.959V244.88C193.807 246.843 192.271 248.336 190.351 249.36C188.473 250.384 186.276 250.896 183.759 250.896C182.095 250.896 180.58 250.661 179.215 250.192C177.849 249.765 176.676 249.147 175.695 248.336C174.756 247.483 174.009 246.48 173.455 245.328C172.943 244.133 172.687 242.811 172.687 241.36ZM226.114 218H252.994V250H247.81V222.8H231.298V250H226.114V218ZM278.995 246.032C280.659 246.032 282.174 245.733 283.539 245.136C284.904 244.539 286.078 243.707 287.059 242.64C288.04 241.531 288.787 240.251 289.299 238.8C289.854 237.307 290.131 235.707 290.131 234C290.131 232.251 289.854 230.651 289.299 229.2C288.787 227.749 288.04 226.491 287.059 225.424C286.078 224.315 284.904 223.461 283.539 222.864C282.174 222.267 280.659 221.968 278.995 221.968C277.331 221.968 275.816 222.267 274.451 222.864C273.086 223.461 271.912 224.315 270.931 225.424C269.95 226.491 269.182 227.749 268.627 229.2C268.115 230.651 267.859 232.251 267.859 234C267.859 235.707 268.115 237.307 268.627 238.8C269.182 240.251 269.95 241.531 270.931 242.64C271.912 243.707 273.086 244.539 274.451 245.136C275.816 245.733 277.331 246.032 278.995 246.032ZM279.699 250.896C277.139 250.896 274.835 250.341 272.787 249.232C270.782 248.123 269.139 246.565 267.859 244.56V262.8H262.675V218H267.859V223.44C269.139 221.435 270.782 219.877 272.787 218.768C274.835 217.659 277.139 217.104 279.699 217.104C281.918 217.104 283.987 217.531 285.907 218.384C287.827 219.237 289.491 220.411 290.899 221.904C292.307 223.397 293.395 225.189 294.163 227.28C294.974 229.328 295.379 231.568 295.379 234C295.379 236.432 294.974 238.693 294.163 240.784C293.395 242.832 292.307 244.603 290.899 246.096C289.491 247.589 287.827 248.763 285.907 249.616C283.987 250.469 281.918 250.896 279.699 250.896ZM317.767 250.896C315.335 250.896 313.116 250.469 311.111 249.616C309.106 248.763 307.356 247.589 305.863 246.096C304.412 244.56 303.282 242.768 302.471 240.72C301.66 238.629 301.255 236.389 301.255 234C301.255 231.611 301.66 229.392 302.471 227.344C303.282 225.253 304.412 223.461 305.863 221.968C307.356 220.432 309.106 219.237 311.111 218.384C313.116 217.531 315.335 217.104 317.767 217.104C320.199 217.104 322.418 217.531 324.423 218.384C326.428 219.237 328.156 220.432 329.607 221.968C331.1 223.461 332.252 225.253 333.063 227.344C333.874 229.392 334.279 231.611 334.279 234C334.279 236.389 333.874 238.629 333.063 240.72C332.252 242.768 331.1 244.56 329.607 246.096C328.156 247.589 326.428 248.763 324.423 249.616C322.418 250.469 320.199 250.896 317.767 250.896ZM317.767 246.032C319.431 246.032 320.946 245.733 322.311 245.136C323.719 244.539 324.914 243.707 325.895 242.64C326.876 241.531 327.644 240.251 328.199 238.8C328.754 237.307 329.031 235.707 329.031 234C329.031 232.251 328.754 230.651 328.199 229.2C327.644 227.749 326.876 226.491 325.895 225.424C324.914 224.315 323.719 223.461 322.311 222.864C320.946 222.267 319.431 221.968 317.767 221.968C316.103 221.968 314.567 222.267 313.159 222.864C311.794 223.461 310.62 224.315 309.639 225.424C308.658 226.491 307.89 227.749 307.335 229.2C306.78 230.651 306.503 232.251 306.503 234C306.503 235.707 306.78 237.307 307.335 238.8C307.89 240.251 308.658 241.531 309.639 242.64C310.62 243.707 311.794 244.539 313.159 245.136C314.567 245.733 316.103 246.032 317.767 246.032ZM342.177 250V218H347.361V245.2H363.617V218H368.801V245.2H373.793V258.32H368.673V250H342.177ZM383.51 230.864H404.183C404.14 229.584 403.841 228.389 403.287 227.28C402.775 226.171 402.071 225.232 401.175 224.464C400.321 223.653 399.297 223.035 398.103 222.608C396.908 222.139 395.607 221.904 394.199 221.904C391.383 221.904 389.036 222.736 387.159 224.4C385.324 226.021 384.108 228.176 383.51 230.864ZM394.519 250.896C392.044 250.896 389.783 250.491 387.735 249.68C385.729 248.827 384.001 247.653 382.551 246.16C381.1 244.667 379.969 242.896 379.159 240.848C378.348 238.8 377.943 236.56 377.943 234.128C377.943 231.653 378.348 229.392 379.159 227.344C379.969 225.253 381.1 223.461 382.551 221.968C384.044 220.432 385.793 219.237 387.799 218.384C389.804 217.531 391.98 217.104 394.327 217.104C396.588 217.104 398.636 217.488 400.471 218.256C402.348 218.981 403.948 220.027 405.271 221.392C406.593 222.757 407.617 224.4 408.343 226.32C409.111 228.197 409.495 230.288 409.495 232.592C409.495 233.488 409.431 234.427 409.303 235.408H383.255C383.511 238.608 384.663 241.189 386.711 243.152C388.759 245.072 391.383 246.032 394.583 246.032C398.636 246.032 401.793 244.283 404.055 240.784L408.151 243.856C404.908 248.549 400.364 250.896 394.519 250.896ZM415.068 234C415.068 231.568 415.452 229.328 416.22 227.28C417.03 225.189 418.161 223.397 419.612 221.904C421.062 220.411 422.79 219.237 424.796 218.384C426.844 217.531 429.105 217.104 431.58 217.104C434.737 217.104 437.489 217.808 439.836 219.216C442.225 220.581 444.102 222.608 445.468 225.296L441.052 227.792C439.132 223.909 436.017 221.968 431.708 221.968C430.001 221.968 428.444 222.267 427.036 222.864C425.628 223.461 424.433 224.315 423.452 225.424C422.47 226.491 421.702 227.749 421.148 229.2C420.593 230.651 420.316 232.251 420.316 234C420.316 235.707 420.593 237.307 421.148 238.8C421.702 240.251 422.47 241.531 423.452 242.64C424.433 243.707 425.606 244.539 426.972 245.136C428.38 245.733 429.937 246.032 431.644 246.032C433.82 246.032 435.697 245.52 437.276 244.496C438.897 243.472 440.177 241.936 441.116 239.888L445.596 242.32C444.23 245.136 442.353 247.269 439.964 248.72C437.574 250.171 434.78 250.896 431.58 250.896C429.105 250.896 426.844 250.469 424.796 249.616C422.79 248.763 421.062 247.589 419.612 246.096C418.161 244.603 417.03 242.832 416.22 240.784C415.452 238.693 415.068 236.432 415.068 234ZM467.455 250.896C465.023 250.896 462.804 250.469 460.799 249.616C458.793 248.763 457.044 247.589 455.551 246.096C454.1 244.56 452.969 242.768 452.159 240.72C451.348 238.629 450.943 236.389 450.943 234C450.943 231.611 451.348 229.392 452.159 227.344C452.969 225.253 454.1 223.461 455.551 221.968C457.044 220.432 458.793 219.237 460.799 218.384C462.804 217.531 465.023 217.104 467.455 217.104C469.887 217.104 472.105 217.531 474.111 218.384C476.116 219.237 477.844 220.432 479.295 221.968C480.788 223.461 481.94 225.253 482.751 227.344C483.561 229.392 483.967 231.611 483.967 234C483.967 236.389 483.561 238.629 482.751 240.72C481.94 242.768 480.788 244.56 479.295 246.096C477.844 247.589 476.116 248.763 474.111 249.616C472.105 250.469 469.887 250.896 467.455 250.896ZM467.455 246.032C469.119 246.032 470.633 245.733 471.999 245.136C473.407 244.539 474.601 243.707 475.583 242.64C476.564 241.531 477.332 240.251 477.887 238.8C478.441 237.307 478.719 235.707 478.719 234C478.719 232.251 478.441 230.651 477.887 229.2C477.332 227.749 476.564 226.491 475.583 225.424C474.601 224.315 473.407 223.461 471.999 222.864C470.633 222.267 469.119 221.968 467.455 221.968C465.791 221.968 464.255 222.267 462.847 222.864C461.481 223.461 460.308 224.315 459.327 225.424C458.345 226.491 457.577 227.749 457.023 229.2C456.468 230.651 456.191 232.251 456.191 234C456.191 235.707 456.468 237.307 457.023 238.8C457.577 240.251 458.345 241.531 459.327 242.64C460.308 243.707 461.481 244.539 462.847 245.136C464.255 245.733 465.791 246.032 467.455 246.032ZM508.824 239.312L519.128 218H525.656V250H520.664V225.296L510.744 245.584H506.776L496.856 225.296V250H491.864V218H498.52L508.824 239.312ZM566.517 250.896C564.085 250.896 561.866 250.469 559.861 249.616C557.856 248.763 556.106 247.589 554.613 246.096C553.162 244.56 552.032 242.768 551.221 240.72C550.41 238.629 550.005 236.389 550.005 234C550.005 231.611 550.41 229.392 551.221 227.344C552.032 225.253 553.162 223.461 554.613 221.968C556.106 220.432 557.856 219.237 559.861 218.384C561.866 217.531 564.085 217.104 566.517 217.104C568.949 217.104 571.168 217.531 573.173 218.384C575.178 219.237 576.906 220.432 578.357 221.968C579.85 223.461 581.002 225.253 581.813 227.344C582.624 229.392 583.029 231.611 583.029 234C583.029 236.389 582.624 238.629 581.813 240.72C581.002 242.768 579.85 244.56 578.357 246.096C576.906 247.589 575.178 248.763 573.173 249.616C571.168 250.469 568.949 250.896 566.517 250.896ZM566.517 246.032C568.181 246.032 569.696 245.733 571.061 245.136C572.469 244.539 573.664 243.707 574.645 242.64C575.626 241.531 576.394 240.251 576.949 238.8C577.504 237.307 577.781 235.707 577.781 234C577.781 232.251 577.504 230.651 576.949 229.2C576.394 227.749 575.626 226.491 574.645 225.424C573.664 224.315 572.469 223.461 571.061 222.864C569.696 222.267 568.181 221.968 566.517 221.968C564.853 221.968 563.317 222.267 561.909 222.864C560.544 223.461 559.37 224.315 558.389 225.424C557.408 226.491 556.64 227.749 556.085 229.2C555.53 230.651 555.253 232.251 555.253 234C555.253 235.707 555.53 237.307 556.085 238.8C556.64 240.251 557.408 241.531 558.389 242.64C559.37 243.707 560.544 244.539 561.909 245.136C563.317 245.733 564.853 246.032 566.517 246.032ZM606.223 246.096C607.801 246.096 609.252 245.819 610.575 245.264C611.897 244.709 613.028 243.92 613.967 242.896C614.948 241.872 615.695 240.656 616.207 239.248C616.761 237.84 617.039 236.283 617.039 234.576C617.039 232.869 616.761 231.312 616.207 229.904C615.695 228.496 614.948 227.28 613.967 226.256C613.028 225.232 611.897 224.443 610.575 223.888C609.252 223.333 607.801 223.056 606.223 223.056C604.644 223.056 603.172 223.333 601.807 223.888C600.484 224.443 599.332 225.232 598.351 226.256C597.412 227.28 596.665 228.496 596.111 229.904C595.599 231.312 595.343 232.869 595.343 234.576C595.343 236.283 595.599 237.84 596.111 239.248C596.665 240.656 597.412 241.872 598.351 242.896C599.332 243.92 600.484 244.709 601.807 245.264C603.172 245.819 604.644 246.096 606.223 246.096ZM606.159 250.896C603.599 250.896 601.295 250.448 599.247 249.552C597.199 248.613 595.471 247.291 594.062 245.584C592.655 243.835 591.567 241.723 590.799 239.248C590.031 236.773 589.647 233.979 589.647 230.864V228.944C589.647 224.976 590.009 221.563 590.735 218.704C591.46 215.803 592.591 213.392 594.127 211.472C595.663 209.509 597.625 207.995 600.015 206.928C602.404 205.861 605.263 205.2 608.591 204.944L619.471 204.048L619.727 209.04L609.039 209.872C606.564 210.043 604.431 210.469 602.639 211.152C600.889 211.835 599.439 212.795 598.287 214.032C597.135 215.269 596.26 216.827 595.663 218.704C595.065 220.539 594.724 222.757 594.639 225.36C595.876 223.056 597.54 221.307 599.631 220.112C601.721 218.917 604.175 218.32 606.991 218.32C609.252 218.32 611.3 218.725 613.135 219.536C615.012 220.304 616.612 221.413 617.935 222.864C619.3 224.272 620.345 225.979 621.071 227.984C621.839 229.947 622.222 232.123 622.222 234.512C622.222 236.944 621.839 239.163 621.071 241.168C620.303 243.173 619.215 244.901 617.807 246.352C616.399 247.803 614.692 248.933 612.687 249.744C610.724 250.512 608.548 250.896 606.159 250.896ZM656.932 218V250H651.748V235.408H635.236V250H630.052V218H635.236V230.608H651.748V218H656.932ZM681.205 250.896C678.773 250.896 676.554 250.469 674.549 249.616C672.543 248.763 670.794 247.589 669.301 246.096C667.85 244.56 666.719 242.768 665.909 240.72C665.098 238.629 664.693 236.389 664.693 234C664.693 231.611 665.098 229.392 665.909 227.344C666.719 225.253 667.85 223.461 669.301 221.968C670.794 220.432 672.543 219.237 674.549 218.384C676.554 217.531 678.773 217.104 681.205 217.104C683.637 217.104 685.855 217.531 687.861 218.384C689.866 219.237 691.594 220.432 693.045 221.968C694.538 223.461 695.69 225.253 696.501 227.344C697.311 229.392 697.717 231.611 697.717 234C697.717 236.389 697.311 238.629 696.501 240.72C695.69 242.768 694.538 244.56 693.045 246.096C691.594 247.589 689.866 248.763 687.861 249.616C685.855 250.469 683.637 250.896 681.205 250.896ZM681.205 246.032C682.869 246.032 684.383 245.733 685.749 245.136C687.157 244.539 688.351 243.707 689.333 242.64C690.314 241.531 691.082 240.251 691.637 238.8C692.191 237.307 692.469 235.707 692.469 234C692.469 232.251 692.191 230.651 691.637 229.2C691.082 227.749 690.314 226.491 689.333 225.424C688.351 224.315 687.157 223.461 685.749 222.864C684.383 222.267 682.869 221.968 681.205 221.968C679.541 221.968 678.005 222.267 676.597 222.864C675.231 223.461 674.058 224.315 673.077 225.424C672.095 226.491 671.327 227.749 670.773 229.2C670.218 230.651 669.941 232.251 669.941 234C669.941 235.707 670.218 237.307 670.773 238.8C671.327 240.251 672.095 241.531 673.077 242.64C674.058 243.707 675.231 244.539 676.597 245.136C678.005 245.733 679.541 246.032 681.205 246.032ZM710.478 245.52H720.462C721.955 245.52 723.193 245.093 724.174 244.24C725.198 243.387 725.71 242.149 725.71 240.528C725.71 238.949 725.198 237.733 724.174 236.88C723.193 235.984 721.955 235.536 720.462 235.536H710.478V245.52ZM710.478 231.184H719.95C721.358 231.184 722.467 230.779 723.278 229.968C724.089 229.157 724.494 228.112 724.494 226.832C724.494 225.595 724.089 224.571 723.278 223.76C722.467 222.907 721.358 222.48 719.95 222.48H710.478V231.184ZM705.614 250V218H720.078C722.894 218 725.155 218.768 726.862 220.304C728.569 221.84 729.422 223.867 729.422 226.384C729.422 228.005 729.017 229.392 728.206 230.544C727.438 231.653 726.371 232.507 725.006 233.104C726.798 233.616 728.185 234.576 729.166 235.984C730.19 237.349 730.702 239.056 730.702 241.104C730.702 243.792 729.785 245.947 727.95 247.568C726.115 249.189 723.662 250 720.59 250H705.614ZM734.161 245.136H734.929C736.038 245.136 736.956 244.901 737.681 244.432C738.406 243.963 738.961 243.152 739.345 242C739.772 240.805 740.07 239.227 740.241 237.264C740.412 235.259 740.497 232.763 740.497 229.776V218H763.729V250H758.545V222.8H745.617V231.056C745.617 234.555 745.425 237.52 745.041 239.952C744.7 242.384 744.124 244.368 743.313 245.904C742.545 247.397 741.5 248.485 740.177 249.168C738.897 249.808 737.318 250.128 735.441 250.128H734.161V245.136ZM777.01 230.864H797.683C797.64 229.584 797.341 228.389 796.787 227.28C796.275 226.171 795.571 225.232 794.675 224.464C793.821 223.653 792.797 223.035 791.603 222.608C790.408 222.139 789.107 221.904 787.699 221.904C784.883 221.904 782.536 222.736 780.659 224.4C778.824 226.021 777.608 228.176 777.01 230.864ZM788.019 250.896C785.544 250.896 783.283 250.491 781.235 249.68C779.229 248.827 777.501 247.653 776.051 246.16C774.6 244.667 773.469 242.896 772.659 240.848C771.848 238.8 771.443 236.56 771.443 234.128C771.443 231.653 771.848 229.392 772.659 227.344C773.469 225.253 774.6 223.461 776.051 221.968C777.544 220.432 779.293 219.237 781.299 218.384C783.304 217.531 785.48 217.104 787.827 217.104C790.088 217.104 792.136 217.488 793.971 218.256C795.848 218.981 797.448 220.027 798.771 221.392C800.093 222.757 801.117 224.4 801.843 226.32C802.611 228.197 802.995 230.288 802.995 232.592C802.995 233.488 802.931 234.427 802.803 235.408H776.755C777.011 238.608 778.163 241.189 780.211 243.152C782.259 245.072 784.883 246.032 788.083 246.032C792.136 246.032 795.293 244.283 797.555 240.784L801.651 243.856C798.408 248.549 793.864 250.896 788.019 250.896ZM837.432 218V250H832.248V235.408H815.736V250H810.552V218H815.736V230.608H832.248V218H837.432ZM852.361 218V242.32L869.193 218H874.441V250H869.257V225.68L852.425 250H847.177V218H852.361ZM901.649 222.672H893.393C891.345 222.672 889.745 223.227 888.593 224.336C887.441 225.403 886.865 226.789 886.865 228.496C886.865 230.203 887.441 231.589 888.593 232.656C889.745 233.723 891.345 234.256 893.393 234.256H901.649V222.672ZM892.881 218H906.769V250H901.649V238.928H894.161L886.865 250H880.913L888.657 238.288C886.481 237.563 884.774 236.347 883.536 234.64C882.342 232.933 881.745 230.885 881.745 228.496C881.745 226.96 882.001 225.552 882.513 224.272C883.067 222.949 883.835 221.84 884.817 220.944C885.798 220.005 886.971 219.28 888.337 218.768C889.702 218.256 891.217 218 892.881 218ZM931.13 234C931.13 231.568 931.514 229.328 932.282 227.28C933.093 225.189 934.223 223.397 935.674 221.904C937.125 220.411 938.853 219.237 940.858 218.384C942.906 217.531 945.167 217.104 947.642 217.104C950.799 217.104 953.551 217.808 955.898 219.216C958.287 220.581 960.165 222.608 961.53 225.296L957.114 227.792C955.194 223.909 952.079 221.968 947.77 221.968C946.063 221.968 944.506 222.267 943.098 222.864C941.69 223.461 940.495 224.315 939.514 225.424C938.533 226.491 937.765 227.749 937.21 229.2C936.655 230.651 936.378 232.251 936.378 234C936.378 235.707 936.655 237.307 937.21 238.8C937.765 240.251 938.533 241.531 939.514 242.64C940.495 243.707 941.669 244.539 943.034 245.136C944.442 245.733 945.999 246.032 947.706 246.032C949.882 246.032 951.759 245.52 953.338 244.496C954.959 243.472 956.239 241.936 957.178 239.888L961.658 242.32C960.293 245.136 958.415 247.269 956.026 248.72C953.637 250.171 950.842 250.896 947.642 250.896C945.167 250.896 942.906 250.469 940.858 249.616C938.853 248.763 937.125 247.589 935.674 246.096C934.223 244.603 933.093 242.832 932.282 240.784C931.514 238.693 931.13 236.432 931.13 234ZM965.661 245.136H966.429C967.538 245.136 968.456 244.901 969.181 244.432C969.906 243.963 970.461 243.152 970.845 242C971.272 240.805 971.57 239.227 971.741 237.264C971.912 235.259 971.997 232.763 971.997 229.776V218H995.229V250H990.045V222.8H977.117V231.056C977.117 234.555 976.925 237.52 976.541 239.952C976.2 242.384 975.624 244.368 974.813 245.904C974.045 247.397 973 248.485 971.677 249.168C970.397 249.808 968.818 250.128 966.941 250.128H965.661V245.136ZM1008.51 230.864H1029.18C1029.14 229.584 1028.84 228.389 1028.29 227.28C1027.77 226.171 1027.07 225.232 1026.17 224.464C1025.32 223.653 1024.3 223.035 1023.1 222.608C1021.91 222.139 1020.61 221.904 1019.2 221.904C1016.38 221.904 1014.04 222.736 1012.16 224.4C1010.32 226.021 1009.11 228.176 1008.51 230.864ZM1019.52 250.896C1017.04 250.896 1014.78 250.491 1012.73 249.68C1010.73 248.827 1009 247.653 1007.55 246.16C1006.1 244.667 1004.97 242.896 1004.16 240.848C1003.35 238.8 1002.94 236.56 1002.94 234.128C1002.94 231.653 1003.35 229.392 1004.16 227.344C1004.97 225.253 1006.1 223.461 1007.55 221.968C1009.04 220.432 1010.79 219.237 1012.8 218.384C1014.8 217.531 1016.98 217.104 1019.33 217.104C1021.59 217.104 1023.64 217.488 1025.47 218.256C1027.35 218.981 1028.95 220.027 1030.27 221.392C1031.59 222.757 1032.62 224.4 1033.34 226.32C1034.11 228.197 1034.49 230.288 1034.49 232.592C1034.49 233.488 1034.43 234.427 1034.3 235.408H1008.25C1008.51 238.608 1009.66 241.189 1011.71 243.152C1013.76 245.072 1016.38 246.032 1019.58 246.032C1023.64 246.032 1026.79 244.283 1029.05 240.784L1033.15 243.856C1029.91 248.549 1025.36 250.896 1019.52 250.896ZM1062.49 245.2V222.8H1049.56V226.448C1049.56 228.837 1049.5 230.971 1049.37 232.848C1049.28 234.725 1049.13 236.432 1048.92 237.968C1048.71 239.461 1048.43 240.805 1048.09 242C1047.79 243.152 1047.41 244.219 1046.94 245.2H1062.49ZM1038.1 258.32V245.2H1041.43C1041.94 244.432 1042.39 243.515 1042.78 242.448C1043.16 241.339 1043.48 239.952 1043.74 238.288C1043.99 236.624 1044.16 234.619 1044.25 232.272C1044.38 229.883 1044.44 227.024 1044.44 223.696V218H1067.67V245.2H1072.92V258.32H1067.8V250H1043.22V258.32H1038.1ZM1084.74 218V242.32L1101.57 218H1106.82V250H1101.63V225.68L1084.8 250H1079.55V218H1084.74ZM1140.1 218V222.736H1129.1V250H1123.98V222.736H1112.97V218H1140.1ZM1148.95 230.864H1169.62C1169.58 229.584 1169.28 228.389 1168.72 227.28C1168.21 226.171 1167.51 225.232 1166.61 224.464C1165.76 223.653 1164.73 223.035 1163.54 222.608C1162.35 222.139 1161.04 221.904 1159.64 221.904C1156.82 221.904 1154.47 222.736 1152.6 224.4C1150.76 226.021 1149.55 228.176 1148.95 230.864ZM1159.96 250.896C1157.48 250.896 1155.22 250.491 1153.17 249.68C1151.17 248.827 1149.44 247.653 1147.99 246.16C1146.54 244.667 1145.41 242.896 1144.6 240.848C1143.79 238.8 1143.38 236.56 1143.38 234.128C1143.38 231.653 1143.79 229.392 1144.6 227.344C1145.41 225.253 1146.54 223.461 1147.99 221.968C1149.48 220.432 1151.23 219.237 1153.24 218.384C1155.24 217.531 1157.42 217.104 1159.76 217.104C1162.03 217.104 1164.07 217.488 1165.91 218.256C1167.79 218.981 1169.39 220.027 1170.71 221.392C1172.03 222.757 1173.05 224.4 1173.78 226.32C1174.55 228.197 1174.93 230.288 1174.93 232.592C1174.93 233.488 1174.87 234.427 1174.74 235.408H1148.69C1148.95 238.608 1150.1 241.189 1152.15 243.152C1154.2 245.072 1156.82 246.032 1160.02 246.032C1164.07 246.032 1167.23 244.283 1169.49 240.784L1173.59 243.856C1170.35 248.549 1165.8 250.896 1159.96 250.896ZM1237.71 235.6C1238.35 234.235 1238.96 233.04 1239.56 232.016C1240.2 230.992 1240.82 230.139 1241.42 229.456H1204.11V226.768H1241.42C1240.82 226.043 1240.2 225.168 1239.56 224.144C1238.96 223.12 1238.35 221.947 1237.71 220.624H1239.95C1242.63 223.739 1245.45 226.043 1248.39 227.536V228.688C1245.45 230.139 1242.63 232.443 1239.95 235.6H1237.71ZM1288.12 250V211.152L1278.84 217.424L1276.28 213.136L1288.19 205.2H1293.24V250H1288.12ZM1318.25 246.288C1321.54 246.288 1324.12 245.499 1326 243.92C1327.87 242.299 1328.81 240.229 1328.81 237.712C1328.81 235.237 1327.85 233.211 1325.93 231.632C1324.05 230.011 1321.49 229.2 1318.25 229.2C1315.01 229.2 1312.43 230.011 1310.51 231.632C1308.63 233.211 1307.69 235.237 1307.69 237.712C1307.69 240.229 1308.63 242.299 1310.51 243.92C1312.39 245.499 1314.97 246.288 1318.25 246.288ZM1318.25 224.72C1321.2 224.72 1323.52 224.016 1325.23 222.608C1326.93 221.2 1327.79 219.344 1327.79 217.04C1327.79 214.651 1326.93 212.709 1325.23 211.216C1323.52 209.68 1321.2 208.912 1318.25 208.912C1315.31 208.912 1312.98 209.68 1311.28 211.216C1309.57 212.709 1308.72 214.651 1308.72 217.04C1308.72 219.344 1309.57 221.2 1311.28 222.608C1312.98 224.016 1315.31 224.72 1318.25 224.72ZM1318.25 251.024C1315.91 251.024 1313.75 250.704 1311.79 250.064C1309.87 249.424 1308.23 248.549 1306.86 247.44C1305.49 246.288 1304.43 244.923 1303.66 243.344C1302.89 241.723 1302.51 239.952 1302.51 238.032C1302.51 235.515 1303.15 233.296 1304.43 231.376C1305.71 229.456 1307.5 227.984 1309.8 226.96C1307.76 225.979 1306.2 224.613 1305.13 222.864C1304.07 221.115 1303.53 219.088 1303.53 216.784C1303.53 214.907 1303.87 213.2 1304.56 211.664C1305.28 210.128 1306.28 208.805 1307.56 207.696C1308.84 206.587 1310.38 205.733 1312.17 205.136C1314.01 204.496 1316.03 204.176 1318.25 204.176C1320.47 204.176 1322.48 204.496 1324.27 205.136C1326.1 205.733 1327.66 206.587 1328.94 207.696C1330.22 208.805 1331.2 210.128 1331.88 211.664C1332.61 213.2 1332.97 214.907 1332.97 216.784C1332.97 219.088 1332.44 221.115 1331.37 222.864C1330.31 224.613 1328.75 225.979 1326.7 226.96C1329 227.984 1330.8 229.456 1332.08 231.376C1333.36 233.296 1334 235.515 1334 238.032C1334 239.952 1333.61 241.723 1332.84 243.344C1332.08 244.923 1331.01 246.288 1329.64 247.44C1328.28 248.549 1326.61 249.424 1324.65 250.064C1322.73 250.704 1320.6 251.024 1318.25 251.024ZM1354.28 251.024C1350.78 251.024 1347.75 250.277 1345.19 248.784C1342.63 247.248 1340.58 245.051 1339.05 242.192L1343.4 239.632C1345.92 243.984 1349.52 246.16 1354.22 246.16C1355.84 246.16 1357.31 245.925 1358.63 245.456C1360 244.944 1361.15 244.24 1362.09 243.344C1363.07 242.448 1363.82 241.36 1364.33 240.08C1364.84 238.8 1365.1 237.392 1365.1 235.856C1365.1 232.784 1364.14 230.352 1362.22 228.56C1360.3 226.768 1357.67 225.872 1354.34 225.872C1350.46 225.872 1347.41 227.259 1345.19 230.032L1340.97 228.496L1342.18 205.2H1367.78V210.064H1346.92L1346.15 223.76C1348.71 221.968 1351.76 221.072 1355.3 221.072C1357.57 221.072 1359.61 221.435 1361.45 222.16C1363.33 222.843 1364.9 223.824 1366.18 225.104C1367.51 226.384 1368.51 227.941 1369.19 229.776C1369.92 231.568 1370.28 233.573 1370.28 235.792C1370.28 238.096 1369.9 240.187 1369.13 242.064C1368.36 243.941 1367.27 245.541 1365.86 246.864C1364.5 248.187 1362.83 249.211 1360.87 249.936C1358.91 250.661 1356.71 251.024 1354.28 251.024ZM1376.57 246.352C1376.57 245.243 1376.93 244.325 1377.66 243.6C1378.43 242.832 1379.37 242.448 1380.48 242.448C1381.59 242.448 1382.5 242.832 1383.23 243.6C1384 244.325 1384.38 245.243 1384.38 246.352C1384.38 247.461 1384 248.4 1383.23 249.168C1382.5 249.893 1381.59 250.256 1380.48 250.256C1379.37 250.256 1378.43 249.893 1377.66 249.168C1376.93 248.4 1376.57 247.461 1376.57 246.352ZM1400.69 250V211.152L1391.41 217.424L1388.85 213.136L1400.75 205.2H1405.81V250H1400.69ZM1430.05 251.024C1426.04 251.024 1422.67 250.128 1419.93 248.336C1417.2 246.501 1415.09 243.835 1413.6 240.336L1418.27 238.032C1419.55 240.933 1421.15 243.003 1423.07 244.24C1425.03 245.477 1427.36 246.096 1430.05 246.096C1433.37 246.096 1436.04 245.307 1438.05 243.728C1440.05 242.149 1441.05 240.016 1441.05 237.328C1441.05 234.939 1440.27 233.019 1438.69 231.568C1437.15 230.117 1435.1 229.392 1432.54 229.392H1423.65V224.464H1432.35C1434.65 224.464 1436.53 223.803 1437.98 222.48C1439.43 221.115 1440.16 219.323 1440.16 217.104C1440.16 214.715 1439.28 212.795 1437.53 211.344C1435.83 209.851 1433.44 209.104 1430.37 209.104C1427.81 209.104 1425.61 209.68 1423.77 210.832C1421.98 211.984 1420.47 213.733 1419.23 216.08L1414.75 213.648C1416.29 210.576 1418.38 208.229 1421.02 206.608C1423.71 204.987 1426.87 204.176 1430.49 204.176C1432.71 204.176 1434.74 204.475 1436.57 205.072C1438.41 205.669 1439.97 206.523 1441.25 207.632C1442.57 208.741 1443.59 210.064 1444.32 211.6C1445.04 213.136 1445.41 214.843 1445.41 216.72C1445.41 219.109 1444.83 221.157 1443.68 222.864C1442.57 224.571 1441.03 225.851 1439.07 226.704C1441.37 227.643 1443.15 229.029 1444.38 230.864C1445.66 232.699 1446.3 234.896 1446.3 237.456C1446.3 239.461 1445.9 241.296 1445.09 242.96C1444.32 244.624 1443.23 246.053 1441.82 247.248C1440.41 248.443 1438.71 249.36 1436.7 250C1434.7 250.683 1432.48 251.024 1430.05 251.024ZM1475.62 210.192H1451.87V205.2H1481.18V210.256L1463.46 250H1457.82L1475.62 210.192ZM1486.57 246.352C1486.57 245.243 1486.93 244.325 1487.66 243.6C1488.43 242.832 1489.37 242.448 1490.48 242.448C1491.59 242.448 1492.5 242.832 1493.23 243.6C1494 244.325 1494.38 245.243 1494.38 246.352C1494.38 247.461 1494 248.4 1493.23 249.168C1492.5 249.893 1491.59 250.256 1490.48 250.256C1489.37 250.256 1488.43 249.893 1487.66 249.168C1486.93 248.4 1486.57 247.461 1486.57 246.352ZM1499.81 250V244.304L1517.28 230.224C1519.97 228.048 1521.91 226 1523.1 224.08C1524.34 222.16 1524.96 220.176 1524.96 218.128C1524.96 215.44 1524.06 213.264 1522.27 211.6C1520.52 209.936 1518.17 209.104 1515.23 209.104C1512.67 209.104 1510.47 209.787 1508.64 211.152C1506.85 212.517 1505.39 214.523 1504.29 217.168L1499.42 215.376C1500.79 211.749 1502.81 208.976 1505.5 207.056C1508.19 205.136 1511.43 204.176 1515.23 204.176C1517.49 204.176 1519.54 204.517 1521.37 205.2C1523.21 205.883 1524.77 206.843 1526.05 208.08C1527.37 209.275 1528.37 210.725 1529.05 212.432C1529.78 214.139 1530.14 216.037 1530.14 218.128C1530.14 221.029 1529.39 223.717 1527.9 226.192C1526.41 228.667 1523.95 231.269 1520.54 234L1506.46 245.2H1530.91V250H1499.81ZM1551.98 251.024C1547.97 251.024 1544.6 250.128 1541.87 248.336C1539.14 246.501 1537.03 243.835 1535.54 240.336L1540.21 238.032C1541.49 240.933 1543.09 243.003 1545.01 244.24C1546.97 245.477 1549.3 246.096 1551.98 246.096C1555.31 246.096 1557.98 245.307 1559.98 243.728C1561.99 242.149 1562.99 240.016 1562.99 237.328C1562.99 234.939 1562.2 233.019 1560.62 231.568C1559.09 230.117 1557.04 229.392 1554.48 229.392H1545.58V224.464H1554.29C1556.59 224.464 1558.47 223.803 1559.92 222.48C1561.37 221.115 1562.1 219.323 1562.1 217.104C1562.1 214.715 1561.22 212.795 1559.47 211.344C1557.77 209.851 1555.38 209.104 1552.3 209.104C1549.74 209.104 1547.55 209.68 1545.71 210.832C1543.92 211.984 1542.41 213.733 1541.17 216.08L1536.69 213.648C1538.22 210.576 1540.31 208.229 1542.96 206.608C1545.65 204.987 1548.81 204.176 1552.43 204.176C1554.65 204.176 1556.68 204.475 1558.51 205.072C1560.35 205.669 1561.9 206.523 1563.18 207.632C1564.51 208.741 1565.53 210.064 1566.26 211.6C1566.98 213.136 1567.34 214.843 1567.34 216.72C1567.34 219.109 1566.77 221.157 1565.62 222.864C1564.51 224.571 1562.97 225.851 1561.01 226.704C1563.31 227.643 1565.08 229.029 1566.32 230.864C1567.6 232.699 1568.24 234.896 1568.24 237.456C1568.24 239.461 1567.83 241.296 1567.02 242.96C1566.26 244.624 1565.17 246.053 1563.76 247.248C1562.35 248.443 1560.65 249.36 1558.64 250C1556.63 250.683 1554.42 251.024 1551.98 251.024ZM1579.19 233.936H1595.89V211.664L1579.19 233.936ZM1595.89 250V238.8H1573.94V232.912L1594.93 205.2H1601.01V233.936H1607.6V238.8H1601.01V250H1595.89ZM1613.76 246.352C1613.76 245.243 1614.12 244.325 1614.85 243.6C1615.62 242.832 1616.55 242.448 1617.66 242.448C1618.77 242.448 1619.69 242.832 1620.42 243.6C1621.18 244.325 1621.57 245.243 1621.57 246.352C1621.57 247.461 1621.18 248.4 1620.42 249.168C1619.69 249.893 1618.77 250.256 1617.66 250.256C1616.55 250.256 1615.62 249.893 1614.85 249.168C1614.12 248.4 1613.76 247.461 1613.76 246.352ZM1637.87 250V211.152L1628.59 217.424L1626.03 213.136L1637.94 205.2H1642.99V250H1637.87ZM1666.53 251.024C1663.03 251.024 1660 250.277 1657.44 248.784C1654.88 247.248 1652.83 245.051 1651.3 242.192L1655.65 239.632C1658.17 243.984 1661.77 246.16 1666.47 246.16C1668.09 246.16 1669.56 245.925 1670.88 245.456C1672.25 244.944 1673.4 244.24 1674.34 243.344C1675.32 242.448 1676.07 241.36 1676.58 240.08C1677.09 238.8 1677.35 237.392 1677.35 235.856C1677.35 232.784 1676.39 230.352 1674.47 228.56C1672.55 226.768 1669.92 225.872 1666.59 225.872C1662.71 225.872 1659.66 227.259 1657.44 230.032L1653.22 228.496L1654.43 205.2H1680.03V210.064H1659.17L1658.4 223.76C1660.96 221.968 1664.01 221.072 1667.55 221.072C1669.82 221.072 1671.86 221.435 1673.7 222.16C1675.58 222.843 1677.15 223.824 1678.43 225.104C1679.76 226.384 1680.76 227.941 1681.44 229.776C1682.17 231.568 1682.53 233.573 1682.53 235.792C1682.53 238.096 1682.15 240.187 1681.38 242.064C1680.61 243.941 1679.52 245.541 1678.11 246.864C1676.75 248.187 1675.08 249.211 1673.12 249.936C1671.16 250.661 1668.96 251.024 1666.53 251.024ZM1712.05 210.192H1688.31V205.2H1717.62V210.256L1699.89 250H1694.26L1712.05 210.192Z" fill="white" fill-opacity="0.8"/>
<path d="M1258.25 258H1274.89V261.2H1258.25V258Z" fill="white" fill-opacity="0.8"/>
<path d="M1274.88 258H1719.93V261.2H1274.88V258Z" fill="white" fill-opacity="0.8"/>
<defs>
<linearGradient id="paint0_linear_0_1" x1="0" y1="0" x2="1861.4" y2="78.0198" gradientUnits="userSpaceOnUse">
<stop stop-color="white"/>
<stop offset="1" stop-color="#666666"/>
</linearGradient>
</defs>
</svg>
