<svg width="800" height="800" viewBox="0 0 800 800" fill="none" xmlns="http://www.w3.org/2000/svg">
<path d="M472.727 72.7273H545.455V109.091H581.818V145.455H618.182V181.818H654.545V218.182H690.909V290.909H727.273V509.091H690.909V581.818H654.545V618.182H618.182V654.545H581.818V690.909H545.455V727.273H472.727V654.545H509.091V618.182H545.455V581.818H581.818V545.455H618.182V472.727H654.545V327.273H618.182V254.545H581.818V218.182H545.455V181.818H509.091V145.455H472.727V72.7273ZM509.091 254.545V290.909H545.455V363.636H581.818V436.364H545.455V509.091H509.091V545.455H472.727V254.545H509.091ZM72.7273 290.909H218.182V254.545H254.545V218.182H290.909V181.818H327.273V145.455H363.636V109.091H400V690.909H363.636V654.545H327.273V618.182H290.909V581.818H254.545V545.455H218.182V509.091H72.7273V290.909ZM145.455 363.636V436.364H254.545V472.727H290.909V509.091H327.273V290.909H290.909V327.273H254.545V363.636H145.455Z" fill="white"/>
</svg>
