<svg width="341" height="66" viewBox="0 0 341 66" fill="none" xmlns="http://www.w3.org/2000/svg">
<path d="M0.43821 4.90909H2.39418V14.5227H2.51562L9.17614 4.90909H11.0043V18H9.02912V8.39915H8.90767L2.25994 18H0.43821V4.90909ZM17.982 15.6349L21.1525 8.18182H22.8016L18.6915 18H17.2725L13.2455 8.18182H14.8755L17.982 15.6349ZM14.3449 8.18182V18H12.4721V8.18182H14.3449ZM21.6702 18V8.18182H23.5303V18H21.6702ZM30.6726 18V9.81179H28.3204C27.7621 9.81179 27.3275 9.94176 27.0164 10.2017C26.7053 10.4616 26.5498 10.8026 26.5498 11.2244C26.5498 11.642 26.6925 11.9787 26.978 12.2344C27.2678 12.4858 27.6726 12.6115 28.1925 12.6115H31.2288V14.1584H28.1925C27.4681 14.1584 26.8417 14.0391 26.3133 13.8004C25.7891 13.5575 25.3843 13.2145 25.0988 12.7713C24.8175 12.3281 24.6769 11.804 24.6769 11.1989C24.6769 10.581 24.8218 10.0483 25.1116 9.60085C25.4056 9.14915 25.8253 8.79972 26.3708 8.55256C26.9205 8.3054 27.5704 8.18182 28.3204 8.18182H32.4688V18H30.6726ZM24.2295 18L26.9972 13.0398H28.9532L26.1854 18H24.2295ZM43.0413 10.6236V12.2855H37.2373V10.6236H43.0413ZM47.9856 4.90909H49.9416V14.5227H50.063L56.7236 4.90909H58.5517V18H56.5765V8.39915H56.4551L49.8074 18H47.9856V4.90909ZM59.2461 18L59.2397 16.3445H59.5912C59.8639 16.3445 60.0919 16.2869 60.2752 16.1719C60.4627 16.0526 60.6161 15.8523 60.7354 15.571C60.8547 15.2898 60.9463 14.902 61.0103 14.4077C61.0742 13.9091 61.1211 13.2827 61.1509 12.5284L61.3235 8.18182H68.1757V18H66.3029V9.83097H63.0941L62.9407 13.1676C62.9023 13.9773 62.8192 14.6847 62.6914 15.2898C62.5678 15.8949 62.3867 16.3999 62.148 16.8047C61.9094 17.2053 61.6026 17.5057 61.2276 17.706C60.8526 17.902 60.3966 18 59.8597 18H59.2461ZM70.9028 11.5568H73.7536C74.9553 11.5568 75.88 11.8551 76.5278 12.4517C77.1755 13.0483 77.4994 13.8175 77.4994 14.7592C77.4994 15.3729 77.3545 15.9247 77.0647 16.4148C76.7749 16.9048 76.3509 17.2926 75.7927 17.5781C75.2345 17.8594 74.5548 18 73.7536 18H69.4646V8.18182H71.3374V16.3509H73.7536C74.3033 16.3509 74.755 16.2081 75.1087 15.9226C75.4624 15.6328 75.6393 15.2642 75.6393 14.8168C75.6393 14.3437 75.4624 13.9581 75.1087 13.6598C74.755 13.3572 74.3033 13.206 73.7536 13.206H70.9028V11.5568ZM84.2374 18V9.81179H81.8851C81.3269 9.81179 80.8922 9.94176 80.5812 10.2017C80.2701 10.4616 80.1145 10.8026 80.1145 11.2244C80.1145 11.642 80.2573 11.9787 80.5428 12.2344C80.8326 12.4858 81.2374 12.6115 81.7573 12.6115H84.7935V14.1584H81.7573C81.0329 14.1584 80.4065 14.0391 79.878 13.8004C79.3539 13.5575 78.9491 13.2145 78.6636 12.7713C78.3823 12.3281 78.2417 11.804 78.2417 11.1989C78.2417 10.581 78.3866 10.0483 78.6763 9.60085C78.9704 9.14915 79.3901 8.79972 79.9356 8.55256C80.4853 8.3054 81.1351 8.18182 81.8851 8.18182H86.0336V18H84.2374ZM77.7942 18L80.562 13.0398H82.518L79.7502 18H77.7942ZM0.43821 40V26.9091H5.23224C6.16122 26.9091 6.9304 27.0625 7.53977 27.3693C8.14915 27.6719 8.60511 28.0831 8.90767 28.603C9.21023 29.1186 9.36151 29.7003 9.36151 30.348C9.36151 30.8935 9.26136 31.3537 9.06108 31.7287C8.8608 32.0994 8.59233 32.3977 8.25568 32.6236C7.9233 32.8452 7.55682 33.0071 7.15625 33.1094V33.2372C7.59091 33.2585 8.01491 33.3991 8.42827 33.6591C8.84588 33.9148 9.19105 34.2791 9.46378 34.7521C9.73651 35.2251 9.87287 35.8004 9.87287 36.478C9.87287 37.147 9.7152 37.7479 9.39986 38.2805C9.08878 38.8089 8.60724 39.2287 7.95526 39.5398C7.30327 39.8466 6.47017 40 5.45597 40H0.43821ZM2.41335 38.3061H5.2642C6.21023 38.3061 6.88778 38.1229 7.29688 37.7564C7.70597 37.3899 7.91051 36.9318 7.91051 36.3821C7.91051 35.9687 7.80611 35.5895 7.5973 35.2443C7.38849 34.8991 7.0902 34.6243 6.70241 34.4197C6.31889 34.2152 5.86293 34.1129 5.33452 34.1129H2.41335V38.3061ZM2.41335 32.5724H5.05966C5.50284 32.5724 5.90128 32.4872 6.25497 32.3168C6.61293 32.1463 6.89631 31.9077 7.10511 31.6009C7.31818 31.2898 7.42472 30.9233 7.42472 30.5014C7.42472 29.9602 7.23509 29.5064 6.85582 29.1399C6.47656 28.7734 5.89489 28.5902 5.1108 28.5902H2.41335V32.5724ZM14.9378 40.1982C14.0173 40.1982 13.2141 39.9872 12.528 39.5653C11.8419 39.1435 11.3092 38.5533 10.93 37.7947C10.5507 37.0362 10.3611 36.1499 10.3611 35.1357C10.3611 34.1172 10.5507 33.2266 10.93 32.4638C11.3092 31.701 11.8419 31.1087 12.528 30.6868C13.2141 30.2649 14.0173 30.054 14.9378 30.054C15.8583 30.054 16.6615 30.2649 17.3476 30.6868C18.0337 31.1087 18.5663 31.701 18.9456 32.4638C19.3249 33.2266 19.5145 34.1172 19.5145 35.1357C19.5145 36.1499 19.3249 37.0362 18.9456 37.7947C18.5663 38.5533 18.0337 39.1435 17.3476 39.5653C16.6615 39.9872 15.8583 40.1982 14.9378 40.1982ZM14.9442 38.5938C15.5408 38.5938 16.0351 38.4361 16.4271 38.1207C16.8192 37.8054 17.109 37.3857 17.2965 36.8615C17.4882 36.3374 17.5841 35.7599 17.5841 35.1293C17.5841 34.5028 17.4882 33.9276 17.2965 33.4034C17.109 32.875 16.8192 32.451 16.4271 32.1314C16.0351 31.8118 15.5408 31.652 14.9442 31.652C14.3433 31.652 13.8448 31.8118 13.4485 32.1314C13.0564 32.451 12.7645 32.875 12.5727 33.4034C12.3852 33.9276 12.2915 34.5028 12.2915 35.1293C12.2915 35.7599 12.3852 36.3374 12.5727 36.8615C12.7645 37.3857 13.0564 37.8054 13.4485 38.1207C13.8448 38.4361 14.3433 38.5938 14.9442 38.5938ZM19.8062 37.4048H21.7621C21.7877 37.8054 21.9688 38.1143 22.3055 38.3317C22.6464 38.549 23.0874 38.6577 23.6286 38.6577C24.1783 38.6577 24.6471 38.5405 25.0349 38.3061C25.4226 38.0675 25.6165 37.6989 25.6165 37.2003C25.6165 36.902 25.542 36.642 25.3928 36.4205C25.2479 36.1946 25.0413 36.0199 24.7728 35.8963C24.5086 35.7727 24.1954 35.7109 23.8332 35.7109H22.2351V34.2088H23.8332C24.3744 34.2088 24.7792 34.0852 25.0476 33.8381C25.3161 33.5909 25.4503 33.282 25.4503 32.9112C25.4503 32.5107 25.3055 32.1889 25.0157 31.946C24.7302 31.6989 24.3317 31.5753 23.8204 31.5753C23.3005 31.5753 22.868 31.6925 22.5228 31.9268C22.1776 32.157 21.9965 32.4553 21.9795 32.8217H20.0491C20.0619 32.272 20.228 31.7905 20.5476 31.3771C20.8715 30.9595 21.3062 30.6357 21.8516 30.4055C22.4013 30.1712 23.0256 30.054 23.7245 30.054C24.4532 30.054 25.0839 30.1712 25.6165 30.4055C26.1492 30.6399 26.5604 30.9638 26.8502 31.3771C27.1442 31.7905 27.2913 32.2656 27.2913 32.8026C27.2913 33.3437 27.1293 33.7869 26.8055 34.1321C26.4859 34.473 26.0682 34.718 25.5526 34.8672V34.9695C25.9319 34.995 26.2685 35.1101 26.5626 35.3146C26.8566 35.5192 27.0867 35.7898 27.2529 36.1264C27.4191 36.4631 27.5022 36.8445 27.5022 37.2706C27.5022 37.8714 27.336 38.3913 27.0036 38.8303C26.6755 39.2692 26.2195 39.608 25.6357 39.8466C25.0562 40.081 24.3935 40.1982 23.6478 40.1982C22.9234 40.1982 22.2735 40.0852 21.6982 39.8594C21.1272 39.6293 20.6734 39.3054 20.3367 38.8878C20.0043 38.4702 19.8275 37.9759 19.8062 37.4048ZM28.2157 43.6818V30.1818H30.0822V31.7734H30.242C30.3528 31.5689 30.5126 31.3324 30.7214 31.0639C30.9302 30.7955 31.22 30.5611 31.5907 30.3608C31.9615 30.1562 32.4515 30.054 33.0609 30.054C33.8535 30.054 34.5609 30.2543 35.1831 30.6548C35.8052 31.0554 36.2932 31.6328 36.6468 32.3871C37.0048 33.1413 37.1838 34.049 37.1838 35.1101C37.1838 36.1712 37.0069 37.081 36.6532 37.8395C36.2995 38.5937 35.8137 39.1754 35.1959 39.5845C34.578 39.9893 33.8727 40.1918 33.0801 40.1918C32.4835 40.1918 31.9956 40.0916 31.6163 39.8913C31.2413 39.6911 30.9473 39.4567 30.7342 39.1882C30.5211 38.9197 30.3571 38.6811 30.242 38.4723H30.127V43.6818H28.2157ZM30.0886 35.0909C30.0886 35.7812 30.1887 36.3864 30.389 36.9062C30.5893 37.4261 30.8791 37.8331 31.2584 38.1271C31.6376 38.4169 32.1021 38.5618 32.6518 38.5618C33.2228 38.5618 33.7001 38.4105 34.0836 38.108C34.4672 37.8011 34.7569 37.3857 34.953 36.8615C35.1532 36.3374 35.2534 35.7472 35.2534 35.0909C35.2534 34.4432 35.1554 33.8615 34.9593 33.3459C34.7676 32.8303 34.4778 32.4233 34.09 32.125C33.7065 31.8267 33.2271 31.6776 32.6518 31.6776C32.0978 31.6776 31.6291 31.8203 31.2456 32.1058C30.8663 32.3913 30.5787 32.7898 30.3826 33.3011C30.1866 33.8125 30.0886 34.4091 30.0886 35.0909ZM40.9224 40.2173C40.3002 40.2173 39.7377 40.1023 39.2349 39.8722C38.732 39.6378 38.3336 39.299 38.0395 38.8558C37.7498 38.4126 37.6049 37.8693 37.6049 37.2259C37.6049 36.6719 37.7114 36.2159 37.9245 35.858C38.1376 35.5 38.4252 35.2166 38.7874 35.0078C39.1496 34.799 39.5545 34.6413 40.0019 34.5348C40.4493 34.4283 40.9053 34.3473 41.3698 34.2919C41.9579 34.2237 42.4351 34.1683 42.8016 34.1257C43.1681 34.0788 43.4344 34.0043 43.6006 33.902C43.7668 33.7997 43.8499 33.6335 43.8499 33.4034V33.3587C43.8499 32.8004 43.6922 32.3679 43.3769 32.0611C43.0658 31.7543 42.6013 31.6009 41.9834 31.6009C41.34 31.6009 40.8329 31.7436 40.4621 32.0291C40.0957 32.3104 39.8421 32.6236 39.7015 32.9688L37.9053 32.5597C38.1184 31.9631 38.4295 31.4815 38.8386 31.1151C39.2519 30.7443 39.727 30.4759 40.264 30.3097C40.8009 30.1392 41.3655 30.054 41.9579 30.054C42.3499 30.054 42.7654 30.1009 43.2043 30.1946C43.6475 30.2841 44.0609 30.4503 44.4444 30.6932C44.8322 30.9361 45.1496 31.2834 45.3968 31.7351C45.6439 32.1825 45.7675 32.7642 45.7675 33.4801V40H43.9011V38.6577H43.8243C43.7008 38.9048 43.5154 39.1477 43.2682 39.3864C43.0211 39.625 42.7036 39.8232 42.3158 39.9808C41.928 40.1385 41.4636 40.2173 40.9224 40.2173ZM41.3378 38.6832C41.8662 38.6832 42.318 38.5788 42.693 38.37C43.0722 38.1612 43.3599 37.8885 43.5559 37.5518C43.7562 37.2109 43.8563 36.8466 43.8563 36.4588V35.1932C43.7881 35.2614 43.656 35.3253 43.46 35.3849C43.2682 35.4403 43.0488 35.4893 42.8016 35.532C42.5545 35.5703 42.3137 35.6065 42.0793 35.6406C41.8449 35.6705 41.6489 35.696 41.4912 35.7173C41.1205 35.7642 40.7817 35.843 40.4749 35.9538C40.1724 36.0646 39.9295 36.2244 39.7462 36.4332C39.5672 36.6378 39.4778 36.9105 39.4778 37.2514C39.4778 37.7244 39.6525 38.0824 40.0019 38.3253C40.3513 38.5639 40.7966 38.6832 41.3378 38.6832ZM51.1888 40.1982C50.2385 40.1982 49.4203 39.983 48.7343 39.5526C48.0525 39.1179 47.5283 38.5192 47.1618 37.7564C46.7953 36.9936 46.6121 36.12 46.6121 35.1357C46.6121 34.1385 46.7996 33.2585 47.1746 32.4957C47.5496 31.7287 48.078 31.13 48.7598 30.6996C49.4417 30.2692 50.2449 30.054 51.1696 30.054C51.9154 30.054 52.5802 30.1925 53.164 30.4695C53.7478 30.7422 54.2186 31.1257 54.5766 31.62C54.9388 32.1143 55.154 32.6918 55.2222 33.3523H53.3621C53.2598 32.892 53.0255 32.4957 52.659 32.1634C52.2968 31.831 51.811 31.6648 51.2016 31.6648C50.6689 31.6648 50.2023 31.8054 49.8017 32.0866C49.4054 32.3636 49.0965 32.7599 48.8749 33.2756C48.6533 33.7869 48.5425 34.392 48.5425 35.0909C48.5425 35.8068 48.6512 36.4247 48.8685 36.9446C49.0858 37.4645 49.3927 37.8672 49.789 38.1527C50.1895 38.4382 50.6604 38.581 51.2016 38.581C51.5638 38.581 51.8919 38.5149 52.186 38.3828C52.4843 38.2464 52.7336 38.0526 52.9338 37.8011C53.1384 37.5497 53.2811 37.2472 53.3621 36.8935H55.2222C55.154 37.5284 54.9473 38.0952 54.6022 38.5938C54.257 39.0923 53.7946 39.4844 53.2151 39.7699C52.6398 40.0554 51.9644 40.1982 51.1888 40.1982ZM55.263 31.831V30.1818H63.5471V31.831H60.3447V40H58.4782V31.831H55.263ZM73.597 32.6236V34.2855H67.793V32.6236H73.597ZM78.3624 40V38.5682L82.792 33.9787C83.2651 33.4801 83.655 33.0433 83.9618 32.6683C84.2729 32.2891 84.5051 31.929 84.6585 31.5881C84.8119 31.2472 84.8886 30.8849 84.8886 30.5014C84.8886 30.0668 84.7864 29.6918 84.5818 29.3764C84.3773 29.0568 84.0982 28.8118 83.7445 28.6413C83.3908 28.4666 82.9923 28.3793 82.5491 28.3793C82.0804 28.3793 81.6713 28.4751 81.3219 28.6669C80.9724 28.8587 80.704 29.1293 80.5165 29.4787C80.329 29.8281 80.2352 30.2372 80.2352 30.706H78.3496C78.3496 29.9091 78.5328 29.2124 78.8993 28.6158C79.2658 28.0192 79.7686 27.5568 80.4078 27.2287C81.047 26.8963 81.7736 26.7301 82.5875 26.7301C83.4099 26.7301 84.1344 26.8942 84.7608 27.2223C85.3915 27.5462 85.8837 27.9893 86.2374 28.5518C86.5911 29.1101 86.7679 29.7408 86.7679 30.4439C86.7679 30.9297 86.6763 31.4048 86.493 31.8693C86.3141 32.3338 86.0009 32.8516 85.5534 33.4226C85.106 33.9893 84.4838 34.6776 83.6869 35.4872L81.0854 38.2102V38.3061H86.9788V40H78.3624ZM92.6989 40.2173C91.689 40.2131 90.8261 39.9467 90.1102 39.4183C89.3943 38.8899 88.8467 38.1207 88.4674 37.1108C88.0882 36.1009 87.8985 34.8842 87.8985 33.4609C87.8985 32.0419 88.0882 30.8295 88.4674 29.8239C88.8509 28.8182 89.4007 28.0511 90.1166 27.5227C90.8367 26.9943 91.6975 26.7301 92.6989 26.7301C93.7004 26.7301 94.559 26.9964 95.2749 27.5291C95.9909 28.0575 96.5384 28.8246 96.9177 29.8303C97.3012 30.8317 97.493 32.0419 97.493 33.4609C97.493 34.8885 97.3034 36.1072 96.9241 37.1172C96.5448 38.1229 95.9972 38.892 95.2813 39.4247C94.5654 39.9531 93.7046 40.2173 92.6989 40.2173ZM92.6989 38.5107C93.5853 38.5107 94.2778 38.0781 94.7764 37.2131C95.2792 36.348 95.5306 35.0973 95.5306 33.4609C95.5306 32.3743 95.4156 31.456 95.1855 30.706C94.9596 29.9517 94.6336 29.3807 94.2075 28.9929C93.7856 28.6009 93.2828 28.4048 92.6989 28.4048C91.8168 28.4048 91.1244 28.8395 90.6215 29.7088C90.1187 30.5781 89.8651 31.8288 89.8609 33.4609C89.8609 34.5518 89.9738 35.4744 90.1997 36.2287C90.4298 36.9787 90.7558 37.5476 91.1776 37.9354C91.5995 38.3189 92.1066 38.5107 92.6989 38.5107ZM101.256 40L101.25 38.3445H101.602C101.874 38.3445 102.102 38.2869 102.285 38.1719C102.473 38.0526 102.626 37.8523 102.746 37.571C102.865 37.2898 102.957 36.902 103.021 36.4077C103.084 35.9091 103.131 35.2827 103.161 34.5284L103.334 30.1818H110.186V40H108.313V31.831H105.104L104.951 35.1676C104.913 35.9773 104.83 36.6847 104.702 37.2898C104.578 37.8949 104.397 38.3999 104.158 38.8047C103.92 39.2053 103.613 39.5057 103.238 39.706C102.863 39.902 102.407 40 101.87 40H101.256ZM115.706 40.1982C114.739 40.1982 113.906 39.9915 113.207 39.5781C112.513 39.1605 111.976 38.5746 111.596 37.8203C111.221 37.0618 111.034 36.1733 111.034 35.1548C111.034 34.1491 111.221 33.2628 111.596 32.4957C111.976 31.7287 112.504 31.13 113.182 30.6996C113.863 30.2692 114.66 30.054 115.572 30.054C116.126 30.054 116.663 30.1456 117.183 30.3288C117.703 30.5121 118.169 30.7997 118.583 31.1918C118.996 31.5838 119.322 32.093 119.561 32.7195C119.799 33.3416 119.919 34.098 119.919 34.9886V35.6662H112.114V34.2344H118.046C118.046 33.7315 117.944 33.2862 117.739 32.8984C117.535 32.5064 117.247 32.1974 116.876 31.9716C116.51 31.7457 116.079 31.6328 115.585 31.6328C115.048 31.6328 114.579 31.7649 114.179 32.0291C113.782 32.2891 113.476 32.63 113.258 33.0518C113.045 33.4695 112.939 33.9233 112.939 34.4134V35.532C112.939 36.1882 113.054 36.7464 113.284 37.2067C113.518 37.6669 113.844 38.0185 114.262 38.2614C114.679 38.5 115.167 38.6193 115.726 38.6193C116.088 38.6193 116.418 38.5682 116.716 38.4659C117.015 38.3594 117.272 38.2017 117.49 37.9929C117.707 37.7841 117.873 37.5263 117.988 37.2195L119.797 37.5455C119.652 38.0781 119.392 38.5447 119.017 38.9453C118.647 39.3416 118.18 39.6506 117.618 39.8722C117.059 40.0895 116.422 40.1982 115.706 40.1982ZM119.913 31.831V30.1818H128.197V31.831H124.995V40H123.128V31.831H119.913ZM8.60085 48.9091V50.6094H2.41335V62H0.43821V48.9091H8.60085ZM12.1253 62.1982C11.2048 62.1982 10.4016 61.9872 9.7155 61.5653C9.02942 61.1435 8.49675 60.5533 8.11749 59.7947C7.73822 59.0362 7.54859 58.1499 7.54859 57.1357C7.54859 56.1172 7.73822 55.2266 8.11749 54.4638C8.49675 53.701 9.02942 53.1087 9.7155 52.6868C10.4016 52.2649 11.2048 52.054 12.1253 52.054C13.0458 52.054 13.849 52.2649 14.5351 52.6868C15.2212 53.1087 15.7538 53.701 16.1331 54.4638C16.5124 55.2266 16.702 56.1172 16.702 57.1357C16.702 58.1499 16.5124 59.0362 16.1331 59.7947C15.7538 60.5533 15.2212 61.1435 14.5351 61.5653C13.849 61.9872 13.0458 62.1982 12.1253 62.1982ZM12.1317 60.5938C12.7283 60.5938 13.2226 60.4361 13.6146 60.1207C14.0067 59.8054 14.2965 59.3857 14.484 58.8615C14.6757 58.3374 14.7716 57.7599 14.7716 57.1293C14.7716 56.5028 14.6757 55.9276 14.484 55.4034C14.2965 54.875 14.0067 54.451 13.6146 54.1314C13.2226 53.8118 12.7283 53.652 12.1317 53.652C11.5308 53.652 11.0323 53.8118 10.636 54.1314C10.2439 54.451 9.952 54.875 9.76024 55.4034C9.57274 55.9276 9.47899 56.5028 9.47899 57.1293C9.47899 57.7599 9.57274 58.3374 9.76024 58.8615C9.952 59.3857 10.2439 59.8054 10.636 60.1207C11.0323 60.4361 11.5308 60.5938 12.1317 60.5938ZM17.5753 65.6818V52.1818H19.4418V53.7734H19.6016C19.7124 53.5689 19.8722 53.3324 20.081 53.0639C20.2898 52.7955 20.5796 52.5611 20.9503 52.3608C21.3211 52.1562 21.8111 52.054 22.4205 52.054C23.2131 52.054 23.9205 52.2543 24.5427 52.6548C25.1648 53.0554 25.6528 53.6328 26.0065 54.3871C26.3644 55.1413 26.5434 56.049 26.5434 57.1101C26.5434 58.1712 26.3665 59.081 26.0128 59.8395C25.6592 60.5937 25.1734 61.1754 24.5555 61.5845C23.9376 61.9893 23.2323 62.1918 22.4397 62.1918C21.8431 62.1918 21.3552 62.0916 20.9759 61.8913C20.6009 61.6911 20.3069 61.4567 20.0938 61.1882C19.8807 60.9197 19.7167 60.6811 19.6016 60.4723H19.4866V65.6818H17.5753ZM19.4482 57.0909C19.4482 57.7812 19.5484 58.3864 19.7486 58.9062C19.9489 59.4261 20.2387 59.8331 20.618 60.1271C20.9972 60.4169 21.4617 60.5618 22.0114 60.5618C22.5824 60.5618 23.0597 60.4105 23.4432 60.108C23.8268 59.8011 24.1165 59.3857 24.3126 58.8615C24.5128 58.3374 24.613 57.7472 24.613 57.0909C24.613 56.4432 24.515 55.8615 24.319 55.3459C24.1272 54.8303 23.8374 54.4233 23.4496 54.125C23.0661 53.8267 22.5867 53.6776 22.0114 53.6776C21.4574 53.6776 20.9887 53.8203 20.6052 54.1058C20.2259 54.3913 19.9383 54.7898 19.7423 55.3011C19.5462 55.8125 19.4482 56.4091 19.4482 57.0909ZM31.5604 62.1982C30.6399 62.1982 29.8367 61.9872 29.1506 61.5653C28.4645 61.1435 27.9318 60.5533 27.5526 59.7947C27.1733 59.0362 26.9837 58.1499 26.9837 57.1357C26.9837 56.1172 27.1733 55.2266 27.5526 54.4638C27.9318 53.701 28.4645 53.1087 29.1506 52.6868C29.8367 52.2649 30.6399 52.054 31.5604 52.054C32.4808 52.054 33.2841 52.2649 33.9702 52.6868C34.6563 53.1087 35.1889 53.701 35.5682 54.4638C35.9474 55.2266 36.1371 56.1172 36.1371 57.1357C36.1371 58.1499 35.9474 59.0362 35.5682 59.7947C35.1889 60.5533 34.6563 61.1435 33.9702 61.5653C33.2841 61.9872 32.4808 62.1982 31.5604 62.1982ZM31.5668 60.5938C32.1634 60.5938 32.6577 60.4361 33.0497 60.1207C33.4418 59.8054 33.7315 59.3857 33.919 58.8615C34.1108 58.3374 34.2067 57.7599 34.2067 57.1293C34.2067 56.5028 34.1108 55.9276 33.919 55.4034C33.7315 54.875 33.4418 54.451 33.0497 54.1314C32.6577 53.8118 32.1634 53.652 31.5668 53.652C30.9659 53.652 30.4673 53.8118 30.071 54.1314C29.679 54.451 29.3871 54.875 29.1953 55.4034C29.0078 55.9276 28.9141 56.5028 28.9141 57.1293C28.9141 57.7599 29.0078 58.3374 29.1953 58.8615C29.3871 59.3857 29.679 59.8054 30.071 60.1207C30.4673 60.4361 30.9659 60.5938 31.5668 60.5938ZM36.0516 64.8317V60.3445H36.8506C37.0552 60.157 37.2278 59.9332 37.3684 59.6733C37.5133 59.4134 37.6347 59.1044 37.7327 58.7464C37.835 58.3885 37.9202 57.9709 37.9884 57.4936C38.0566 57.0121 38.1162 56.4624 38.1674 55.8445L38.4742 52.1818H45.1475V60.3445H46.656V64.8317H44.7895V62H37.9437V64.8317H36.0516ZM38.8961 60.3445H43.281V53.8182H40.1873L39.9827 55.8445C39.8847 56.8757 39.7611 57.7706 39.612 58.5291C39.4628 59.2834 39.2242 59.8885 38.8961 60.3445ZM56.5526 54.6236V56.2855H50.7486V54.6236H56.5526ZM69.2632 62L64.8655 56.1321H63.472V62H61.4969V48.9091H63.472V54.4382H64.1176L69.0651 48.9091H71.4749L66.2398 54.7706L71.673 62H69.2632ZM72.0893 65.6818V52.1818H73.9558V53.7734H74.1156C74.2264 53.5689 74.3862 53.3324 74.595 53.0639C74.8038 52.7955 75.0936 52.5611 75.4643 52.3608C75.8351 52.1562 76.3251 52.054 76.9345 52.054C77.7271 52.054 78.4345 52.2543 79.0567 52.6548C79.6788 53.0554 80.1668 53.6328 80.5204 54.3871C80.8784 55.1413 81.0574 56.049 81.0574 57.1101C81.0574 58.1712 80.8805 59.081 80.5268 59.8395C80.1731 60.5937 79.6873 61.1754 79.0694 61.5845C78.4516 61.9893 77.7463 62.1918 76.9537 62.1918C76.3571 62.1918 75.8692 62.0916 75.4899 61.8913C75.1149 61.6911 74.8209 61.4567 74.6078 61.1882C74.3947 60.9197 74.2307 60.6811 74.1156 60.4723H74.0006V65.6818H72.0893ZM73.9622 57.0909C73.9622 57.7812 74.0623 58.3864 74.2626 58.9062C74.4629 59.4261 74.7527 59.8331 75.1319 60.1271C75.5112 60.4169 75.9757 60.5618 76.5254 60.5618C77.0964 60.5618 77.5737 60.4105 77.9572 60.108C78.3408 59.8011 78.6305 59.3857 78.8266 58.8615C79.0268 58.3374 79.127 57.7472 79.127 57.0909C79.127 56.4432 79.029 55.8615 78.8329 55.3459C78.6412 54.8303 78.3514 54.4233 77.9636 54.125C77.5801 53.8267 77.1007 53.6776 76.5254 53.6776C75.9714 53.6776 75.5027 53.8203 75.1192 54.1058C74.7399 54.3913 74.4523 54.7898 74.2562 55.3011C74.0602 55.8125 73.9622 56.4091 73.9622 57.0909ZM84.796 62.2173C84.1738 62.2173 83.6113 62.1023 83.1085 61.8722C82.6056 61.6378 82.2072 61.299 81.9131 60.8558C81.6234 60.4126 81.4785 59.8693 81.4785 59.2259C81.4785 58.6719 81.585 58.2159 81.7981 57.858C82.0112 57.5 82.2988 57.2166 82.661 57.0078C83.0232 56.799 83.4281 56.6413 83.8755 56.5348C84.3229 56.4283 84.7789 56.3473 85.2434 56.2919C85.8315 56.2237 86.3087 56.1683 86.6752 56.1257C87.0417 56.0788 87.308 56.0043 87.4742 55.902C87.6404 55.7997 87.7235 55.6335 87.7235 55.4034V55.3587C87.7235 54.8004 87.5658 54.3679 87.2505 54.0611C86.9394 53.7543 86.4749 53.6009 85.857 53.6009C85.2136 53.6009 84.7065 53.7436 84.3357 54.0291C83.9692 54.3104 83.7157 54.6236 83.5751 54.9688L81.7789 54.5597C81.992 53.9631 82.3031 53.4815 82.7121 53.1151C83.1255 52.7443 83.6006 52.4759 84.1376 52.3097C84.6745 52.1392 85.2391 52.054 85.8315 52.054C86.2235 52.054 86.639 52.1009 87.0779 52.1946C87.5211 52.2841 87.9344 52.4503 88.318 52.6932C88.7058 52.9361 89.0232 53.2834 89.2704 53.7351C89.5175 54.1825 89.6411 54.7642 89.6411 55.4801V62H87.7746V60.6577H87.6979C87.5744 60.9048 87.389 61.1477 87.1418 61.3864C86.8947 61.625 86.5772 61.8232 86.1894 61.9808C85.8016 62.1385 85.3371 62.2173 84.796 62.2173ZM85.2114 60.6832C85.7398 60.6832 86.1916 60.5788 86.5666 60.37C86.9458 60.1612 87.2335 59.8885 87.4295 59.5518C87.6298 59.2109 87.7299 58.8466 87.7299 58.4588V57.1932C87.6617 57.2614 87.5296 57.3253 87.3336 57.3849C87.1418 57.4403 86.9224 57.4893 86.6752 57.532C86.4281 57.5703 86.1873 57.6065 85.9529 57.6406C85.7185 57.6705 85.5225 57.696 85.3648 57.7173C84.9941 57.7642 84.6553 57.843 84.3485 57.9538C84.046 58.0646 83.8031 58.2244 83.6198 58.4332C83.4408 58.6378 83.3514 58.9105 83.3514 59.2514C83.3514 59.7244 83.5261 60.0824 83.8755 60.3253C84.2249 60.5639 84.6702 60.6832 85.2114 60.6832ZM95.0624 62.1982C94.1121 62.1982 93.2939 61.983 92.6079 61.5526C91.926 61.1179 91.4019 60.5192 91.0354 59.7564C90.6689 58.9936 90.4857 58.12 90.4857 57.1357C90.4857 56.1385 90.6732 55.2585 91.0482 54.4957C91.4232 53.7287 91.9516 53.13 92.6334 52.6996C93.3152 52.2692 94.1185 52.054 95.0432 52.054C95.789 52.054 96.4537 52.1925 97.0375 52.4695C97.6214 52.7422 98.0922 53.1257 98.4502 53.62C98.8124 54.1143 99.0276 54.6918 99.0958 55.3523H97.2357C97.1334 54.892 96.8991 54.4957 96.5326 54.1634C96.1704 53.831 95.6846 53.6648 95.0752 53.6648C94.5425 53.6648 94.0759 53.8054 93.6753 54.0866C93.279 54.3636 92.9701 54.7599 92.7485 55.2756C92.5269 55.7869 92.4161 56.392 92.4161 57.0909C92.4161 57.8068 92.5248 58.4247 92.7421 58.9446C92.9594 59.4645 93.2662 59.8672 93.6625 60.1527C94.0631 60.4382 94.534 60.581 95.0752 60.581C95.4374 60.581 95.7655 60.5149 96.0596 60.3828C96.3579 60.2464 96.6072 60.0526 96.8074 59.8011C97.012 59.5497 97.1547 59.2472 97.2357 58.8935H99.0958C99.0276 59.5284 98.8209 60.0952 98.4758 60.5938C98.1306 61.0923 97.6682 61.4844 97.0887 61.7699C96.5134 62.0554 95.838 62.1982 95.0624 62.1982ZM106.534 56.2663V57.9219H101.216V56.2663H106.534ZM101.753 52.1818V62H99.8796V52.1818H101.753ZM107.87 52.1818V62H106.003V52.1818H107.87ZM113.302 62.1982C112.382 62.1982 111.578 61.9872 110.892 61.5653C110.206 61.1435 109.674 60.5533 109.294 59.7947C108.915 59.0362 108.725 58.1499 108.725 57.1357C108.725 56.1172 108.915 55.2266 109.294 54.4638C109.674 53.701 110.206 53.1087 110.892 52.6868C111.578 52.2649 112.382 52.054 113.302 52.054C114.223 52.054 115.026 52.2649 115.712 52.6868C116.398 53.1087 116.931 53.701 117.31 54.4638C117.689 55.2266 117.879 56.1172 117.879 57.1357C117.879 58.1499 117.689 59.0362 117.31 59.7947C116.931 60.5533 116.398 61.1435 115.712 61.5653C115.026 61.9872 114.223 62.1982 113.302 62.1982ZM113.309 60.5938C113.905 60.5938 114.399 60.4361 114.792 60.1207C115.184 59.8054 115.473 59.3857 115.661 58.8615C115.853 58.3374 115.948 57.7599 115.948 57.1293C115.948 56.5028 115.853 55.9276 115.661 55.4034C115.473 54.875 115.184 54.451 114.792 54.1314C114.399 53.8118 113.905 53.652 113.309 53.652C112.708 53.652 112.209 53.8118 111.813 54.1314C111.421 54.451 111.129 54.875 110.937 55.4034C110.75 55.9276 110.656 56.5028 110.656 57.1293C110.656 57.7599 110.75 58.3374 110.937 58.8615C111.129 59.3857 111.421 59.8054 111.813 60.1207C112.209 60.4361 112.708 60.5938 113.309 60.5938ZM117.793 64.8317V60.3445H118.592C118.797 60.157 118.97 59.9332 119.11 59.6733C119.255 59.4134 119.377 59.1044 119.475 58.7464C119.577 58.3885 119.662 57.9709 119.73 57.4936C119.798 57.0121 119.858 56.4624 119.909 55.8445L120.216 52.1818H126.889V60.3445H128.398V64.8317H126.531V62H119.685V64.8317H117.793ZM120.638 60.3445H125.023V53.8182H121.929L121.725 55.8445C121.627 56.8757 121.503 57.7706 121.354 58.5291C121.205 59.2834 120.966 59.8885 120.638 60.3445ZM131.863 62.2173C131.241 62.2173 130.678 62.1023 130.176 61.8722C129.673 61.6378 129.274 61.299 128.98 60.8558C128.691 60.4126 128.546 59.8693 128.546 59.2259C128.546 58.6719 128.652 58.2159 128.865 57.858C129.078 57.5 129.366 57.2166 129.728 57.0078C130.09 56.799 130.495 56.6413 130.943 56.5348C131.39 56.4283 131.846 56.3473 132.311 56.2919C132.899 56.2237 133.376 56.1683 133.742 56.1257C134.109 56.0788 134.375 56.0043 134.541 55.902C134.708 55.7997 134.791 55.6335 134.791 55.4034V55.3587C134.791 54.8004 134.633 54.3679 134.318 54.0611C134.007 53.7543 133.542 53.6009 132.924 53.6009C132.281 53.6009 131.774 53.7436 131.403 54.0291C131.036 54.3104 130.783 54.6236 130.642 54.9688L128.846 54.5597C129.059 53.9631 129.37 53.4815 129.779 53.1151C130.193 52.7443 130.668 52.4759 131.205 52.3097C131.742 52.1392 132.306 52.054 132.899 52.054C133.291 52.054 133.706 52.1009 134.145 52.1946C134.588 52.2841 135.002 52.4503 135.385 52.6932C135.773 52.9361 136.09 53.2834 136.338 53.7351C136.585 54.1825 136.708 54.7642 136.708 55.4801V62H134.842V60.6577H134.765C134.642 60.9048 134.456 61.1477 134.209 61.3864C133.962 61.625 133.644 61.8232 133.257 61.9808C132.869 62.1385 132.404 62.2173 131.863 62.2173ZM132.279 60.6832C132.807 60.6832 133.259 60.5788 133.634 60.37C134.013 60.1612 134.301 59.8885 134.497 59.5518C134.697 59.2109 134.797 58.8466 134.797 58.4588V57.1932C134.729 57.2614 134.597 57.3253 134.401 57.3849C134.209 57.4403 133.99 57.4893 133.742 57.532C133.495 57.5703 133.254 57.6065 133.02 57.6406C132.786 57.6705 132.59 57.696 132.432 57.7173C132.061 57.7642 131.723 57.843 131.416 57.9538C131.113 58.0646 130.87 58.2244 130.687 58.4332C130.508 58.6378 130.419 58.9105 130.419 59.2514C130.419 59.7244 130.593 60.0824 130.943 60.3253C131.292 60.5639 131.737 60.6832 132.279 60.6832ZM137.994 65.6818V52.1818H139.86V53.7734H140.02C140.131 53.5689 140.291 53.3324 140.5 53.0639C140.708 52.7955 140.998 52.5611 141.369 52.3608C141.74 52.1562 142.23 52.054 142.839 52.054C143.632 52.054 144.339 52.2543 144.961 52.6548C145.583 53.0554 146.071 53.6328 146.425 54.3871C146.783 55.1413 146.962 56.049 146.962 57.1101C146.962 58.1712 146.785 59.081 146.431 59.8395C146.078 60.5937 145.592 61.1754 144.974 61.5845C144.356 61.9893 143.651 62.1918 142.858 62.1918C142.262 62.1918 141.774 62.0916 141.395 61.8913C141.02 61.6911 140.725 61.4567 140.512 61.1882C140.299 60.9197 140.135 60.6811 140.02 60.4723H139.905V65.6818H137.994ZM139.867 57.0909C139.867 57.7812 139.967 58.3864 140.167 58.9062C140.368 59.4261 140.657 59.8331 141.037 60.1271C141.416 60.4169 141.88 60.5618 142.43 60.5618C143.001 60.5618 143.478 60.4105 143.862 60.108C144.245 59.8011 144.535 59.3857 144.731 58.8615C144.931 58.3374 145.032 57.7472 145.032 57.0909C145.032 56.4432 144.934 55.8615 144.738 55.3459C144.546 54.8303 144.256 54.4233 143.868 54.125C143.485 53.8267 143.005 53.6776 142.43 53.6776C141.876 53.6776 141.407 53.8203 141.024 54.1058C140.645 54.3913 140.357 54.7898 140.161 55.3011C139.965 55.8125 139.867 56.4091 139.867 57.0909ZM150.33 60.2102L150.234 60.907C150.17 61.4183 150.061 61.951 149.908 62.505C149.759 63.0632 149.603 63.581 149.441 64.0582C149.284 64.5355 149.154 64.9148 149.051 65.196H147.696C147.752 64.9318 147.828 64.5739 147.926 64.1222C148.024 63.6747 148.12 63.174 148.214 62.62C148.308 62.0661 148.378 61.5014 148.425 60.9261L148.489 60.2102H150.33ZM155.215 62V48.9091H159.881C160.9 48.9091 161.743 49.0945 162.412 49.4652C163.081 49.8359 163.582 50.343 163.915 50.9865C164.247 51.6257 164.413 52.3459 164.413 53.147C164.413 53.9524 164.245 54.6768 163.908 55.3203C163.576 55.9595 163.073 56.4666 162.4 56.8416C161.731 57.2124 160.889 57.3977 159.875 57.3977H156.666V55.723H159.696C160.339 55.723 160.861 55.6122 161.262 55.3906C161.662 55.1648 161.956 54.858 162.144 54.4702C162.331 54.0824 162.425 53.6413 162.425 53.147C162.425 52.6527 162.331 52.2138 162.144 51.8303C161.956 51.4467 161.66 51.1463 161.255 50.929C160.855 50.7116 160.327 50.603 159.67 50.603H157.19V62H155.215ZM169.328 62.1982C168.407 62.1982 167.604 61.9872 166.918 61.5653C166.232 61.1435 165.699 60.5533 165.32 59.7947C164.941 59.0362 164.751 58.1499 164.751 57.1357C164.751 56.1172 164.941 55.2266 165.32 54.4638C165.699 53.701 166.232 53.1087 166.918 52.6868C167.604 52.2649 168.407 52.054 169.328 52.054C170.248 52.054 171.052 52.2649 171.738 52.6868C172.424 53.1087 172.956 53.701 173.336 54.4638C173.715 55.2266 173.905 56.1172 173.905 57.1357C173.905 58.1499 173.715 59.0362 173.336 59.7947C172.956 60.5533 172.424 61.1435 171.738 61.5653C171.052 61.9872 170.248 62.1982 169.328 62.1982ZM169.334 60.5938C169.931 60.5938 170.425 60.4361 170.817 60.1207C171.209 59.8054 171.499 59.3857 171.687 58.8615C171.878 58.3374 171.974 57.7599 171.974 57.1293C171.974 56.5028 171.878 55.9276 171.687 55.4034C171.499 54.875 171.209 54.451 170.817 54.1314C170.425 53.8118 169.931 53.652 169.334 53.652C168.733 53.652 168.235 53.8118 167.839 54.1314C167.446 54.451 167.155 54.875 166.963 55.4034C166.775 55.9276 166.682 56.5028 166.682 57.1293C166.682 57.7599 166.775 58.3374 166.963 58.8615C167.155 59.3857 167.446 59.8054 167.839 60.1207C168.235 60.4361 168.733 60.5938 169.334 60.5938ZM178.914 62.1982C177.963 62.1982 177.145 61.983 176.459 61.5526C175.777 61.1179 175.253 60.5192 174.887 59.7564C174.52 58.9936 174.337 58.12 174.337 57.1357C174.337 56.1385 174.524 55.2585 174.899 54.4957C175.274 53.7287 175.803 53.13 176.485 52.6996C177.166 52.2692 177.97 52.054 178.894 52.054C179.64 52.054 180.305 52.1925 180.889 52.4695C181.473 52.7422 181.943 53.1257 182.301 53.62C182.664 54.1143 182.879 54.6918 182.947 55.3523H181.087C180.985 54.892 180.75 54.4957 180.384 54.1634C180.022 53.831 179.536 53.6648 178.926 53.6648C178.394 53.6648 177.927 53.8054 177.526 54.0866C177.13 54.3636 176.821 54.7599 176.6 55.2756C176.378 55.7869 176.267 56.392 176.267 57.0909C176.267 57.8068 176.376 58.4247 176.593 58.9446C176.811 59.4645 177.117 59.8672 177.514 60.1527C177.914 60.4382 178.385 60.581 178.926 60.581C179.289 60.581 179.617 60.5149 179.911 60.3828C180.209 60.2464 180.458 60.0526 180.659 59.8011C180.863 59.5497 181.006 59.2472 181.087 58.8935H182.947C182.879 59.5284 182.672 60.0952 182.327 60.5938C181.982 61.0923 181.519 61.4844 180.94 61.7699C180.365 62.0554 179.689 62.1982 178.914 62.1982ZM187.866 62.1982C186.916 62.1982 186.098 61.983 185.412 61.5526C184.73 61.1179 184.206 60.5192 183.839 59.7564C183.473 58.9936 183.29 58.12 183.29 57.1357C183.29 56.1385 183.477 55.2585 183.852 54.4957C184.227 53.7287 184.756 53.13 185.437 52.6996C186.119 52.2692 186.923 52.054 187.847 52.054C188.593 52.054 189.258 52.1925 189.842 52.4695C190.425 52.7422 190.896 53.1257 191.254 53.62C191.616 54.1143 191.832 54.6918 191.9 55.3523H190.04C189.937 54.892 189.703 54.4957 189.337 54.1634C188.974 53.831 188.489 53.6648 187.879 53.6648C187.347 53.6648 186.88 53.8054 186.479 54.0866C186.083 54.3636 185.774 54.7599 185.553 55.2756C185.331 55.7869 185.22 56.392 185.22 57.0909C185.22 57.8068 185.329 58.4247 185.546 58.9446C185.763 59.4645 186.07 59.8672 186.467 60.1527C186.867 60.4382 187.338 60.581 187.879 60.581C188.241 60.581 188.57 60.5149 188.864 60.3828C189.162 60.2464 189.411 60.0526 189.611 59.8011C189.816 59.5497 189.959 59.2472 190.04 58.8935H191.9C191.832 59.5284 191.625 60.0952 191.28 60.5938C190.935 61.0923 190.472 61.4844 189.893 61.7699C189.317 62.0554 188.642 62.1982 187.866 62.1982ZM194.557 59.3217L198.884 52.1818H200.942V62H199.069V54.8537L194.761 62H192.684V52.1818H194.557V59.3217ZM208.107 62V53.8118H205.755C205.196 53.8118 204.762 53.9418 204.451 54.2017C204.14 54.4616 203.984 54.8026 203.984 55.2244C203.984 55.642 204.127 55.9787 204.412 56.2344C204.702 56.4858 205.107 56.6115 205.627 56.6115H208.663V58.1584H205.627C204.902 58.1584 204.276 58.0391 203.748 57.8004C203.223 57.5575 202.819 57.2145 202.533 56.7713C202.252 56.3281 202.111 55.804 202.111 55.1989C202.111 54.581 202.256 54.0483 202.546 53.6009C202.84 53.1491 203.26 52.7997 203.805 52.5526C204.355 52.3054 205.005 52.1818 205.755 52.1818H209.903V62H208.107ZM201.664 62L204.432 57.0398H206.387L203.62 62H201.664Z" fill="white"/>
<path d="M262.058 7.83636V17H260.411V9.21449H256.402V17H254.756V7.83636H262.058ZM266.088 17.1342C265.417 17.1342 264.835 16.9866 264.343 16.6913C263.851 16.396 263.469 15.9828 263.197 15.4518C262.929 14.9209 262.795 14.3004 262.795 13.5905C262.795 12.8805 262.929 12.2586 263.197 11.7246C263.469 11.1907 263.851 10.7761 264.343 10.4808C264.835 10.1854 265.417 10.0378 266.088 10.0378C266.759 10.0378 267.341 10.1854 267.833 10.4808C268.325 10.7761 268.705 11.1907 268.974 11.7246C269.245 12.2586 269.381 12.8805 269.381 13.5905C269.381 14.3004 269.245 14.9209 268.974 15.4518C268.705 15.9828 268.325 16.396 267.833 16.6913C267.341 16.9866 266.759 17.1342 266.088 17.1342ZM266.097 15.8366C266.461 15.8366 266.765 15.7367 267.009 15.5369C267.254 15.334 267.436 15.0626 267.555 14.7225C267.678 14.3825 267.739 14.0036 267.739 13.586C267.739 13.1654 267.678 12.7851 267.555 12.445C267.436 12.102 267.254 11.829 267.009 11.6262C266.765 11.4234 266.461 11.3219 266.097 11.3219C265.724 11.3219 265.414 11.4234 265.166 11.6262C264.921 11.829 264.738 12.102 264.616 12.445C264.496 12.7851 264.437 13.1654 264.437 13.586C264.437 14.0036 264.496 14.3825 264.616 14.7225C264.738 15.0626 264.921 15.334 265.166 15.5369C265.414 15.7367 265.724 15.8366 266.097 15.8366ZM269.265 18.9956V15.6666H269.811C269.957 15.5533 270.079 15.3996 270.178 15.2058C270.276 15.0089 270.357 14.7777 270.42 14.5122C270.485 14.2437 270.539 13.944 270.581 13.6129C270.622 13.2788 270.66 12.9193 270.692 12.5345L270.889 10.1273H275.856V15.6666H276.921V18.9956H275.355V17H270.858V18.9956H269.265ZM271.476 15.6666H274.308V11.4338H272.294L272.187 12.5345C272.127 13.2624 272.048 13.8858 271.95 14.4048C271.851 14.9239 271.693 15.3445 271.476 15.6666ZM276.64 18.9956V15.6666H277.185C277.332 15.5533 277.454 15.3996 277.552 15.2058C277.651 15.0089 277.731 14.7777 277.794 14.5122C277.86 14.2437 277.913 13.944 277.955 13.6129C277.997 13.2788 278.034 12.9193 278.067 12.5345L278.264 10.1273H283.23V15.6666H284.295V18.9956H282.729V17H278.232V18.9956H276.64ZM278.85 15.6666H281.682V11.4338H279.669L279.561 12.5345C279.502 13.2624 279.423 13.8858 279.324 14.4048C279.226 14.9239 279.068 15.3445 278.85 15.6666ZM287.665 17.1342C286.976 17.1342 286.381 16.9911 285.88 16.7047C285.382 16.4153 284.998 16.0067 284.73 15.4787C284.461 14.9477 284.327 14.3228 284.327 13.6039C284.327 12.8969 284.461 12.2765 284.73 11.7425C285.001 11.2056 285.38 10.788 285.866 10.4897C286.353 10.1884 286.924 10.0378 287.58 10.0378C288.004 10.0378 288.403 10.1064 288.779 10.2436C289.158 10.3778 289.492 10.5866 289.782 10.87C290.074 11.1534 290.304 11.5143 290.471 11.9528C290.638 12.3884 290.721 12.9074 290.721 13.5099V14.0066H285.088V12.9148H289.169C289.166 12.6046 289.098 12.3287 288.967 12.0871C288.836 11.8425 288.653 11.6501 288.417 11.5099C288.184 11.3697 287.913 11.2996 287.603 11.2996C287.271 11.2996 286.981 11.3801 286.73 11.5412C286.479 11.6993 286.284 11.9081 286.144 12.1676C286.007 12.4241 285.937 12.706 285.934 13.0133V13.9663C285.934 14.3661 286.007 14.7091 286.153 14.9955C286.299 15.2788 286.503 15.4966 286.766 15.6487C287.028 15.7979 287.336 15.8724 287.688 15.8724C287.923 15.8724 288.136 15.8396 288.327 15.774C288.518 15.7054 288.684 15.6055 288.824 15.4742C288.964 15.343 289.07 15.1804 289.142 14.9865L290.654 15.1565C290.559 15.5562 290.377 15.9053 290.108 16.2036C289.843 16.4989 289.503 16.7286 289.088 16.8926C288.673 17.0537 288.199 17.1342 287.665 17.1342ZM291.21 19.5773V10.1273H292.802V11.2638H292.896C292.98 11.0967 293.098 10.9192 293.25 10.7313C293.402 10.5404 293.608 10.3778 293.867 10.2436C294.127 10.1064 294.458 10.0378 294.861 10.0378C295.392 10.0378 295.87 10.1735 296.297 10.445C296.726 10.7134 297.067 11.1116 297.317 11.6396C297.571 12.1646 297.697 12.8089 297.697 13.5726C297.697 14.3273 297.574 14.9686 297.326 15.4966C297.078 16.0246 296.741 16.4273 296.315 16.7047C295.888 16.9821 295.405 17.1208 294.865 17.1208C294.471 17.1208 294.145 17.0552 293.885 16.9239C293.626 16.7927 293.417 16.6346 293.259 16.4496C293.104 16.2617 292.983 16.0842 292.896 15.9172H292.829V19.5773H291.21ZM292.798 13.5636C292.798 14.0081 292.861 14.3974 292.986 14.7315C293.114 15.0656 293.298 15.3266 293.536 15.5145C293.778 15.6994 294.07 15.7919 294.413 15.7919C294.771 15.7919 295.071 15.6964 295.313 15.5055C295.554 15.3116 295.736 15.0477 295.858 14.7136C295.984 14.3765 296.046 13.9932 296.046 13.5636C296.046 13.1371 295.985 12.7582 295.863 12.4271C295.741 12.096 295.559 11.8365 295.317 11.6486C295.075 11.4607 294.774 11.3667 294.413 11.3667C294.067 11.3667 293.773 11.4577 293.532 11.6396C293.29 11.8216 293.107 12.0766 292.981 12.4048C292.859 12.7329 292.798 13.1192 292.798 13.5636ZM297.497 17L300.034 13.4518L297.519 10.1273H299.389L301.345 12.8969H301.729V10.1273H303.349V12.8969H303.725L305.68 10.1273H307.551L305.05 13.4518L307.573 17H305.663L303.707 14.2259H303.349V17H301.729V14.2259H301.372L299.407 17H297.497ZM309.856 17.1387C309.42 17.1387 309.028 17.0612 308.679 16.906C308.333 16.7479 308.058 16.5153 307.856 16.208C307.656 15.9008 307.556 15.5219 307.556 15.0715C307.556 14.6837 307.627 14.3631 307.771 14.1095C307.914 13.856 308.109 13.6531 308.357 13.501C308.604 13.3489 308.883 13.234 309.193 13.1565C309.507 13.0759 309.83 13.0178 310.164 12.982C310.567 12.9402 310.894 12.9029 311.144 12.8701C311.395 12.8343 311.577 12.7806 311.69 12.709C311.806 12.6344 311.865 12.5196 311.865 12.3645V12.3376C311.865 12.0006 311.765 11.7396 311.565 11.5546C311.365 11.3697 311.077 11.2772 310.701 11.2772C310.305 11.2772 309.99 11.3637 309.757 11.5367C309.528 11.7097 309.372 11.9141 309.292 12.1497L307.779 11.9349C307.899 11.5173 308.096 11.1683 308.37 10.8879C308.645 10.6045 308.98 10.3928 309.377 10.2526C309.774 10.1094 310.212 10.0378 310.692 10.0378C311.023 10.0378 311.353 10.0766 311.681 10.1541C312.009 10.2317 312.309 10.3599 312.581 10.5389C312.852 10.7149 313.07 10.955 313.234 11.2593C313.401 11.5636 313.484 11.9439 313.484 12.4003V17H311.927V16.0559H311.874C311.775 16.2468 311.636 16.4258 311.457 16.5928C311.281 16.7569 311.059 16.8896 310.791 16.9911C310.525 17.0895 310.214 17.1387 309.856 17.1387ZM310.276 15.9485C310.601 15.9485 310.883 15.8844 311.122 15.7561C311.361 15.6249 311.544 15.4518 311.672 15.2371C311.803 15.0223 311.869 14.7881 311.869 14.5346V13.7247C311.818 13.7665 311.732 13.8053 311.61 13.8411C311.49 13.8768 311.356 13.9082 311.207 13.935C311.058 13.9619 310.91 13.9857 310.764 14.0066C310.618 14.0275 310.491 14.0454 310.384 14.0603C310.142 14.0931 309.926 14.1468 309.735 14.2214C309.544 14.296 309.393 14.4004 309.283 14.5346C309.173 14.6658 309.117 14.8359 309.117 15.0447C309.117 15.343 309.226 15.5682 309.444 15.7203C309.662 15.8724 309.939 15.9485 310.276 15.9485ZM313.461 11.4562V10.1273H319.475V11.4562H317.251V17H315.685V11.4562H313.461ZM320.979 12.3645H323.006C323.883 12.3645 324.562 12.5778 325.042 13.0043C325.522 13.4309 325.764 13.9902 325.767 14.6822C325.764 15.1327 325.653 15.5324 325.436 15.8814C325.221 16.2304 324.908 16.5048 324.496 16.7047C324.087 16.9016 323.591 17 323.006 17H319.883V10.1273H321.444V15.6711H323.006C323.358 15.6711 323.647 15.5816 323.874 15.4026C324.101 15.2207 324.214 14.988 324.214 14.7046C324.214 14.4063 324.101 14.1632 323.874 13.9753C323.647 13.7874 323.358 13.6934 323.006 13.6934H320.979V12.3645Z" fill="white"/>
<rect x="239" width="102" height="25" rx="6" fill="white" fill-opacity="0.2"/>
</svg>
