<svg width="522" height="25" viewBox="0 0 522 25" fill="none" xmlns="http://www.w3.org/2000/svg">
<path d="M2.54403 19H0.447443L5.15838 5.90909H7.44034L12.1513 19H10.0547L6.35369 8.28693H6.25142L2.54403 19ZM2.8956 13.8736H9.69673V15.5355H2.8956V13.8736ZM12.6283 19V9.18182H16.7C17.808 9.18182 18.6858 9.41832 19.3336 9.89134C19.9813 10.3601 20.3052 10.9972 20.3052 11.8026C20.3052 12.3778 20.1219 12.8338 19.7554 13.1705C19.389 13.5071 18.9032 13.733 18.2981 13.848C18.737 13.8991 19.1397 14.0312 19.5062 14.2443C19.8726 14.4531 20.1667 14.7344 20.3883 15.0881C20.6141 15.4418 20.727 15.8636 20.727 16.3537C20.727 16.8736 20.5928 17.3338 20.3243 17.7344C20.0559 18.1307 19.666 18.4418 19.1546 18.6676C18.6475 18.8892 18.036 19 17.3201 19H12.6283ZM14.4245 17.402H17.3201C17.7931 17.402 18.1638 17.2891 18.4323 17.0632C18.7008 16.8374 18.835 16.5305 18.835 16.1428C18.835 15.6868 18.7008 15.3288 18.4323 15.0689C18.1638 14.8047 17.7931 14.6726 17.3201 14.6726H14.4245V17.402ZM14.4245 13.2727H16.7192C17.0772 13.2727 17.384 13.2216 17.6397 13.1193C17.8996 13.017 18.0978 12.8722 18.2341 12.6847C18.3748 12.4929 18.4451 12.267 18.4451 12.0071C18.4451 11.6278 18.2895 11.3317 17.9785 11.1186C17.6674 10.9055 17.2412 10.799 16.7 10.799H14.4245V13.2727ZM21.0139 10.831V9.18182H29.298V10.831H26.0956V19H24.2291V10.831H21.0139ZM33.7381 19.1982C32.8177 19.1982 32.0144 18.9872 31.3283 18.5653C30.6422 18.1435 30.1096 17.5533 29.7303 16.7947C29.351 16.0362 29.1614 15.1499 29.1614 14.1357C29.1614 13.1172 29.351 12.2266 29.7303 11.4638C30.1096 10.701 30.6422 10.1087 31.3283 9.68679C32.0144 9.26491 32.8177 9.05398 33.7381 9.05398C34.6586 9.05398 35.4618 9.26491 36.1479 9.68679C36.834 10.1087 37.3667 10.701 37.7459 11.4638C38.1252 12.2266 38.3148 13.1172 38.3148 14.1357C38.3148 15.1499 38.1252 16.0362 37.7459 16.7947C37.3667 17.5533 36.834 18.1435 36.1479 18.5653C35.4618 18.9872 34.6586 19.1982 33.7381 19.1982ZM33.7445 17.5938C34.3411 17.5938 34.8354 17.4361 35.2275 17.1207C35.6195 16.8054 35.9093 16.3857 36.0968 15.8615C36.2885 15.3374 36.3844 14.7599 36.3844 14.1293C36.3844 13.5028 36.2885 12.9276 36.0968 12.4034C35.9093 11.875 35.6195 11.451 35.2275 11.1314C34.8354 10.8118 34.3411 10.652 33.7445 10.652C33.1437 10.652 32.6451 10.8118 32.2488 11.1314C31.8567 11.451 31.5648 11.875 31.3731 12.4034C31.1856 12.9276 31.0918 13.5028 31.0918 14.1293C31.0918 14.7599 31.1856 15.3374 31.3731 15.8615C31.5648 16.3857 31.8567 16.8054 32.2488 17.1207C32.6451 17.4361 33.1437 17.5938 33.7445 17.5938ZM39.1882 22.6818V9.18182H41.0546V10.7734H41.2144C41.3252 10.5689 41.485 10.3324 41.6938 10.0639C41.9026 9.79545 42.1924 9.56108 42.5632 9.3608C42.9339 9.15625 43.424 9.05398 44.0333 9.05398C44.8259 9.05398 45.5333 9.25426 46.1555 9.65483C46.7776 10.0554 47.2656 10.6328 47.6193 11.3871C47.9772 12.1413 48.1562 13.049 48.1562 14.1101C48.1562 15.1712 47.9794 16.081 47.6257 16.8395C47.272 17.5937 46.7862 18.1754 46.1683 18.5845C45.5504 18.9893 44.8451 19.1918 44.0525 19.1918C43.4559 19.1918 42.968 19.0916 42.5887 18.8913C42.2137 18.6911 41.9197 18.4567 41.7066 18.1882C41.4936 17.9197 41.3295 17.6811 41.2144 17.4723H41.0994V22.6818H39.1882ZM41.061 14.0909C41.061 14.7812 41.1612 15.3864 41.3615 15.9062C41.5617 16.4261 41.8515 16.8331 42.2308 17.1271C42.61 17.4169 43.0745 17.5618 43.6242 17.5618C44.1953 17.5618 44.6725 17.4105 45.0561 17.108C45.4396 16.8011 45.7294 16.3857 45.9254 15.8615C46.1257 15.3374 46.2258 14.7472 46.2258 14.0909C46.2258 13.4432 46.1278 12.8615 45.9318 12.3459C45.74 11.8303 45.4502 11.4233 45.0624 11.125C44.6789 10.8267 44.1995 10.6776 43.6242 10.6776C43.0703 10.6776 42.6015 10.8203 42.218 11.1058C41.8387 11.3913 41.5511 11.7898 41.3551 12.3011C41.159 12.8125 41.061 13.4091 41.061 14.0909ZM50.4757 12.5568H53.3266C54.5283 12.5568 55.453 12.8551 56.1007 13.4517C56.7485 14.0483 57.0723 14.8175 57.0723 15.7592C57.0723 16.3729 56.9275 16.9247 56.6377 17.4148C56.3479 17.9048 55.9239 18.2926 55.3657 18.5781C54.8074 18.8594 54.1277 19 53.3266 19H49.0375V9.18182H50.9104V17.3509H53.3266C53.8763 17.3509 54.328 17.2081 54.6817 16.9226C55.0354 16.6328 55.2123 16.2642 55.2123 15.8168C55.2123 15.3437 55.0354 14.9581 54.6817 14.6598C54.328 14.3572 53.8763 14.206 53.3266 14.206H50.4757V12.5568ZM58.4658 19V9.18182H60.377V19H58.4658ZM69.3212 19.1982C68.3709 19.1982 67.5527 18.983 66.8666 18.5526C66.1848 18.1179 65.6606 17.5192 65.2942 16.7564C64.9277 15.9936 64.7445 15.12 64.7445 14.1357C64.7445 13.1385 64.932 12.2585 65.307 11.4957C65.682 10.7287 66.2104 10.13 66.8922 9.69957C67.574 9.26918 68.3773 9.05398 69.302 9.05398C70.0477 9.05398 70.7125 9.19247 71.2963 9.46946C71.8801 9.74219 72.351 10.1257 72.7089 10.62C73.0712 11.1143 73.2864 11.6918 73.3545 12.3523H71.4945C71.3922 11.892 71.1578 11.4957 70.7913 11.1634C70.4291 10.831 69.9433 10.6648 69.3339 10.6648C68.8013 10.6648 68.3347 10.8054 67.9341 11.0866C67.5378 11.3636 67.2288 11.7599 67.0072 12.2756C66.7856 12.7869 66.6749 13.392 66.6749 14.0909C66.6749 14.8068 66.7835 15.4247 67.0008 15.9446C67.2182 16.4645 67.525 16.8672 67.9213 17.1527C68.3219 17.4382 68.7927 17.581 69.3339 17.581C69.6962 17.581 70.0243 17.5149 70.3183 17.3828C70.6166 17.2464 70.8659 17.0526 71.0662 16.8011C71.2707 16.5497 71.4135 16.2472 71.4945 15.8935H73.3545C73.2864 16.5284 73.0797 17.0952 72.7345 17.5938C72.3893 18.0923 71.927 18.4844 71.3474 18.7699C70.7722 19.0554 70.0967 19.1982 69.3212 19.1982ZM76.9956 19.2173C76.3735 19.2173 75.811 19.1023 75.3081 18.8722C74.8053 18.6378 74.4069 18.299 74.1128 17.8558C73.8231 17.4126 73.6782 16.8693 73.6782 16.2259C73.6782 15.6719 73.7847 15.2159 73.9978 14.858C74.2108 14.5 74.4985 14.2166 74.8607 14.0078C75.2229 13.799 75.6277 13.6413 76.0752 13.5348C76.5226 13.4283 76.9786 13.3473 77.4431 13.2919C78.0311 13.2237 78.5084 13.1683 78.8749 13.1257C79.2414 13.0788 79.5077 13.0043 79.6739 12.902C79.8401 12.7997 79.9232 12.6335 79.9232 12.4034V12.3587C79.9232 11.8004 79.7655 11.3679 79.4502 11.0611C79.1391 10.7543 78.6746 10.6009 78.0567 10.6009C77.4133 10.6009 76.9061 10.7436 76.5354 11.0291C76.1689 11.3104 75.9154 11.6236 75.7748 11.9688L73.9786 11.5597C74.1917 10.9631 74.5027 10.4815 74.9118 10.1151C75.3252 9.74432 75.8003 9.47585 76.3373 9.30966C76.8742 9.1392 77.4388 9.05398 78.0311 9.05398C78.4232 9.05398 78.8387 9.10085 79.2776 9.1946C79.7208 9.28409 80.1341 9.45028 80.5177 9.69318C80.9054 9.93608 81.2229 10.2834 81.4701 10.7351C81.7172 11.1825 81.8408 11.7642 81.8408 12.4801V19H79.9743V17.6577H79.8976C79.774 17.9048 79.5887 18.1477 79.3415 18.3864C79.0944 18.625 78.7769 18.8232 78.3891 18.9808C78.0013 19.1385 77.5368 19.2173 76.9956 19.2173ZM77.4111 17.6832C77.9395 17.6832 78.3912 17.5788 78.7662 17.37C79.1455 17.1612 79.4331 16.8885 79.6292 16.5518C79.8294 16.2109 79.9296 15.8466 79.9296 15.4588V14.1932C79.8614 14.2614 79.7293 14.3253 79.5333 14.3849C79.3415 14.4403 79.1221 14.4893 78.8749 14.532C78.6277 14.5703 78.387 14.6065 78.1526 14.6406C77.9182 14.6705 77.7222 14.696 77.5645 14.7173C77.1938 14.7642 76.855 14.843 76.5482 14.9538C76.2456 15.0646 76.0027 15.2244 75.8195 15.4332C75.6405 15.6378 75.551 15.9105 75.551 16.2514C75.551 16.7244 75.7258 17.0824 76.0752 17.3253C76.4246 17.5639 76.8699 17.6832 77.4111 17.6832ZM84.9993 16.3217L89.3267 9.18182H91.385V19H89.5121V11.8537L85.2039 19H83.1264V9.18182H84.9993V16.3217ZM88.5085 5.85795H90.081C90.081 6.57812 89.8253 7.16406 89.3139 7.61577C88.8068 8.06321 88.1208 8.28693 87.2557 8.28693C86.3949 8.28693 85.711 8.06321 85.2039 7.61577C84.6968 7.16406 84.4432 6.57812 84.4432 5.85795H86.0093C86.0093 6.17756 86.103 6.46094 86.2905 6.7081C86.478 6.95099 86.7997 7.07244 87.2557 7.07244C87.7032 7.07244 88.0228 6.95099 88.2145 6.7081C88.4105 6.4652 88.5085 6.18182 88.5085 5.85795ZM91.4769 10.831V9.18182H99.761V10.831H96.5586V19H94.6921V10.831H91.4769ZM102.923 19.2173C102.301 19.2173 101.738 19.1023 101.235 18.8722C100.732 18.6378 100.334 18.299 100.04 17.8558C99.7501 17.4126 99.6052 16.8693 99.6052 16.2259C99.6052 15.6719 99.7117 15.2159 99.9248 14.858C100.138 14.5 100.426 14.2166 100.788 14.0078C101.15 13.799 101.555 13.6413 102.002 13.5348C102.45 13.4283 102.906 13.3473 103.37 13.2919C103.958 13.2237 104.435 13.1683 104.802 13.1257C105.168 13.0788 105.435 13.0043 105.601 12.902C105.767 12.7997 105.85 12.6335 105.85 12.4034V12.3587C105.85 11.8004 105.693 11.3679 105.377 11.0611C105.066 10.7543 104.602 10.6009 103.984 10.6009C103.34 10.6009 102.833 10.7436 102.462 11.0291C102.096 11.3104 101.842 11.6236 101.702 11.9688L99.9056 11.5597C100.119 10.9631 100.43 10.4815 100.839 10.1151C101.252 9.74432 101.727 9.47585 102.264 9.30966C102.801 9.1392 103.366 9.05398 103.958 9.05398C104.35 9.05398 104.766 9.10085 105.205 9.1946C105.648 9.28409 106.061 9.45028 106.445 9.69318C106.832 9.93608 107.15 10.2834 107.397 10.7351C107.644 11.1825 107.768 11.7642 107.768 12.4801V19H105.901V17.6577H105.825C105.701 17.9048 105.516 18.1477 105.269 18.3864C105.021 18.625 104.704 18.8232 104.316 18.9808C103.928 19.1385 103.464 19.2173 102.923 19.2173ZM103.338 17.6832C103.867 17.6832 104.318 17.5788 104.693 17.37C105.073 17.1612 105.36 16.8885 105.556 16.5518C105.756 16.2109 105.857 15.8466 105.857 15.4588V14.1932C105.788 14.2614 105.656 14.3253 105.46 14.3849C105.269 14.4403 105.049 14.4893 104.802 14.532C104.555 14.5703 104.314 14.6065 104.08 14.6406C103.845 14.6705 103.649 14.696 103.492 14.7173C103.121 14.7642 102.782 14.843 102.475 14.9538C102.173 15.0646 101.93 15.2244 101.747 15.4332C101.568 15.6378 101.478 15.9105 101.478 16.2514C101.478 16.7244 101.653 17.0824 102.002 17.3253C102.352 17.5639 102.797 17.6832 103.338 17.6832ZM112.711 5.90909H114.667V15.5227H114.788L121.448 5.90909H123.277V19H121.301V9.39915H121.18L114.532 19H112.711V5.90909ZM123.971 19L123.965 17.3445H124.316C124.589 17.3445 124.817 17.2869 125 17.1719C125.188 17.0526 125.341 16.8523 125.46 16.571C125.58 16.2898 125.671 15.902 125.735 15.4077C125.799 14.9091 125.846 14.2827 125.876 13.5284L126.048 9.18182H132.901V19H131.028V10.831H127.819L127.666 14.1676C127.627 14.9773 127.544 15.6847 127.416 16.2898C127.293 16.8949 127.112 17.3999 126.873 17.8047C126.634 18.2053 126.328 18.5057 125.953 18.706C125.578 18.902 125.122 19 124.585 19H123.971ZM135.628 12.5568H138.479C139.68 12.5568 140.605 12.8551 141.253 13.4517C141.9 14.0483 142.224 14.8175 142.224 15.7592C142.224 16.3729 142.079 16.9247 141.79 17.4148C141.5 17.9048 141.076 18.2926 140.518 18.5781C139.959 18.8594 139.28 19 138.479 19H134.189V9.18182H136.062V17.3509H138.479C139.028 17.3509 139.48 17.2081 139.834 16.9226C140.187 16.6328 140.364 16.2642 140.364 15.8168C140.364 15.3437 140.187 14.9581 139.834 14.6598C139.48 14.3572 139.028 14.206 138.479 14.206H135.628V12.5568ZM148.962 19V10.8118H146.61C146.052 10.8118 145.617 10.9418 145.306 11.2017C144.995 11.4616 144.839 11.8026 144.839 12.2244C144.839 12.642 144.982 12.9787 145.268 13.2344C145.558 13.4858 145.962 13.6115 146.482 13.6115H149.518V15.1584H146.482C145.758 15.1584 145.131 15.0391 144.603 14.8004C144.079 14.5575 143.674 14.2145 143.388 13.7713C143.107 13.3281 142.967 12.804 142.967 12.1989C142.967 11.581 143.111 11.0483 143.401 10.6009C143.695 10.1491 144.115 9.79972 144.66 9.55256C145.21 9.3054 145.86 9.18182 146.61 9.18182H150.758V19H148.962ZM142.519 19L145.287 14.0398H147.243L144.475 19H142.519ZM156.102 13.5668C156.102 11.9645 156.313 10.4901 156.735 9.14347C157.157 7.79687 157.773 6.55469 158.582 5.4169H160.334C160.019 5.83878 159.724 6.35653 159.452 6.97017C159.179 7.58381 158.94 8.2571 158.736 8.99006C158.531 9.71875 158.371 10.4751 158.256 11.2592C158.141 12.0391 158.084 12.8082 158.084 13.5668C158.084 14.581 158.184 15.608 158.384 16.6477C158.585 17.6875 158.855 18.6527 159.196 19.5433C159.537 20.4339 159.916 21.1605 160.334 21.723H158.582C157.773 20.5852 157.157 19.343 156.735 17.9964C156.313 16.6499 156.102 15.1733 156.102 13.5668ZM168.97 22.5604C167.649 22.5604 166.477 22.3793 165.455 22.017C164.436 21.6591 163.578 21.1307 162.879 20.4318C162.18 19.7372 161.649 18.8849 161.287 17.875C160.925 16.8651 160.744 15.7124 160.744 14.4169C160.744 13.1555 160.927 12.022 161.293 11.0163C161.66 10.0107 162.193 9.15412 162.891 8.44673C163.595 7.73508 164.449 7.19176 165.455 6.81676C166.46 6.44176 167.602 6.25426 168.881 6.25426C170.104 6.25426 171.182 6.44602 172.115 6.82955C173.048 7.21307 173.833 7.73935 174.467 8.40838C175.107 9.07741 175.588 9.84446 175.912 10.7095C176.236 11.5746 176.398 12.4886 176.398 13.4517C176.398 14.125 176.355 14.7834 176.27 15.4268C176.185 16.0661 176.027 16.6456 175.797 17.1655C175.571 17.6811 175.243 18.0945 174.813 18.4055C174.387 18.7124 173.833 18.8722 173.151 18.8849C172.789 18.8977 172.437 18.8551 172.096 18.7571C171.755 18.6591 171.465 18.5014 171.227 18.2841C170.988 18.0625 170.843 17.7812 170.792 17.4403H170.715C170.613 17.6918 170.443 17.9261 170.204 18.1435C169.965 18.3565 169.661 18.527 169.29 18.6548C168.923 18.7784 168.497 18.8295 168.012 18.8082C167.475 18.7869 166.991 18.6655 166.561 18.4439C166.13 18.2223 165.762 17.9155 165.455 17.5234C165.152 17.1314 164.92 16.6669 164.758 16.13C164.596 15.593 164.515 14.9964 164.515 14.3402C164.515 13.7095 164.607 13.1449 164.79 12.6463C164.973 12.1435 165.222 11.7109 165.538 11.3487C165.857 10.9822 166.224 10.6925 166.637 10.4794C167.051 10.2663 167.487 10.1321 167.948 10.0767C168.395 10.0256 168.806 10.0384 169.181 10.1151C169.556 10.1918 169.867 10.3089 170.115 10.4666C170.366 10.6243 170.524 10.7969 170.588 10.9844H170.671V10.2685H172.243V16.2003C172.243 16.5369 172.33 16.8224 172.505 17.0568C172.684 17.2912 172.938 17.4084 173.266 17.4084C173.654 17.4084 173.956 17.2656 174.173 16.9801C174.395 16.6946 174.551 16.2557 174.64 15.6634C174.734 15.071 174.781 14.3125 174.781 13.3878C174.781 12.7401 174.693 12.1307 174.519 11.5597C174.348 10.9844 174.095 10.4645 173.758 10C173.426 9.53125 173.016 9.12855 172.531 8.7919C172.045 8.45526 171.491 8.19531 170.869 8.01207C170.251 7.82883 169.567 7.73722 168.817 7.73722C167.798 7.73722 166.893 7.89489 166.1 8.21023C165.308 8.52131 164.639 8.97088 164.093 9.55895C163.552 10.147 163.141 10.8523 162.86 11.6747C162.583 12.4929 162.444 13.4112 162.444 14.4297C162.444 15.4908 162.587 16.4325 162.872 17.255C163.158 18.0732 163.58 18.7635 164.138 19.326C164.696 19.8885 165.387 20.3146 166.209 20.6044C167.031 20.8984 167.98 21.0455 169.053 21.0455C169.531 21.0455 169.999 21.0028 170.46 20.9176C170.92 20.8366 171.329 20.7429 171.687 20.6364C172.049 20.5341 172.32 20.451 172.499 20.3871L172.946 21.7869C172.682 21.9105 172.33 22.032 171.891 22.1513C171.457 22.2706 170.984 22.3686 170.472 22.4453C169.965 22.522 169.465 22.5604 168.97 22.5604ZM168.382 17.2422C168.936 17.2422 169.382 17.1314 169.718 16.9098C170.059 16.6882 170.304 16.358 170.453 15.919C170.607 15.4759 170.683 14.9219 170.683 14.2571C170.679 13.6094 170.596 13.0937 170.434 12.7102C170.276 12.3224 170.029 12.0455 169.693 11.8793C169.36 11.7088 168.932 11.6236 168.408 11.6236C167.926 11.6236 167.515 11.7408 167.174 11.9751C166.838 12.2095 166.58 12.527 166.401 12.9276C166.226 13.3281 166.137 13.7734 166.132 14.2635C166.137 14.7791 166.209 15.2649 166.35 15.7209C166.494 16.1726 166.729 16.5391 167.053 16.8203C167.381 17.1016 167.824 17.2422 168.382 17.2422ZM177.249 19V9.18182H179.16V19H177.249ZM178.214 7.6669C177.882 7.6669 177.596 7.55611 177.358 7.33452C177.123 7.10866 177.006 6.8402 177.006 6.52912C177.006 6.21378 177.123 5.94531 177.358 5.72372C177.596 5.49787 177.882 5.38494 178.214 5.38494C178.546 5.38494 178.83 5.49787 179.064 5.72372C179.303 5.94531 179.422 6.21378 179.422 6.52912C179.422 6.8402 179.303 7.10866 179.064 7.33452C178.83 7.55611 178.546 7.6669 178.214 7.6669ZM182.383 5.90909V19H180.471V5.90909H182.383ZM189.913 14.9283V9.18182H191.831V19H189.952V17.2997H189.849C189.623 17.8239 189.261 18.2607 188.763 18.6101C188.268 18.9553 187.653 19.1278 186.915 19.1278C186.285 19.1278 185.726 18.9893 185.241 18.7124C184.759 18.4311 184.38 18.0156 184.103 17.4659C183.83 16.9162 183.694 16.2365 183.694 15.4268V9.18182H185.605V15.1967C185.605 15.8658 185.79 16.3984 186.161 16.7947C186.532 17.1911 187.013 17.3892 187.606 17.3892C187.964 17.3892 188.319 17.2997 188.673 17.1207C189.031 16.9418 189.327 16.6712 189.562 16.3089C189.8 15.9467 189.917 15.4865 189.913 14.9283ZM200.496 11.5788L198.764 11.8857C198.691 11.6641 198.576 11.4531 198.419 11.2528C198.265 11.0526 198.056 10.8885 197.792 10.7607C197.528 10.6328 197.198 10.5689 196.801 10.5689C196.26 10.5689 195.809 10.6903 195.446 10.9332C195.084 11.1719 194.903 11.4808 194.903 11.8601C194.903 12.1882 195.024 12.4524 195.267 12.6527C195.51 12.853 195.902 13.017 196.443 13.1449L198.003 13.5028C198.907 13.7116 199.58 14.0334 200.023 14.468C200.466 14.9027 200.688 15.4673 200.688 16.1619C200.688 16.75 200.517 17.2741 200.176 17.7344C199.84 18.1903 199.369 18.5483 198.764 18.8082C198.163 19.0682 197.466 19.1982 196.674 19.1982C195.574 19.1982 194.677 18.9638 193.983 18.495C193.288 18.022 192.862 17.3509 192.704 16.4815L194.551 16.2003C194.666 16.6818 194.903 17.0462 195.261 17.2933C195.619 17.5362 196.086 17.6577 196.661 17.6577C197.287 17.6577 197.788 17.5277 198.163 17.2678C198.538 17.0036 198.725 16.6818 198.725 16.3026C198.725 15.9957 198.61 15.7379 198.38 15.5291C198.154 15.3203 197.807 15.1626 197.338 15.0561L195.676 14.6918C194.76 14.483 194.083 14.1506 193.644 13.6946C193.209 13.2386 192.992 12.6612 192.992 11.9624C192.992 11.3828 193.154 10.8757 193.478 10.4411C193.801 10.0064 194.249 9.66761 194.82 9.42472C195.391 9.17756 196.045 9.05398 196.782 9.05398C197.843 9.05398 198.679 9.28409 199.288 9.74432C199.897 10.2003 200.3 10.8118 200.496 11.5788ZM203.44 13.1705V19H201.529V5.90909H203.415V10.7798H203.536C203.766 10.2514 204.118 9.83168 204.591 9.5206C205.064 9.20952 205.682 9.05398 206.445 9.05398C207.118 9.05398 207.706 9.19247 208.209 9.46946C208.716 9.74645 209.108 10.1598 209.385 10.7095C209.666 11.255 209.807 11.9368 209.807 12.755V19H207.896V12.9851C207.896 12.2649 207.71 11.7067 207.34 11.3104C206.969 10.9098 206.453 10.7095 205.793 10.7095C205.341 10.7095 204.936 10.8054 204.578 10.9972C204.224 11.1889 203.945 11.4702 203.741 11.8409C203.541 12.2074 203.44 12.6506 203.44 13.1705ZM213.009 13.1705V19H211.097V5.90909H212.983V10.7798H213.104C213.335 10.2514 213.686 9.83168 214.159 9.5206C214.632 9.20952 215.25 9.05398 216.013 9.05398C216.686 9.05398 217.274 9.19247 217.777 9.46946C218.284 9.74645 218.676 10.1598 218.953 10.7095C219.234 11.255 219.375 11.9368 219.375 12.755V19H217.464V12.9851C217.464 12.2649 217.278 11.7067 216.908 11.3104C216.537 10.9098 216.021 10.7095 215.361 10.7095C214.909 10.7095 214.504 10.8054 214.146 10.9972C213.793 11.1889 213.513 11.4702 213.309 11.8409C213.109 12.2074 213.009 12.6506 213.009 13.1705ZM223.523 19.2173C222.901 19.2173 222.338 19.1023 221.835 18.8722C221.332 18.6378 220.934 18.299 220.64 17.8558C220.35 17.4126 220.205 16.8693 220.205 16.2259C220.205 15.6719 220.312 15.2159 220.525 14.858C220.738 14.5 221.026 14.2166 221.388 14.0078C221.75 13.799 222.155 13.6413 222.602 13.5348C223.05 13.4283 223.506 13.3473 223.97 13.2919C224.558 13.2237 225.035 13.1683 225.402 13.1257C225.768 13.0788 226.035 13.0043 226.201 12.902C226.367 12.7997 226.45 12.6335 226.45 12.4034V12.3587C226.45 11.8004 226.293 11.3679 225.977 11.0611C225.666 10.7543 225.202 10.6009 224.584 10.6009C223.94 10.6009 223.433 10.7436 223.062 11.0291C222.696 11.3104 222.442 11.6236 222.302 11.9688L220.506 11.5597C220.719 10.9631 221.03 10.4815 221.439 10.1151C221.852 9.74432 222.327 9.47585 222.864 9.30966C223.401 9.1392 223.966 9.05398 224.558 9.05398C224.95 9.05398 225.366 9.10085 225.805 9.1946C226.248 9.28409 226.661 9.45028 227.045 9.69318C227.432 9.93608 227.75 10.2834 227.997 10.7351C228.244 11.1825 228.368 11.7642 228.368 12.4801V19H226.501V17.6577H226.425C226.301 17.9048 226.116 18.1477 225.869 18.3864C225.621 18.625 225.304 18.8232 224.916 18.9808C224.528 19.1385 224.064 19.2173 223.523 19.2173ZM223.938 17.6832C224.467 17.6832 224.918 17.5788 225.293 17.37C225.673 17.1612 225.96 16.8885 226.156 16.5518C226.356 16.2109 226.457 15.8466 226.457 15.4588V14.1932C226.388 14.2614 226.256 14.3253 226.06 14.3849C225.869 14.4403 225.649 14.4893 225.402 14.532C225.155 14.5703 224.914 14.6065 224.68 14.6406C224.445 14.6705 224.249 14.696 224.092 14.7173C223.721 14.7642 223.382 14.843 223.075 14.9538C222.773 15.0646 222.53 15.2244 222.347 15.4332C222.168 15.6378 222.078 15.9105 222.078 16.2514C222.078 16.7244 222.253 17.0824 222.602 17.3253C222.952 17.5639 223.397 17.6832 223.938 17.6832ZM233.329 13.5668C233.329 15.1733 233.118 16.6499 232.696 17.9964C232.274 19.343 231.658 20.5852 230.849 21.723H229.097C229.413 21.3011 229.707 20.7834 229.979 20.1697C230.252 19.5561 230.491 18.8849 230.695 18.1562C230.9 17.4233 231.06 16.6648 231.175 15.8807C231.29 15.0966 231.347 14.3253 231.347 13.5668C231.347 12.5568 231.247 11.532 231.047 10.4922C230.847 9.45241 230.576 8.48722 230.235 7.59659C229.894 6.70597 229.515 5.9794 229.097 5.4169H230.849C231.658 6.55469 232.274 7.79687 232.696 9.14347C233.118 10.4901 233.329 11.9645 233.329 13.5668ZM237.683 17.2102L237.587 17.907C237.523 18.4183 237.414 18.951 237.261 19.505C237.112 20.0632 236.956 20.581 236.794 21.0582C236.637 21.5355 236.507 21.9148 236.404 22.196H235.049C235.105 21.9318 235.181 21.5739 235.279 21.1222C235.377 20.6747 235.473 20.174 235.567 19.62C235.661 19.0661 235.731 18.5014 235.778 17.9261L235.842 17.2102H237.683ZM242.568 19V5.90909H244.543V11.598H251.069V5.90909H253.051V19H251.069V13.2919H244.543V19H242.568ZM256.387 16.3217L260.714 9.18182H262.772V19H260.9V11.8537L256.591 19H254.514V9.18182H256.387V16.3217ZM264.082 19V9.18182H265.993V13.2983H266.914L270.154 9.18182H272.519L268.716 13.9567L272.564 19H270.193L267.233 15.0753H265.993V19H264.082ZM274.662 16.3217L278.989 9.18182H281.047V19H279.174V11.8537L274.866 19H272.789V9.18182H274.662V16.3217ZM281.139 10.831V9.18182H289.423V10.831H286.221V19H284.354V10.831H281.139ZM292.585 19.2173C291.963 19.2173 291.4 19.1023 290.898 18.8722C290.395 18.6378 289.996 18.299 289.702 17.8558C289.412 17.4126 289.268 16.8693 289.268 16.2259C289.268 15.6719 289.374 15.2159 289.587 14.858C289.8 14.5 290.088 14.2166 290.45 14.0078C290.812 13.799 291.217 13.6413 291.665 13.5348C292.112 13.4283 292.568 13.3473 293.032 13.2919C293.621 13.2237 294.098 13.1683 294.464 13.1257C294.831 13.0788 295.097 13.0043 295.263 12.902C295.429 12.7997 295.513 12.6335 295.513 12.4034V12.3587C295.513 11.8004 295.355 11.3679 295.04 11.0611C294.728 10.7543 294.264 10.6009 293.646 10.6009C293.003 10.6009 292.496 10.7436 292.125 11.0291C291.758 11.3104 291.505 11.6236 291.364 11.9688L289.568 11.5597C289.781 10.9631 290.092 10.4815 290.501 10.1151C290.915 9.74432 291.39 9.47585 291.927 9.30966C292.464 9.1392 293.028 9.05398 293.621 9.05398C294.013 9.05398 294.428 9.10085 294.867 9.1946C295.31 9.28409 295.724 9.45028 296.107 9.69318C296.495 9.93608 296.812 10.2834 297.059 10.7351C297.307 11.1825 297.43 11.7642 297.43 12.4801V19H295.564V17.6577H295.487C295.363 17.9048 295.178 18.1477 294.931 18.3864C294.684 18.625 294.366 18.8232 293.978 18.9808C293.591 19.1385 293.126 19.2173 292.585 19.2173ZM293 17.6832C293.529 17.6832 293.981 17.5788 294.356 17.37C294.735 17.1612 295.023 16.8885 295.219 16.5518C295.419 16.2109 295.519 15.8466 295.519 15.4588V14.1932C295.451 14.2614 295.319 14.3253 295.123 14.3849C294.931 14.4403 294.711 14.4893 294.464 14.532C294.217 14.5703 293.976 14.6065 293.742 14.6406C293.508 14.6705 293.312 14.696 293.154 14.7173C292.783 14.7642 292.444 14.843 292.138 14.9538C291.835 15.0646 291.592 15.2244 291.409 15.4332C291.23 15.6378 291.14 15.9105 291.14 16.2514C291.14 16.7244 291.315 17.0824 291.665 17.3253C292.014 17.5639 292.459 17.6832 293 17.6832ZM302.776 13.5668C302.776 11.9645 302.987 10.4901 303.408 9.14347C303.83 7.79687 304.446 6.55469 305.256 5.4169H307.007C306.692 5.83878 306.398 6.35653 306.125 6.97017C305.852 7.58381 305.614 8.2571 305.409 8.99006C305.205 9.71875 305.045 10.4751 304.93 11.2592C304.815 12.0391 304.757 12.8082 304.757 13.5668C304.757 14.581 304.857 15.608 305.058 16.6477C305.258 17.6875 305.528 18.6527 305.869 19.5433C306.21 20.4339 306.59 21.1605 307.007 21.723H305.256C304.446 20.5852 303.83 19.343 303.408 17.9964C302.987 16.6499 302.776 15.1733 302.776 13.5668ZM315.644 22.5604C314.323 22.5604 313.151 22.3793 312.128 22.017C311.11 21.6591 310.251 21.1307 309.552 20.4318C308.853 19.7372 308.323 18.8849 307.96 17.875C307.598 16.8651 307.417 15.7124 307.417 14.4169C307.417 13.1555 307.6 12.022 307.967 11.0163C308.333 10.0107 308.866 9.15412 309.565 8.44673C310.268 7.73508 311.122 7.19176 312.128 6.81676C313.134 6.44176 314.276 6.25426 315.554 6.25426C316.777 6.25426 317.855 6.44602 318.788 6.82955C319.722 7.21307 320.506 7.73935 321.141 8.40838C321.78 9.07741 322.262 9.84446 322.585 10.7095C322.909 11.5746 323.071 12.4886 323.071 13.4517C323.071 14.125 323.029 14.7834 322.943 15.4268C322.858 16.0661 322.7 16.6456 322.47 17.1655C322.244 17.6811 321.916 18.0945 321.486 18.4055C321.06 18.7124 320.506 18.8722 319.824 18.8849C319.462 18.8977 319.11 18.8551 318.769 18.7571C318.428 18.6591 318.139 18.5014 317.9 18.2841C317.661 18.0625 317.516 17.7812 317.465 17.4403H317.389C317.286 17.6918 317.116 17.9261 316.877 18.1435C316.639 18.3565 316.334 18.527 315.963 18.6548C315.597 18.7784 315.171 18.8295 314.685 18.8082C314.148 18.7869 313.664 18.6655 313.234 18.4439C312.803 18.2223 312.435 17.9155 312.128 17.5234C311.825 17.1314 311.593 16.6669 311.431 16.13C311.269 15.593 311.188 14.9964 311.188 14.3402C311.188 13.7095 311.28 13.1449 311.463 12.6463C311.646 12.1435 311.896 11.7109 312.211 11.3487C312.531 10.9822 312.897 10.6925 313.311 10.4794C313.724 10.2663 314.161 10.1321 314.621 10.0767C315.068 10.0256 315.48 10.0384 315.855 10.1151C316.23 10.1918 316.541 10.3089 316.788 10.4666C317.039 10.6243 317.197 10.7969 317.261 10.9844H317.344V10.2685H318.916V16.2003C318.916 16.5369 319.004 16.8224 319.178 17.0568C319.357 17.2912 319.611 17.4084 319.939 17.4084C320.327 17.4084 320.629 17.2656 320.847 16.9801C321.068 16.6946 321.224 16.2557 321.313 15.6634C321.407 15.071 321.454 14.3125 321.454 13.3878C321.454 12.7401 321.367 12.1307 321.192 11.5597C321.021 10.9844 320.768 10.4645 320.431 10C320.099 9.53125 319.69 9.12855 319.204 8.7919C318.718 8.45526 318.164 8.19531 317.542 8.01207C316.924 7.82883 316.24 7.73722 315.49 7.73722C314.472 7.73722 313.566 7.89489 312.774 8.21023C311.981 8.52131 311.312 8.97088 310.766 9.55895C310.225 10.147 309.814 10.8523 309.533 11.6747C309.256 12.4929 309.117 13.4112 309.117 14.4297C309.117 15.4908 309.26 16.4325 309.546 17.255C309.831 18.0732 310.253 18.7635 310.811 19.326C311.369 19.8885 312.06 20.3146 312.882 20.6044C313.705 20.8984 314.653 21.0455 315.727 21.0455C316.204 21.0455 316.673 21.0028 317.133 20.9176C317.593 20.8366 318.002 20.7429 318.36 20.6364C318.722 20.5341 318.993 20.451 319.172 20.3871L319.619 21.7869C319.355 21.9105 319.004 22.032 318.565 22.1513C318.13 22.2706 317.657 22.3686 317.146 22.4453C316.639 22.522 316.138 22.5604 315.644 22.5604ZM315.056 17.2422C315.61 17.2422 316.055 17.1314 316.391 16.9098C316.732 16.6882 316.977 16.358 317.127 15.919C317.28 15.4759 317.357 14.9219 317.357 14.2571C317.352 13.6094 317.269 13.0937 317.107 12.7102C316.95 12.3224 316.703 12.0455 316.366 11.8793C316.034 11.7088 315.605 11.6236 315.081 11.6236C314.6 11.6236 314.188 11.7408 313.847 11.9751C313.511 12.2095 313.253 12.527 313.074 12.9276C312.899 13.3281 312.81 13.7734 312.806 14.2635C312.81 14.7791 312.882 15.2649 313.023 15.7209C313.168 16.1726 313.402 16.5391 313.726 16.8203C314.054 17.1016 314.497 17.2422 315.056 17.2422ZM325.833 13.1705V19H323.922V9.18182H325.757V10.7798H325.878C326.104 10.2599 326.458 9.84233 326.939 9.52699C327.425 9.21165 328.036 9.05398 328.774 9.05398C329.443 9.05398 330.029 9.1946 330.532 9.47585C331.034 9.75284 331.424 10.1662 331.701 10.7159C331.978 11.2656 332.117 11.9453 332.117 12.755V19H330.206V12.9851C330.206 12.2734 330.02 11.7173 329.649 11.3168C329.279 10.9119 328.769 10.7095 328.122 10.7095C327.679 10.7095 327.284 10.8054 326.939 10.9972C326.598 11.1889 326.328 11.4702 326.127 11.8409C325.931 12.2074 325.833 12.6506 325.833 13.1705ZM333.42 19V9.18182H335.331V19H333.42ZM334.385 7.6669C334.053 7.6669 333.767 7.55611 333.529 7.33452C333.294 7.10866 333.177 6.8402 333.177 6.52912C333.177 6.21378 333.294 5.94531 333.529 5.72372C333.767 5.49787 334.053 5.38494 334.385 5.38494C334.718 5.38494 335.001 5.49787 335.235 5.72372C335.474 5.94531 335.593 6.21378 335.593 6.52912C335.593 6.8402 335.474 7.10866 335.235 7.33452C335.001 7.55611 334.718 7.6669 334.385 7.6669ZM338.151 9.18182L340.318 13.0043L342.504 9.18182H344.594L341.532 14.0909L344.62 19H342.529L340.318 15.331L338.113 19H336.016L339.071 14.0909L336.054 9.18182H338.151ZM348.972 13.5668C348.972 15.1733 348.761 16.6499 348.339 17.9964C347.917 19.343 347.301 20.5852 346.492 21.723H344.74C345.056 21.3011 345.35 20.7834 345.622 20.1697C345.895 19.5561 346.134 18.8849 346.338 18.1562C346.543 17.4233 346.703 16.6648 346.818 15.8807C346.933 15.0966 346.99 14.3253 346.99 13.5668C346.99 12.5568 346.89 11.532 346.69 10.4922C346.49 9.45241 346.219 8.48722 345.878 7.59659C345.537 6.70597 345.158 5.9794 344.74 5.4169H346.492C347.301 6.55469 347.917 7.79687 348.339 9.14347C348.761 10.4901 348.972 11.9645 348.972 13.5668ZM353.326 17.2102L353.23 17.907C353.166 18.4183 353.057 18.951 352.904 19.505C352.755 20.0632 352.599 20.581 352.437 21.0582C352.28 21.5355 352.15 21.9148 352.047 22.196H350.692C350.748 21.9318 350.824 21.5739 350.922 21.1222C351.02 20.6747 351.116 20.174 351.21 19.62C351.304 19.0661 351.374 18.5014 351.421 17.9261L351.485 17.2102H353.326ZM357.853 19V17.6896L363.171 10.9332V10.8438H358.025V9.18182H365.555V10.5753L360.442 17.2486V17.3381H365.734V19H357.853ZM368.64 13.1705V19H366.729V5.90909H368.615V10.7798H368.736C368.966 10.2514 369.318 9.83168 369.791 9.5206C370.264 9.20952 370.882 9.05398 371.645 9.05398C372.318 9.05398 372.906 9.19247 373.409 9.46946C373.916 9.74645 374.308 10.1598 374.585 10.7095C374.866 11.255 375.007 11.9368 375.007 12.755V19H373.096V12.9851C373.096 12.2649 372.91 11.7067 372.539 11.3104C372.169 10.9098 371.653 10.7095 370.993 10.7095C370.541 10.7095 370.136 10.8054 369.778 10.9972C369.424 11.1889 369.145 11.4702 368.941 11.8409C368.74 12.2074 368.64 12.6506 368.64 13.1705ZM380.829 19.179C379.951 19.179 379.167 19.0277 378.477 18.7251C377.791 18.4226 377.248 18.0028 376.847 17.4659C376.451 16.9247 376.238 16.2983 376.208 15.5866H378.215C378.24 15.9744 378.37 16.3111 378.605 16.5966C378.843 16.8778 379.154 17.0952 379.538 17.2486C379.922 17.402 380.348 17.4787 380.816 17.4787C381.332 17.4787 381.788 17.3892 382.184 17.2102C382.585 17.0312 382.898 16.782 383.124 16.4624C383.35 16.1385 383.463 15.7656 383.463 15.3438C383.463 14.9048 383.35 14.5192 383.124 14.1868C382.902 13.8501 382.576 13.5859 382.146 13.3942C381.72 13.2024 381.204 13.1065 380.599 13.1065H379.493V11.4957H380.599C381.085 11.4957 381.511 11.4084 381.877 11.2337C382.248 11.0589 382.538 10.8161 382.747 10.505C382.956 10.1896 383.06 9.82102 383.06 9.39915C383.06 8.99432 382.968 8.64276 382.785 8.34446C382.606 8.0419 382.35 7.8054 382.018 7.63494C381.69 7.46449 381.302 7.37926 380.855 7.37926C380.429 7.37926 380.03 7.4581 379.659 7.61577C379.293 7.76918 378.995 7.99077 378.765 8.28054C378.534 8.56605 378.411 8.90909 378.394 9.30966H376.483C376.504 8.60227 376.713 7.98011 377.109 7.44318C377.51 6.90625 378.038 6.48651 378.694 6.18395C379.35 5.88139 380.079 5.73011 380.88 5.73011C381.72 5.73011 382.444 5.89418 383.054 6.2223C383.667 6.54616 384.14 6.97869 384.473 7.51989C384.809 8.06108 384.975 8.65341 384.971 9.29688C384.975 10.0298 384.771 10.652 384.358 11.1634C383.949 11.6747 383.403 12.0178 382.721 12.1925V12.2947C383.591 12.4268 384.264 12.772 384.741 13.3303C385.223 13.8885 385.461 14.581 385.457 15.4077C385.461 16.1278 385.261 16.7734 384.856 17.3445C384.456 17.9155 383.908 18.3651 383.213 18.6932C382.519 19.017 381.724 19.179 380.829 19.179ZM388.55 5.90909V19H386.639V5.90909H388.55ZM391.772 5.90909V19H389.861V5.90909H391.772ZM394.292 22.6818C394.006 22.6818 393.746 22.6584 393.512 22.6115C393.278 22.5689 393.103 22.522 392.988 22.4709L393.448 20.9048C393.797 20.9986 394.108 21.0391 394.381 21.0263C394.654 21.0135 394.895 20.9112 395.104 20.7195C395.317 20.5277 395.504 20.2145 395.666 19.7798L395.903 19.1278L392.31 9.18182H394.356L396.842 16.8011H396.944L399.431 9.18182H401.483L397.437 20.3104C397.249 20.8217 397.01 21.2543 396.721 21.608C396.431 21.9659 396.086 22.2344 395.685 22.4134C395.285 22.5923 394.82 22.6818 394.292 22.6818Z" fill="white" fill-opacity="0.5"/>
<path d="M443.058 7.83636V17H441.411V9.21449H437.402V17H435.756V7.83636H443.058ZM447.088 17.1342C446.417 17.1342 445.835 16.9866 445.343 16.6913C444.851 16.396 444.469 15.9828 444.197 15.4518C443.929 14.9209 443.795 14.3004 443.795 13.5905C443.795 12.8805 443.929 12.2586 444.197 11.7246C444.469 11.1907 444.851 10.7761 445.343 10.4808C445.835 10.1854 446.417 10.0378 447.088 10.0378C447.759 10.0378 448.341 10.1854 448.833 10.4808C449.325 10.7761 449.705 11.1907 449.974 11.7246C450.245 12.2586 450.381 12.8805 450.381 13.5905C450.381 14.3004 450.245 14.9209 449.974 15.4518C449.705 15.9828 449.325 16.396 448.833 16.6913C448.341 16.9866 447.759 17.1342 447.088 17.1342ZM447.097 15.8366C447.461 15.8366 447.765 15.7367 448.009 15.5369C448.254 15.334 448.436 15.0626 448.555 14.7225C448.678 14.3825 448.739 14.0036 448.739 13.586C448.739 13.1654 448.678 12.7851 448.555 12.445C448.436 12.102 448.254 11.829 448.009 11.6262C447.765 11.4234 447.461 11.3219 447.097 11.3219C446.724 11.3219 446.414 11.4234 446.166 11.6262C445.921 11.829 445.738 12.102 445.616 12.445C445.496 12.7851 445.437 13.1654 445.437 13.586C445.437 14.0036 445.496 14.3825 445.616 14.7225C445.738 15.0626 445.921 15.334 446.166 15.5369C446.414 15.7367 446.724 15.8366 447.097 15.8366ZM450.265 18.9956V15.6666H450.811C450.957 15.5533 451.079 15.3996 451.178 15.2058C451.276 15.0089 451.357 14.7777 451.42 14.5122C451.485 14.2437 451.539 13.944 451.581 13.6129C451.622 13.2788 451.66 12.9193 451.692 12.5345L451.889 10.1273H456.856V15.6666H457.921V18.9956H456.355V17H451.858V18.9956H450.265ZM452.476 15.6666H455.308V11.4338H453.294L453.187 12.5345C453.127 13.2624 453.048 13.8858 452.95 14.4048C452.851 14.9239 452.693 15.3445 452.476 15.6666ZM457.64 18.9956V15.6666H458.185C458.332 15.5533 458.454 15.3996 458.552 15.2058C458.651 15.0089 458.731 14.7777 458.794 14.5122C458.86 14.2437 458.913 13.944 458.955 13.6129C458.997 13.2788 459.034 12.9193 459.067 12.5345L459.264 10.1273H464.23V15.6666H465.295V18.9956H463.729V17H459.232V18.9956H457.64ZM459.85 15.6666H462.682V11.4338H460.669L460.561 12.5345C460.502 13.2624 460.423 13.8858 460.324 14.4048C460.226 14.9239 460.068 15.3445 459.85 15.6666ZM468.665 17.1342C467.976 17.1342 467.381 16.9911 466.88 16.7047C466.382 16.4153 465.998 16.0067 465.73 15.4787C465.461 14.9477 465.327 14.3228 465.327 13.6039C465.327 12.8969 465.461 12.2765 465.73 11.7425C466.001 11.2056 466.38 10.788 466.866 10.4897C467.353 10.1884 467.924 10.0378 468.58 10.0378C469.004 10.0378 469.403 10.1064 469.779 10.2436C470.158 10.3778 470.492 10.5866 470.782 10.87C471.074 11.1534 471.304 11.5143 471.471 11.9528C471.638 12.3884 471.721 12.9074 471.721 13.5099V14.0066H466.088V12.9148H470.169C470.166 12.6046 470.098 12.3287 469.967 12.0871C469.836 11.8425 469.653 11.6501 469.417 11.5099C469.184 11.3697 468.913 11.2996 468.603 11.2996C468.271 11.2996 467.981 11.3801 467.73 11.5412C467.479 11.6993 467.284 11.9081 467.144 12.1676C467.007 12.4241 466.937 12.706 466.934 13.0133V13.9663C466.934 14.3661 467.007 14.7091 467.153 14.9955C467.299 15.2788 467.503 15.4966 467.766 15.6487C468.028 15.7979 468.336 15.8724 468.688 15.8724C468.923 15.8724 469.136 15.8396 469.327 15.774C469.518 15.7054 469.684 15.6055 469.824 15.4742C469.964 15.343 470.07 15.1804 470.142 14.9865L471.654 15.1565C471.559 15.5562 471.377 15.9053 471.108 16.2036C470.843 16.4989 470.503 16.7286 470.088 16.8926C469.673 17.0537 469.199 17.1342 468.665 17.1342ZM472.21 19.5773V10.1273H473.802V11.2638H473.896C473.98 11.0967 474.098 10.9192 474.25 10.7313C474.402 10.5404 474.608 10.3778 474.867 10.2436C475.127 10.1064 475.458 10.0378 475.861 10.0378C476.392 10.0378 476.87 10.1735 477.297 10.445C477.726 10.7134 478.067 11.1116 478.317 11.6396C478.571 12.1646 478.697 12.8089 478.697 13.5726C478.697 14.3273 478.574 14.9686 478.326 15.4966C478.078 16.0246 477.741 16.4273 477.315 16.7047C476.888 16.9821 476.405 17.1208 475.865 17.1208C475.471 17.1208 475.145 17.0552 474.885 16.9239C474.626 16.7927 474.417 16.6346 474.259 16.4496C474.104 16.2617 473.983 16.0842 473.896 15.9172H473.829V19.5773H472.21ZM473.798 13.5636C473.798 14.0081 473.861 14.3974 473.986 14.7315C474.114 15.0656 474.298 15.3266 474.536 15.5145C474.778 15.6994 475.07 15.7919 475.413 15.7919C475.771 15.7919 476.071 15.6964 476.313 15.5055C476.554 15.3116 476.736 15.0477 476.858 14.7136C476.984 14.3765 477.046 13.9932 477.046 13.5636C477.046 13.1371 476.985 12.7582 476.863 12.4271C476.741 12.096 476.559 11.8365 476.317 11.6486C476.075 11.4607 475.774 11.3667 475.413 11.3667C475.067 11.3667 474.773 11.4577 474.532 11.6396C474.29 11.8216 474.107 12.0766 473.981 12.4048C473.859 12.7329 473.798 13.1192 473.798 13.5636ZM478.497 17L481.034 13.4518L478.519 10.1273H480.389L482.345 12.8969H482.729V10.1273H484.349V12.8969H484.725L486.68 10.1273H488.551L486.05 13.4518L488.573 17H486.663L484.707 14.2259H484.349V17H482.729V14.2259H482.372L480.407 17H478.497ZM490.856 17.1387C490.42 17.1387 490.028 17.0612 489.679 16.906C489.333 16.7479 489.058 16.5153 488.856 16.208C488.656 15.9008 488.556 15.5219 488.556 15.0715C488.556 14.6837 488.627 14.3631 488.771 14.1095C488.914 13.856 489.109 13.6531 489.357 13.501C489.604 13.3489 489.883 13.234 490.193 13.1565C490.507 13.0759 490.83 13.0178 491.164 12.982C491.567 12.9402 491.894 12.9029 492.144 12.8701C492.395 12.8343 492.577 12.7806 492.69 12.709C492.806 12.6344 492.865 12.5196 492.865 12.3645V12.3376C492.865 12.0006 492.765 11.7396 492.565 11.5546C492.365 11.3697 492.077 11.2772 491.701 11.2772C491.305 11.2772 490.99 11.3637 490.757 11.5367C490.528 11.7097 490.372 11.9141 490.292 12.1497L488.779 11.9349C488.899 11.5173 489.096 11.1683 489.37 10.8879C489.645 10.6045 489.98 10.3928 490.377 10.2526C490.774 10.1094 491.212 10.0378 491.692 10.0378C492.023 10.0378 492.353 10.0766 492.681 10.1541C493.009 10.2317 493.309 10.3599 493.581 10.5389C493.852 10.7149 494.07 10.955 494.234 11.2593C494.401 11.5636 494.484 11.9439 494.484 12.4003V17H492.927V16.0559H492.874C492.775 16.2468 492.636 16.4258 492.457 16.5928C492.281 16.7569 492.059 16.8896 491.791 16.9911C491.525 17.0895 491.214 17.1387 490.856 17.1387ZM491.276 15.9485C491.601 15.9485 491.883 15.8844 492.122 15.7561C492.361 15.6249 492.544 15.4518 492.672 15.2371C492.803 15.0223 492.869 14.7881 492.869 14.5346V13.7247C492.818 13.7665 492.732 13.8053 492.61 13.8411C492.49 13.8768 492.356 13.9082 492.207 13.935C492.058 13.9619 491.91 13.9857 491.764 14.0066C491.618 14.0275 491.491 14.0454 491.384 14.0603C491.142 14.0931 490.926 14.1468 490.735 14.2214C490.544 14.296 490.393 14.4004 490.283 14.5346C490.173 14.6658 490.117 14.8359 490.117 15.0447C490.117 15.343 490.226 15.5682 490.444 15.7203C490.662 15.8724 490.939 15.9485 491.276 15.9485ZM494.461 11.4562V10.1273H500.475V11.4562H498.251V17H496.685V11.4562H494.461ZM501.979 12.3645H504.006C504.883 12.3645 505.562 12.5778 506.042 13.0043C506.522 13.4309 506.764 13.9902 506.767 14.6822C506.764 15.1327 506.653 15.5324 506.436 15.8814C506.221 16.2304 505.908 16.5048 505.496 16.7047C505.087 16.9016 504.591 17 504.006 17H500.883V10.1273H502.444V15.6711H504.006C504.358 15.6711 504.647 15.5816 504.874 15.4026C505.101 15.2207 505.214 14.988 505.214 14.7046C505.214 14.4063 505.101 14.1632 504.874 13.9753C504.647 13.7874 504.358 13.6934 504.006 13.6934H501.979V12.3645Z" fill="white"/>
<rect x="420" width="102" height="25" rx="6" fill="white" fill-opacity="0.2"/>
</svg>
